<?xml version="1.0" encoding="UTF-8" standalone="no"?>
<svg
   height="40px"
   viewBox="0 -960 960 960"
   width="40px"
   fill="#000000"
   version="1.1"
   id="svg1"
   sodipodi:docname="iconLayoutRight_toast_32dp_000000_FILL0_wght400_GRAD0_opsz40.svg"
   inkscape:version="1.4 (86a8ad7, 2024-10-11)"
   xmlns:inkscape="http://www.inkscape.org/namespaces/inkscape"
   xmlns:sodipodi="http://sodipodi.sourceforge.net/DTD/sodipodi-0.dtd"
   xmlns="http://www.w3.org/2000/svg"
   xmlns:svg="http://www.w3.org/2000/svg">
  <defs
     id="defs1" />
  <sodipodi:namedview
     id="namedview1"
     pagecolor="#ffffff"
     bordercolor="#000000"
     borderopacity="0.25"
     inkscape:showpageshadow="2"
     inkscape:pageopacity="0.0"
     inkscape:pagecheckerboard="0"
     inkscape:deskcolor="#d1d1d1"
     inkscape:zoom="30.425"
     inkscape:cx="19.983566"
     inkscape:cy="20"
     inkscape:window-width="2560"
     inkscape:window-height="1494"
     inkscape:window-x="-11"
     inkscape:window-y="-11"
     inkscape:window-maximized="1"
     inkscape:current-layer="svg1" />
  <path
     d="m 720,-273.33 v -413.34 q 0,-14.16 -9.62,-23.75 -9.61,-9.58 -23.83,-9.58 -14.22,0 -23.72,9.58 -9.5,9.59 -9.5,23.75 v 413.34 q 0,14.16 9.62,23.75 9.62,9.58 23.83,9.58 14.22,0 23.72,-9.58 9.5,-9.59 9.5,-23.75 z m 120,86.66 q 0,27 -19.83,46.84 Q 800.33,-120 773.33,-120 H 186.67 q -27,0 -46.84,-19.83 Q 120,-159.67 120,-186.67 v -586.66 q 0,-27 19.83,-46.84 19.84,-19.83 46.84,-19.83 h 586.66 q 27,0 46.84,19.83 19.83,19.84 19.83,46.84 z m -66.67,0 V -773.33 H 186.67 v 586.66 z m -586.66,0 h 586.66 z"
     id="path1" />
</svg>
