<svg version="1.1" viewBox="0 0 24 24" xmlns="http://www.w3.org/2000/svg">
  <g>
    <path d="m17.293 7.293a1 1 0 0 0 0 1.4141l3.293 3.293-3.293 3.293a1 1 0 0 0 0 1.4141 1 1 0 0 0 1.4141 0l4-4a1.0001 1.0001 0 0 0 0-1.4141l-4-4a1 1 0 0 0-1.4141 0z"/>
    <path d="m6 7a1 1 0 0 0-0.70703 0.29297l-4 4a1.0001 1.0001 0 0 0 0 1.4141l4 4a1 1 0 0 0 1.4141 0 1 1 0 0 0 0-1.4141l-3.293-3.293 3.293-3.293a1 1 0 0 0 0-1.4141 1 1 0 0 0-0.70703-0.29297z"/>
    <path d="m14.799 3.0449a1 1 0 0 0-1.2539 0.65625l-5 16a1 1 0 0 0 0.65625 1.2539 1 1 0 0 0 1.2539-0.65625l5-16a1 1 0 0 0-0.65625-1.2539z"/>
  </g>
</svg>
