<svg version="1.1" viewBox="0 0 24 24" xmlns="http://www.w3.org/2000/svg">
  <path d="m9 10a1 1 0 0 0-0.70703 0.29297l-6 6a1.0001 1.0001 0 0 0-0.29297 0.70703v3a1.0001 1.0001 0 0 0 1 1h9a1.0001 1.0001 0 0 0 0.70703-0.29297l3-3a1 1 0 0 0 0-1.4141 1 1 0 0 0-1.4141 0l-2.707 2.707h-7.5859v-1.5859l5.707-5.707a1 1 0 0 0 0-1.4141 1 1 0 0 0-0.70703-0.29297z"/>
  <path d="m14 3a1 1 0 0 0-0.70703 0.29297l-4.5996 4.5996a1.0001 1.0001 0 0 0-0.00781 0.00781c-1.1356 1.1586-1.1356 3.0406 0 4.1992a1.0001 1.0001 0 0 0 0.00781 0.0078l5.1992 5.1992a1.0001 1.0001 0 0 0 0.0078 0.0078c1.1586 1.1356 3.0406 1.1356 4.1992 0a1.0001 1.0001 0 0 0 0.0078-0.0078l4.5996-4.5996a1 1 0 0 0 0-1.4141 1 1 0 0 0-1.4141 0l-4.5938 4.5938c-0.39679 0.38893-1.0017 0.38893-1.3984 0l-5.1875-5.1875c-0.38893-0.39679-0.38893-1.0017 0-1.3984l4.5938-4.5938a1 1 0 0 0 0-1.4141 1 1 0 0 0-0.707-0.29295z"/>
</svg>
