<svg  xmlns="http://www.w3.org/2000/svg" viewBox="0 0 32 32">
  <path d="M27.2 32h-22.4c-2.72 0-4.8-2.080-4.8-4.8v-22.4c0-2.72 2.080-4.8 4.8-4.8h22.4c2.72 0 4.8 2.080 4.8 4.8v22.4c0 2.72-2.080 4.8-4.8 4.8zM4.8 3.2c-0.96 0-1.6 0.64-1.6 1.6v22.4c0 0.96 0.64 1.6 1.6 1.6h22.4c0.96 0 1.6-0.64 1.6-1.6v-22.4c0-0.96-0.64-1.6-1.6-1.6h-22.4z"></path>
  <path d="M30.4 12.8h-28.8c-0.96 0-1.6-0.64-1.6-1.6s0.64-1.6 1.6-1.6h28.8c0.96 0 1.6 0.64 1.6 1.6s-0.64 1.6-1.6 1.6z"></path>
  <path d="M11.2 32c-0.96 0-1.6-0.64-1.6-1.6v-19.2c0-0.96 0.64-1.6 1.6-1.6s1.6 0.64 1.6 1.6v19.2c0 0.96-0.64 1.6-1.6 1.6z"></path>
  </svg>