<?xml version="1.0" encoding="UTF-8" standalone="no"?>
<svg
   width="24"
   height="24"
   viewBox="0 0 24 24"
   fill="none"
   stroke="currentColor"
   stroke-width="2"
   stroke-linecap="round"
   stroke-linejoin="round"
   class="lucide lucide-settings-icon lucide-settings"
   version="1.1"
   id="svg1"
   sodipodi:docname="iconSettings_lucide_settings_Inkscape_1.svg"
   inkscape:version="1.4 (86a8ad7, 2024-10-11)"
   xmlns:inkscape="http://www.inkscape.org/namespaces/inkscape"
   xmlns:sodipodi="http://sodipodi.sourceforge.net/DTD/sodipodi-0.dtd"
   xmlns="http://www.w3.org/2000/svg"
   xmlns:svg="http://www.w3.org/2000/svg">
  <defs
     id="defs1" />
  <sodipodi:namedview
     id="namedview1"
     pagecolor="#ffffff"
     bordercolor="#000000"
     borderopacity="0.25"
     inkscape:showpageshadow="2"
     inkscape:pageopacity="0.0"
     inkscape:pagecheckerboard="0"
     inkscape:deskcolor="#d1d1d1"
     inkscape:zoom="51.958333"
     inkscape:cx="12"
     inkscape:cy="12"
     inkscape:window-width="2560"
     inkscape:window-height="1494"
     inkscape:window-x="-11"
     inkscape:window-y="-11"
     inkscape:window-maximized="1"
     inkscape:current-layer="svg1" />
  <path
     style="fill:#000000"
     d="M 11.779297,1 C 10.134287,1 8.7792969,2.3549904 8.7792969,4 v 0.1796875 c -3.677e-4,0.3584946 -0.1895343,0.6859872 -0.5,0.8652344 a 1.0001,1.0001 0 0 0 -0.00195,0 l -0.4296876,0.25 c -0.3104455,0.1783843 -0.6878644,0.1790839 -0.9980468,0 A 1.0001,1.0001 0 0 0 6.8203125,5.2773437 L 6.6992187,5.2128906 C 5.2760351,4.3919254 3.4289589,4.8868696 2.6054688,6.3085937 L 2.3847656,6.6894531 a 1.0001,1.0001 0 0 0 -0.00195,0 C 1.5618472,8.1126368 2.0567914,9.9616661 3.4785156,10.785156 l -0.052734,-0.0332 0.1503906,0.09961 a 1.0001,1.0001 0 0 0 0.054687,0.03516 c 0.3088938,0.178331 0.4978471,0.502706 0.5,0.859375 V 12.25 a 1.0001,1.0001 0 0 0 0,0.0039 c 0.00143,0.360319 -0.1879511,0.688983 -0.5,0.869141 a 1.0001,1.0001 0 0 0 -0.015625,0.0098 l -0.1367188,0.08203 c -1.4217242,0.82349 -1.9166684,2.672519 -1.0957031,4.095703 a 1.0001,1.0001 0 0 0 0.00195,0 l 0.2207032,0.380859 c 0.8234901,1.421724 2.6705663,1.916669 4.0937499,1.095703 l 0.1210938,-0.06445 a 1.0001,1.0001 0 0 0 0.029297,-0.01758 c 0.3107894,-0.179434 0.6892105,-0.179434 1,0 l 0.4277344,0.25 a 1.0001,1.0001 0 0 0 0.00195,0 c 0.3104657,0.179247 0.4996323,0.50674 0.5,0.865234 V 20 c 0,1.64501 1.3549901,3 3.0000001,3 h 0.441406 c 1.64501,0 3,-1.35499 3,-3 v -0.179688 c 3.68e-4,-0.358494 0.189534,-0.685987 0.5,-0.865234 a 1.0001,1.0001 0 0 0 0.002,0 l 0.427735,-0.25 c 0.310789,-0.179434 0.68921,-0.179434 1,0 a 1.0001,1.0001 0 0 0 0.0293,0.01758 l 0.121094,0.06445 c 1.423184,0.820966 3.27026,0.326021 4.09375,-1.095703 a 1.0001,1.0001 0 0 0 0.0059,-0.0098 l 0.216796,-0.382813 v -0.002 c 0.819507,-1.422941 0.32542,-3.268655 -1.095703,-4.091797 a 1.0001,1.0001 0 0 0 -0.03125,-0.01758 l -0.121093,-0.06445 c -0.312049,-0.180158 -0.501431,-0.508822 -0.5,-0.869141 a 1.0001,1.0001 0 0 0 0,-0.0039 v -0.5 a 1.0001,1.0001 0 0 0 0,-0.0039 c -0.0014,-0.360319 0.187951,-0.688983 0.5,-0.869141 a 1.0001,1.0001 0 0 0 0.01563,-0.0098 l 0.136718,-0.08203 c 1.421725,-0.8234899 1.916669,-2.6725192 1.095703,-4.0957029 a 1.0001,1.0001 0 0 0 -0.002,0 L 21.394531,6.3085937 C 20.571041,4.8868696 18.723965,4.3919254 17.300781,5.2128906 l -0.121094,0.064453 a 1.0001,1.0001 0 0 0 -0.0293,0.017578 c -0.310183,0.1790839 -0.687602,0.1783843 -0.998047,0 h -0.002 l -0.427735,-0.25 a 1.0001,1.0001 0 0 0 -0.002,0 c -0.310466,-0.1792472 -0.499632,-0.5067398 -0.5,-0.8652344 V 4 c 0,-1.6450096 -1.35499,-3 -3,-3 z m 0,2 h 0.441406 c 0.56413,0 1,0.4358706 1,1 v 0.1796875 a 1.0001,1.0001 0 0 0 0,0.00195 c 0.0011,1.0691022 0.57413,2.0591992 1.5,2.59375 h -0.0039 l 0.429687,0.25 a 1.0001,1.0001 0 0 0 0.0039,0 c 0.926814,0.5350968 2.073185,0.5350968 3,0 l -0.0293,0.017578 0.15039,-0.080078 a 1.0001,1.0001 0 0 0 0.02734,-0.017578 c 0.487999,-0.2815028 1.082866,-0.1222641 1.365234,0.3652344 l 0.21875,0.3789062 C 20.164315,8.177452 20.00703,8.772319 19.519531,9.0546875 a 1.0001,1.0001 0 0 0 -0.01367,0.00781 l -0.136718,0.082031 c -0.930488,0.5372061 -1.504266,1.5349547 -1.5,2.6093747 v 0.492188 c -0.0043,1.07442 0.569512,2.072169 1.5,2.609375 a 1.0001,1.0001 0 0 0 0.0293,0.01758 l 0.123047,0.06641 c 0.484307,0.283316 0.642045,0.874692 0.361328,1.361328 a 1.0001,1.0001 0 0 0 -0.0039,0.0078 l -0.214844,0.380859 c -0.282368,0.487499 -0.877235,0.646737 -1.365234,0.365234 a 1.0001,1.0001 0 0 0 -0.02734,-0.01758 l -0.15039,-0.08008 0.0293,0.01758 c -0.926815,-0.535096 -2.073186,-0.535096 -3,0 a 1.0001,1.0001 0 0 0 -0.0039,0 l -0.429687,0.25 h 0.0039 c -0.92587,0.534551 -1.498903,1.524648 -1.5,2.59375 a 1.0001,1.0001 0 0 0 0,0.002 V 20 c 0,0.564129 -0.43587,1 -1,1 h -0.441406 c -0.56413,0 -1,-0.435871 -1,-1 v -0.179688 a 1.0001,1.0001 0 0 0 0,-0.002 c -0.0011,-1.069102 -0.57413,-2.059199 -1.5000001,-2.59375 h 0.00391 l -0.4296875,-0.25 a 1.0001,1.0001 0 0 0 -0.00391,0 c -0.9268149,-0.535096 -2.0731852,-0.535096 -3,0 l 0.029297,-0.01758 -0.1503906,0.08008 a 1.0001,1.0001 0 0 0 -0.027344,0.01758 C 5.213173,17.33619 4.618306,17.176952 4.3359375,16.689453 l -0.21875,-0.378906 C 3.8356847,15.822548 3.9929703,15.227681 4.4804687,14.945313 a 1.0001,1.0001 0 0 0 0.013672,-0.0078 l 0.1367188,-0.08203 c 0.9304878,-0.537206 1.5042655,-1.534955 1.5,-2.609375 v -0.50586 a 1.0001,1.0001 0 0 0 0,-0.0059 c -0.00642,-1.063775 -0.5787157,-2.0482002 -1.5,-2.5800781 L 4.6855469,9.1875 4.5351562,9.0878906 A 1.0001,1.0001 0 0 0 4.4804687,9.0546875 C 3.9929703,8.772319 3.8356847,8.177452 4.1171875,7.6894531 l 0.21875,-0.3789062 C 4.618306,6.8230484 5.213173,6.6638097 5.7011719,6.9453125 a 1.0001,1.0001 0 0 0 0.027344,0.017578 l 0.1503906,0.080078 -0.029297,-0.017578 c 0.9268148,0.5350968 2.0731851,0.5350968 3,0 a 1.0001,1.0001 0 0 0 0.00391,0 l 0.4296875,-0.25 h -0.00391 C 10.205167,6.2408398 10.7782,5.2507428 10.779297,4.1816406 a 1.0001,1.0001 0 0 0 0,-0.00195 V 4 c 0,-0.5641294 0.43587,-1 1,-1 z"
     id="path1" />
  <path
     style="fill:#000000"
     d="m 12,8 c -2.1972944,0 -4,1.8027056 -4,4 0,2.197294 1.8027056,4 4,4 2.197294,0 4,-1.802706 4,-4 0,-2.1972944 -1.802706,-4 -4,-4 z m 0,2 c 1.116414,0 2,0.883586 2,2 0,1.116414 -0.883586,2 -2,2 -1.116414,0 -2,-0.883586 -2,-2 0,-1.116414 0.883586,-2 2,-2 z"
     id="circle1" />
</svg>
