<?xml version="1.0" encoding="UTF-8" standalone="no"?>
<svg
   height="40px"
   viewBox="0 -960 960 960"
   width="40px"
   fill="#000000"
   version="1.1"
   id="svg1"
   sodipodi:docname="iconSplitTB_view_array_32dp_000000_FILL0_wght400_GRAD0_opsz40_Inkscape_1.svg"
   inkscape:version="1.4 (86a8ad7, 2024-10-11)"
   xmlns:inkscape="http://www.inkscape.org/namespaces/inkscape"
   xmlns:sodipodi="http://sodipodi.sourceforge.net/DTD/sodipodi-0.dtd"
   xmlns="http://www.w3.org/2000/svg"
   xmlns:svg="http://www.w3.org/2000/svg">
  <defs
     id="defs1" />
  <sodipodi:namedview
     id="namedview1"
     pagecolor="#ffffff"
     bordercolor="#000000"
     borderopacity="0.25"
     inkscape:showpageshadow="2"
     inkscape:pageopacity="0.0"
     inkscape:pagecheckerboard="0"
     inkscape:deskcolor="#d1d1d1"
     inkscape:zoom="21.513724"
     inkscape:cx="15.246082"
     inkscape:cy="21.35846"
     inkscape:window-width="2560"
     inkscape:window-height="1494"
     inkscape:window-x="-11"
     inkscape:window-y="-11"
     inkscape:window-maximized="1"
     inkscape:current-layer="svg1" />
  <path
     d="m 253.33,-840 h 453.34 q 22.22,0 37.77,15.58 15.56,15.58 15.56,37.83 0,22.26 -15.56,37.76 -15.55,15.5 -37.77,15.5 H 253.33 q -22.22,0 -37.77,-15.58 Q 200,-764.49 200,-786.75 200,-809 215.56,-824.5 231.11,-840 253.33,-840 Z M 200,-626.67 q 0,-22.22 15.56,-37.77 15.55,-15.56 37.77,-15.56 h 453.34 q 22.22,0 37.77,15.56 15.56,15.55 15.56,37.77 v 293.34 q 0,22.22 -15.56,37.77 Q 728.89,-280 706.67,-280 H 253.33 q -22.22,0 -37.77,-15.56 Q 200,-311.11 200,-333.33 Z m 53.33,400 h 453.34 q 22.22,0 37.77,15.58 15.56,15.58 15.56,37.84 0,22.25 -15.56,37.75 -15.55,15.5 -37.77,15.5 H 253.33 q -22.22,0 -37.77,-15.58 -15.56,-15.58 -15.56,-37.83 0,-22.26 15.56,-37.76 15.55,-15.5 37.77,-15.5 z m 13.34,-386.66 v 266.66 H 693.33 V -613.33 Z M 480,-480 Z"
     id="path1" />
</svg>
