<?xml version="1.0" encoding="UTF-8" standalone="no"?>
<svg
   height="40px"
   viewBox="0 -960 960 960"
   width="40px"
   fill="#000000"
   version="1.1"
   id="svg1"
   sodipodi:docname="iconListItem_format_list_bulleted_32dp_000000_FILL0_wght400_GRAD0_opsz40_Inkscape_1.svg"
   inkscape:version="1.4 (86a8ad7, 2024-10-11)"
   xmlns:inkscape="http://www.inkscape.org/namespaces/inkscape"
   xmlns:sodipodi="http://sodipodi.sourceforge.net/DTD/sodipodi-0.dtd"
   xmlns="http://www.w3.org/2000/svg"
   xmlns:svg="http://www.w3.org/2000/svg">
  <defs
     id="defs1" />
  <sodipodi:namedview
     id="namedview1"
     pagecolor="#ffffff"
     bordercolor="#000000"
     borderopacity="0.25"
     inkscape:showpageshadow="2"
     inkscape:pageopacity="0.0"
     inkscape:pagecheckerboard="0"
     inkscape:deskcolor="#d1d1d1"
     inkscape:zoom="30.425"
     inkscape:cx="19.983566"
     inkscape:cy="20"
     inkscape:window-width="2560"
     inkscape:window-height="1494"
     inkscape:window-x="-11"
     inkscape:window-y="-11"
     inkscape:window-maximized="1"
     inkscape:current-layer="svg1" />
  <path
     d="m 404.67,-446.67 c -9.44667,0 -17.36333,-3.20333 -23.75,-9.61 -6.39333,-6.41333 -9.59,-14.36 -9.59,-23.84 0,-9.47333 3.19667,-17.37667 9.59,-23.71 6.38667,-6.33333 14.30333,-9.5 23.75,-9.5 h 402 c 9.44,0 17.35667,3.20333 23.75,9.61 6.38667,6.41333 9.58,14.36 9.58,23.84 0,9.47333 -3.19333,17.37667 -9.58,23.71 -6.39333,6.33333 -14.31,9.5 -23.75,9.5 z m -212,38 c -19.8,0 -36.75,-6.98333 -50.85,-20.95 -14.1,-13.97333 -21.15,-30.76667 -21.15,-50.38 0,-19.61333 7.05,-36.40667 21.15,-50.38 14.1,-13.96667 31.05,-20.95 50.85,-20.95 19.43333,0 36.06667,6.98333 49.9,20.95 13.84,13.97333 20.76,30.76667 20.76,50.38 0,19.61333 -6.92,36.40667 -20.76,50.38 -13.83333,13.96667 -30.46667,20.95 -49.9,20.95 z"
     id="path1"
     sodipodi:nodetypes="ssscsscscssscscsssss" />
</svg>
