<?xml version="1.0" encoding="UTF-8" standalone="no"?>
<svg
   viewBox="0 0 32 32"
   version="1.1"
   id="svg1"
   sodipodi:docname="iconBIU.svg"
   inkscape:version="1.4 (86a8ad7, 2024-10-11)"
   xmlns:inkscape="http://www.inkscape.org/namespaces/inkscape"
   xmlns:sodipodi="http://sodipodi.sourceforge.net/DTD/sodipodi-0.dtd"
   xmlns="http://www.w3.org/2000/svg"
   xmlns:svg="http://www.w3.org/2000/svg">
  <defs
     id="defs1" />
  <sodipodi:namedview
     id="namedview1"
     pagecolor="#ffffff"
     bordercolor="#000000"
     borderopacity="0.25"
     inkscape:showpageshadow="2"
     inkscape:pageopacity="0.0"
     inkscape:pagecheckerboard="0"
     inkscape:deskcolor="#d1d1d1"
     inkscape:zoom="26.892155"
     inkscape:cx="14.502371"
     inkscape:cy="11.248634"
     inkscape:window-width="2560"
     inkscape:window-height="1494"
     inkscape:window-x="-11"
     inkscape:window-y="-11"
     inkscape:window-maximized="1"
     inkscape:current-layer="svg1" />
  <path
     d="M 1.4,22.167 V 9.834 h 5.021 c 0.969,0 1.81,0.308 2.522,0.925 0.712,0.617 1.068,1.395 1.068,2.335 0,0.558 -0.154,1.072 -0.463,1.542 -0.309,0.47 -0.719,0.83 -1.233,1.079 v 0.132 c 0.631,0.206 1.142,0.573 1.531,1.101 0.389,0.528 0.584,1.123 0.584,1.784 0,0.998 -0.385,1.821 -1.156,2.467 -0.771,0.646 -1.67,0.969 -2.698,0.969 z m 1.894,-1.674 h 3.171 c 0.558,0 1.042,-0.184 1.454,-0.551 0.412,-0.367 0.617,-0.83 0.617,-1.387 0,-0.543 -0.206,-0.998 -0.617,-1.366 C 7.508,16.821 7.023,16.638 6.465,16.638 H 3.294 Z m 0,-5.44 h 2.995 c 0.514,0 0.958,-0.169 1.332,-0.507 0.374,-0.338 0.562,-0.764 0.562,-1.277 0,-0.514 -0.187,-0.943 -0.562,-1.288 C 7.246,11.636 6.802,11.463 6.289,11.463 H 3.294 Z m 7.336,7.114 V 20.41 h 2.905 l 2.3125,-8.842 h -3.446 V 9.834 h 8.237 v 1.734 h -2.904 L 15.422,20.41 h 3.446 v 1.757 z m 10.503,0 V 20.41 H 31 v 1.757 z m 4.934,-2.3675 c -1.175,0 -2.294,-0.544 -2.957,-1.231 -0.663,-0.687 -1.095,-1.5175 -1.095,-2.6925 V 9.833 h 1.762 v 6.043 c 0,0.74 0.3,1.333 0.699,1.779 0.399,0.446 0.863,0.569 1.591,0.569 0.728,0 1.192,-0.123 1.591,-0.569 0.399,-0.446 0.499,-1.04 0.499,-1.78 V 9.832 h 1.762 v 6.043 c 0,1.175 -0.332,2.106 -0.995,2.793 -0.663,0.687 -1.683,1.131 -2.857,1.131 z"
     id="path1"
     sodipodi:nodetypes="ccssssccssscccssssscccssssscccccccccccccccccccccssccsssssccsscc" />
</svg>
