<svg width="40px" height="40px" fill="#000000" version="1.1" viewBox="0 -960 960 960" xmlns="http://www.w3.org/2000/svg">
  <path d="m354-120c-65.333 0-120.67-22.667-166-68s-68-100.67-68-166v-252c0-65.333 22.667-120.67 68-166s100.67-68 166-68h252c65.333 0 120.67 22.667 166 68s68 100.67 68 166v252c0 65.333-22.667 120.67-68 166s-100.67 68-166 68zm0-66.67h252c46.22 0 85.663-16.333 118.33-49s49-72.11 49-118.33v-252c0-46.22-16.333-85.663-49-118.33s-72.11-49-118.33-49h-252c-46.22 0-85.663 16.333-118.33 49s-49 72.11-49 118.33v252c0 46.22 16.333 85.663 49 118.33s72.11 49 118.33 49z"/>
  <path d="m293-446.66h374c9.4467 0 17.363-3.2067 23.75-9.62 6.3933-6.4067 9.59-14.35 9.59-23.83s-3.1967-17.387-9.59-23.72c-6.3867-6.3333-14.303-9.5-23.75-9.5h-374c-9.44 0-17.357 3.2067-23.75 9.62-6.3867 6.4133-9.58 14.357-9.58 23.83 0 9.48 3.1933 17.387 9.58 23.72 6.3933 6.3333 14.31 9.5 23.75 9.5z"/>
</svg>
