<?xml version="1.0" encoding="UTF-8" standalone="no"?>
<svg
   width="24"
   height="24"
   viewBox="0 0 24 24"
   fill="none"
   stroke="currentColor"
   stroke-width="2"
   stroke-linecap="round"
   stroke-linejoin="round"
   class="lucide lucide-code-xml-icon lucide-code-xml"
   version="1.1"
   id="svg3"
   sodipodi:docname="iconCode_lucide_code-xml_Inkscape_1.svg"
   inkscape:version="1.4 (86a8ad7, 2024-10-11)"
   xmlns:inkscape="http://www.inkscape.org/namespaces/inkscape"
   xmlns:sodipodi="http://sodipodi.sourceforge.net/DTD/sodipodi-0.dtd"
   xmlns="http://www.w3.org/2000/svg"
   xmlns:svg="http://www.w3.org/2000/svg">
  <defs
     id="defs3" />
  <sodipodi:namedview
     id="namedview3"
     pagecolor="#ffffff"
     bordercolor="#000000"
     borderopacity="0.25"
     inkscape:showpageshadow="2"
     inkscape:pageopacity="0.0"
     inkscape:pagecheckerboard="0"
     inkscape:deskcolor="#d1d1d1"
     inkscape:zoom="51.958333"
     inkscape:cx="12"
     inkscape:cy="12"
     inkscape:window-width="2560"
     inkscape:window-height="1494"
     inkscape:window-x="-11"
     inkscape:window-y="-11"
     inkscape:window-maximized="1"
     inkscape:current-layer="svg3" />
  <path
     style="fill:#000000"
     d="m 17.292969,7.2929687 a 1,1 0 0 0 0,1.4140626 L 20.585937,12 17.292969,15.292969 a 1,1 0 0 0 0,1.414062 1,1 0 0 0 1.414062,0 l 4,-4 a 1.0001,1.0001 0 0 0 0,-1.414062 l -4,-4.0000003 a 1,1 0 0 0 -1.414062,0 z"
     id="path1" />
  <path
     style="fill:#000000"
     d="M 6,7 A 1,1 0 0 0 5.2929687,7.2929687 l -4,4.0000003 a 1.0001,1.0001 0 0 0 0,1.414062 l 4,4 a 1,1 0 0 0 1.4140625,0 1,1 0 0 0 0,-1.414062 L 3.4140625,12 6.7070312,8.7070313 a 1,1 0 0 0 0,-1.4140626 A 1,1 0 0 0 6,7 Z"
     id="path2" />
  <path
     style="fill:#000000"
     d="m 14.798828,3.0449219 a 1,1 0 0 0 -1.253906,0.65625 L 8.5449219,19.701172 a 1,1 0 0 0 0.65625,1.253906 1,1 0 0 0 1.2539061,-0.65625 l 5,-15.9999999 a 1,1 0 0 0 -0.65625,-1.2539062 z"
     id="path3" />
</svg>
