<svg version="1.1" viewBox="0 0 24 24" xmlns="http://www.w3.org/2000/svg">
  <path d="m11.779 1c-1.645 0-3 1.355-3 3v0.17969c-3.677e-4 0.35849-0.18953 0.68599-0.5 0.86523a1.0001 1.0001 0 0 0-0.00195 0l-0.42969 0.25c-0.31045 0.17838-0.68786 0.17908-0.99805 0a1.0001 1.0001 0 0 0-0.0293-0.017578l-0.12109-0.064453c-1.4232-0.82097-3.2703-0.32602-4.0937 1.0957l-0.2207 0.38086a1.0001 1.0001 0 0 0-0.00195 0c-0.82097 1.4232-0.32602 3.2722 1.0957 4.0957l-0.052734-0.0332 0.15039 0.09961a1.0001 1.0001 0 0 0 0.054687 0.03516c0.30889 0.17833 0.49785 0.50271 0.5 0.85938v0.5039a1.0001 1.0001 0 0 0 0 0.0039c0.00143 0.36032-0.18795 0.68898-0.5 0.86914a1.0001 1.0001 0 0 0-0.015625 0.0098l-0.13672 0.08203c-1.4217 0.82349-1.9167 2.6725-1.0957 4.0957a1.0001 1.0001 0 0 0 0.00195 0l0.2207 0.38086c0.82349 1.4217 2.6706 1.9167 4.0937 1.0957l0.12109-0.06445a1.0001 1.0001 0 0 0 0.029297-0.01758c0.31079-0.17943 0.68921-0.17943 1 0l0.42773 0.25a1.0001 1.0001 0 0 0 0.00195 0c0.31047 0.17925 0.49963 0.50674 0.5 0.86523v0.17966c0 1.645 1.355 3 3 3h0.44141c1.645 0 3-1.355 3-3v-0.17969c3.68e-4 -0.35849 0.18953-0.68599 0.5-0.86523a1.0001 1.0001 0 0 0 2e-3 0l0.42774-0.25c0.31079-0.17943 0.68921-0.17943 1 0a1.0001 1.0001 0 0 0 0.0293 0.01758l0.12109 0.06445c1.4232 0.82097 3.2703 0.32602 4.0938-1.0957a1.0001 1.0001 0 0 0 0.0059-0.0098l0.2168-0.38281v-2e-3c0.81951-1.4229 0.32542-3.2687-1.0957-4.0918a1.0001 1.0001 0 0 0-0.03125-0.01758l-0.12109-0.06445c-0.31205-0.18016-0.50143-0.50882-0.5-0.86914a1.0001 1.0001 0 0 0 0-0.0039v-0.5a1.0001 1.0001 0 0 0 0-0.0039c-0.0014-0.36032 0.18795-0.68898 0.5-0.86914a1.0001 1.0001 0 0 0 0.01563-0.0098l0.13672-0.08203c1.4217-0.82349 1.9167-2.6725 1.0957-4.0957a1.0001 1.0001 0 0 0-2e-3 0l-0.22075-0.38076c-0.82349-1.4217-2.6706-1.9167-4.0938-1.0957l-0.12109 0.064453a1.0001 1.0001 0 0 0-0.0293 0.017578c-0.31018 0.17908-0.6876 0.17838-0.99805 0h-2e-3l-0.42774-0.25a1.0001 1.0001 0 0 0-2e-3 0c-0.31047-0.17925-0.49963-0.50674-0.5-0.86523v-0.17969c0-1.645-1.355-3-3-3zm0 2h0.44141c0.56413 0 1 0.43587 1 1v0.17969a1.0001 1.0001 0 0 0 0 0.00195c0.0011 1.0691 0.57413 2.0592 1.5 2.5938h-0.0039l0.42969 0.25a1.0001 1.0001 0 0 0 0.0039 0c0.92681 0.5351 2.0732 0.5351 3 0l-0.0293 0.017578 0.15039-0.080078a1.0001 1.0001 0 0 0 0.02734-0.017578c0.488-0.2815 1.0829-0.12226 1.3652 0.36523l0.21875 0.37891c0.28151 0.488 0.12423 1.0829-0.36327 1.3652a1.0001 1.0001 0 0 0-0.01367 0.00781l-0.13672 0.082031c-0.93049 0.53721-1.5043 1.535-1.5 2.6094v0.49219c-0.0043 1.0744 0.56951 2.0722 1.5 2.6094a1.0001 1.0001 0 0 0 0.0293 0.01758l0.12305 0.06641c0.48431 0.28332 0.64204 0.87469 0.36133 1.3613a1.0001 1.0001 0 0 0-0.0039 0.0078l-0.21484 0.38086c-0.28237 0.4875-0.87724 0.64674-1.3652 0.36523a1.0001 1.0001 0 0 0-0.02734-0.01758l-0.15039-0.08008 0.0293 0.01758c-0.92682-0.5351-2.0732-0.5351-3 0a1.0001 1.0001 0 0 0-0.0039 0l-0.42969 0.25h0.0039c-0.92587 0.53455-1.4989 1.5246-1.5 2.5938a1.0001 1.0001 0 0 0 0 2e-3v0.17965c0 0.56413-0.43587 1-1 1h-0.44141c-0.56413 0-1-0.43587-1-1v-0.17969a1.0001 1.0001 0 0 0 0-2e-3c-0.0011-1.0691-0.57413-2.0592-1.5-2.5938h0.00391l-0.42969-0.25a1.0001 1.0001 0 0 0-0.00391 0c-0.92681-0.5351-2.0732-0.5351-3 0l0.029297-0.01758-0.15039 0.08008a1.0001 1.0001 0 0 0-0.027344 0.01758c-0.48802 0.28155-1.0829 0.12231-1.3653-0.36519l-0.21875-0.37891c-0.2815-0.488-0.12422-1.0829 0.36328-1.3652a1.0001 1.0001 0 0 0 0.013672-0.0078l0.13672-0.08203c0.93049-0.53721 1.5043-1.535 1.5-2.6094v-0.50586a1.0001 1.0001 0 0 0 0-0.0059c-0.00642-1.0638-0.57872-2.0482-1.5-2.5801l0.054687 0.03323-0.15039-0.099609a1.0001 1.0001 0 0 0-0.054688-0.033203c-0.4875-0.28237-0.64478-0.87724-0.36328-1.3652l0.21875-0.37891c0.28237-0.4875 0.87724-0.64674 1.3652-0.36523a1.0001 1.0001 0 0 0 0.027344 0.017578l0.15039 0.080078-0.029297-0.017578c0.92681 0.5351 2.0732 0.5351 3 0a1.0001 1.0001 0 0 0 0.00391 0l0.42969-0.25h-0.00391c0.92587-0.53455 1.4989-1.5246 1.5-2.5937a1.0001 1.0001 0 0 0 0-0.00195v-0.17969c0-0.56413 0.43587-1 1-1z"/>
  <path d="m12 8c-2.1973 0-4 1.8027-4 4 0 2.1973 1.8027 4 4 4 2.1973 0 4-1.8027 4-4 0-2.1973-1.8027-4-4-4zm0 2c1.1164 0 2 0.88359 2 2s-0.88359 2-2 2-2-0.88359-2-2 0.88359-2 2-2z"/>
</svg>
