<?xml version="1.0" encoding="UTF-8" standalone="no"?>
<svg
   width="24"
   height="24"
   viewBox="0 0 24 24"
   fill="none"
   stroke="currentColor"
   stroke-width="2"
   stroke-linecap="round"
   stroke-linejoin="round"
   class="lucide lucide-highlighter-icon lucide-highlighter"
   version="1.1"
   id="svg2"
   sodipodi:docname="iconMark_lucide_highlighter_Inkscape_1.svg"
   inkscape:version="1.4 (86a8ad7, 2024-10-11)"
   xmlns:inkscape="http://www.inkscape.org/namespaces/inkscape"
   xmlns:sodipodi="http://sodipodi.sourceforge.net/DTD/sodipodi-0.dtd"
   xmlns="http://www.w3.org/2000/svg"
   xmlns:svg="http://www.w3.org/2000/svg">
  <defs
     id="defs2" />
  <sodipodi:namedview
     id="namedview2"
     pagecolor="#ffffff"
     bordercolor="#000000"
     borderopacity="0.25"
     inkscape:showpageshadow="2"
     inkscape:pageopacity="0.0"
     inkscape:pagecheckerboard="0"
     inkscape:deskcolor="#d1d1d1"
     inkscape:zoom="51.958333"
     inkscape:cx="12"
     inkscape:cy="12"
     inkscape:window-width="2560"
     inkscape:window-height="1494"
     inkscape:window-x="-11"
     inkscape:window-y="-11"
     inkscape:window-maximized="1"
     inkscape:current-layer="svg2" />
  <path
     style="fill:#000000"
     d="m 9,10 a 1,1 0 0 0 -0.7070312,0.292969 l -6,6 A 1.0001,1.0001 0 0 0 2,17 v 3 a 1.0001,1.0001 0 0 0 1,1 h 9 a 1.0001,1.0001 0 0 0 0.707031,-0.292969 l 3,-3 a 1,1 0 0 0 0,-1.414062 1,1 0 0 0 -1.414062,0 L 11.585938,19 H 4 v -1.585938 l 5.7070313,-5.707031 a 1,1 0 0 0 0,-1.414062 A 1,1 0 0 0 9,10 Z"
     id="path1" />
  <path
     style="fill:#000000"
     d="M 14,3 A 1,1 0 0 0 13.292969,3.2929688 L 8.6933594,7.8925781 a 1.0001,1.0001 0 0 0 -0.00781,0.00781 c -1.1356424,1.158587 -1.1356424,3.0406314 0,4.1992184 a 1.0001,1.0001 0 0 0 0.00781,0.0078 l 5.1992186,5.199219 a 1.0001,1.0001 0 0 0 0.0078,0.0078 c 1.158587,1.135643 3.040631,1.135643 4.199218,0 a 1.0001,1.0001 0 0 0 0.0078,-0.0078 l 4.599609,-4.59961 a 1,1 0 0 0 0,-1.414062 1,1 0 0 0 -1.414062,0 l -4.59375,4.59375 c -0.396787,0.388929 -1.001651,0.388929 -1.398438,0 l -5.1875,-5.1875 c -0.3889288,-0.396787 -0.3889288,-1.0016507 0,-1.3984377 l 4.59375,-4.5937501 a 1,1 0 0 0 0,-1.4140624 A 1,1 0 0 0 14,3 Z"
     id="path2" />
</svg>
