<svg width="40px" height="40px" fill="#000000" version="1.1" viewBox="0 -960 960 960" xmlns="http://www.w3.org/2000/svg">
  <path d="m354-120c-65.333 0-120.67-22.667-166-68s-68-100.67-68-166v-252c0-65.333 22.667-120.67 68-166s100.67-68 166-68h252c65.333 0 120.67 22.667 166 68s68 100.67 68 166v252c0 65.333-22.667 120.67-68 166s-100.67 68-166 68zm0-66.67h252c46.22 0 85.663-16.333 118.33-49s49-72.11 49-118.33v-252c0-46.22-16.333-85.663-49-118.33s-72.11-49-118.33-49h-252c-46.22 0-85.663 16.333-118.33 49s-49 72.11-49 118.33v252c0 46.22 16.333 85.663 49 118.33s72.11 49 118.33 49z"/>
</svg>
