<svg  xmlns="http://www.w3.org/2000/svg" viewBox="0 0 32 32">
    <path d="M16 8c3.493 0 6.507 2.48 7.187 5.907l0.4 2 2.040 0.147c2.080 0.133 3.707 1.88 3.707 3.947 0 2.2-1.8 4-4 4h-17.333c-2.947 0-5.333-2.387-5.333-5.333 0-2.733 2.040-5.013 4.747-5.293l1.427-0.147 0.667-1.267c1.267-2.44 3.747-3.96 6.493-3.96zM16 5.333c-3.853 0-7.2 2.187-8.867 5.387-4.013 0.427-7.133 3.827-7.133 7.947 0 4.413 3.587 8 8 8h17.333c3.68 0 6.667-2.987 6.667-6.667 0-3.52-2.733-6.373-6.2-6.613-0.907-4.6-4.947-8.053-9.8-8.053z"></path>
  </svg>