<svg  xmlns="http://www.w3.org/2000/svg" viewBox="0 0 32 32">
    <path d="M31.056 15.328l-14.4-14.4c-0.576-0.576-1.376-0.928-2.256-0.928h-11.2c-1.76 0-3.2 1.44-3.2 3.2v11.2c0 0.88 0.352 1.68 0.944 2.272l14.4 14.4c0.576 0.576 1.376 0.928 2.256 0.928s1.68-0.352 2.256-0.944l11.2-11.2c0.592-0.576 0.944-1.376 0.944-2.256s-0.368-1.696-0.944-2.272zM17.6 28.816l-14.4-14.416v-11.2h11.2v-0.016l14.4 14.4-11.2 11.232z"></path>
    <path d="M9.6 7.2c0 1.325-1.075 2.4-2.4 2.4s-2.4-1.075-2.4-2.4c0-1.325 1.075-2.4 2.4-2.4s2.4 1.075 2.4 2.4z"></path>
    <path d="M11.040 16.88c0 0.912 0.368 1.712 0.96 2.32l5.6 5.6 5.6-5.6c0.592-0.592 0.96-1.424 0.96-2.32 0-1.808-1.472-3.28-3.28-3.28-0.912 0-1.728 0.368-2.32 0.96l-0.96 0.96-0.96-0.944c-0.592-0.608-1.424-0.976-2.32-0.976-1.808 0-3.28 1.472-3.28 3.28z"></path>
  </svg>