<svg  xmlns="http://www.w3.org/2000/svg" viewBox="0 0 32 32">
    <path d="M15.867 32q-6.622 0-11.244-4.689t-4.622-11.356h2.667q0 5.556 3.822 9.467t9.378 3.911q5.644 0 9.556-3.956t3.911-9.6q0-5.511-3.956-9.311t-9.511-3.8q-3.022 0-5.667 1.378t-4.6 3.644h4.667v2.667h-9.289v-9.244h2.667v4.711q2.311-2.711 5.489-4.267t6.733-1.556q3.333 0 6.267 1.244t5.133 3.4 3.467 5.044 1.267 6.222-1.267 6.267-3.467 5.111-5.133 3.444-6.267 1.267zM21.556 23.244l-6.844-6.756v-9.511h2.667v8.4l6.089 5.956z"></path>
  </svg>