<svg  xmlns="http://www.w3.org/2000/svg" viewBox="0 0 32 32">
    <path d="M1.424 26.553v-3.1q0-1.154 0.594-2.094t1.649-1.402q2.407-1.055 4.337-1.517t3.974-0.462 3.957 0.462 4.32 1.517q1.055 0.462 1.665 1.402t0.61 2.094v3.1h-21.106zM24.508 26.553v-3.1q0-2.078-1.055-3.413t-2.77-2.16q2.275 0.264 4.287 0.775t3.265 1.171q1.088 0.627 1.715 1.55t0.627 2.078v3.1h-6.068zM11.977 15.967q-2.177 0-3.562-1.385t-1.385-3.562 1.385-3.562 3.562-1.385 3.562 1.385 1.385 3.562-1.385 3.562-3.562 1.385zM23.849 11.020q0 2.177-1.385 3.562t-3.562 1.385q-0.363 0-0.808-0.050t-0.808-0.181q0.791-0.825 1.204-2.028t0.412-2.688-0.412-2.622-1.204-2.094q0.363-0.099 0.808-0.165t0.808-0.066q2.177 0 3.562 1.385t1.385 3.562zM3.402 24.574h17.149v-1.121q0-0.528-0.313-1.022t-0.775-0.693q-2.374-1.055-3.99-1.418t-3.496-0.363-3.512 0.363-4.007 1.418q-0.462 0.198-0.758 0.693t-0.297 1.022v1.121zM11.977 13.988q1.286 0 2.127-0.841t0.841-2.127-0.841-2.127-2.127-0.841-2.127 0.841-0.841 2.127 0.841 2.127 2.127 0.841z"></path>
  </svg>