<svg  xmlns="http://www.w3.org/2000/svg" viewBox="0 0 32 32">
    <path d="M2.288 12.643l23.487 12.853c0.286 0.153 0.477 0.45 0.477 0.791 0 0.082-0.011 0.161-0.032 0.237l0.001-0.006c-0.119 0.395-0.479 0.678-0.905 0.678-0.004 0-0.009 0-0.013 0h-19.439c-0.958 0-1.766-0.684-1.885-1.595l-1.691-12.956z"></path>
    <path d="M29.676 12.643l-1.691 12.957c-0.119 0.911-0.927 1.594-1.884 1.594h-19.442c-0.004 0-0.009 0-0.013 0-0.425 0-0.785-0.281-0.903-0.668l-0.002-0.007c-0.019-0.070-0.031-0.15-0.031-0.232 0-0.341 0.191-0.638 0.472-0.788l0.005-0.002 23.487-12.853z"></path>
    <path d="M15.413 8.369l10.394 15.921c0.378 0.579 0.407 1.317 0.076 1.924-0.328 0.591-0.948 0.985-1.66 0.985 0 0-0.001 0-0.001 0h-17.617c-0.694 0-1.331-0.378-1.661-0.985-0.144-0.26-0.229-0.569-0.229-0.899 0-0.382 0.114-0.736 0.31-1.033l-0.004 0.007 10.394-15.921z"></path>
    <path d="M15.396 8.403l11.659 15.921c0.401 0.579 0.432 1.317 0.081 1.924-0.361 0.594-1.005 0.985-1.741 0.985-0.008 0-0.017 0-0.025 0h-9.344l-0.63-18.83z"></path>
    <path d="M13.868 6.478c0 0.946 0.767 1.712 1.712 1.712s1.712-0.767 1.712-1.712v0c0-0.945-0.766-1.712-1.712-1.712s-1.712 0.766-1.712 1.712v0zM28.577 10.818c0 0.945 0.766 1.712 1.712 1.712s1.712-0.766 1.712-1.712v0c0-0.945-0.766-1.712-1.712-1.712s-1.712 0.766-1.712 1.712v0zM0 10.822c0 0.945 0.766 1.712 1.712 1.712s1.712-0.766 1.712-1.712v0c0-0.945-0.766-1.712-1.712-1.712s-1.712 0.766-1.712 1.712v0z"></path>
  </svg>