<svg  xmlns="http://www.w3.org/2000/svg" viewBox="0 0 32 32">
    <path d="M24.928 15.17h2.844q0 4.267-2.963 7.467t-7.151 3.832v5.531h-3.319v-5.531q-4.188-0.632-7.151-3.832t-2.963-7.467h2.844q0 3.714 2.647 6.123t6.281 2.41 6.281-2.41 2.647-6.123zM13.946 4.899v10.43q0 0.79 0.593 1.383t1.462 0.593q0.79 0 1.383-0.553t0.593-1.422l0.079-10.43q0-0.869-0.632-1.462t-1.422-0.593-1.422 0.593-0.632 1.462zM16 20.227q-2.054 0-3.556-1.501t-1.501-3.556v-10.114q0-2.054 1.501-3.556t3.556-1.501 3.556 1.501 1.501 3.556v10.114q0 2.054-1.501 3.556t-3.556 1.501z"></path>
  </svg>