<svg  xmlns="http://www.w3.org/2000/svg" viewBox="0 0 32 32">
    <path d="M25.96 10.739l-1.464-3.405-3.541-1.566 3.541-1.532 1.464-3.235 1.464 3.235 3.541 1.532-3.541 1.566-1.464 3.405zM25.96 31l-1.464-3.269-3.541-1.532 3.541-1.532 1.464-3.439 1.464 3.439 3.541 1.532-3.541 1.532-1.464 3.269zM11.011 25.756l-3.133-6.708-6.844-3.065 6.844-3.065 3.133-6.674 3.167 6.674 6.81 3.065-6.81 3.065-3.167 6.708zM11.011 20.716l1.635-3.269 3.337-1.464-3.337-1.464-1.635-3.269-1.6 3.269-3.371 1.464 3.371 1.464 1.6 3.269z"></path>
  </svg>