<svg  xmlns="http://www.w3.org/2000/svg" viewBox="0 0 32 32">
    <path d="M16 1c-8.271 0-15 6.729-15 15s6.729 15 15 15 15-6.729 15-15-6.729-15-15-15zM16 0c8.837 0 16 7.163 16 16s-7.163 16-16 16-16-7.163-16-16 7.163-16 16-16z"></path>
    <path d="M22.264 22.070c0-0.18-0.022-0.426-0.045-0.785-0.045-0.359-0.067-0.763-0.112-1.234-0.045-0.449-0.112-0.965-0.157-1.526l-0.224-1.683-0.224-1.616-0.269-1.661-0.337-1.616c-0.135-0.539-0.269-1.055-0.426-1.571-0.108-0.319-0.222-0.586-0.353-0.843l0.016 0.035c-0.15-0.29-0.314-0.54-0.5-0.771l0.007 0.008c-0.199-0.227-0.428-0.421-0.683-0.576l-0.013-0.007c-0.269-0.135-0.539-0.224-0.853-0.224-0.494 0-0.987 0.202-1.436 0.583q-0.707 0.572-1.346 1.481c-0.432 0.602-0.836 1.286-1.177 2.006l-0.035 0.081c-0.404 0.763-0.741 1.526-1.055 2.266-0.314 0.763-0.606 1.481-0.83 2.154-0.224 0.696-0.404 1.257-0.516 1.683-0.269-0.067-0.471-0.112-0.606-0.157-0.134-0.039-0.288-0.063-0.447-0.067l-0.002-0q-0.269 0-0.404 0.067c-0.1 0.037-0.184 0.099-0.246 0.178l-0.001 0.001c-0.044 0.079-0.089 0.175-0.128 0.274l-0.006 0.018c-0.046 0.092-0.091 0.203-0.129 0.318l-0.005 0.018c0.038 0.171 0.108 0.322 0.204 0.452l-0.002-0.003c0.046 0.113 0.134 0.201 0.244 0.246l0.003 0.001c0.090 0.067 0.247 0.112 0.426 0.135 0.157 0.045 0.381 0.067 0.651 0.067-0.090 0.381-0.18 0.718-0.247 0.987l-0.18 0.875c-0.067 0.236-0.13 0.532-0.174 0.834l-0.005 0.042c-0.029 0.207-0.046 0.446-0.046 0.689 0 0.042 0 0.084 0.001 0.125l-0-0.006c0 0.135 0.045 0.202 0.18 0.292 0.11 0.076 0.235 0.144 0.368 0.197l0.013 0.005q0.202 0.067 0.471 0.135c0.157 0 0.292 0.022 0.381 0.022 0.202 0 0.404-0.112 0.583-0.292s0.269-0.359 0.269-0.539c0-0.494 0.022-1.055 0.067-1.638 0.048-0.66 0.127-1.26 0.24-1.848l-0.016 0.097 1.795-0.135c0.561-0.045 1.122-0.090 1.683-0.18q0.808-0.101 1.683-0.269c0.539-0.090 1.144-0.224 1.818-0.381 0.002 0.398 0.027 0.788 0.072 1.171l-0.005-0.049c0 0.404 0.022 0.696 0.022 0.83-0.003 0.153-0.019 0.3-0.048 0.442l0.003-0.016c-0.045 0.135-0.067 0.292-0.112 0.426-0.043 0.106-0.081 0.234-0.109 0.365l-0.003 0.016c-0.045 0.135-0.045 0.247-0.045 0.381 0 0.247 0.135 0.471 0.426 0.651 0.269 0.18 0.539 0.269 0.83 0.269 0.381 0 0.651-0.112 0.83-0.359 0.169-0.234 0.27-0.526 0.27-0.841 0-0.012-0-0.024-0-0.036l0 0.002zM19.953 17.515c-0.854 0.229-1.927 0.441-3.019 0.59l-0.145 0.016c-0.979 0.157-2.107 0.247-3.256 0.247-0.007 0-0.014 0-0.022 0h0.001c0.446-1.624 0.929-2.982 1.495-4.295l-0.081 0.211c0.559-1.371 1.237-2.554 2.049-3.631l-0.029 0.041q0.337-0.471 0.673-0.741t0.539-0.269c0.022 0 0.067 0.022 0.157 0.067 0.050 0.047 0.094 0.098 0.133 0.154l0.002 0.003c0.129 0.273 0.244 0.594 0.329 0.928l0.008 0.037 0.247 1.010c0.067 0.337 0.135 0.651 0.18 0.965 0.053 0.359 0.116 0.663 0.194 0.961l-0.014-0.063c0.090 0.561 0.18 1.167 0.269 1.795 0.090 0.651 0.179 1.301 0.292 1.975z"></path>
  </svg>