<svg  xmlns="http://www.w3.org/2000/svg" viewBox="0 0 32 32">
    <path d="M9.561 23.727q-3.22 0-5.473-2.254t-2.254-5.474 2.254-5.473 5.473-2.254q2.125 0 3.896 1.063t2.801 2.801h13.909v7.727h-2.576v3.864h-7.727v-3.864h-3.606q-1.030 1.739-2.801 2.801t-3.896 1.063zM9.561 21.151q2.125 0 3.413-1.304t1.545-2.56h7.92v3.864h2.576v-3.864h2.576v-2.576h-13.072q-0.258-1.256-1.545-2.56t-3.413-1.304-3.638 1.513-1.513 3.638 1.513 3.638 3.638 1.513zM9.561 18.576q1.063 0 1.819-0.757t0.757-1.819-0.757-1.819-1.819-0.757-1.819 0.757-0.757 1.819 0.757 1.819 1.819 0.757z"></path>
  </svg>