<svg  xmlns="http://www.w3.org/2000/svg" viewBox="0 0 32 32">
    <path d="M1.2 22.167v-12.333h5.021c0.969 0 1.81 0.308 2.522 0.925s1.068 1.395 1.068 2.335c0 0.558-0.154 1.072-0.463 1.542s-0.719 0.83-1.233 1.079v0.132c0.631 0.206 1.142 0.573 1.531 1.101s0.584 1.123 0.584 1.784c0 0.998-0.385 1.821-1.156 2.467s-1.67 0.969-2.698 0.969zM3.094 20.493h3.171c0.558 0 1.042-0.184 1.454-0.551s0.617-0.83 0.617-1.387c0-0.543-0.206-0.998-0.617-1.366s-0.896-0.551-1.454-0.551h-3.171zM3.094 15.053h2.995c0.514 0 0.958-0.169 1.332-0.507s0.562-0.764 0.562-1.277c0-0.514-0.187-0.943-0.562-1.288s-0.819-0.518-1.332-0.518h-2.995zM10.23 22.167v-1.734h2.905l3.013-8.865h-3.446v-1.734h8.237v1.734h-2.904l-3.013 8.865h3.446v1.734zM20.933 22.167v-1.057h9.867v1.057zM25.867 19.7c-1.175 0-2.094-0.344-2.757-1.031s-0.995-1.618-0.995-2.793v-6.043h1.462v6.043c0 0.74 0.2 1.333 0.599 1.779s0.963 0.669 1.691 0.669c0.728 0 1.292-0.223 1.691-0.669s0.599-1.040 0.599-1.78v-6.043h1.462v6.043c0 1.175-0.332 2.106-0.995 2.793s-1.583 1.031-2.757 1.031z"></path>
  </svg>