<svg  xmlns="http://www.w3.org/2000/svg" viewBox="0 0 32 32">
    <path d="M0 11.636h2.909v-2.909h-2.909v2.909zM0 17.455h2.909v-2.909h-2.909v2.909zM0 5.818h2.909v-2.909c-1.6 0-2.909 1.309-2.909 2.909zM11.636 29.091h2.909v-2.909h-2.909v2.909zM0 23.273h2.909v-2.909h-2.909v2.909zM2.909 29.091v-2.909h-2.909c0 1.6 1.309 2.909 2.909 2.909zM29.091 2.909h-11.636v8.727h14.545v-5.818c0-1.6-1.309-2.909-2.909-2.909zM29.091 23.273h2.909v-2.909h-2.909v2.909zM11.636 5.818h2.909v-2.909h-2.909v2.909zM5.818 29.091h2.909v-2.909h-2.909v2.909zM5.818 5.818h2.909v-2.909h-2.909v2.909zM29.091 29.091c1.6 0 2.909-1.309 2.909-2.909h-2.909v2.909zM29.091 17.455h2.909v-2.909h-2.909v2.909zM17.455 29.091h2.909v-2.909h-2.909v2.909zM23.273 29.091h2.909v-2.909h-2.909v2.909z"></path>
  </svg>