<svg  xmlns="http://www.w3.org/2000/svg" viewBox="0 0 32 32">
    <path d="M16 31.5q-6.458 0-10.979-4.521t-4.521-10.979 4.521-10.979 10.979-4.521q0.344 0 0.732 0.022t0.99 0.065q-1.55 1.378-2.411 3.401t-0.861 4.263q0 3.875 2.713 6.588t6.587 2.712q2.239 0 4.262-0.797t3.401-2.217q0.043 0.517 0.065 0.84t0.022 0.624q0 6.458-4.521 10.979t-10.979 4.521zM16 28.917q4.693 0 8.181-2.906t4.349-6.824q-1.076 0.474-2.303 0.71t-2.476 0.237q-4.951 0-8.417-3.466t-3.466-8.417q0-1.033 0.215-2.217t0.775-2.691q-4.219 1.163-6.997 4.715t-2.777 7.944q0 5.382 3.767 9.149t9.149 3.767z"></path>
  </svg>