<svg  xmlns="http://www.w3.org/2000/svg" viewBox="0 0 32 32">
    <path d="M16 1c-8.271 0-15 6.729-15 15s6.729 15 15 15 15-6.729 15-15-6.729-15-15-15zM16 0c8.837 0 16 7.163 16 16s-7.163 16-16 16-16-7.163-16-16 7.163-16 16-16z"></path>
    <path d="M23.311 23.552c0-0.047-0.024-0.094-0.047-0.165l-0.071-0.142c-0.043-0.059-0.069-0.132-0.071-0.212v-0c-0.041-0.043-0.068-0.101-0.071-0.165l-0-0.001c-0.097-0.205-0.186-0.449-0.253-0.701l-0.007-0.030c-0.071-0.26-0.118-0.59-0.142-1.015-0.047-0.472-0.094-0.991-0.094-1.51-0.047-0.519-0.047-1.015-0.047-1.487 0-1.038 0-1.959 0.047-2.761 0-0.802 0.047-1.558 0.094-2.265 0.024-0.661 0.071-1.298 0.142-1.888s0.165-1.18 0.26-1.77l0.094-0.401c0.027-0.119 0.044-0.257 0.047-0.399l0-0.002c-0.024-0.165-0.118-0.283-0.307-0.354-0.189-0.047-0.378-0.094-0.543-0.094-0.236 0-0.472 0.024-0.708 0.047-0.26 0.047-0.448 0.118-0.59 0.212-0.33 0.236-0.661 0.661-0.991 1.227-0.342 0.555-0.689 1.214-0.994 1.895l-0.044 0.111c-0.354 0.779-0.684 1.605-0.991 2.454-0.33 0.897-0.661 1.746-0.944 2.549-0.33 0.85-0.59 1.558-0.802 2.171-0.236 0.614-0.472 1.133-0.684 1.605-0.425-0.661-0.755-1.251-1.038-1.794-0.247-0.437-0.501-0.965-0.721-1.51l-0.034-0.095c-0.382-0.826-0.722-1.802-0.968-2.814l-0.023-0.112c-0.224-0.807-0.446-1.852-0.614-2.915l-0.023-0.177c-0.047-0.354-0.094-0.732-0.118-1.109-0.047-0.378-0.094-0.755-0.165-1.133-0.094-0.26-0.283-0.472-0.614-0.614-0.354-0.118-0.684-0.189-0.968-0.189-0.378 0-0.637 0.071-0.732 0.189-0.103 0.126-0.166 0.289-0.166 0.467 0 0.010 0 0.020 0.001 0.030l-0-0.001v0.33c0 0.142-0.024 0.236-0.024 0.307-0.236 1.038-0.401 2.265-0.519 3.681-0.142 1.416-0.189 2.95-0.189 4.602v1.558l0.047 0.967c0 0.33 0 0.661 0.024 0.968 0.017 0.475 0.060 0.923 0.126 1.363l-0.008-0.065c0.024 0.33 0.071 0.566 0.118 0.684 0.094 0.33 0.354 0.496 0.732 0.496 0.307 0 0.59-0.047 0.85-0.189 0.236-0.142 0.354-0.283 0.354-0.448-0.001-0.144-0.026-0.282-0.073-0.409l0.003 0.008c-0.047-0.118-0.071-0.236-0.118-0.378l-0.094-0.33c-0.045-0.089-0.071-0.193-0.071-0.304 0-0.009 0-0.018 0.001-0.027l-0 0.001c-0.094-0.496-0.142-1.227-0.189-2.218s-0.047-2.124-0.047-3.422v-1.109l0.047-0.944 0.094-0.944 0.142-1.062c0.094 0.519 0.189 0.968 0.283 1.369 0.126 0.58 0.224 0.968 0.329 1.353l-0.046-0.197c0.094 0.378 0.189 0.755 0.283 1.086 0.115 0.407 0.235 0.744 0.375 1.071l-0.021-0.056c0.401 1.133 0.873 2.242 1.439 3.28 0.519 1.062 1.133 1.959 1.841 2.667 0.189 0.236 0.425 0.33 0.708 0.33 0.33 0 0.637-0.165 0.897-0.496 0.094-0.094 0.189-0.283 0.33-0.566 0.118-0.283 0.236-0.59 0.378-0.92 0.118-0.33 0.236-0.637 0.354-0.968l0.26-0.708 0.661-1.841c0.189-0.614 0.425-1.251 0.684-1.912 0.236-0.661 0.519-1.345 0.85-2.077 0.307-0.708 0.661-1.487 1.086-2.313-0.094 0.755-0.165 1.487-0.212 2.242-0.071 0.779-0.118 1.534-0.142 2.289-0.047 0.755-0.047 1.487-0.047 2.195-0.024 0.732-0.024 1.416-0.024 2.029 0 0.755 0.024 1.416 0.118 2.029s0.212 1.109 0.354 1.487c0.071 0.236 0.212 0.425 0.448 0.59 0.188 0.145 0.425 0.233 0.684 0.236h0.001c0.236 0 0.448-0.047 0.59-0.142s0.236-0.189 0.236-0.307z"></path>
  </svg>