<svg  xmlns="http://www.w3.org/2000/svg" viewBox="0 0 32 32">
    <path d="M16 8c5.513 0 10.429 3.098 12.829 8-2.4 4.902-7.302 8-12.829 8s-10.429-3.098-12.829-8c2.4-4.902 7.316-8 12.829-8zM16 5.091c-7.273 0-13.484 4.524-16 10.909 2.516 6.385 8.727 10.909 16 10.909s13.484-4.524 16-10.909c-2.516-6.385-8.727-10.909-16-10.909zM16 12.364c2.007 0 3.636 1.629 3.636 3.636s-1.629 3.636-3.636 3.636-3.636-1.629-3.636-3.636 1.629-3.636 3.636-3.636zM16 9.455c-3.607 0-6.545 2.938-6.545 6.545s2.938 6.545 6.545 6.545 6.545-2.938 6.545-6.545-2.938-6.545-6.545-6.545z"></path>
  </svg>