<svg  xmlns="http://www.w3.org/2000/svg" viewBox="0 0 32 32">
    <path d="M16 32c-8.009 0-14.5-6.491-14.5-14.5 0-6.062 3.722-11.253 9-13.419v0.004c0.156-0.056 0.324-0.086 0.501-0.086 0.826 0 1.501 0.671 1.501 1.499 0 0.652-0.417 1.21-1.002 1.415v0.001c-4.113 1.75-7 5.831-7 10.584 0 6.352 5.148 11.5 11.5 11.5s11.501-5.149 11.501-11.5c0-4.753-2.884-8.834-7.001-10.584-0.583-0.205-1-0.762-1-1.415 0-0.828 0.671-1.5 1.5-1.5 0.174 0 0.341 0.030 0.5 0.086v-0.004c5.283 2.166 9 7.357 9 13.419 0.001 8.009-6.491 14.499-14.5 14.499zM16 16.5c-0.827 0-1.499-0.671-1.499-1.501v-13.5c-0.001-0.826 0.672-1.5 1.499-1.5 0.828 0 1.5 0.672 1.5 1.5v13.499c0 0.829-0.671 1.502-1.5 1.502z"></path>
  </svg>