<svg  xmlns="http://www.w3.org/2000/svg" viewBox="0 0 32 32">
    <path d="M16 31.5l-5.696-5.735h11.431l-5.735 5.735zM2.825 22.2q-0.93 0-1.627-0.698t-0.698-1.628v-17.050q0-0.93 0.698-1.627t1.627-0.698h26.35q0.93 0 1.628 0.698t0.698 1.627v17.050q0 0.93-0.698 1.628t-1.628 0.698h-26.35zM2.825 19.875h26.35v-17.050h-26.35v17.050zM9.955 17.356h12.129v-2.325h-12.129v2.325zM5.034 12.512h2.325v-2.325h-2.325v2.325zM9.955 12.512h2.325v-2.325h-2.325v2.325zM14.838 12.512h2.325v-2.325h-2.325v2.325zM19.759 12.512h2.325v-2.325h-2.325v2.325zM24.641 12.512h2.325v-2.325h-2.325v2.325zM5.034 7.669h2.325v-2.325h-2.325v2.325zM9.955 7.669h2.325v-2.325h-2.325v2.325zM14.838 7.669h2.325v-2.325h-2.325v2.325zM19.759 7.669h2.325v-2.325h-2.325v2.325zM24.641 7.669h2.325v-2.325h-2.325v2.325zM2.825 19.875v0z"></path>
  </svg>