<svg  xmlns="http://www.w3.org/2000/svg" viewBox="0 0 32 32">
    <path d="M6.733 20.633c1.699 0 3.089 1.39 3.089 3.089s-1.39 3.089-3.089 3.089-3.089-1.39-3.089-3.089 1.39-3.089 3.089-3.089zM6.733 17.544c-3.398 0-6.178 2.78-6.178 6.178s2.78 6.178 6.178 6.178 6.178-2.78 6.178-6.178-2.78-6.178-6.178-6.178zM16 5.189c1.699 0 3.089 1.39 3.089 3.089s-1.39 3.089-3.089 3.089-3.089-1.39-3.089-3.089 1.39-3.089 3.089-3.089zM16 2.1c-3.398 0-6.178 2.78-6.178 6.178s2.78 6.178 6.178 6.178 6.178-2.78 6.178-6.178-2.78-6.178-6.178-6.178zM25.267 20.633c1.699 0 3.089 1.39 3.089 3.089s-1.39 3.089-3.089 3.089-3.089-1.39-3.089-3.089 1.39-3.089 3.089-3.089zM25.267 17.544c-3.398 0-6.178 2.78-6.178 6.178s2.78 6.178 6.178 6.178 6.178-2.78 6.178-6.178-2.78-6.178-6.178-6.178z"></path>
  </svg>