<svg  xmlns="http://www.w3.org/2000/svg" viewBox="0 0 32 32">
    <path d="M31.842 11.022l-1.681-6.994c-0.352-1.44-1.601-2.433-3.057-2.433h-22.231c-1.44 0-2.705 1.008-3.041 2.433l-1.681 6.994c-0.384 1.633-0.032 3.297 0.992 4.61 0.128 0.176 0.304 0.304 0.448 0.464v11.108c0 1.761 1.44 3.201 3.201 3.201h22.407c1.761 0 3.201-1.44 3.201-3.201v-11.108c0.144-0.144 0.32-0.288 0.448-0.448 1.024-1.312 1.392-2.993 0.992-4.625zM27.056 4.78l1.681 6.994c0.16 0.672 0.016 1.344-0.4 1.873-0.224 0.288-0.704 0.752-1.505 0.752-0.976 0-1.825-0.784-1.937-1.825l-0.928-7.779 3.089-0.016zM17.597 4.796h3.137l0.864 7.234c0.080 0.624-0.112 1.248-0.528 1.713-0.352 0.416-0.864 0.656-1.52 0.656-1.072 0-1.953-0.944-1.953-2.097v-7.506zM10.379 12.031l0.88-7.234h3.137v7.506c0 1.152-0.88 2.097-2.065 2.097-0.544 0-1.040-0.24-1.424-0.656-0.4-0.464-0.592-1.088-0.528-1.713zM3.256 11.775l1.616-6.978h3.153l-0.928 7.779c-0.128 1.040-0.96 1.825-1.937 1.825-0.784 0-1.28-0.464-1.488-0.752-0.432-0.512-0.576-1.2-0.416-1.873zM4.793 27.204v-9.651c0.128 0.016 0.24 0.048 0.368 0.048 1.392 0 2.657-0.576 3.585-1.52 0.96 0.96 2.241 1.52 3.697 1.52 1.392 0 2.641-0.576 3.569-1.488 0.944 0.912 2.225 1.488 3.665 1.488 1.344 0 2.625-0.56 3.585-1.52 0.928 0.944 2.193 1.52 3.585 1.52 0.128 0 0.24-0.032 0.368-0.048v9.651h-22.423z"></path>
  </svg>