<svg  xmlns="http://www.w3.org/2000/svg" viewBox="0 0 32 32">
    <path d="M3.556 21.333h-3.556v7.111c0 1.956 1.6 3.556 3.556 3.556h7.111v-3.556h-7.111v-7.111zM3.556 3.556h7.111v-3.556h-7.111c-1.956 0-3.556 1.6-3.556 3.556v7.111h3.556v-7.111zM28.444 0h-7.111v3.556h7.111v7.111h3.556v-7.111c0-1.956-1.6-3.556-3.556-3.556zM28.444 28.444h-7.111v3.556h7.111c1.956 0 3.556-1.6 3.556-3.556v-7.111h-3.556v7.111zM16 10.667c-2.951 0-5.333 2.382-5.333 5.333s2.382 5.333 5.333 5.333 5.333-2.382 5.333-5.333-2.382-5.333-5.333-5.333z"></path>
  </svg>