<svg  xmlns="http://www.w3.org/2000/svg" viewBox="0 0 32 32">
    <path d="M1.177 11.059q0.75-4.412 4.213-7.235t7.963-2.824q2.868 0 5.36 1.323t4.346 3.573v-4.897h2.647v10.059h-10.059v-2.647h5.912q-1.412-2.118-3.552-3.441t-4.654-1.323q-3.397 0-6.066 2.051t-3.419 5.36zM29.103 31l-8.118-8.118q-1.632 1.368-3.573 2.073t-4.059 0.706q-2.868 0-5.404-1.191t-4.301-3.441v4.677h-2.647v-10.059h10.059v2.647h-6.132q1.456 2.118 3.662 3.419t4.765 1.302q3.309 0 5.89-2.073t3.419-5.294h2.691q-0.221 1.5-0.86 2.846t-1.61 2.493l8.118 8.118z"></path>
  </svg>