<svg  xmlns="http://www.w3.org/2000/svg" viewBox="0 0 32 32">
    <path d="M25.545 3.727h-5.7c-0.573-1.582-2.073-2.727-3.845-2.727s-3.273 1.145-3.845 2.727h-5.7c-1.5 0-2.727 1.227-2.727 2.727v21.818c0 1.5 1.227 2.727 2.727 2.727h19.091c1.5 0 2.727-1.227 2.727-2.727v-21.818c0-1.5-1.227-2.727-2.727-2.727zM16 3.727c0.75 0 1.364 0.614 1.364 1.364s-0.614 1.364-1.364 1.364-1.364-0.614-1.364-1.364 0.614-1.364 1.364-1.364zM25.545 28.273h-19.091v-21.818h2.727v4.091h13.636v-4.091h2.727v21.818z"></path>
  </svg>