<svg  xmlns="http://www.w3.org/2000/svg" viewBox="0 0 32 32">
    <path d="M16 24.789q-2.779 0-4.995-1.54t-3.192-4.019h2.629q1.878 3.155 5.559 3.155t5.559-3.155h2.629q-0.977 2.479-3.192 4.019t-4.995 1.54zM16 28.845q5.258 0 9.052-3.793t3.793-9.052-3.793-9.052-9.052-3.793-9.052 3.793-3.793 9.052 3.793 9.052 9.052 3.793zM16 0q6.61 0 11.305 4.695t4.695 11.305-4.695 11.305-11.305 4.695-11.305-4.695-4.695-11.305 4.695-11.305 11.305-4.695zM10.366 14.423q-0.977 0-1.69-0.714t-0.714-1.69 0.714-1.69 1.69-0.714 1.69 0.714 0.714 1.69-0.714 1.69-1.69 0.714zM21.634 14.423q-0.977 0-1.69-0.714t-0.714-1.69 0.714-1.69 1.69-0.714 1.69 0.714 0.714 1.69-0.714 1.69-1.69 0.714z"></path>
  </svg>