<svg  xmlns="http://www.w3.org/2000/svg" viewBox="0 0 32 32">
    <path d="M28.646 0.052l0.158 0.030 0.154 0.034 0.152 0.042 0.15 0.046 0.148 0.054 0.146 0.058 0.142 0.064 0.138 0.068 0.136 0.074 0.132 0.080 0.13 0.084 0.126 0.088 0.122 0.094 0.12 0.098 0.114 0.102 0.112 0.108 0.106 0.11 0.102 0.114 0.098 0.12 0.094 0.122 0.088 0.126 0.084 0.13 0.080 0.132 0.074 0.136 0.068 0.138 0.064 0.142 0.058 0.146 0.054 0.148 0.046 0.15 0.042 0.152 0.034 0.154 0.030 0.158 0.022 0.158 0.016 0.162 0.010 0.162 0.004 0.164v24l-0.004 0.164-0.010 0.162-0.016 0.162-0.022 0.158-0.030 0.158-0.034 0.154-0.042 0.152-0.046 0.15-0.054 0.148-0.058 0.146-0.064 0.142-0.068 0.138-0.074 0.136-0.080 0.132-0.084 0.13-0.088 0.126-0.094 0.122-0.098 0.12-0.102 0.114-0.106 0.112-0.112 0.106-0.114 0.102-0.12 0.098-0.122 0.094-0.126 0.088-0.13 0.084-0.132 0.080-0.136 0.074-0.138 0.068-0.142 0.064-0.146 0.058-0.148 0.054-0.15 0.046-0.152 0.042-0.154 0.034-0.158 0.030-0.158 0.022-0.162 0.016-0.162 0.010-0.164 0.004-24.646-0.052-0.158-0.030-0.154-0.034-0.152-0.042-0.15-0.046-0.148-0.054-0.146-0.058-0.142-0.064-0.138-0.068-0.136-0.074-0.132-0.080-0.13-0.084-0.126-0.088-0.122-0.094-0.12-0.098-0.114-0.102-0.11-0.106-0.108-0.112-0.102-0.114-0.098-0.12-0.094-0.122-0.088-0.126-0.084-0.13-0.080-0.132-0.074-0.136-0.068-0.138-0.064-0.142-0.058-0.146-0.054-0.148-0.046-0.15-0.042-0.152-0.034-0.154-0.030-0.158-0.022-0.158-0.016-0.162-0.010-0.162-0.004-0.164v-24l0.004-0.164 0.010-0.162 0.016-0.162 0.022-0.158 0.030-0.158 0.034-0.154 0.042-0.152 0.046-0.15 0.054-0.148 0.058-0.146 0.064-0.142 0.068-0.138 0.074-0.136 0.080-0.132 0.084-0.13 0.088-0.126 0.094-0.122 0.098-0.12 0.102-0.114 0.108-0.11 0.11-0.108 0.114-0.102 0.12-0.098 0.122-0.094 0.126-0.088 0.13-0.084 0.132-0.080 0.136-0.074 0.138-0.068 0.142-0.064 0.146-0.058 0.148-0.054 0.15-0.046 0.152-0.042 0.154-0.034 0.158-0.030 0.158-0.022 0.162-0.016 0.162-0.010 0.164-0.004 24.646 0.052zM28 4h-24v24h24v-24zM18.428 12.046l0.102 0.026 0.1 0.030 0.098 0.036 0.096 0.040 0.094 0.046 0.090 0.050 0.086 0.054 0.086 0.060 0.080 0.062 0.078 0.066 0.074 0.072 0.072 0.074 0.066 0.078 0.062 0.080 0.060 0.086 0.054 0.086 0.050 0.090 0.046 0.094 0.040 0.096 0.036 0.098 0.030 0.1 0.026 0.102 0.020 0.104 0.014 0.106 0.010 0.108 0.002 0.11v6l-0.002 0.11-0.010 0.108-0.014 0.106-0.020 0.104-0.026 0.102-0.030 0.1-0.036 0.098-0.040 0.096-0.046 0.094-0.050 0.090-0.054 0.086-0.060 0.086-0.062 0.080-0.066 0.078-0.072 0.074-0.074 0.072-0.078 0.066-0.080 0.062-0.086 0.060-0.086 0.054-0.090 0.050-0.094 0.046-0.096 0.040-0.098 0.036-0.1 0.030-0.102 0.026-0.104 0.020-0.106 0.014-0.108 0.010-0.11 0.002h-4v-10l4.11 0.002 0.108 0.010 0.106 0.014 0.104 0.020zM26 16v2h-2v4h-2v-10h4v2h-2v2h2zM10.428 12.046l0.102 0.026 0.1 0.030 0.098 0.036 0.096 0.040 0.094 0.046 0.090 0.050 0.086 0.054 0.086 0.060 0.080 0.062 0.078 0.066 0.074 0.072 0.072 0.074 0.066 0.078 0.062 0.080 0.060 0.086 0.054 0.086 0.050 0.090 0.046 0.094 0.040 0.096 0.036 0.098 0.030 0.1 0.026 0.102 0.020 0.104 0.014 0.106 0.010 0.108 0.002 0.11v2l-0.002 0.11-0.010 0.108-0.014 0.106-0.020 0.104-0.026 0.102-0.030 0.1-0.036 0.098-0.040 0.096-0.046 0.094-0.050 0.090-0.054 0.086-0.060 0.086-0.062 0.080-0.066 0.078-0.072 0.074-0.074 0.072-0.078 0.066-0.080 0.062-0.086 0.060-0.086 0.054-0.090 0.050-0.094 0.046-0.096 0.040-0.098 0.036-0.1 0.030-0.102 0.026-0.104 0.020-0.106 0.014-0.108 0.010-0.11 0.002h-2v4h-2v-10l4.11 0.002 0.108 0.010 0.106 0.014 0.104 0.020zM18 14h-2v6h2v-6zM10 14h-2v2h2v-2z"></path>
  </svg>