<svg  xmlns="http://www.w3.org/2000/svg" viewBox="0 0 32 32">
    <path d="M14.125 27.25c0 2.063-1.688 3.75-3.75 3.75s-3.75-1.688-3.75-3.75 1.688-3.75 3.75-3.75 3.75 1.688 3.75 3.75zM10.375 12.25c-2.063 0-3.75 1.688-3.75 3.75s1.688 3.75 3.75 3.75 3.75-1.688 3.75-3.75-1.688-3.75-3.75-3.75zM10.375 1c-2.063 0-3.75 1.688-3.75 3.75s1.688 3.75 3.75 3.75 3.75-1.688 3.75-3.75-1.688-3.75-3.75-3.75zM21.625 8.5c2.063 0 3.75-1.688 3.75-3.75s-1.688-3.75-3.75-3.75-3.75 1.688-3.75 3.75 1.688 3.75 3.75 3.75zM21.625 12.25c-2.063 0-3.75 1.688-3.75 3.75s1.688 3.75 3.75 3.75 3.75-1.688 3.75-3.75-1.688-3.75-3.75-3.75zM21.625 23.5c-2.063 0-3.75 1.688-3.75 3.75s1.688 3.75 3.75 3.75 3.75-1.688 3.75-3.75-1.688-3.75-3.75-3.75z"></path>
  </svg>