<svg  xmlns="http://www.w3.org/2000/svg" viewBox="0 0 32 32">
    <path d="M16 24.189q2.792 0 4.746-1.954t1.954-4.746-1.954-4.746-4.746-1.954-4.746 1.954-1.954 4.746 1.954 4.746 4.746 1.954zM16 21.211q-1.563 0-2.643-1.079t-1.079-2.643 1.079-2.643 2.643-1.079 2.643 1.079 1.079 2.643-1.079 2.643-2.643 1.079zM4.089 29.4q-1.228 0-2.103-0.875t-0.875-2.103v-17.867q0-1.228 0.875-2.103t2.103-0.875h4.69l2.754-2.978h8.933l2.754 2.978h4.69q1.228 0 2.103 0.875t0.875 2.103v17.867q0 1.228-0.875 2.103t-2.103 0.875h-23.822zM4.089 26.422h23.822v-17.867h-6.030l-2.717-2.978h-6.328l-2.717 2.978h-6.030v17.867z"></path>
  </svg>