<svg  xmlns="http://www.w3.org/2000/svg" viewBox="0 0 32 32">
    <path d="M26.153 16.423l-19.684-16.316c-0.083-0.067-0.189-0.107-0.304-0.107-0.268 0-0.485 0.217-0.487 0.484v25.882c0.005 0.265 0.221 0.479 0.487 0.479 0.125 0 0.238-0.047 0.324-0.124l-0 0 6.234-5.776 4.522 9.497c0.453 0.929 1.39 1.558 2.474 1.558 1.515 0 2.744-1.228 2.744-2.744 0-0.431-0.099-0.839-0.277-1.202l0.007 0.016-4.551-9.558 8.28-1.242c0.229-0.043 0.4-0.241 0.4-0.479 0-0.147-0.065-0.279-0.168-0.368l-0.001-0z"></path>
  </svg>