<svg  xmlns="http://www.w3.org/2000/svg" viewBox="0 0 32 32">
    <path d="M26.812 8.947h-25.835c-0.538 0.003-0.974 0.438-0.977 0.977v16.399c0.005 0.535 0.441 0.968 0.977 0.968 0 0 0 0 0 0h25.835c0.534-0.003 0.967-0.434 0.972-0.967v-16.399c-0.003-0.537-0.436-0.972-0.972-0.977h-0zM26.121 25.682h-24.499v-15.108h24.499z"></path>
    <path d="M31.217 4.712h-25.485c-0.018-0.001-0.040-0.002-0.061-0.002-0.453 0-0.82 0.367-0.82 0.82s0.367 0.82 0.82 0.82c0.022 0 0.043-0.001 0.064-0.002l-0.003 0h24.678v15.578c0.032 0.413 0.376 0.737 0.795 0.737s0.762-0.323 0.795-0.734l0-0.003v-16.422c-0.003-0.433-0.351-0.785-0.783-0.793h-0.001z"></path>
  </svg>