<svg  xmlns="http://www.w3.org/2000/svg" viewBox="0 0 32 32">
    <path d="M16 0.925c-8.28 0-15 6.72-15 15s6.72 15 15 15h7.5v-3h-7.5c-6.51 0-12-5.49-12-12s5.49-12 12-12 12 5.49 12 12v2.145c0 1.185-1.065 2.355-2.25 2.355s-2.25-1.17-2.25-2.355v-2.145c0-4.14-3.36-7.5-7.5-7.5s-7.5 3.36-7.5 7.5 3.36 7.5 7.5 7.5c2.070 0 3.96-0.84 5.31-2.205 0.975 1.335 2.655 2.205 4.44 2.205 2.955 0 5.25-2.4 5.25-5.355v-2.145c0-8.28-6.72-15-15-15zM16 20.425c-2.49 0-4.5-2.010-4.5-4.5s2.010-4.5 4.5-4.5 4.5 2.010 4.5 4.5-2.010 4.5-4.5 4.5z"></path>
  </svg>