<svg  xmlns="http://www.w3.org/2000/svg" viewBox="0 0 32 32">
    <path d="M2.545 28.491q-1.055 0-1.8-0.745t-0.745-1.8 0.745-1.8 1.8-0.745q0.182 0 0.364 0.018t0.473 0.091l7.273-7.273q-0.073-0.291-0.091-0.473t-0.018-0.364q0-1.055 0.745-1.8t1.8-0.745 1.8 0.745 0.745 1.8q0 0.073-0.109 0.836l4 4q0.291-0.073 0.473-0.091t0.364-0.018 0.364 0.018 0.473 0.091l5.818-5.818q-0.073-0.291-0.091-0.473t-0.018-0.364q0-1.055 0.745-1.8t1.8-0.745 1.8 0.745 0.745 1.8-0.745 1.8-1.8 0.745q-0.182 0-0.364-0.018t-0.473-0.091l-5.818 5.818q0.073 0.291 0.091 0.473t0.018 0.364q0 1.055-0.745 1.8t-1.8 0.745-1.8-0.745-0.745-1.8q0-0.182 0.018-0.364t0.091-0.473l-4-4q-0.291 0.073-0.473 0.091t-0.364 0.018q-0.073 0-0.836-0.109l-7.273 7.273q0.073 0.291 0.091 0.473t0.018 0.364q0 1.055-0.745 1.8t-1.8 0.745zM4.364 12.418l-0.727-1.6-1.6-0.727 1.6-0.727 0.727-1.6 0.727 1.6 1.6 0.727-1.6 0.727zM20.363 10.564l-1.127-2.4-2.4-1.127 2.4-1.127 1.127-2.4 1.127 2.4 2.4 1.127-2.4 1.127z"></path>
  </svg>