<svg  xmlns="http://www.w3.org/2000/svg" viewBox="0 0 32 32">
    <path d="M16 1c-8.271 0-15 6.729-15 15s6.729 15 15 15 15-6.729 15-15-6.729-15-15-15zM16 0c8.837 0 16 7.163 16 16s-7.163 16-16 16-16-7.163-16-16 7.163-16 16-16z"></path>
    <path d="M22.195 9.174c0-0.196-0.122-0.416-0.367-0.636-0.269-0.196-0.514-0.318-0.734-0.318-0.416 0-0.709 0.122-0.881 0.343-0.183 0.22-0.294 0.505-0.294 0.816 0 0.006 0 0.011 0 0.017v-0.001 0.514c0 0.196 0.024 0.367 0.024 0.514 0 0.318 0.024 0.612 0.024 0.856v0.856c0 1.15 0 2.275 0.049 3.401 0 1.15 0.024 2.3 0.024 3.45 0 0.391-0.024 0.758-0.024 1.15s-0.024 0.832-0.049 1.37q-1.651-1.248-2.642-2.643c-0.63-0.843-1.224-1.796-1.734-2.799l-0.052-0.112c-0.122-0.22-0.245-0.514-0.391-0.856s-0.318-0.734-0.489-1.199c-0.196-0.465-0.367-0.979-0.563-1.566-0.22-0.563-0.465-1.199-0.709-1.884l-0.245-0.832c-0.098-0.245-0.196-0.514-0.318-0.783-0.269-0.538-0.758-0.832-1.443-0.832-0.002 0-0.004 0-0.007 0-0.267 0-0.512 0.092-0.705 0.247l0.002-0.002c-0.22 0.196-0.318 0.416-0.318 0.685-0.001 0.019-0.001 0.042-0.001 0.065 0 0.098 0.009 0.194 0.027 0.287l-0.002-0.009c0 0.122-0.024 0.245-0.024 0.343-0.196 1.517-0.343 3.009-0.416 4.477-0.073 1.492-0.098 2.985-0.098 4.502 0 1.835 0.024 3.131 0.073 3.914-0.001 0.023-0.001 0.050-0.001 0.077 0 0.137 0.009 0.271 0.027 0.403l-0.002-0.015c0 0.171 0.049 0.318 0.098 0.465 0.047 0.168 0.142 0.31 0.268 0.415l0.001 0.001q0.147 0.147 0.514 0.147c0.287-0.001 0.556-0.073 0.792-0.2l-0.009 0.004c0.269-0.098 0.416-0.269 0.416-0.514-0.005-0.185-0.022-0.362-0.052-0.535l0.003 0.022-0.098-0.465c-0.046-0.108-0.073-0.234-0.073-0.367v-0l-0.098-0.391c-0.046-0.221-0.073-0.474-0.073-0.734v-0c-0.024-0.294-0.024-0.783-0.024-1.468-0.024-0.636-0.024-1.468-0.024-2.495 0-0.807 0-1.664 0.024-2.569q0-1.321 0.147-3.303c0.489 1.639 1.003 3.131 1.566 4.453 0.606 1.435 1.286 2.666 2.077 3.814l-0.046-0.071c0.294 0.44 0.612 0.905 1.003 1.346 0.379 0.461 0.763 0.876 1.17 1.268l0.005 0.004c0.387 0.374 0.802 0.726 1.238 1.052l0.034 0.024c0.348 0.306 0.742 0.575 1.166 0.792l0.032 0.015c0.111 0.062 0.244 0.098 0.385 0.098 0.011 0 0.021-0 0.032-0.001l-0.002 0c0.416 0 0.709-0.171 0.881-0.538 0.092-0.224 0.192-0.516 0.278-0.816l0.016-0.065 0.147-1.052 0.049-1.101v-3.718c0-0.905 0-1.835 0.024-2.765v-1.566c0-0.538 0-1.052 0.049-1.566 0.001-0.133 0.028-0.259 0.076-0.373l-0.002 0.006 0.098-0.367c0.049-0.147 0.098-0.269 0.122-0.343 0.021-0.096 0.038-0.213 0.048-0.333l0.001-0.010z"></path>
  </svg>