<svg  xmlns="http://www.w3.org/2000/svg" viewBox="0 0 32 32">
    <path d="M7.357 28.143h17.143v-14.286h-17.143v14.286zM15.929 23.857q1.179 0 2.018-0.839t0.839-2.018-0.839-2.018-2.018-0.839-2.018 0.839-0.839 2.018 0.839 2.018 2.018 0.839zM7.357 28.143v0zM7.357 31q-1.179 0-2.018-0.839t-0.839-2.018v-14.286q0-1.179 0.839-2.018t2.018-0.839h10v-2.857q0-2.964 2.089-5.054t5.054-2.089 5.054 2.089 2.089 5.054h-2.857q0-1.786-1.25-3.036t-3.036-1.25-3.036 1.25-1.25 3.036v2.857h4.286q1.179 0 2.018 0.839t0.839 2.018v14.286q0 1.179-0.839 2.018t-2.018 0.839h-17.143z"></path>
  </svg>