<svg  xmlns="http://www.w3.org/2000/svg" viewBox="0 0 32 32">
    <path d="M22.986 19.23h5.408q0.451-2.103 0.451-3.23t-0.451-3.23h-5.408q0.225 1.577 0.225 3.23t-0.225 3.23zM20.131 28.094q1.878-0.601 3.906-2.291t3.080-3.418h-4.732q-0.751 3.005-2.254 5.709zM19.756 19.23q0.225-1.577 0.225-3.23t-0.225-3.23h-7.512q-0.225 1.577-0.225 3.23t0.225 3.23h7.512zM16 28.77q2.103-3.080 3.080-6.385h-6.16q0.977 3.305 3.080 6.385zM9.615 9.615q0.901-3.23 2.254-5.709-1.878 0.601-3.944 2.291t-3.042 3.418h4.732zM4.883 22.385q0.977 1.728 3.042 3.418t3.944 2.291q-1.502-2.704-2.254-5.709h-4.732zM3.606 19.23h5.408q-0.225-1.577-0.225-3.23t0.225-3.23h-5.408q-0.451 2.103-0.451 3.23t0.451 3.23zM16 3.23q-2.103 3.080-3.080 6.385h6.16q-0.977-3.305-3.080-6.385zM27.117 9.615q-1.052-1.728-3.080-3.418t-3.906-2.291q1.352 2.479 2.254 5.709h4.732zM16 0q6.61 0 11.305 4.695t4.695 11.305-4.695 11.305-11.305 4.695-11.305-4.695-4.695-11.305 4.695-11.305 11.305-4.695z"></path>
  </svg>