<svg  xmlns="http://www.w3.org/2000/svg" viewBox="0 0 32 32">
    <path d="M14.077 4.077c0.431 0 0.769 0.338 0.769 0.769v3.077h9.231v9.231h3.077c0.431 0 0.769 0.338 0.769 0.769s-0.338 0.769-0.769 0.769h-3.077v9.231h-3.262c-1.046-2.692-3.677-4.615-6.738-4.615s-5.692 1.923-6.738 4.615h-3.262v-3.262c2.692-1.046 4.615-3.677 4.615-6.738s-1.908-5.692-4.6-6.738l-0.015-3.262h9.231v-3.077c0-0.431 0.338-0.769 0.769-0.769zM14.077 1c-2.123 0-3.846 1.723-3.846 3.846h-6.154c-1.692 0-3.062 1.385-3.062 3.077v5.846h0.446c2.292 0 4.154 1.862 4.154 4.154s-1.862 4.154-4.154 4.154h-0.462v5.846c0 1.692 1.385 3.077 3.077 3.077h5.846v-0.462c0-2.292 1.862-4.154 4.154-4.154s4.154 1.862 4.154 4.154v0.462h5.846c1.692 0 3.077-1.385 3.077-3.077v-6.154c2.123 0 3.846-1.723 3.846-3.846s-1.723-3.846-3.846-3.846v-6.154c0-1.692-1.385-3.077-3.077-3.077h-6.154c0-2.123-1.723-3.846-3.846-3.846z"></path>
  </svg>