<svg  xmlns="http://www.w3.org/2000/svg" viewBox="0 0 32 32">
    <path d="M3.074 1c-0.646 0-1.17 0.524-1.17 1.17s0.524 1.17 1.17 1.17h25.851c0.646 0 1.17-0.524 1.17-1.17s-0.524-1.17-1.17-1.17v0zM3.074 17.526c-0.646 0-1.17 0.524-1.17 1.17s0.524 1.17 1.17 1.17h25.851c0.646 0 1.17-0.524 1.17-1.17s-0.524-1.17-1.17-1.17v0zM1.904 8.517c0-1.175 0.953-2.128 2.128-2.128v0h3.83c1.175 0 2.128 0.953 2.128 2.128v0 3.83c0 1.175-0.953 2.128-2.128 2.128v0h-3.83c-1.175 0-2.128-0.953-2.128-2.128v0zM4.245 8.73v3.404h3.404v-3.404zM14.085 6.389c-1.175 0-2.128 0.953-2.128 2.128v0 3.83c0 1.175 0.953 2.128 2.128 2.128v0h3.83c1.175 0 2.128-0.953 2.128-2.128v0-3.83c0-1.175-0.953-2.128-2.128-2.128v0zM14.298 12.134v-3.404h3.404v3.404zM22.011 8.517c0-1.175 0.953-2.128 2.128-2.128v0h3.83c1.175 0 2.128 0.953 2.128 2.128v0 3.83c0 1.175-0.953 2.128-2.128 2.128v0h-3.83c-1.175 0-2.128-0.953-2.128-2.128v0zM24.351 8.73v3.404h3.404v-3.404zM4.032 22.915c-1.175 0-2.128 0.953-2.128 2.128v0 3.83c0 1.175 0.953 2.128 2.128 2.128v0h3.83c1.175 0 2.128-0.953 2.128-2.128v0-3.83c0-1.175-0.953-2.128-2.128-2.128v0zM4.245 28.66v-3.404h3.404v3.404zM11.957 25.043c0-1.175 0.953-2.128 2.128-2.128v0h3.83c1.175 0 2.128 0.953 2.128 2.128v0 3.83c0 1.175-0.953 2.128-2.128 2.128v0h-3.83c-1.175 0-2.128-0.953-2.128-2.128v0zM14.298 25.255v3.404h3.404v-3.404zM24.138 22.915c-1.175 0-2.128 0.953-2.128 2.128v0 3.83c0 1.175 0.953 2.128 2.128 2.128v0h3.83c1.175 0 2.128-0.953 2.128-2.128v0-3.83c0-1.175-0.953-2.128-2.128-2.128v0zM24.351 28.66v-3.404h3.404v3.404z"></path>
  </svg>