<svg  xmlns="http://www.w3.org/2000/svg" viewBox="0 0 32 32">
    <path d="M10.044 21.956c-0.447 0-0.744-0.149-1.042-0.447-0.596-0.596-0.596-1.489 0-2.084l3.424-3.424-3.424-3.424c-0.596-0.596-0.596-1.489 0-2.084s1.489-0.596 2.084 0l4.467 4.467c0.596 0.596 0.596 1.489 0 2.084l-4.467 4.467c-0.298 0.298-0.596 0.447-1.042 0.447zM21.956 21.956h-4.467c-0.893 0-1.489-0.596-1.489-1.489s0.596-1.489 1.489-1.489h4.467c0.893 0 1.489 0.596 1.489 1.489s-0.596 1.489-1.489 1.489z"></path>
    <path d="M26.422 29.4h-20.844c-2.531 0-4.467-1.936-4.467-4.467v-17.867c0-2.531 1.936-4.467 4.467-4.467h20.844c2.531 0 4.467 1.936 4.467 4.467v17.867c0 2.531-1.936 4.467-4.467 4.467zM5.578 5.578c-0.893 0-1.489 0.596-1.489 1.489v17.867c0 0.893 0.596 1.489 1.489 1.489h20.844c0.893 0 1.489-0.596 1.489-1.489v-17.867c0-0.893-0.596-1.489-1.489-1.489h-20.844z"></path>
  </svg>