<svg  xmlns="http://www.w3.org/2000/svg" viewBox="0 0 32 32">
    <path d="M12.224 9.024c0.368-0.8 0.576-1.68 0.576-2.624 0-3.536-2.864-6.4-6.4-6.4s-6.4 2.864-6.4 6.4 2.864 6.4 6.4 6.4c0.944 0 1.824-0.208 2.624-0.576l3.776 3.776-3.776 3.776c-0.8-0.368-1.68-0.576-2.624-0.576-3.536 0-6.4 2.864-6.4 6.4s2.864 6.4 6.4 6.4 6.4-2.864 6.4-6.4c0-0.944-0.208-1.824-0.576-2.624l3.776-3.776 11.2 11.2h4.8v-1.6l-19.776-19.776zM6.4 9.6c-1.76 0-3.2-1.424-3.2-3.2s1.44-3.2 3.2-3.2 3.2 1.424 3.2 3.2-1.44 3.2-3.2 3.2zM6.4 28.8c-1.76 0-3.2-1.424-3.2-3.2s1.44-3.2 3.2-3.2 3.2 1.424 3.2 3.2-1.44 3.2-3.2 3.2zM16 16.8c-0.448 0-0.8-0.352-0.8-0.8s0.352-0.8 0.8-0.8 0.8 0.352 0.8 0.8-0.352 0.8-0.8 0.8zM27.2 1.6l-9.6 9.6 3.2 3.2 11.2-11.2v-1.6h-4.8z"></path>
  </svg>