<svg  xmlns="http://www.w3.org/2000/svg" viewBox="0 0 32 32">
    <path d="M6.9 4.333c0.1 1.483 0.35 2.933 0.75 4.317l-2 2c-0.683-2-1.117-4.117-1.267-6.317h2.517zM23.333 24.367c1.417 0.4 2.867 0.65 4.333 0.75v2.483c-2.2-0.15-4.317-0.583-6.333-1.25l2-1.983zM8.5 1h-5.833c-0.917 0-1.667 0.75-1.667 1.667 0 15.65 12.683 28.333 28.333 28.333 0.917 0 1.667-0.75 1.667-1.667v-5.817c0-0.917-0.75-1.667-1.667-1.667-2.067 0-4.083-0.333-5.95-0.95-0.167-0.067-0.35-0.083-0.517-0.083-0.433 0-0.85 0.167-1.183 0.483l-3.667 3.667c-4.717-2.417-8.583-6.267-10.983-10.983l3.667-3.667c0.467-0.467 0.6-1.117 0.417-1.7-0.617-1.867-0.95-3.867-0.95-5.95 0-0.917-0.75-1.667-1.667-1.667z"></path>
  </svg>