<svg  xmlns="http://www.w3.org/2000/svg" viewBox="0 0 32 32">
    <path d="M21.12 6.5c-2 0-3.12 1-3.12 3v13c0 2 1 3 3 3h8c2 0 3-1 3-3v-13c0-2-1-3-3-3zM24.98 8.9c1.6 0 2.8 0.4 3.6 1.28 1 0.8 1.4 2 1.4 3.4 0 1-0.4 2-1 2.88-0.4 0.6-1.2 1.2-2 1.86l-1.2 0.8c-0.8 0.6-1.2 0.8-1.4 1.1-0.2 0.2-0.4 0.4-0.6 0.8h6.4v2.54h-10c0-1 0.2-2 0.6-2.86 0.4-0.98 1.4-2 3-3.080 1.4-1 2.2-1.6 2.6-2.040 0.6-0.6 0.8-1.4 0.8-2.1 0-0.6-0.2-1.2-0.6-1.54-0.4-0.4-0.8-0.6-1.4-0.6-0.8 0-1.4 0.4-1.8 1-0.2 0.4-0.2 1-0.4 1.8h-2.8c0-1.2 0.4-2.2 0.6-3 0.8-1.4 2.2-2.2 4-2.2zM3.080 6.5c-2 0-3.080 1-3.080 3v13c0 2 1 3 3.080 3h8c2 0 3-1 3-3v-13c0-2-1-3-3-3zM6.68 8.75h2.32v14.75h-3v-10.2h-3.4v-2c1 0 1.6 0 1.94-0.060 0.66-0.14 1.060-0.34 1.46-0.74 0.2-0.4 0.4-0.6 0.5-1s0.1-0.6 0.1-0.6z"></path>
  </svg>