<svg  xmlns="http://www.w3.org/2000/svg" viewBox="0 0 32 32">
    <path d="M31.226 12.293v2.406h-7.967l-0.467 4.577h0.070c0.484-0.493 1.078-0.876 1.742-1.111l0.032-0.010c0.579-0.222 1.249-0.351 1.949-0.351 0.029 0 0.058 0 0.087 0.001l-0.004-0c0.058-0.002 0.126-0.004 0.194-0.004 1.425 0 2.713 0.589 3.633 1.536l0.001 0.001c0.933 1.043 1.504 2.427 1.504 3.944 0 0.108-0.003 0.215-0.009 0.321l0.001-0.015c0.001 0.039 0.002 0.085 0.002 0.132 0 1.652-0.762 3.127-1.953 4.092l-0.010 0.008c-1.127 0.917-2.58 1.472-4.163 1.472-0.048 0-0.095-0-0.143-0.002l0.007 0c-0.047 0.001-0.101 0.002-0.157 0.002-1.41 0-2.712-0.465-3.76-1.251l0.016 0.012c-1.151-0.85-1.909-2.175-1.984-3.68l-0-0.011h2.685c0.056 0.827 0.462 1.55 1.069 2.028l0.006 0.005c0.557 0.368 1.24 0.588 1.974 0.588 0.061 0 0.122-0.002 0.182-0.005l-0.009 0c0.029 0.001 0.063 0.001 0.097 0.001 0.924 0 1.767-0.346 2.406-0.915l-0.004 0.003c0.62-0.585 1.006-1.413 1.006-2.331 0-0.043-0.001-0.086-0.003-0.128l0 0.006c0.003-0.060 0.005-0.129 0.005-0.199 0-0.928-0.328-1.78-0.874-2.445l0.005 0.007c-0.564-0.596-1.361-0.968-2.244-0.968-0.083 0-0.166 0.003-0.247 0.010l0.011-0.001c-0.041-0.001-0.090-0.002-0.138-0.002-0.627 0-1.222 0.139-1.755 0.387l0.026-0.011c-0.581 0.28-1.046 0.723-1.346 1.27l-0.008 0.016h-2.54l0.91-9.39z"></path>
    <path d="M14.076 2.705v11.673h-11.158v-11.673h-2.918v26.265h2.918v-11.673h11.158v11.673h2.918v-26.265z"></path>
  </svg>