<svg  xmlns="http://www.w3.org/2000/svg" viewBox="0 0 32 32">
    <path d="M32 18.76c0-3.52-2.733-6.373-6.2-6.613-0.907-4.6-4.947-8.053-9.8-8.053-1.773 0-3.427 0.48-4.867 1.293l1.987 1.987c0.893-0.387 1.853-0.613 2.88-0.613 4.053 0 7.333 3.28 7.333 7.333v0.667h2c2.213 0 4 1.787 4 4 0 1.32-0.64 2.467-1.613 3.2l1.88 1.88c1.453-1.227 2.4-3.027 2.4-5.080zM5.88 3.907l-1.88 1.88 3.693 3.693h-0.56c-4.013 0.427-7.133 3.827-7.133 7.947 0 4.413 3.587 8 8 8h15.64l2.667 2.667 1.88-1.88-22.307-22.307zM8 22.76c-2.947 0-5.333-2.387-5.333-5.333s2.387-5.333 5.333-5.333h2.307l10.667 10.667h-12.973z"></path>
  </svg>