<svg  xmlns="http://www.w3.org/2000/svg" viewBox="0 0 32 32">
     <path d="M16 22.182q2.582 0 4.382-1.8t1.8-4.382-1.8-4.382-4.382-1.8-4.382 1.8-1.8 4.382 1.8 4.382 4.382 1.8zM16 20.073q-1.709 0-2.891-1.182t-1.182-2.891 1.182-2.891 2.891-1.182 2.891 1.182 1.182 2.891-1.182 2.891-2.891 1.182zM16 26.909q-5.309 0-9.6-3.018t-6.4-7.891q2.109-4.873 6.4-7.891t9.6-3.018 9.6 3.018 6.4 7.891q-2.109 4.873-6.4 7.891t-9.6 3.018zM16 24.727q4.4 0 8.091-2.382t5.618-6.345q-1.927-3.964-5.618-6.345t-8.091-2.382-8.091 2.382-5.655 6.345q1.964 3.964 5.655 6.345t8.091 2.382z"></path>
  </svg>