<svg  xmlns="http://www.w3.org/2000/svg" viewBox="0 0 32 32">
    <path d="M14.067 2.712v11.666h-11.151v-11.666h-2.916v26.248h2.916v-11.666h11.151v11.666h2.916v-26.248z"></path>
    <path d="M31.669 16.518h-2.661c-0.178-1.318-1.295-2.323-2.647-2.323-0.087 0-0.173 0.004-0.258 0.012l0.011-0.001c-0.003 0-0.006 0-0.010 0-1.151 0-2.149 0.655-2.642 1.612l-0.008 0.017c-0.606 1.017-0.964 2.243-0.964 3.553 0 0.105 0.002 0.209 0.007 0.313l-0-0.015v0.21h0.117c0.432-0.657 1.025-1.176 1.724-1.507l0.026-0.011c0.615-0.296 1.338-0.469 2.101-0.469 0.049 0 0.099 0.001 0.148 0.002l-0.007-0c0.070-0.003 0.153-0.005 0.236-0.005 1.449 0 2.756 0.603 3.685 1.573l0.002 0.002c0.914 1.005 1.474 2.347 1.474 3.82 0 0.077-0.002 0.153-0.005 0.229l0-0.011c0.001 0.045 0.002 0.098 0.002 0.151 0 1.564-0.654 2.975-1.703 3.976l-0.002 0.002c-1.048 1.011-2.476 1.635-4.049 1.635-0.046 0-0.091-0.001-0.137-0.002l0.007 0c-0.088 0.005-0.192 0.008-0.295 0.008-1.797 0-3.391-0.869-4.385-2.21l-0.010-0.015c-1.008-1.518-1.609-3.383-1.609-5.388 0-0.208 0.006-0.414 0.019-0.619l-0.001 0.028c-0.009-0.166-0.013-0.36-0.013-0.556 0-2.24 0.639-4.33 1.745-6.098l-0.028 0.048c0.939-1.523 2.599-2.522 4.491-2.522 0.037 0 0.075 0 0.112 0.001l-0.006-0q4.904 0 5.532 4.553zM23.636 21.062c-0.54 0.618-0.87 1.433-0.87 2.325 0 0.077 0.002 0.154 0.007 0.23l-0.001-0.010c-0.003 0.054-0.005 0.117-0.005 0.181 0 0.897 0.348 1.712 0.916 2.319l-0.002-0.002c0.569 0.564 1.351 0.912 2.216 0.912 0.041 0 0.083-0.001 0.123-0.002l-0.006 0c0.038 0.002 0.084 0.003 0.129 0.003 0.881 0 1.675-0.374 2.232-0.972l0.002-0.002c0.567-0.628 0.914-1.463 0.914-2.38 0-0.049-0.001-0.098-0.003-0.146l0 0.007c0.002-0.045 0.003-0.097 0.003-0.149 0-0.884-0.329-1.691-0.871-2.306l0.003 0.004c-0.574-0.579-1.369-0.937-2.248-0.937-0.055 0-0.11 0.001-0.164 0.004l0.008-0c-0.058-0.004-0.126-0.006-0.195-0.006-0.86 0-1.635 0.36-2.184 0.938l-0.001 0.001z"></path>
  </svg>