<svg  xmlns="http://www.w3.org/2000/svg" viewBox="0 0 32 32">
    <path d="M20.708 29.091c-0-0.029-0.001-0.064-0.001-0.099 0-1.638 0.619-3.132 1.635-4.26l-0.005 0.006c1.091-1.126 2.302-2.125 3.614-2.981l0.080-0.049c0.874-0.596 1.639-1.223 2.344-1.91l-0.004 0.004c0.676-0.71 1.1-1.665 1.124-2.72l0-0.005c0.005-0.061 0.008-0.132 0.008-0.204 0-0.735-0.292-1.402-0.766-1.891l0.001 0.001c-0.543-0.44-1.243-0.706-2.005-0.706-0.078 0-0.155 0.003-0.231 0.008l0.010-0.001c-0.053-0.004-0.115-0.006-0.177-0.006-0.881 0-1.664 0.42-2.16 1.070l-0.005 0.007c-0.549 0.803-0.876 1.794-0.876 2.862 0 0.068 0.001 0.135 0.004 0.202l-0-0.010h-2.502c-0.003-0.070-0.004-0.151-0.004-0.234 0-1.625 0.602-3.11 1.595-4.244l-0.006 0.007c0.98-1.104 2.404-1.797 3.989-1.797 0.081 0 0.161 0.002 0.241 0.005l-0.011-0c0.070-0.003 0.152-0.005 0.235-0.005 1.4 0 2.678 0.522 3.65 1.383l-0.006-0.005c0.919 0.862 1.492 2.084 1.492 3.44 0 0.051-0.001 0.102-0.002 0.153l0-0.007c-0.017 1.529-0.624 2.913-1.602 3.938l0.002-0.002c-1.012 0.966-2.122 1.848-3.308 2.624l-0.088 0.054c-1.337 0.743-2.414 1.812-3.146 3.102l-0.021 0.040h8.195v2.23zM13.943 29.091v-11.636h-11.034v11.636h-2.909v-26.182h2.909v11.636h11.033v-11.636h2.909v26.182z"></path>
  </svg>