<svg  xmlns="http://www.w3.org/2000/svg" viewBox="0 0 32 32">
    <path d="M16 20.932q2.043 0 3.488-1.444t1.444-3.488-1.444-3.488-3.488-1.444-3.488 1.444-1.444 3.488 1.444 3.488 3.488 1.444zM16 23.045q-2.924 0-4.985-2.061t-2.061-4.985 2.061-4.985 4.985-2.061 4.985 2.061 2.061 4.985-2.061 4.985-4.985 2.061zM1.557 17.057q-0.458 0-0.757-0.299t-0.299-0.757 0.299-0.757 0.757-0.299h3.523q0.458 0 0.757 0.299t0.299 0.757-0.299 0.757-0.757 0.299zM26.92 17.057q-0.458 0-0.757-0.299t-0.299-0.757 0.299-0.757 0.757-0.299h3.523q0.458 0 0.757 0.299t0.299 0.757-0.299 0.757-0.757 0.299zM16 6.136q-0.458 0-0.757-0.299t-0.299-0.757v-3.523q0-0.458 0.299-0.757t0.757-0.299 0.757 0.299 0.299 0.757v3.523q0 0.458-0.299 0.757t-0.757 0.299zM16 31.5q-0.458 0-0.757-0.299t-0.299-0.757v-3.523q0-0.458 0.299-0.757t0.757-0.299 0.757 0.299 0.299 0.757v3.523q0 0.458-0.299 0.757t-0.757 0.299zM7.545 9.025l-2.008-1.973q-0.317-0.317-0.299-0.757t0.299-0.757q0.317-0.317 0.757-0.317t0.757 0.317l1.973 2.008q0.282 0.317 0.282 0.74t-0.282 0.705q-0.282 0.317-0.722 0.317t-0.757-0.282zM24.948 26.462l-1.973-2.008q-0.282-0.317-0.282-0.757t0.317-0.722q0.282-0.317 0.705-0.317t0.74 0.317l2.008 1.973q0.317 0.317 0.299 0.757t-0.299 0.757q-0.317 0.317-0.757 0.317t-0.757-0.317zM22.975 9.025q-0.317-0.317-0.317-0.74t0.317-0.74l1.973-2.008q0.317-0.317 0.757-0.299t0.757 0.299q0.317 0.317 0.317 0.757t-0.317 0.757l-2.008 1.973q-0.282 0.282-0.722 0.282t-0.757-0.282zM5.537 26.462q-0.317-0.317-0.317-0.757t0.317-0.757l2.008-1.973q0.317-0.317 0.74-0.317t0.74 0.317 0.317 0.74-0.317 0.74l-1.973 2.008q-0.317 0.317-0.757 0.299t-0.757-0.299z"></path>
  </svg>