<svg  xmlns="http://www.w3.org/2000/svg" viewBox="0 0 32 32">
    <path d="M4.75 31q-1.547 0-2.648-1.102t-1.102-2.648 1.102-2.648 2.648-1.102 2.648 1.102 1.102 2.648-1.102 2.648-2.648 1.102zM19.75 31q-1.547 0-2.648-1.102t-1.102-2.648 1.102-2.648 2.648-1.102 2.648 1.102 1.102 2.648-1.102 2.648-2.648 1.102zM12.25 23.5q-1.547 0-2.648-1.102t-1.102-2.648 1.102-2.648 2.648-1.102 2.648 1.102 1.102 2.648-1.102 2.648-2.648 1.102zM27.25 23.5q-1.547 0-2.648-1.102t-1.102-2.648 1.102-2.648 2.648-1.102 2.648 1.102 1.102 2.648-1.102 2.648-2.648 1.102zM4.75 16q-1.547 0-2.648-1.102t-1.102-2.648 1.102-2.648 2.648-1.102 2.648 1.102 1.102 2.648-1.102 2.648-2.648 1.102zM19.75 16q-1.547 0-2.648-1.102t-1.102-2.648 1.102-2.648 2.648-1.102 2.648 1.102 1.102 2.648-1.102 2.648-2.648 1.102zM12.25 8.5q-1.547 0-2.648-1.102t-1.102-2.648 1.102-2.648 2.648-1.102 2.648 1.102 1.102 2.648-1.102 2.648-2.648 1.102zM27.25 8.5q-1.547 0-2.648-1.102t-1.102-2.648 1.102-2.648 2.648-1.102 2.648 1.102 1.102 2.648-1.102 2.648-2.648 1.102z"></path>
  </svg>