<svg  xmlns="http://www.w3.org/2000/svg" viewBox="0 0 32 32">
    <path d="M21.213 22.857q-0.904 0.164-1.725 0.164t-1.725-0.164v-6.159l-4.434 4.352q-1.314-1.068-2.382-2.463l4.352-4.352h-6.159q-0.164-0.904-0.164-1.725t0.164-1.806h6.159l-4.352-4.352q0.575-0.821 1.149-1.314 0.411-0.493 1.232-1.149l4.434 4.352v-6.159q0.904-0.083 1.725-0.083t1.725 0.083v6.159l4.434-4.352q1.314 1.068 2.382 2.463l-4.352 4.352h6.159q0.164 0.985 0.164 1.806t-0.164 1.725h-6.159l4.352 4.352q-0.575 0.821-1.149 1.314-0.411 0.493-1.232 1.149l-4.434-4.352v6.159zM2.001 26.47q0-1.396 1.026-2.422t2.463-1.026 2.463 1.026 1.026 2.463-1.026 2.463-2.463 1.026-2.463-1.026-1.026-2.504z"></path>
  </svg>