<svg  xmlns="http://www.w3.org/2000/svg" viewBox="0 0 32 32">
    <path d="M30.222 8.889h-4.996c-0.8-1.387-1.902-2.578-3.236-3.484l2.898-2.898-2.507-2.507-3.858 3.858c-0.818-0.196-1.653-0.302-2.524-0.302s-1.707 0.107-2.507 0.302l-3.876-3.858-2.507 2.507 2.88 2.898c-1.316 0.907-2.418 2.098-3.218 3.484h-4.996v3.556h3.716c-0.089 0.587-0.16 1.173-0.16 1.778v1.778h-3.556v3.556h3.556v1.778c0 0.604 0.071 1.191 0.16 1.778h-3.716v3.556h4.996c1.849 3.182 5.28 5.333 9.227 5.333s7.378-2.151 9.227-5.333h4.996v-3.556h-3.716c0.089-0.587 0.16-1.173 0.16-1.778v-1.778h3.556v-3.556h-3.556v-1.778c0-0.604-0.071-1.191-0.16-1.778h3.716v-3.556zM23.111 16v5.333c0 0.391-0.053 0.836-0.124 1.244l-0.178 1.156-0.658 1.156c-1.28 2.204-3.627 3.556-6.151 3.556s-4.871-1.369-6.151-3.556l-0.658-1.138-0.178-1.156c-0.071-0.409-0.124-0.853-0.124-1.262v-7.111c0-0.409 0.053-0.853 0.124-1.244l0.178-1.156 0.658-1.156c0.533-0.924 1.28-1.724 2.151-2.329l1.013-0.693 1.316-0.32c0.551-0.142 1.12-0.213 1.671-0.213 0.569 0 1.12 0.071 1.689 0.213l1.209 0.284 1.084 0.747c0.889 0.604 1.618 1.387 2.151 2.329l0.676 1.156 0.178 1.156c0.071 0.391 0.124 0.836 0.124 1.227v1.778zM12.444 19.556h7.111v3.556h-7.111zM12.444 12.445h7.111v3.556h-7.111z"></path>
  </svg>