<svg  xmlns="http://www.w3.org/2000/svg" viewBox="0 0 32 32">
    <path d="M22.441 19.868h-1.355l-0.48-0.463c1.681-1.955 2.693-4.494 2.693-7.256 0-6.158-4.991-11.149-11.149-11.149s-11.149 4.991-11.149 11.149 4.991 11.149 11.149 11.149c2.762 0 5.3-1.012 7.256-2.693l0.463 0.48v1.355l8.576 8.559 2.556-2.556-8.559-8.576zM12.149 19.868c-4.271 0-7.719-3.448-7.719-7.719s3.448-7.719 7.719-7.719 7.719 3.448 7.719 7.719-3.448 7.719-7.719 7.719zM13.007 7.861h-1.715v3.431h-3.431v1.715h3.431v3.431h1.715v-3.431h3.431v-1.715h-3.431z"></path>
  </svg>