<svg  xmlns="http://www.w3.org/2000/svg" viewBox="0 0 32 32">
    <path d="M21.418 17.655l-1.6-1.6q0.945-2.582-0.982-4.291t-4.182-0.873l-1.6-1.6q0.618-0.4 1.382-0.582t1.564-0.182q2.582 0 4.382 1.8t1.8 4.382q0 0.8-0.2 1.582t-0.564 1.364zM26.109 22.346l-1.455-1.455q1.782-1.309 3.109-2.927t1.945-3.255q-1.818-4.036-5.455-6.382t-7.891-2.345q-1.527 0-3.127 0.291t-2.509 0.691l-1.673-1.709q1.273-0.582 3.255-1.018t3.873-0.436q5.2 0 9.509 2.964t6.309 7.945q-0.945 2.327-2.436 4.255t-3.455 3.382zM28.218 30.564l-6.109-6q-1.273 0.509-2.873 0.782t-3.236 0.273q-5.309 0-9.636-2.964t-6.364-7.945q0.727-1.891 2.018-3.691t3.145-3.436l-4.582-4.582 1.527-1.564 27.527 27.527zM6.655 9.109q-1.345 0.982-2.6 2.582t-1.8 3.018q1.855 4.036 5.582 6.382t8.455 2.345q1.2 0 2.364-0.145t1.745-0.436l-2.327-2.327q-0.4 0.182-0.982 0.273t-1.091 0.091q-2.545 0-4.364-1.782t-1.818-4.4q0-0.545 0.091-1.091t0.273-0.982z"></path>
  </svg>