<svg  xmlns="http://www.w3.org/2000/svg" viewBox="0 0 32 32">
    <path d="M16 31c-8.265 0-15-6.735-15-15s6.735-15 15-15 15 6.060 15 13.5c0 4.965-4.035 9-9 9h-2.655c-0.42 0-0.75 0.33-0.75 0.75 0 0.18 0.075 0.345 0.195 0.495 0.615 0.705 0.96 1.59 0.96 2.505 0 2.070-1.68 3.75-3.75 3.75zM16 4c-6.615 0-12 5.385-12 12s5.385 12 12 12c0.42 0 0.75-0.33 0.75-0.75 0-0.24-0.12-0.42-0.21-0.525-0.615-0.69-0.945-1.575-0.945-2.475 0-2.070 1.68-3.75 3.75-3.75h2.655c3.315 0 6-2.685 6-6 0-5.79-5.385-10.5-12-10.5z"></path>
    <path d="M10 15.25c0 1.242-1.008 2.25-2.25 2.25s-2.25-1.008-2.25-2.25c0-1.242 1.008-2.25 2.25-2.25s2.25 1.008 2.25 2.25z"></path>
    <path d="M14.5 9.25c0 1.242-1.008 2.25-2.25 2.25s-2.25-1.008-2.25-2.25c0-1.242 1.008-2.25 2.25-2.25s2.25 1.008 2.25 2.25z"></path>
    <path d="M22 9.25c0 1.242-1.008 2.25-2.25 2.25s-2.25-1.008-2.25-2.25c0-1.242 1.008-2.25 2.25-2.25s2.25 1.008 2.25 2.25z"></path>
    <path d="M26.5 15.25c0 1.242-1.008 2.25-2.25 2.25s-2.25-1.008-2.25-2.25c0-1.242 1.008-2.25 2.25-2.25s2.25 1.008 2.25 2.25z"></path>
  </svg>