<!-- Generated by IcoMoon.io -->
<svg version="1.1" xmlns="http://www.w3.org/2000/svg" width="32" height="32" viewBox="0 0 32 32">
<path d="M9.364 25.999l6.636-3.981 6.636 4.027-1.764-7.541 5.837-5.067-7.691-0.678-3.016-7.118-3.016 7.073-7.691 0.678 5.837 5.083-1.764 7.525zM16 25.546l-8.113 4.886q-0.407 0.256-0.86 0.226t-0.8-0.287-0.528-0.656-0.075-0.898l2.141-9.245-7.163-6.229q-0.393-0.346-0.475-0.777t0.038-0.837 0.452-0.678 0.845-0.332l9.471-0.829 3.665-8.717q0.196-0.452 0.596-0.678t0.807-0.226 0.807 0.226 0.596 0.678l3.665 8.717 9.471 0.829q0.513 0.061 0.845 0.332t0.452 0.678 0.038 0.837-0.475 0.777l-7.163 6.229 2.141 9.245q0.106 0.498-0.075 0.898t-0.528 0.656-0.799 0.287-0.86-0.226l-8.113-4.886z"></path>
</svg>
