<!-- Generated by IcoMoon.io -->
<svg version="1.1" xmlns="http://www.w3.org/2000/svg" width="32" height="32" viewBox="0 0 32 32">
<path d="M29.177 10.542c-0.381-1.515 0.381-3.931 2.823-4.785l-2.612-0.138s-0.988-3.462-5.523-3.769c-4.535-0.312-7.5-0.115-7.5-0.115s3.362 2.138 2.015 5.95c-0.985 2.019-2.531 3.677-4.185 5.565-0.050 0.050-0.096 0.1-0.135 0.142-5.469 6.165-14.062 15.973-14.062 15.973 9.458 2.477 15.796-0.242 19.546-3.504 0.788-0.008 1.381-0.012 1.781-0.012 5.223 0 9.638-4.523 9.458-9.554-0.123-3.458-1.227-4.238-1.608-5.754z"></path>
</svg>
