<!-- Generated by IcoMoon.io -->
<svg version="1.1" xmlns="http://www.w3.org/2000/svg" width="32" height="32" viewBox="0 0 32 32">
<path d="M8.628 30.583q-1.17 0-1.989-0.82-0.819-0.819-0.819-1.989v-23.55q0-1.17 0.819-1.989 0.82-0.82 1.989-0.82h8.080q3.389 0 5.933 2.155t2.545 5.502q0 2.132-1.132 3.803-1.132 1.672-2.917 2.501v0.164q2.184 0.666 3.614 2.547t1.429 4.408q0 3.648-2.773 5.868t-6.28 2.22h-8.497zM9.608 27.166h7.303q2.331 0 3.879-1.462t1.548-3.509q0-2.011-1.541-3.473t-3.906-1.462h-7.283v9.906zM9.608 13.978h6.865q2.066 0 3.52-1.311t1.455-3.283q0-1.978-1.47-3.292t-3.482-1.314h-6.887v9.2z"></path>
</svg>
