<!-- Generated by IcoMoon.io -->
<svg version="1.1" xmlns="http://www.w3.org/2000/svg" width="32" height="32" viewBox="0 0 32 32">
<path d="M15.911 32q-6.074 0-10.518-3.963t-5.2-9.874q-0.089-0.578 0.311-1.030t1.038-0.482q0.592-0.030 1.037 0.34t0.578 0.993q0.682 4.74 4.281 7.896t8.474 3.156q5.496 0 9.311-3.844t3.814-9.34q0-5.408-3.844-9.148t-9.281-3.74q-3.037 0-5.689 1.392t-4.563 3.734h3.26q0.637 0 1.059 0.422t0.422 1.059-0.422 1.060-1.059 0.422h-6.785q-0.637 0-1.059-0.422t-0.422-1.060v-6.756q0-0.637 0.422-1.059t1.059-0.422 1.059 0.422 0.422 1.059v3.052q2.296-2.756 5.504-4.311t6.792-1.556q3.334 0 6.259 1.252t5.111 3.407 3.452 5.052 1.267 6.23-1.267 6.259-3.452 5.096-5.111 3.437-6.259 1.267zM17.511 15.348l4.889 4.83q0.43 0.43 0.43 1.052t-0.43 1.052-1.037 0.43-1.038-0.43l-5.334-5.274q-0.237-0.238-0.34-0.511t-0.104-0.57v-7.422q0-0.637 0.422-1.059t1.060-0.422 1.059 0.422 0.422 1.059v6.844z"></path>
</svg>
