<!-- Generated by IcoMoon.io -->
<svg version="1.1" xmlns="http://www.w3.org/2000/svg" width="32" height="32" viewBox="0 0 32 32">
<path d="M8.917 24.5q-3.542 0-6.021-2.479t-2.479-6.021 2.479-6.021 6.021-2.479q2.621 0 4.533 1.275t2.904 3.376h12.868q0.974 0 1.668 0.694t0.693 1.667v2.975q0 0.974-0.693 1.667t-1.668 0.694h-1.086v2.29q0 0.974-0.694 1.668t-1.667 0.693h-2.503q-0.974 0-1.667-0.693t-0.693-1.668v-2.29h-4.557q-0.992 2.101-2.904 3.376t-4.533 1.275zM8.917 22.139q2.455 0 4.002-1.588t1.827-3.064h8.621v4.651h2.408v-4.651h3.447v-2.975h-14.473q-0.283-1.476-1.83-3.064t-4.002-1.588q-2.55 0-4.345 1.794t-1.794 4.345 1.794 4.345 4.345 1.794zM8.917 18.55q1.074 0 1.812-0.738t0.738-1.812-0.738-1.812-1.812-0.738-1.812 0.738-0.738 1.812 0.738 1.812 1.812 0.738z"></path>
</svg>
