<!-- Generated by IcoMoon.io -->
<svg version="1.1" xmlns="http://www.w3.org/2000/svg" width="32" height="32" viewBox="0 0 32 32">
<path d="M1.935 31.5q-0.61 0-1.023-0.414t-0.413-1.026 0.413-1.021 1.023-0.409h28.13q0.61 0 1.023 0.414t0.413 1.026-0.413 1.021-1.023 0.409h-28.13zM15.713 24.468q-0.61 0-1.023-0.414t-0.413-1.026 0.413-1.021 1.023-0.409h14.352q0.61 0 1.023 0.414t0.413 1.026-0.413 1.021-1.023 0.409h-14.352zM15.713 17.435q-0.61 0-1.023-0.414t-0.413-1.027 0.413-1.021 1.023-0.409h14.352q0.61 0 1.023 0.414t0.413 1.027-0.413 1.021-1.023 0.409h-14.352zM15.713 10.403q-0.61 0-1.023-0.414t-0.413-1.026 0.413-1.021 1.023-0.409h14.352q0.61 0 1.023 0.414t0.413 1.026-0.413 1.021-1.023 0.409h-14.352zM1.935 3.371q-0.61 0-1.023-0.414t-0.413-1.026 0.413-1.021 1.023-0.409h28.13q0.61 0 1.023 0.414t0.413 1.026-0.413 1.021-1.023 0.409h-28.13zM1.705 21.023q-0.373 0.345-0.789 0.165t-0.416-0.682v-9.099q0-0.485 0.445-0.659t0.79 0.171l4.592 4.593q0.23 0.229 0.23 0.502t-0.23 0.502l-4.621 4.507z"></path>
</svg>
