<!-- Generated by IcoMoon.io -->
<svg version="1.1" xmlns="http://www.w3.org/2000/svg" width="32" height="32" viewBox="0 0 32 32">
<path d="M6.485 28.444q-0.551 0-0.924-0.374t-0.373-0.927 0.373-0.922 0.924-0.369h19.030q0.551 0 0.924 0.374t0.373 0.927-0.373 0.922-0.924 0.369h-19.030zM7.367 22.896q-0.938 0-1.665-0.621t-0.889-1.57l-1.685-10.63q-0.156 0.052-0.304 0.071t-0.305 0.019q-0.864 0-1.469-0.606t-0.605-1.471 0.606-1.481 1.471-0.616 1.481 0.612 0.616 1.488q0 0.298-0.084 0.583t-0.24 0.506l5.457 2.437 5.276-7.246q-0.506-0.259-0.817-0.752t-0.311-1.102q0-0.864 0.611-1.469t1.484-0.605 1.489 0.605 0.616 1.469q0 0.609-0.311 1.102t-0.817 0.752l5.276 7.246 5.457-2.437q-0.156-0.22-0.24-0.506t-0.084-0.583q0-0.875 0.616-1.487t1.471-0.612 1.472 0.611 0.616 1.484-0.613 1.476-1.488 0.603q-0.156 0-0.292-0.032t-0.292-0.084l-1.685 10.656q-0.158 0.948-0.87 1.57t-1.684 0.621h-17.267zM7.367 20.304h17.267l1.167-7.428-2.489 1.115q-0.856 0.376-1.737 0.13t-1.439-0.985l-4.135-5.717-4.135 5.717q-0.558 0.739-1.439 0.985t-1.737-0.13l-2.489-1.115 1.167 7.428z"></path>
</svg>
