<!-- Generated by IcoMoon.io -->
<svg version="1.1" xmlns="http://www.w3.org/2000/svg" width="32" height="32" viewBox="0 0 32 32">
<path d="M2.963 32q-1.2 0-2.082-0.881t-0.881-2.082v-26.074q0-1.2 0.881-2.082t2.082-0.881h14.074q0.63 0 1.056 0.428t0.426 1.059-0.426 1.054-1.056 0.422h-14.074v26.074h26.074v-14.074q0-0.63 0.428-1.056t1.059-0.426 1.054 0.426 0.422 1.056v14.074q0 1.2-0.881 2.082t-2.082 0.881h-26.074zM5.333 24.83h21.334l-6.489-8.652-5.541 7.319-4.118-5.452-5.186 6.785zM25.274 6.756h-2.311q-0.63 0-1.056-0.428t-0.426-1.059 0.426-1.054 1.056-0.422h2.311v-2.311q0-0.629 0.427-1.056t1.060-0.426 1.054 0.426 0.422 1.056v2.311h2.282q0.63 0 1.056 0.428t0.426 1.059-0.426 1.054-1.056 0.422h-2.282v2.281q0 0.63-0.427 1.056t-1.060 0.426-1.054-0.426-0.422-1.056v-2.281z"></path>
</svg>
