<!-- Generated by IcoMoon.io -->
<svg version="1.1" xmlns="http://www.w3.org/2000/svg" width="32" height="32" viewBox="0 0 32 32">
<path d="M16 26.253l-5.022 5.022q-0.575 0.575-1.464 0.575t-1.464-0.575-0.575-1.465 0.575-1.465l6.487-6.487q0.314-0.314 0.68-0.444t0.785-0.131 0.785 0.131 0.68 0.444l6.487 6.487q0.575 0.575 0.575 1.465t-0.575 1.465-1.465 0.575-1.465-0.575l-5.022-5.022zM16 5.747l5.022-5.022q0.575-0.575 1.465-0.575t1.465 0.575 0.575 1.465-0.575 1.465l-6.487 6.487q-0.314 0.314-0.68 0.444t-0.785 0.131-0.785-0.131-0.68-0.444l-6.487-6.487q-0.575-0.575-0.575-1.465t0.575-1.464 1.464-0.575 1.464 0.575l5.022 5.022z"></path>
</svg>
