<!-- Generated by IcoMoon.io -->
<svg version="1.1" xmlns="http://www.w3.org/2000/svg" width="32" height="32" viewBox="0 0 32 32">
<path d="M3 6.5c-2 0-3 1-3 3v13c0 2 1 3 3 3h8c2 0 3-1 3-3v-13c0-2-1-3-3-3zM7 8.9c1.6 0 2.8 0.4 3.6 1.2 1 0.8 1.4 2 1.4 3.4 0 1-0.4 2-1 2.8-0.4 0.6-1 1.4-2 2l-1.2 0.8c-0.8 0.6-1.2 0.8-1.5 1.12-0.3 0.28-0.5 0.48-0.7 0.88h6.4v2.6h-10c0-1.2 0.2-2.2 0.6-3 0.6-1.2 1.4-2 3-3.2 1.4-0.8 2.2-1.6 2.56-2 0.64-0.6 0.84-1.2 0.84-2 0-0.6-0.2-1.2-0.46-1.6-0.34-0.4-0.74-0.6-1.54-0.6s-1.4 0.2-1.8 1c-0.080 0.4-0.2 1-0.2 1.8h-2.8c0-1.2 0.2-2.2 0.6-3 0.8-1.4 2.2-2.2 4.2-2.2zM21.080 6.58c-2.080 0-3.080 0.92-3.080 2.92v13c0 2 1 3 3.080 3h8c1.92 0 2.92-1 2.92-3v-13c0-2-1-2.92-3-2.92zM24.88 8.48c1.4 0 2.6 0.4 3.4 1 0.8 0.8 1.2 1.6 1.2 2.8 0 0.8-0.2 1.6-0.8 2.2-0.4 0.4-0.6 0.6-1 0.8 0.2 0 0.6 0.2 1.2 0.6 0.8 0.6 1 1.6 1 2.8s-0.4 2.4-1.2 3.2c-0.8 1-2.2 1.4-3.8 1.4-2 0-3.6-0.6-4.4-2-0.28-0.58-0.48-1.38-0.48-2.58h2.8c0 0.6 0 1 0.2 1.4 0.4 0.8 1 1 2 1 0.6 0 1-0.2 1.4-0.6s0.6-1 0.6-1.6c0-1-0.4-1.6-1.2-1.9-0.4-0.1-1-0.3-2-0.3v-2c1 0 1.6-0.2 2-0.28 0.6-0.2 1-0.8 1-1.8 0-0.6-0.2-1-0.4-1.4-0.4-0.4-0.8-0.6-1.4-0.6s-1.2 0.2-1.5 0.6c-0.4 0.4-0.4 1-0.4 1.72h-2.68c0-0.8 0.2-1.4 0.38-2.2 0-0.24 0.4-0.64 0.8-1.24 0.4-0.4 0.8-0.6 1.4-0.8s1.2-0.2 2-0.2z"></path>
</svg>
