<!-- Generated by IcoMoon.io -->
<svg version="1.1" xmlns="http://www.w3.org/2000/svg" width="32" height="32" viewBox="0 0 32 32">
<path d="M17.021 31.667q-3.181 0-5.899-1.573t-4.403-4.267l-5.353-8.498q-0.202-0.332-0.16-0.706t0.327-0.659l0.071-0.071q0.617-0.629 1.489-0.7t1.584 0.439l4.201 3.038v-14.302q0-0.486 0.338-0.837t0.848-0.35q0.487 0 0.837 0.35t0.35 0.837v16.592q0 0.736-0.647 1.063t-1.24-0.101l-4.119-3.003 3.454 5.531q1.317 2.243 3.525 3.543t4.795 1.3q3.905 0 6.664-2.712t2.759-6.593v-14.195q0-0.486 0.338-0.837t0.849-0.35q0.486 0 0.837 0.35t0.35 0.837v14.195q0 4.878-3.448 8.278t-8.35 3.4zM15.929 0.333q0.51 0 0.848 0.35t0.338 0.837v13.056q0 0.51-0.338 0.848t-0.848 0.338-0.848-0.338-0.338-0.848v-13.056q0-0.486 0.35-0.837t0.837-0.35zM21.792 1.758q0.486 0 0.837 0.35t0.35 0.837v11.631q0 0.51-0.338 0.848t-0.848 0.338-0.849-0.338-0.338-0.848v-11.631q0-0.486 0.338-0.837t0.849-0.35z"></path>
</svg>
