<!-- Generated by IcoMoon.io -->
<svg version="1.1" xmlns="http://www.w3.org/2000/svg" width="32" height="32" viewBox="0 0 32 32">
<path d="M6.566 25.434l-4.061 4.061q-0.616 0.616-1.422 0.278t-0.806-1.208v-25.667q0-1.061 0.779-1.841t1.841-0.779h26.204q1.061 0 1.841 0.779t0.779 1.841v19.915q0 1.061-0.779 1.841t-1.841 0.779h-22.535zM5.44 22.813h23.662v-19.915h-26.204v22.601l2.542-2.686zM2.898 22.813v0zM9.344 14.349q0.668 0 1.12-0.452t0.452-1.12-0.452-1.12-1.12-0.452-1.12 0.452-0.452 1.12 0.452 1.12 1.12 0.452zM16.078 14.349q0.668 0 1.12-0.452t0.452-1.12-0.452-1.12-1.12-0.452-1.12 0.452-0.452 1.12 0.452 1.12 1.12 0.452zM22.63 14.349q0.668 0 1.12-0.452t0.452-1.12-0.452-1.12-1.12-0.452-1.12 0.452-0.452 1.12 0.452 1.12 1.12 0.452z"></path>
</svg>
