<!-- Generated by IcoMoon.io -->
<svg version="1.1" xmlns="http://www.w3.org/2000/svg" width="32" height="32" viewBox="0 0 32 32">
<path d="M20.875 16.759l-2.496-2.496h2.457q0.556 0 0.931 0.376t0.376 0.931q0 0.471-0.274 0.797t-0.706 0.392h-0.288zM29.751 31.177q-0.379 0.379-0.928 0.379t-0.928-0.379l-27.423-27.397q-0.379-0.379-0.379-0.928t0.379-0.928 0.928-0.379 0.928 0.379l27.423 27.423q0.379 0.379 0.379 0.915t-0.379 0.915zM8.157 23.334q-3.255 0-5.549-2.294t-2.294-5.549q0-2.784 1.712-4.928t4.378-2.732l2.431 2.431h-0.679q-2.179 0-3.703 1.523t-1.525 3.699 1.525 3.705 3.703 1.529h5.228q0.556 0 0.931 0.377t0.376 0.934-0.376 0.93-0.931 0.373h-5.228zM11.164 16.799q-0.556 0-0.931-0.377t-0.376-0.935 0.376-0.93 0.931-0.373h1.608l2.601 2.614h-4.209zM25.699 21.91q-0.248-0.484-0.098-1.007t0.621-0.771q1.294-0.666 2.072-1.869t0.778-2.693q0-2.179-1.525-3.703t-3.703-1.525h-4.836q-0.556 0-0.931-0.377t-0.376-0.934 0.376-0.93 0.931-0.373h4.836q3.255 0 5.549 2.294t2.294 5.549q0 2.183-1.144 3.98t-3.026 2.843q-0.471 0.274-1.020 0.137t-0.798-0.621z"></path>
</svg>
