<!-- Generated by IcoMoon.io -->
<svg version="1.1" xmlns="http://www.w3.org/2000/svg" width="32" height="32" viewBox="0 0 32 32">
<path d="M21.772 23.592q-1.001 0.182-1.91 0.182t-1.91-0.182v-6.819l-4.909 4.818q-1.455-1.182-2.637-2.727l4.818-4.818h-6.819q-0.182-1.001-0.182-1.91t0.182-1.999h6.819l-4.818-4.818q0.637-0.909 1.272-1.455 0.455-0.546 1.364-1.272l4.909 4.818v-6.819q1.001-0.092 1.91-0.092t1.91 0.092v6.819l4.909-4.818q1.455 1.182 2.637 2.727l-4.818 4.818h6.819q0.182 1.091 0.182 1.999t-0.182 1.91h-6.819l4.818 4.818q-0.637 0.909-1.272 1.455-0.455 0.546-1.364 1.272l-4.909-4.818v6.819zM0.501 27.592q0-1.546 1.136-2.681t2.727-1.136 2.727 1.136 1.136 2.727-1.136 2.727-2.727 1.136-2.727-1.136-1.136-2.772z"></path>
</svg>
