<!-- Generated by IcoMoon.io -->
<svg version="1.1" xmlns="http://www.w3.org/2000/svg" width="32" height="32" viewBox="0 0 32 32">
<path d="M23.721 31.083q-1.482 0-2.536-1.054-1.054-1.055-1.054-2.536v-22.984q0-1.482 1.054-2.536t2.536-1.054h1.976q1.482 0 2.536 1.054 1.055 1.055 1.055 2.536v22.984q0 1.482-1.055 2.536-1.054 1.054-2.536 1.054h-1.976zM6.303 31.083q-1.482 0-2.536-1.054-1.056-1.055-1.056-2.536v-22.984q0-1.482 1.056-2.536 1.054-1.054 2.536-1.054h1.976q1.482 0 2.536 1.054 1.054 1.055 1.054 2.536v22.984q0 1.482-1.054 2.536t-2.536 1.054h-1.976z"></path>
</svg>
