<!-- Generated by IcoMoon.io -->
<svg version="1.1" xmlns="http://www.w3.org/2000/svg" width="32" height="32" viewBox="0 0 32 32">
<path d="M17.399 15.472v-6.412q0-0.568-0.376-0.944t-0.943-0.376-0.943 0.376-0.376 0.944v6.927q0 0.264 0.092 0.495t0.277 0.442l5.542 5.674q0.383 0.409 0.963 0.396t0.964-0.396 0.382-0.95-0.382-0.95l-5.199-5.225zM16 31.833q-3.259 0-6.149-1.247t-5.041-3.398-3.398-5.041-1.247-6.149 1.247-6.149 3.398-5.041 5.041-3.398 6.149-1.247 6.149 1.247 5.041 3.398 3.398 5.041 1.247 6.149-1.247 6.149-3.398 5.041-5.041 3.398-6.149 1.247zM16 29.194q5.449 0 9.322-3.873t3.873-9.322-3.873-9.322-9.322-3.873-9.322 3.873-3.873 9.322 3.873 9.322 9.322 3.873z"></path>
</svg>
