<!-- Generated by IcoMoon.io -->
<svg version="1.1" xmlns="http://www.w3.org/2000/svg" width="32" height="32" viewBox="0 0 32 32">
<path d="M7.074 17.691s-2.991-3.376-2.868-6.83c0.157-4.381 4.661-10.091 11.176-10.091 1.854 0 5.562 0 10.161 5.431 0.245 0.297-14.832-3.778-18.469 11.49z"></path>
<path d="M17.453 9.409s3.882-1.277 7.154-0.175c4.154 1.399 8.553 6.716 6.699 12.969-0.524 1.775-1.583 5.326-8.098 8.186-0.35 0.157 10.442-13.135-5.755-20.979z"></path>
<path d="M11.026 24.197c-1.907 2.002-3.69 1.714-3.69 1.714l0.569-3.139c-5.15-3.384-6.27-10.161-6.349-9.943-2.405 6.707-0.901 11.193 0.027 12.794 3.261 5.64 11.789 7.232 17.202 3.83 2.921-1.837 4.46-6.943 4.46-6.943-5.212 2.3-9.191 2.527-12.216 1.687z"></path>
</svg>
