<!-- Generated by IcoMoon.io -->
<svg version="1.1" xmlns="http://www.w3.org/2000/svg" width="32" height="32" viewBox="0 0 32 32">
<path d="M26.666 25.186v-18.37q0-0.63-0.428-1.056t-1.059-0.426-1.054 0.426-0.422 1.056v18.37q0 0.63 0.428 1.056t1.059 0.426 1.054-0.426 0.422-1.056zM32 29.037q0 1.2-0.881 2.082t-2.082 0.881h-26.074q-1.2 0-2.082-0.881t-0.881-2.082v-26.074q0-1.2 0.881-2.082t2.082-0.881h26.074q1.2 0 2.082 0.881t0.881 2.082zM29.037 29.037v-26.074h-26.074v26.074zM2.963 29.037h26.074z"></path>
</svg>
