<!-- Generated by IcoMoon.io -->
<svg version="1.1" xmlns="http://www.w3.org/2000/svg" width="32" height="32" viewBox="0 0 32 32">
<path d="M20.396 10.886q1.042 1.042 1.527 2.503t0.222 2.935q0 0.491-0.335 0.82t-0.826 0.33-0.821-0.33-0.329-0.82q0.323-1.126 0.024-2.144t-1.030-1.725q-0.707-0.731-1.737-1.030t-2.144 0.024q-0.491 0-0.821-0.335t-0.329-0.826 0.329-0.82 0.821-0.33q1.461-0.263 2.934 0.222t2.515 1.527zM16.24 6.897q-0.994 0-1.976 0.090t-1.94 0.377q-0.491 0.131-0.94-0.084t-0.629-0.67 0.042-0.911 0.677-0.587q1.114-0.323 2.282-0.467t2.365-0.144q4.923 0 8.977 2.671t6.21 7.079q0.12 0.24 0.192 0.497t0.072 0.533-0.054 0.533-0.174 0.497q-0.767 1.653-1.851 3.066t-2.473 2.599q-0.359 0.323-0.815 0.24t-0.743-0.467-0.234-0.844 0.413-0.784q1.15-0.994 2.084-2.192t1.521-2.647q-1.773-3.821-5.276-6.103t-7.731-2.282zM16 26.061q-4.863 0-8.864-2.689t-6.348-6.977q-0.156-0.263-0.222-0.533t-0.066-0.581 0.072-0.575 0.203-0.539q0.815-1.629 1.886-3.084t2.438-2.653l-3.51-3.521q-0.347-0.359-0.33-0.844t0.341-0.832q0.347-0.347 0.851-0.347t0.851 0.347l25.297 25.297q0.323 0.323 0.329 0.796t-0.329 0.833q-0.323 0.371-0.826 0.371t-0.851-0.347l-5.174-5.079q-1.401 0.491-2.839 0.725t-2.911 0.234zM6.753 10.107q-1.33 1.006-2.36 2.312t-1.665 2.863q1.845 3.893 5.48 6.138t7.983 2.246q0.934 0 1.857-0.066t1.785-0.413l-1.964-1.988q-0.467 0.18-0.934 0.245t-0.934 0.066q-2.599 0-4.414-1.815t-1.815-4.414q0-0.467 0.078-0.934t0.234-0.934l-3.33-3.306z"></path>
</svg>
