<!-- Generated by IcoMoon.io -->
<svg version="1.1" xmlns="http://www.w3.org/2000/svg" width="32" height="32" viewBox="0 0 32 32">
<path d="M14.859 16.814v-9.543q-2.886 0.419-4.515 2.612t-1.629 4.673h-0.675q-2.095 0-3.584 1.478t-1.489 3.666 1.524 3.666 3.619 1.478h17.223q1.536 0 2.618-1.082t1.082-2.618-1.082-2.618-2.618-1.082h-2.165v-2.886q0-2.142-1.024-3.776t-2.653-2.647v-2.595q2.747 1.082 4.376 3.555t1.629 5.464v0.559q2.479 0.046 4.172 1.763t1.693 4.265q0 2.479-1.775 4.254t-4.254 1.775h-17.223q-3.107 0-5.289-2.165t-2.182-5.272q0-2.747 1.722-4.818t4.376-2.549q0.547-2.793 2.898-5.051t5.225-2.257q0.943 0 1.635 0.588t0.692 1.507v9.659l1.862-1.85q0.338-0.337 0.809-0.337t0.82 0.349q0.338 0.337 0.338 0.826t-0.338 0.826l-3.84 3.864q-0.349 0.349-0.814 0.349t-0.815-0.349l-3.863-3.864q-0.338-0.338-0.332-0.82t0.355-0.832q0.338-0.338 0.82-0.344t0.832 0.332l1.838 1.85z"></path>
</svg>
