<!-- Generated by IcoMoon.io -->
<svg version="1.1" xmlns="http://www.w3.org/2000/svg" width="32" height="32" viewBox="0 0 32 32">
<path d="M23.059 17.674l-3.844 6.197q-0.387 0.617-1.083 0.488t-0.882-0.818l-1.348-5.422-12.694 12.665q-0.416 0.416-0.997 0.423t-1.011-0.423q-0.416-0.416-0.416-1.004t0.416-1.004l12.666-12.68-5.422-1.349q-0.689-0.186-0.818-0.882t0.487-1.083l6.197-3.859-0.516-7.272q-0.057-0.718 0.588-1.047t1.176 0.143l5.58 4.69 6.756-2.711q0.674-0.258 1.162 0.229t0.229 1.162l-2.74 6.756 4.69 5.566q0.473 0.53 0.158 1.176t-1.033 0.588l-7.301-0.531zM0.711 6.171q-0.229-0.229-0.229-0.516t0.229-0.516l2.066-2.066q0.229-0.229 0.516-0.229t0.516 0.229l2.037 2.037q0.23 0.23 0.23 0.516t-0.23 0.516l-2.066 2.066q-0.229 0.23-0.516 0.23t-0.516-0.23l-2.037-2.037zM19.028 18.75l2.496-4.059 4.776 0.359-3.098-3.658 1.792-4.418-4.418 1.792-3.658-3.083 0.359 4.762-4.059 2.539 4.647 1.148 1.162 4.618zM25.87 31.301l-2.066-2.066q-0.23-0.229-0.215-0.516t0.243-0.516l2.037-2.037q0.229-0.23 0.516-0.23t0.516 0.23l2.066 2.066q0.229 0.229 0.215 0.516t-0.244 0.516l-2.037 2.037q-0.23 0.229-0.516 0.229t-0.516-0.229z"></path>
</svg>
