<!-- Generated by IcoMoon.io -->
<svg version="1.1" xmlns="http://www.w3.org/2000/svg" width="32" height="32" viewBox="0 0 32 32">
<path d="M5.25 24.845l3-5.156q-0.156 0.031-0.344 0.047t-0.343 0.015q-3.094 0-5.297-2.203t-2.203-5.297 2.203-5.297 5.297-2.203 5.297 2.203 2.203 5.297q0 1.016-0.258 1.951t-0.773 1.799l-6.016 10.468q-0.204 0.391-0.578 0.586t-0.812 0.195q-0.914 0-1.371-0.797t-0.004-1.609zM22.125 24.845l3-5.156q-0.156 0.031-0.344 0.047t-0.343 0.015q-3.094 0-5.297-2.203t-2.203-5.297 2.203-5.297 5.297-2.203 5.297 2.203 2.203 5.297q0 1.016-0.258 1.951t-0.773 1.799l-6.016 10.468q-0.204 0.391-0.578 0.586t-0.812 0.195q-0.914 0-1.371-0.797t-0.004-1.609zM7.555 15.688q1.429 0 2.437-1t1.008-2.43-1-2.437-2.43-1.008-2.437 1-1.008 2.43 1 2.437 2.43 1.008zM24.43 15.688q1.429 0 2.437-1t1.008-2.43-1-2.437-2.43-1.008-2.437 1-1.008 2.43 1 2.437 2.43 1.008z"></path>
</svg>
