<!-- Generated by IcoMoon.io -->
<svg version="1.1" xmlns="http://www.w3.org/2000/svg" width="32" height="32" viewBox="0 0 32 32">
<path d="M5.972 21.977q0.58-0.356 1.24-0.528t1.399-0.172h1.056v-18.472h-1.056q-1.099 0-1.869 0.77t-0.77 1.869v16.533zM12.306 21.278h13.722v-18.472h-13.722v18.472zM5.972 21.977v0zM8.611 31.833q-2.186 0-3.732-1.546t-1.546-3.732v-21.111q0-2.186 1.546-3.732t3.732-1.546h17.417q1.089 0 1.864 0.775t0.775 1.864v20.201q0 0.347-0.218 0.629t-0.68 0.493q-0.686 0.303-1.082 0.944t-0.396 1.478 0.394 1.48 1.083 0.928q0.422 0.185 0.66 0.561t0.238 0.851v0.132q0 0.553-0.379 0.943t-0.94 0.39h-18.736zM8.599 29.194h15.726q-0.317-0.58-0.495-1.247t-0.178-1.392q0-0.739 0.172-1.399t0.528-1.24h-15.752q-1.098 0-1.863 0.77t-0.765 1.87q0 1.108 0.765 1.874t1.862 0.765z"></path>
</svg>
