<!-- Generated by IcoMoon.io -->
<svg version="1.1" xmlns="http://www.w3.org/2000/svg" width="32" height="32" viewBox="0 0 32 32">
<path d="M4.836 8.373l-2.259 2.219q-0.386 0.359-0.924 0.359t-0.937-0.399q-0.385-0.386-0.385-0.93t0.385-0.931l4.518-4.518q0.212-0.212 0.438-0.299t0.492-0.087 0.492 0.087 0.438 0.299l4.518 4.518q0.385 0.386 0.392 0.924t-0.392 0.937q-0.386 0.386-0.924 0.379t-0.937-0.365l-2.259-2.192v15.254l2.259-2.219q0.386-0.359 0.924-0.359t0.937 0.399q0.385 0.386 0.385 0.93t-0.385 0.93l-4.518 4.518q-0.212 0.213-0.438 0.299t-0.492 0.087-0.492-0.087-0.438-0.299l-4.518-4.518q-0.385-0.386-0.392-0.924t0.392-0.937q0.386-0.385 0.924-0.379t0.937 0.365l2.259 2.192v-15.254zM17.060 27.135q-0.571 0-0.95-0.379t-0.379-0.95 0.379-0.95 0.95-0.379h13.288q0.571 0 0.95 0.379t0.379 0.95-0.379 0.95-0.95 0.379h-13.288zM17.060 17.302q-0.571 0-0.95-0.379t-0.379-0.95 0.379-0.95 0.95-0.379h13.288q0.571 0 0.95 0.379t0.379 0.95-0.379 0.95-0.95 0.379h-13.288zM17.060 7.47q-0.571 0-0.95-0.379t-0.379-0.95 0.379-0.95 0.95-0.379h13.288q0.571 0 0.95 0.379t0.379 0.95-0.379 0.95-0.95 0.379h-13.288z"></path>
</svg>
