<!-- Generated by IcoMoon.io -->
<svg version="1.1" xmlns="http://www.w3.org/2000/svg" width="32" height="32" viewBox="0 0 32 32">
<path fill="#d23e31" d="M8.801 3.053c-0.217 0.215-0.389 0.409-0.383 0.43s-0.004 0.029-0.022 0.020c-0.046-0.028-0.39 0.331-0.355 0.369 0.016 0.018 0.011 0.022-0.013 0.008-0.044-0.025-0.24 0.17-0.24 0.239 0 0.023-0.013 0.032-0.028 0.023-0.036-0.023-0.125 0.073-0.094 0.102 0.013 0.013 0.002 0.023-0.023 0.023-0.059 0-0.23 0.171-0.23 0.23 0 0.025-0.010 0.035-0.023 0.024-0.024-0.024-0.33 0.259-0.739 0.679-0.687 0.707-1.262 1.267-1.28 1.251-0.012-0.012-0.021 0.009-0.021 0.045s-0.017 0.054-0.037 0.041c-0.034-0.021-0.054 0.028-0.041 0.103 0.002 0.016-0.017 0.024-0.042 0.019s-0.042 0.013-0.036 0.040c0.006 0.027-0.006 0.040-0.025 0.028s-0.126 0.074-0.236 0.189c-0.31 0.327-0.707 0.721-1.005 0.998-0.149 0.139-0.26 0.253-0.246 0.253s-0.029 0.046-0.098 0.103c-0.244 0.201-0.676 0.666-0.716 0.769-0.014 0.036-0.051 0.066-0.082 0.066s-0.058 0.027-0.058 0.058-0.014 0.050-0.029 0.040c-0.038-0.024-0.724 0.635-0.693 0.666 0.013 0.013 0.002 0.024-0.024 0.024s-0.132 0.088-0.235 0.196c-0.493 0.514-0.787 0.816-0.799 0.816-0.007 0-0.157 0.144-0.335 0.32l-0.322 0.32v8.867c0 6.063 0.012 8.889 0.038 8.939 0.057 0.106 0.116 0.087 0.242-0.075 0.062-0.080 0.126-0.136 0.14-0.127s0.028-0.013 0.028-0.048 0.009-0.056 0.021-0.044c0.020 0.020 2.846-2.767 4.844-4.777 0.17-0.171 0.781-0.781 1.359-1.356s1.039-1.062 1.025-1.084c-0.013-0.022-0.008-0.028 0.012-0.017 0.051 0.031 0.245-0.156 0.214-0.206-0.015-0.024-0.008-0.030 0.016-0.016 0.042 0.026 0.195-0.112 0.195-0.178 0-0.020 0.009-0.027 0.021-0.017 0.070 0.071 0.847-0.818 0.827-0.945-0.012-0.073-0.022-4.108-0.022-8.969s-0.013-8.836-0.028-8.834-0.205 0.18-0.421 0.395zM22.1 3.135c-0.263 0.263-0.478 0.501-0.478 0.53s-0.011 0.041-0.023 0.028c-0.018-0.019-1.207 1.144-2.714 2.654-0.082 0.082-0.757 0.76-1.499 1.504l-1.349 1.354v8.983c0 4.941 0.009 8.983 0.021 8.983 0.041 0 0.199-0.18 0.178-0.202-0.013-0.013 0.001-0.023 0.030-0.024s0.163-0.122 0.296-0.27c0.134-0.147 0.351-0.37 0.483-0.496s0.478-0.469 0.769-0.766c0.291-0.296 0.635-0.642 0.766-0.769 0.667-0.648 1.132-1.111 1.118-1.111-0.009 0 0.138-0.157 0.327-0.349s0.355-0.344 0.371-0.335 0.028-0.015 0.028-0.050 0.011-0.054 0.023-0.041c0.028 0.028 0.127-0.066 0.127-0.123 0-0.023 0.013-0.035 0.028-0.026 0.026 0.016 0.226-0.167 0.206-0.189-0.005-0.006 0.003-0.014 0.019-0.018 0.052-0.014 0.114-0.086 0.097-0.115-0.010-0.016 0.011-0.028 0.044-0.028s0.050-0.017 0.037-0.037c-0.013-0.021-0.008-0.037 0.011-0.037s0.4-0.362 0.846-0.804l0.812-0.804v-8.902c0-4.897-0.011-8.929-0.023-8.961-0.035-0.092-0.040-0.087-0.549 0.42z"></path>
<path fill="#000" d="M9.252 2.617c0 0.021 0.026 0.037 0.056 0.037s0.056-0.017 0.056-0.037c0-0.021-0.026-0.037-0.056-0.037s-0.056 0.017-0.056 0.037zM9.352 2.679c-0.014 0.014-0.025 4.058-0.024 8.989l0.002 8.963 1.596 1.575c1.335 1.316 3.348 3.304 4.146 4.094 0.108 0.107 0.341 0.347 0.515 0.532s0.34 0.339 0.365 0.34c0.037 0.002 0.047-1.817 0.047-8.978v-8.98l-0.173-0.158c-0.095-0.086-0.277-0.264-0.403-0.393-0.2-0.203-0.744-0.749-1.529-1.532-0.121-0.121-0.457-0.461-0.745-0.755s-0.524-0.525-0.524-0.513-0.114-0.098-0.253-0.244c-0.139-0.146-0.514-0.526-0.834-0.844-0.642-0.639-0.785-0.783-1.568-1.575-0.527-0.533-0.569-0.568-0.619-0.518zM22.734 2.738c-0.013 0.046-0.023 4.088-0.023 8.982v8.897l4.405 4.402c3.492 3.489 4.425 4.402 4.499 4.402h0.093v-17.885l-4.442-4.441c-2.443-2.442-4.457-4.441-4.476-4.441s-0.043 0.038-0.056 0.084z"></path>
<path fill="#000" d="M22.672 2.645c-0.017 3.206-0.010 17.955 0.009 17.935 0.036-0.036 0.056-17.963 0.019-17.963-0.016 0-0.028 0.013-0.028 0.028zM9.255 11.53c0.002 4.881 0.017 8.918 0.033 8.969s0.035-3.943 0.043-8.876c0.011-7.157 0.004-8.969-0.033-8.969s-0.046 1.798-0.043 8.876zM16.018 18.193c0 4.949 0.005 6.967 0.010 4.486s0.006-6.529 0-8.997c-0.006-2.467-0.010-0.438-0.010 4.511zM21.547 21.689l-0.242 0.253 0.253-0.242c0.236-0.225 0.27-0.264 0.242-0.264-0.006 0-0.12 0.114-0.253 0.253z"></path>
<path fill="#000" d="M4.33 7.491c-0.035 0.041-0.051 0.075-0.035 0.075s0.058-0.034 0.093-0.075c0.035-0.041 0.051-0.075 0.035-0.075s-0.058 0.034-0.093 0.075zM2.823 8.988c-0.014 0.023-0.012 0.040 0.006 0.040s0.005 0.017-0.026 0.037c-0.039 0.026-0.041 0.036-0.008 0.037 0.026 0 0.058-0.026 0.070-0.058 0.026-0.070-0.006-0.114-0.041-0.057zM20.023 23.186c-0.189 0.192-0.332 0.355-0.319 0.363s0.18-0.144 0.37-0.336c0.19-0.191 0.334-0.355 0.319-0.363s-0.182 0.143-0.37 0.336zM4.019 25.869l-0.11 0.122 0.122-0.11c0.067-0.061 0.122-0.115 0.122-0.122 0-0.028-0.030-0.004-0.133 0.11zM0.535 29.309c-0.037 0.041-0.059 0.075-0.049 0.075s0.058-0.034 0.105-0.075 0.070-0.075 0.049-0.075c-0.021 0-0.068 0.034-0.105 0.075z"></path>
</svg>
