<!-- Generated by IcoMoon.io -->
<svg version="1.1" xmlns="http://www.w3.org/2000/svg" width="32" height="32" viewBox="0 0 32 32">
<path d="M4.985 31.778q-0.633 0-1.061-0.43t-0.428-1.064 0.428-1.059 1.061-0.424h22.030q0.633 0 1.061 0.43t0.428 1.064-0.428 1.059-1.061 0.424h-22.030zM16 25.228q-4.48 0-6.996-2.679t-2.515-7.204v-13.143q0-0.815 0.604-1.397t1.421-0.582 1.399 0.582 0.58 1.397v13.233q0 2.709 1.429 4.361t4.078 1.652 4.078-1.652 1.429-4.361v-13.233q0-0.815 0.604-1.397t1.422-0.582 1.398 0.582 0.58 1.397v13.143q0 4.525-2.515 7.204t-6.996 2.679z"></path>
</svg>
