<!-- Generated by IcoMoon.io -->
<svg version="1.1" xmlns="http://www.w3.org/2000/svg" width="32" height="32" viewBox="0 0 32 32">
<path d="M5.509 31.028q-0.602 0-1.010-0.409t-0.407-1.014 0.407-1.009 1.010-0.404h20.982q0.602 0 1.010 0.409t0.407 1.014-0.407 1.009-1.010 0.404h-20.982zM16 24.789q-4.267 0-6.663-2.552t-2.396-6.862v-12.519q0-0.776 0.575-1.331t1.354-0.554 1.332 0.554 0.553 1.331v12.604q0 2.58 1.361 4.154t3.884 1.574 3.884-1.574 1.361-4.154v-12.604q0-0.776 0.575-1.331t1.354-0.554 1.332 0.554 0.553 1.331v12.519q0 4.31-2.396 6.862t-6.663 2.552z"></path>
</svg>
