<!-- Generated by IcoMoon.io -->
<svg version="1.1" xmlns="http://www.w3.org/2000/svg" width="32" height="32" viewBox="0 0 32 32">
<path d="M22.841 16.482l-6.814-6.814q-0.213-0.213-0.299-0.443t-0.087-0.493 0.087-0.489 0.299-0.439l6.814-6.814q0.213-0.213 0.443-0.299t0.493-0.086 0.489 0.086q0.227 0.087 0.439 0.299l6.814 6.814q0.213 0.213 0.299 0.443t0.086 0.492-0.086 0.489-0.299 0.439l-6.814 6.814q-0.213 0.213-0.443 0.299t-0.492 0.087-0.489-0.087q-0.226-0.086-0.439-0.299zM1.626 13.102v-9.609q0-0.566 0.382-0.948t0.948-0.382h9.609q0.566 0 0.948 0.382t0.382 0.948v9.609q0 0.565-0.382 0.948t-0.948 0.382h-9.609q-0.565 0-0.948-0.382t-0.382-0.948zM18.076 29.551v-9.609q0-0.566 0.382-0.948t0.948-0.382h9.609q0.566 0 0.948 0.382t0.382 0.948v9.609q0 0.565-0.382 0.948t-0.948 0.382h-9.609q-0.565 0-0.948-0.382t-0.382-0.948zM1.626 29.551v-9.609q0-0.566 0.382-0.948t0.948-0.382h9.609q0.566 0 0.948 0.382t0.382 0.948v9.609q0 0.565-0.382 0.948t-0.948 0.382h-9.609q-0.565 0-0.948-0.382t-0.382-0.948zM4.288 11.77h6.947v-6.947h-6.947v6.947zM23.865 13.767l4.938-4.937-4.938-4.938-4.938 4.938 4.938 4.937zM20.738 28.22h6.947v-6.947h-6.947v6.947zM4.288 28.22h6.947v-6.947h-6.947v6.947z"></path>
</svg>
