<!-- Generated by IcoMoon.io -->
<svg version="1.1" xmlns="http://www.w3.org/2000/svg" width="32" height="32" viewBox="0 0 32 32">
<path d="M21.61 14.104q0.909 0 1.545-0.636t0.636-1.545-0.636-1.545-1.545-0.637-1.545 0.637-0.636 1.545q0 0.909 0.636 1.545t1.545 0.636zM10.39 14.104q0.909 0 1.545-0.636t0.636-1.545-0.636-1.545-1.545-0.637-1.545 0.637-0.636 1.545q0 0.909 0.636 1.545t1.545 0.636zM16 31.583q-3.234 0-6.078-1.227t-4.948-3.331-3.331-4.948-1.227-6.078 1.227-6.078 3.331-4.948 4.948-3.331 6.078-1.227 6.078 1.227 4.948 3.331 3.331 4.948 1.227 6.078-1.227 6.078-3.331 4.948-4.948 3.331-6.078 1.227zM16 28.986q5.438 0 9.212-3.774t3.774-9.212-3.774-9.212-9.212-3.774-9.212 3.774-3.774 9.212 3.774 9.212 9.212 3.774zM15.987 24.545q2.246 0 4.143-1.039t3.065-2.867q0.234-0.457-0.033-0.899t-0.799-0.442h-12.728q-0.543 0-0.803 0.442t-0.026 0.899q1.169 1.828 3.072 2.867t4.11 1.039z"></path>
</svg>
