<!-- Generated by IcoMoon.io -->
<svg version="1.1" xmlns="http://www.w3.org/2000/svg" width="32" height="32" viewBox="0 0 32 32">
<path d="M3.167 14.542q-1.203 0-2.060-0.857t-0.857-2.060v-8.458q0-1.203 0.857-2.060t2.060-0.857h8.458q1.203 0 2.060 0.857t0.857 2.060v8.458q0 1.203-0.857 2.060t-2.060 0.857h-8.458zM3.167 31.75q-1.203 0-2.060-0.857t-0.857-2.060v-8.458q0-1.203 0.857-2.060t2.060-0.857h8.458q1.203 0 2.060 0.857t0.857 2.060v8.458q0 1.203-0.857 2.060t-2.060 0.857h-8.458zM20.375 14.542q-1.203 0-2.060-0.857t-0.857-2.060v-8.458q0-1.203 0.857-2.060t2.060-0.857h8.458q1.203 0 2.060 0.857t0.857 2.060v8.458q0 1.203-0.857 2.060t-2.060 0.857h-8.458zM20.375 31.75q-1.203 0-2.060-0.857t-0.857-2.060v-8.458q0-1.203 0.857-2.060t2.060-0.857h8.458q1.203 0 2.060 0.857t0.857 2.060v8.458q0 1.203-0.857 2.060t-2.060 0.857h-8.458zM3.167 11.625h8.458v-8.458h-8.458v8.458zM20.375 11.625h8.458v-8.458h-8.458v8.458zM20.375 28.833h8.458v-8.458h-8.458v8.458zM3.167 28.833h8.458v-8.458h-8.458v8.458z"></path>
</svg>
