<!-- Generated by IcoMoon.io -->
<svg version="1.1" xmlns="http://www.w3.org/2000/svg" width="32" height="32" viewBox="0 0 32 32">
<path d="M8.121 31.833q-1.565 0-2.668-1.103t-1.103-2.668v-24.126q0-1.565 1.103-2.668t2.668-1.103h8.991q3.713 0 6.578 2.337t2.866 6.088q0 2.393-1.225 4.118t-2.922 2.592v0.226q2.092 0.735 3.667 2.658 1.574 1.922 1.574 4.75 0 4.241-3.204 6.569t-6.917 2.328h-9.405zM9.874 26.857h7.388q2.338 0 3.591-1.404 1.253-1.405 1.253-3.044 0-1.602-1.253-3.006t-3.647-1.405h-7.332v8.859zM9.874 13.247h6.88q1.942 0 3.186-1.188t1.244-2.903q0-1.772-1.282-2.941t-3.11-1.169h-6.917v8.2z"></path>
</svg>
