<!-- Generated by IcoMoon.io -->
<svg version="1.1" xmlns="http://www.w3.org/2000/svg" width="32" height="32" viewBox="0 0 32 32">
<path d="M17.377 15.481v-6.311q0-0.559-0.37-0.929t-0.928-0.37-0.928 0.37-0.37 0.929v6.818q0 0.259 0.091 0.487t0.273 0.435l5.454 5.584q0.377 0.403 0.948 0.39t0.948-0.39 0.376-0.935-0.376-0.935l-5.117-5.143zM16 31.583q-3.208 0-6.052-1.227t-4.961-3.344-3.344-4.961-1.227-6.052 1.227-6.052 3.344-4.961 4.961-3.344 6.052-1.227 6.052 1.227 4.961 3.344 3.344 4.961 1.227 6.052-1.227 6.052-3.344 4.961-4.961 3.344-6.052 1.227zM16 28.986q5.363 0 9.175-3.811t3.811-9.175-3.811-9.175-9.175-3.811-9.175 3.811-3.811 9.175 3.811 9.175 9.175 3.811z"></path>
</svg>
