<!-- Generated by IcoMoon.io -->
<svg version="1.1" xmlns="http://www.w3.org/2000/svg" width="32" height="32" viewBox="0 0 32 32">
<path d="M31.997 26.302l-0.007 0.118-0.012 0.117-0.017 0.116-0.021 0.113-0.025 0.113-0.030 0.111-0.035 0.109-0.038 0.107-0.043 0.106-0.046 0.103-0.050 0.101-0.054 0.099-0.058 0.096-0.061 0.094-0.065 0.092-0.068 0.089-0.072 0.086-0.074 0.084-0.078 0.080-0.080 0.078-0.084 0.074-0.086 0.072-0.089 0.068-0.092 0.065-0.094 0.061-0.096 0.058-0.099 0.054-0.101 0.050-0.103 0.046-0.106 0.042-0.107 0.038-0.109 0.034-0.111 0.031-0.113 0.025-0.113 0.021-0.116 0.017-0.117 0.012-0.118 0.007-0.12 0.003h-5.819v-14.546h8.727v11.637l-0.003 0.12zM11.636 26.182h2.909v2.909h-2.909v-2.909zM2.499 29.062l-0.199-0.036-0.194-0.049-0.188-0.062-0.183-0.074-0.176-0.086-0.17-0.097-0.162-0.108-0.154-0.119-0.147-0.128-0.138-0.137-0.128-0.147-0.118-0.154-0.108-0.162-0.097-0.17-0.086-0.176-0.074-0.183-0.061-0.189-0.049-0.195-0.036-0.198-0.022-0.203-0.007-0.207h2.909v2.909l-0.207-0.007-0.203-0.022zM5.818 26.182h2.91v2.909h-2.91v-2.909zM17.455 26.182h2.909v2.909h-2.909v-2.909zM0 20.364h2.909v2.909h-2.909v-2.909zM0 14.545h2.909v2.91h-2.909v-2.91zM0 8.727h2.909v2.909h-2.909v-2.909zM29.091 8.727h2.909v2.909h-2.909v-2.909zM0.007 5.611l0.022-0.203 0.036-0.198 0.049-0.195 0.061-0.189 0.074-0.183 0.086-0.176 0.097-0.17 0.108-0.162 0.118-0.154 0.128-0.147 0.138-0.137 0.147-0.128 0.154-0.119 0.162-0.108 0.17-0.097 0.176-0.086 0.183-0.074 0.189-0.062 0.194-0.049 0.199-0.036 0.203-0.022 0.207-0.007v2.909h-2.909l0.007-0.207zM11.636 2.909h2.909v2.909h-2.909v-2.909zM5.818 2.909h2.91v2.909h-2.91v-2.909zM17.455 2.909h2.909v2.909h-2.909v-2.909zM29.7 2.973l0.194 0.049 0.189 0.062 0.183 0.074 0.176 0.086 0.17 0.097 0.162 0.108 0.154 0.119 0.147 0.128 0.138 0.137 0.128 0.147 0.118 0.154 0.108 0.162 0.097 0.17 0.086 0.176 0.074 0.183 0.061 0.189 0.049 0.195 0.036 0.198 0.022 0.203 0.007 0.207h-2.909v-2.909l0.207 0.007 0.203 0.022 0.199 0.036zM23.273 2.909h2.91v2.909h-2.91v-2.909z"></path>
</svg>
