<!-- Generated by IcoMoon.io -->
<svg version="1.1" xmlns="http://www.w3.org/2000/svg" width="32" height="32" viewBox="0 0 32 32">
<path d="M3.367 28.617h2.081l19.164-19.135-2.081-2.081-19.164 19.135v2.081zM1.932 31.488q-0.617 0-1.026-0.409t-0.409-1.026v-3.488q0-0.575 0.23-1.113t0.618-0.926l23.24-23.197q0.402-0.387 0.926-0.603t1.098-0.215q0.546 0 1.077 0.215t0.947 0.617l2.053 2.067q0.43 0.416 0.625 0.947t0.194 1.063q0 0.545-0.208 1.084t-0.61 0.941l-23.226 23.197q-0.388 0.387-0.926 0.618t-1.113 0.23h-3.488zM28.604 5.391v0zM23.565 8.449l-1.034-1.048 2.081 2.081-1.048-1.034z"></path>
</svg>
