<!-- Generated by IcoMoon.io -->
<svg version="1.1" xmlns="http://www.w3.org/2000/svg" width="32" height="32" viewBox="0 0 32 32">
<path d="M1.935 31.5q-0.61 0-1.023-0.414t-0.413-1.026 0.413-1.021 1.023-0.409h28.13q0.61 0 1.023 0.414t0.413 1.026-0.413 1.021-1.023 0.409h-28.13zM8.824 24.468q-0.61 0-1.023-0.414t-0.413-1.026 0.413-1.021 1.023-0.409h14.352q0.61 0 1.023 0.414t0.413 1.026-0.413 1.021-1.023 0.409h-14.352zM1.935 17.435q-0.61 0-1.023-0.414t-0.413-1.027 0.413-1.021 1.023-0.409h28.13q0.61 0 1.023 0.414t0.413 1.027-0.413 1.021-1.023 0.409h-28.13zM8.824 10.403q-0.61 0-1.023-0.414t-0.413-1.026 0.413-1.021 1.023-0.409h14.352q0.61 0 1.023 0.414t0.413 1.026-0.413 1.021-1.023 0.409h-14.352zM1.935 3.371q-0.61 0-1.023-0.414t-0.413-1.026 0.413-1.021 1.023-0.409h28.13q0.61 0 1.023 0.414t0.413 1.026-0.413 1.021-1.023 0.409h-28.13z"></path>
</svg>
