<!-- Generated by IcoMoon.io -->
<svg version="1.1" xmlns="http://www.w3.org/2000/svg" width="32" height="32" viewBox="0 0 32 32">
<path d="M12.038 23.262q-4.767 0-8.070-3.304t-3.302-8.008 3.304-8.008 8.023-3.304 8.008 3.304q3.29 3.304 3.29 8.013 0 1.9-0.615 3.645t-1.788 3.209l10.375 10.316q0.425 0.412 0.425 1.049t-0.425 1.061q-0.425 0.425-1.062 0.425t-1.049-0.425l-10.346-10.346q-1.319 1.113-3.062 1.744t-3.709 0.63zM12.008 20.331q3.48 0 5.916-2.454t2.437-5.927-2.437-5.928q-2.436-2.454-5.916-2.454-3.505 0-5.958 2.454t-2.453 5.928 2.453 5.927 5.958 2.454z"></path>
</svg>
