<!-- Generated by IcoMoon.io -->
<svg version="1.1" xmlns="http://www.w3.org/2000/svg" width="32" height="32" viewBox="0 0 32 32">
<path d="M15.987 24.374q2.852 0 4.803-1.951t1.951-4.803-1.951-4.79-4.803-1.938-4.79 1.938-1.938 4.79 1.938 4.803 4.79 1.951zM15.987 21.782q-1.776 0-2.956-1.193t-1.18-2.968 1.18-2.956 2.956-1.18 2.968 1.18 1.193 2.956-1.193 2.968-2.968 1.193zM3.037 30q-1.050 0-1.822-0.771t-0.771-1.822v-19.522q0-1.024 0.771-1.808t1.822-0.784h5.444l2.074-2.411q0.35-0.441 0.862-0.661t1.095-0.22h6.974q0.583 0 1.095 0.22t0.862 0.661l2.074 2.411h5.444q1.024 0 1.808 0.784t0.784 1.808v19.522q0 1.050-0.784 1.822t-1.808 0.771h-25.926zM3.037 27.407h25.926v-19.522h-6.637l-2.839-3.292h-6.974l-2.839 3.292h-6.637v19.522z"></path>
</svg>
