<!-- Generated by IcoMoon.io -->
<svg version="1.1" xmlns="http://www.w3.org/2000/svg" width="32" height="32" viewBox="0 0 32 32">
<path d="M31.174 14.603l-13.777-13.777c-0.768-0.768-2.025-0.768-2.794 0l-13.777 13.777c-0.768 0.768-0.768 2.025 0 2.794l13.777 13.777c0.768 0.768 2.025 0.768 2.794 0l13.777-13.777c0.768-0.768 0.768-2.025 0-2.794zM22.42 18.579c-1.334 0-2.415-1.081-2.415-2.415 0-0.001 0-0.002 0-0.003 0-0.295 0.053-0.579 0.151-0.841l-0.006 0.017-3.054-3.054v8.343c0.752 0.41 1.262 1.206 1.262 2.122 0 1.334-1.081 2.415-2.415 2.415s-2.415-1.081-2.415-2.415c0-0.96 0.56-1.789 1.371-2.178v-8.795c-0.809-0.374-1.371-1.191-1.371-2.141 0-0.275 0.049-0.536 0.136-0.782l-3.545-3.545 1.552-1.552 3.603 3.603c0.196-0.053 0.402-0.084 0.614-0.084 1.303 0 2.36 1.056 2.36 2.36 0 0.213-0.030 0.418-0.084 0.614l3.593 3.593c0.198-0.058 0.425-0.093 0.66-0.093v0c1.334 0 2.415 1.081 2.415 2.415s-1.081 2.415-2.415 2.415z"></path>
</svg>
