<!-- Generated by IcoMoon.io -->
<svg version="1.1" xmlns="http://www.w3.org/2000/svg" width="32" height="32" viewBox="0 0 32 32">
<path d="M16.526 18.771l-4.328 4.328q0.396 0.647 0.501 1.293t0.106 1.372q0 2.559-1.755 4.315t-4.315 1.755-4.315-1.755-1.755-4.315 1.755-4.315 4.315-1.755q0.699 0 1.385 0.172t1.385 0.541l4.301-4.301-4.354-4.354q-0.647 0.317-1.333 0.435t-1.385 0.119q-2.559 0-4.315-1.755t-1.755-4.315 1.755-4.315 4.315-1.755 4.315 1.755 1.755 4.315q0 0.726-0.106 1.399t-0.422 1.267l18.129 18.129q0.964 0.963 0.435 2.17t-1.874 1.207q-0.383 0-0.745-0.152t-0.653-0.442l-11.044-11.044zM21.224 14.232l-2.797-2.797 9.144-9.144q0.29-0.291 0.653-0.442t0.745-0.152q1.346 0 1.841 1.227t-0.442 2.164l-9.144 9.144zM6.736 9.667q1.439 0 2.434-0.996t0.996-2.434-0.996-2.434-2.434-0.996-2.434 0.996-0.996 2.434 0.996 2.434q0.996 0.996 2.434 0.996zM16.579 16.871q0.317 0 0.541-0.224t0.224-0.541-0.224-0.541-0.541-0.224-0.541 0.224-0.224 0.541 0.224 0.541 0.541 0.224zM6.736 29.194q1.439 0 2.434-0.996t0.996-2.434-0.996-2.434-2.434-0.996-2.434 0.996-0.996 2.434 0.996 2.434q0.996 0.996 2.434 0.996z"></path>
</svg>
