<!-- Generated by IcoMoon.io -->
<svg version="1.1" xmlns="http://www.w3.org/2000/svg" width="32" height="32" viewBox="0 0 32 32">
<path d="M3.203 6.25c-1.516 0-2.803 1.223-2.803 2.743v14.015c0 1.521 1.287 2.743 2.803 2.743h25.594c1.516 0 2.803-1.223 2.803-2.743v-14.015c0-1.519-1.287-2.743-2.803-2.743zM3.203 8.2h25.594c0.503 0 0.853 0.373 0.853 0.793v14.015c0 0.419-0.351 0.793-0.853 0.793h-25.594c-0.503 0-0.853-0.373-0.853-0.793v-14.015c0-0.419 0.351-0.792 0.853-0.792zM5.275 11.125v9.75h2.925v-6.49l2.925 3.87 2.925-3.871v6.491h2.925v-9.75h-2.925l-2.925 3.9-2.925-3.9zM21.85 11.125v4.875h-2.925l4.387 4.875 4.387-4.875h-2.925v-4.875z"></path>
</svg>
