<!-- Generated by IcoMoon.io -->
<svg version="1.1" xmlns="http://www.w3.org/2000/svg" width="32" height="32" viewBox="0 0 32 32">
<path d="M7.803 27.241q-3.211 0-5.417-2.181t-2.205-5.393q0-2.84 1.78-4.853t4.5-2.505q0.084-0.431 0.228-0.941t0.371-0.953l-5.129-5.129q-0.348-0.348-0.348-0.839t0.348-0.839 0.839-0.347 0.839 0.347l25.094 25.094q0.348 0.348 0.354 0.833t-0.354 0.845q-0.347 0.348-0.845 0.353t-0.857-0.342l-3.188-3.151h-16.010zM7.803 24.844h13.661l-12.487-12.487q-0.288 0.491-0.384 1.066t-0.096 1.139h-0.695q-2.181 0-3.703 1.438t-1.522 3.607 1.522 3.703 3.703 1.534zM29.565 25.898l-1.821-1.798q0.803-0.575 1.24-1.3t0.437-1.696q0-1.534-1.090-2.613t-2.624-1.079h-2.325v-2.9q0-3.104-2.163-5.231t-5.256-2.127q-1.006 0-2.084 0.294t-2.001 0.94l-1.702-1.702q1.282-0.982 2.75-1.456t3.026-0.473q4.062 0 6.944 2.87t2.882 6.932v0.503q2.553 0.072 4.296 1.791t1.744 4.248q0 1.306-0.575 2.631t-1.678 2.163z"></path>
</svg>
