<!-- Generated by IcoMoon.io -->
<svg version="1.1" xmlns="http://www.w3.org/2000/svg" width="32" height="32" viewBox="0 0 32 32">
<path d="M7.139 31q-1.146 0-1.962-0.816t-0.816-1.962v-23.055h-0.306q-0.59 0-0.99-0.401t-0.399-0.993 0.399-0.988 0.99-0.396h6.611q0-0.597 0.399-0.993t0.99-0.396h7.889q0.59 0 0.99 0.399t0.399 0.99h6.611q0.59 0 0.99 0.401t0.399 0.993-0.399 0.988-0.99 0.396h-0.306v23.055q0 1.146-0.816 1.962t-1.962 0.816h-17.723zM24.861 5.167h-17.723v23.055h17.723v-23.055zM12.588 24.722q0.592 0 0.988-0.399t0.396-0.99v-13.305q0-0.59-0.401-0.99t-0.993-0.4-0.988 0.4-0.396 0.99v13.305q0 0.59 0.401 0.99t0.993 0.399zM19.422 24.722q0.592 0 0.988-0.399t0.396-0.99v-13.305q0-0.59-0.401-0.99t-0.993-0.4-0.988 0.4-0.396 0.99v13.305q0 0.59 0.401 0.99t0.993 0.399zM7.139 5.167v0z"></path>
</svg>
