<!-- Generated by IcoMoon.io -->
<svg version="1.1" xmlns="http://www.w3.org/2000/svg" width="32" height="32" viewBox="0 0 32 32">
<path d="M7.937 27.417q-3.187 0-5.411-2.224t-2.224-5.411q0-2.854 1.778-4.906t4.454-2.587q0.725-3.306 3.377-5.506t6.113-2.2q4.055 0 6.868 2.919t2.812 7.023v0.571q2.676 0.095 4.335 1.891t1.659 4.257q0 2.533-1.814 4.353t-4.347 1.82h-17.601zM7.937 25.038h17.601q1.57 0 2.676-1.106t1.106-2.676-1.106-2.676-2.676-1.106h-2.212v-2.949q0-3.080-2.111-5.322t-5.191-2.242q-2.414 0-4.4 1.445t-2.688 3.823q2.521 0.369 4.293 1.98t2.176 4.073q0.095 0.511-0.268 0.898t-0.933 0.386q-0.428 0-0.767-0.303t-0.434-0.767q-0.369-1.772-1.796-2.872t-3.342-1.1q-2.188 0-3.686 1.534t-1.498 3.722 1.534 3.722 3.722 1.534z"></path>
</svg>
