<!-- Generated by IcoMoon.io -->
<svg version="1.1" xmlns="http://www.w3.org/2000/svg" width="32" height="32" viewBox="0 0 32 32">
<path d="M3.713 31.521q-1.31 0-2.272-0.962t-0.962-2.272v-4.947q0-0.687 0.467-1.152t1.156-0.465 1.15 0.465 0.461 1.152v4.947h24.574v-4.947q0-0.687 0.467-1.152t1.156-0.465 1.15 0.465 0.461 1.152v4.947q0 1.31-0.962 2.272t-2.272 0.962h-24.574zM14.384 6.72l-4.414 4.414q-0.479 0.485-1.137 0.461t-1.155-0.509q-0.456-0.485-0.465-1.148t0.477-1.148l7.178-7.178q0.258-0.258 0.538-0.364t0.598-0.105 0.594 0.105q0.275 0.105 0.534 0.364l7.211 7.211q0.485 0.485 0.477 1.132t-0.464 1.132q-0.498 0.485-1.168 0.493t-1.156-0.477l-4.414-4.381v15.65q0 0.687-0.466 1.152t-1.156 0.465-1.15-0.465-0.461-1.152v-15.65z"></path>
</svg>
