<!-- Generated by IcoMoon.io -->
<svg version="1.1" xmlns="http://www.w3.org/2000/svg" width="32" height="32" viewBox="0 0 32 32">
<path d="M23.498 9.332c-0.256 0.256-0.415 0.611-0.415 1.002s0.159 0.745 0.415 1.002l4.665 4.665-4.665 4.665c-0.256 0.256-0.415 0.61-0.415 1.002s0.159 0.745 0.415 1.002v0c0.256 0.256 0.61 0.415 1.002 0.415s0.745-0.159 1.002-0.415l5.667-5.667c0.256-0.256 0.415-0.611 0.415-1.002s-0.158-0.745-0.415-1.002l-5.667-5.667c-0.256-0.256-0.61-0.415-1.002-0.415s-0.745 0.159-1.002 0.415v0z"></path>
<path d="M7.5 8.917c-0.391 0-0.745 0.159-1.002 0.415l-5.667 5.667c-0.256 0.256-0.415 0.611-0.415 1.002s0.158 0.745 0.415 1.002l5.667 5.667c0.256 0.256 0.611 0.415 1.002 0.415s0.745-0.159 1.002-0.415v0c0.256-0.256 0.415-0.61 0.415-1.002s-0.159-0.745-0.415-1.002l-4.665-4.665 4.665-4.665c0.256-0.256 0.415-0.611 0.415-1.002s-0.159-0.745-0.415-1.002v0c-0.256-0.256-0.61-0.415-1.002-0.415v0z"></path>
<path d="M19.965 3.314c-0.127-0.041-0.273-0.065-0.424-0.065-0.632 0-1.167 0.413-1.35 0.985l-0.003 0.010-7.083 22.667c-0.041 0.127-0.065 0.273-0.065 0.424 0 0.632 0.413 1.167 0.985 1.35l0.010 0.003c0.127 0.041 0.273 0.065 0.424 0.065 0.632 0 1.167-0.413 1.35-0.985l0.003-0.010 7.083-22.667c0.041-0.127 0.065-0.273 0.065-0.424 0-0.632-0.413-1.167-0.985-1.35l-0.010-0.003z"></path>
</svg>
