<!-- Generated by IcoMoon.io -->
<svg version="1.1" xmlns="http://www.w3.org/2000/svg" width="32" height="32" viewBox="0 0 32 32">
<path d="M6.105 24.493q2.299-1.649 4.727-2.552t5.168-0.903 5.181 0.903 4.74 2.552q1.597-1.935 2.331-4.039t0.734-4.454q0-5.493-3.746-9.24t-9.24-3.746-9.24 3.746-3.746 9.24q0 2.35 0.746 4.454t2.344 4.039zM15.995 17.299q-2.268 0-3.82-1.556t-1.552-3.824 1.557-3.82 3.824-1.552 3.82 1.557 1.552 3.824-1.557 3.82-3.824 1.552zM16.012 31.583q-3.22 0-6.064-1.227t-4.961-3.344-3.344-4.955-1.227-6.065 1.227-6.058 3.344-4.948 4.955-3.344 6.065-1.227 6.058 1.227 4.948 3.344 3.344 4.948 1.227 6.052-1.227 6.064-3.344 4.961q-2.117 2.117-4.948 3.344t-6.052 1.227zM16 28.986q2.117 0 4.091-0.617t3.805-2.032q-1.831-1.311-3.818-2.006t-4.078-0.695-4.078 0.695-3.818 2.006q1.831 1.416 3.805 2.032t4.091 0.617zM16 14.701q1.221 0 2-0.779t0.779-2-0.779-2-2-0.779-2 0.779-0.779 2 0.779 2 2 0.779z"></path>
</svg>
