<!-- Generated by IcoMoon.io -->
<svg version="1.1" xmlns="http://www.w3.org/2000/svg" width="32" height="32" viewBox="0 0 32 32">
<path d="M16 32.031q-6.694 0-11.363-4.668t-4.668-11.363q0-6.056 3.696-10.353t9.604-5.351q0.786-0.178 1.351 0.022t0.891 0.661q0.326 0.43 0.319 1.054t-0.364 1.38q-0.52 1.069-0.794 2.212t-0.275 2.36q0 4.008 2.805 6.813t6.813 2.805q1.203 0 2.352-0.267t2.16-0.742q0.817-0.341 1.462-0.304t1.076 0.349q0.445 0.312 0.616 0.905t-0.008 1.425q-1.010 5.64-5.336 9.351t-10.338 3.711zM16 29.062q4.542 0 7.985-2.723t4.512-6.583q-1.040 0.401-2.182 0.609t-2.301 0.208q-5.24 0-8.913-3.674t-3.674-8.913q0-1.010 0.193-2.123t0.653-2.449q-4.067 1.277-6.702 4.765t-2.635 7.823q0 5.433 3.814 9.247t9.247 3.814z"></path>
</svg>
