<!-- Generated by IcoMoon.io -->
<svg version="1.1" xmlns="http://www.w3.org/2000/svg" width="32" height="32" viewBox="0 0 32 32">
<path d="M12.697 17.461c-0.414 0-0.761-0.14-1.041-0.421s-0.421-0.63-0.421-1.045c0-0.415 0.14-0.762 0.421-1.040s0.627-0.416 1.041-0.416h17.627c0.414 0 0.761 0.14 1.041 0.421s0.42 0.63 0.42 1.045c0 0.415-0.14 0.762-0.42 1.040s-0.627 0.416-1.041 0.416zM3.401 19.128c-0.868 0-1.611-0.306-2.23-0.919s-0.927-1.349-0.927-2.209 0.309-1.596 0.927-2.209c0.618-0.612 1.361-0.919 2.23-0.919 0.852 0 1.581 0.306 2.188 0.919s0.91 1.349 0.91 2.209-0.303 1.596-0.91 2.209c-0.607 0.612-1.336 0.919-2.188 0.919z"></path>
</svg>
