<!-- Generated by IcoMoon.io -->
<svg version="1.1" xmlns="http://www.w3.org/2000/svg" width="32" height="32" viewBox="0 0 32 32">
<path d="M14.639 31h-10.861q-1.125 0-1.952-0.826t-0.826-1.952v-24.444q0-1.125 0.826-1.952t1.952-0.826h10.861v30zM11.861 28.222v-24.444h-8.083v24.444h8.083zM17.417 14.583v-13.583h10.805q1.125 0 1.952 0.826t0.826 1.952v10.805h-13.583zM20.195 11.805h8.027v-8.027h-8.027v8.027zM17.417 31v-13.639h13.583v10.861q0 1.125-0.826 1.952t-1.952 0.826h-10.805zM20.195 28.222h8.027v-8.083h-8.027v8.083z"></path>
</svg>
