<!-- Generated by IcoMoon.io -->
<svg version="1.1" xmlns="http://www.w3.org/2000/svg" width="32" height="32" viewBox="0 0 32 32">
<path d="M29.825 31.75q-5.206 0-10.5-2.428t-9.756-6.891-6.891-9.756-2.428-10.5q0-0.825 0.55-1.375t1.375-0.55h6.446q0.612 0 1.065 0.43t0.598 1.057l1.165 5.706q0.090 0.652-0.027 1.148t-0.473 0.852l-4.324 4.369q1.050 1.823 2.297 3.434t2.749 3.070q1.531 1.56 3.223 2.866t3.558 2.326l4.142-4.229q0.423-0.452 1.018-0.634t1.17-0.095l5.483 1.167q0.642 0.175 1.065 0.679t0.423 1.129v6.3q0 0.825-0.55 1.375t-1.375 0.55zM5.194 11.1l3.325-3.354-0.919-4.579h-4.419q0.131 1.823 0.598 3.762t1.414 4.17zM21.177 26.908q1.765 0.803 3.756 1.298t3.901 0.598v-4.404l-4.375-0.89-3.281 3.398z"></path>
</svg>
