<!-- Generated by IcoMoon.io -->
<svg version="1.1" xmlns="http://www.w3.org/2000/svg" width="32" height="32" viewBox="0 0 32 32">
<path d="M16 31.75q-6.606 0-11.178-2.034t-4.572-4.966v-17.5q0-2.888 4.615-4.944t11.135-2.056 11.135 2.056 4.615 4.944v17.5q0 2.931-4.572 4.966t-11.178 2.034zM16 10.531q3.806 0 7.758-1.145t4.871-2.53q-0.948-1.356-4.893-2.523t-7.737-1.166q-3.894 0-7.765 1.13t-4.893 2.559q1.020 1.458 4.863 2.567t7.795 1.108zM15.971 19.675q1.837 0 3.631-0.189t3.434-0.562 3.121-0.911 2.676-1.211v-6.271q-1.225 0.671-2.705 1.211t-3.136 0.911-3.42 0.576-3.602 0.204-3.646-0.204-3.449-0.576-3.099-0.911q-1.458-0.54-2.61-1.211v6.271q1.152 0.671 2.595 1.211t3.085 0.911 3.449 0.562 3.675 0.189zM16 28.833q2.071 0 4.251-0.35t4.003-0.926 3.077-1.284q1.254-0.707 1.502-1.451v-5.075q-1.196 0.671-2.676 1.196t-3.121 0.897-3.42 0.561-3.646 0.19-3.675-0.19q-1.808-0.189-3.449-0.561t-3.085-0.897-2.595-1.196v5.119q0.219 0.715 1.451 1.429t3.070 1.276 4.025 0.911 4.288 0.35z"></path>
</svg>
