<!-- Generated by IcoMoon.io -->
<svg version="1.1" xmlns="http://www.w3.org/2000/svg" width="32" height="32" viewBox="0 0 32 32">
<path d="M4.491 1.614c-2.366 0-4.316 1.949-4.316 4.316v18.702c0 2.366 1.949 4.316 4.316 4.316h23.018c2.366 0 4.316-1.949 4.316-4.316v-14.386c0-2.366-1.949-4.316-4.316-4.316h-11.366c-0.002 0-0.005-0-0.007-0s-0.005 0-0.007 0h0c-0.491 0.005-0.944-0.236-1.214-0.646-0.006-0.008-0.010-0.012-0.013-0.017l0.002 0.003-1.155-1.714c-0.797-1.211-2.155-1.941-3.605-1.942zM4.491 4.491h5.653c0.486 0 0.936 0.241 1.203 0.646 0.006 0.011 0.009 0.016 0.012 0.020l-0.004-0.006 1.155 1.714c0.001 0.002 0.005 0.001 0.006 0.003 0.806 1.22 2.179 1.953 3.641 1.939h11.351c0.812 0 1.439 0.627 1.439 1.439v14.386c0 0.812-0.627 1.439-1.439 1.439h-23.018c-0.812 0-1.439-0.627-1.439-1.439v-18.702c0-0.812 0.627-1.439 1.439-1.439z"></path>
<path d="M1.614 11.828c-0.794 0-1.439 0.644-1.439 1.439v0c0 0.794 0.644 1.439 1.439 1.439v0h28.772c0.794 0 1.439-0.644 1.439-1.439v0c0-0.794-0.644-1.439-1.439-1.439v0z"></path>
</svg>
