<!-- Generated by IcoMoon.io -->
<svg version="1.1" xmlns="http://www.w3.org/2000/svg" width="32" height="32" viewBox="0 0 32 32">
<path d="M16 31.583q-3.234 0-6.078-1.227t-4.948-3.331-3.331-4.948-1.227-6.078 1.227-6.078 3.331-4.948 4.948-3.331 6.078-1.227 6.078 1.227 4.948 3.331 3.331 4.948 1.227 6.078v2.13q0 2.221-1.548 3.759t-3.802 1.539q-1.391 0-2.624-0.649t-1.947-1.844q-1.052 1.26-2.541 1.876t-3.121 0.617q-3.093 0-5.274-2.162t-2.18-5.267 2.18-5.292 5.274-2.188 5.274 2.188 2.18 5.292v2.13q0 1.132 0.805 1.917t1.961 0.784 1.961-0.784 0.805-1.917v-2.13q0-5.438-3.774-9.212t-9.212-3.774-9.212 3.774-3.774 9.212 3.774 9.212 9.212 3.774h6.857q0.552 0 0.925 0.375t0.373 0.928-0.373 0.924-0.925 0.37h-6.857zM16.002 20.831q2.024 0 3.44-1.409t1.416-3.422q0-2.052-1.417-3.467t-3.441-1.415-3.44 1.415-1.416 3.467q0 2.013 1.417 3.422t3.441 1.409z"></path>
</svg>
