<!-- Generated by IcoMoon.io -->
<svg version="1.1" xmlns="http://www.w3.org/2000/svg" width="32" height="32" viewBox="0 0 32 32">
<path d="M15.532 32.694l-4.342-4.342q-0.312-0.312-0.15-0.715t0.618-0.403h8.711q0.44 0 0.597 0.403t-0.155 0.715l-4.342 4.342q-0.199 0.208-0.463 0.208t-0.473-0.208zM2.998 23.801q-1.053 0-1.827-0.773t-0.773-1.827v-16.642q0-1.053 0.773-1.827t1.827-0.773h26.003q1.053 0 1.827 0.773t0.773 1.827v16.642q0 1.053-0.773 1.827t-1.827 0.773h-26.003zM2.998 21.201h26.003v-16.642h-26.003v16.642zM11.163 18.99h9.699q0.552 0 0.926-0.375t0.374-0.93-0.374-0.925-0.926-0.371h-9.699q-0.553 0-0.926 0.375t-0.374 0.93 0.374 0.925 0.926 0.371zM2.998 21.201v0zM6.305 9.369q0.555 0 0.925-0.375t0.371-0.93-0.375-0.925-0.93-0.371-0.925 0.375-0.371 0.93 0.375 0.925 0.93 0.371zM11.168 9.369q0.554 0 0.925-0.375t0.371-0.93-0.375-0.925-0.93-0.371-0.925 0.375-0.371 0.93 0.375 0.925 0.93 0.371zM16.005 9.369q0.554 0 0.925-0.375t0.371-0.93-0.375-0.925-0.93-0.371-0.925 0.375-0.371 0.93 0.375 0.925 0.93 0.371zM20.867 9.369q0.555 0 0.925-0.375t0.371-0.93-0.375-0.925-0.93-0.371-0.925 0.375-0.371 0.93 0.375 0.925 0.93 0.371zM25.704 9.369q0.555 0 0.925-0.375t0.371-0.93-0.375-0.925-0.93-0.371-0.925 0.375-0.371 0.93 0.375 0.925 0.93 0.371zM6.305 14.18q0.555 0 0.925-0.375t0.371-0.93-0.375-0.925-0.93-0.371-0.925 0.375-0.371 0.93 0.375 0.925 0.93 0.371zM11.168 14.18q0.554 0 0.925-0.375t0.371-0.93-0.375-0.925-0.93-0.371-0.925 0.375-0.371 0.93 0.375 0.925 0.93 0.371zM16.005 14.18q0.554 0 0.925-0.375t0.371-0.93-0.375-0.925-0.93-0.371-0.925 0.375-0.371 0.93 0.375 0.925 0.93 0.371zM20.867 14.18q0.555 0 0.925-0.375t0.371-0.93-0.375-0.925-0.93-0.371-0.925 0.375-0.371 0.93 0.375 0.925 0.93 0.371zM25.704 14.18q0.555 0 0.925-0.375t0.371-0.93-0.375-0.925-0.93-0.371-0.925 0.375-0.371 0.93 0.375 0.925 0.93 0.371z"></path>
</svg>
