<!-- Generated by IcoMoon.io -->
<svg version="1.1" xmlns="http://www.w3.org/2000/svg" width="32" height="32" viewBox="0 0 32 32">
<path d="M1.772 19.335q-0.549 0-0.922-0.373t-0.372-0.925 0.372-0.92 0.922-0.369h28.455q0.549 0 0.922 0.373t0.372 0.925-0.372 0.92-0.922 0.369h-28.455zM13.931 14.162v-5.949h-6.726q-0.862 0-1.465-0.605t-0.604-1.468 0.604-1.465 1.466-0.601h17.591q0.862 0 1.465 0.605t0.604 1.468-0.604 1.465-1.465 0.601h-6.726v5.949h-4.139zM13.931 21.922h4.139v4.915q0 0.862-0.605 1.465t-1.468 0.604-1.465-0.604-0.601-1.465v-4.915z"></path>
</svg>
