<!-- Generated by IcoMoon.io -->
<svg version="1.1" xmlns="http://www.w3.org/2000/svg" width="32" height="32" viewBox="0 0 32 32">
<path d="M23.172 17.701l-3.906 6.296q-0.393 0.627-1.101 0.496t-0.896-0.831l-1.37-5.509-12.899 12.869q-0.423 0.423-1.013 0.43t-1.028-0.43q-0.422-0.423-0.422-1.020t0.422-1.020l12.869-12.884-5.509-1.37q-0.7-0.189-0.831-0.896t0.495-1.1l6.296-3.921-0.525-7.389q-0.058-0.729 0.598-1.064t1.195 0.146l5.67 4.766 6.865-2.754q0.685-0.262 1.18 0.233t0.233 1.18l-2.784 6.865 4.766 5.655q0.481 0.539 0.16 1.195t-1.049 0.598l-7.419-0.54zM0.465 6.013q-0.233-0.233-0.233-0.525t0.233-0.525l2.099-2.099q0.233-0.233 0.525-0.233t0.525 0.233l2.069 2.069q0.233 0.233 0.233 0.525t-0.233 0.525l-2.099 2.099q-0.233 0.233-0.525 0.233t-0.525-0.233l-2.069-2.069zM19.077 18.795l2.536-4.125 4.853 0.364-3.148-3.716 1.821-4.489-4.489 1.821-3.716-3.133 0.364 4.838-4.125 2.58 4.722 1.166 1.18 4.693zM26.029 31.547l-2.099-2.099q-0.233-0.233-0.219-0.525t0.247-0.525l2.070-2.069q0.233-0.233 0.525-0.233t0.525 0.233l2.099 2.099q0.233 0.233 0.219 0.525t-0.248 0.525l-2.069 2.069q-0.233 0.233-0.525 0.233t-0.525-0.233z"></path>
</svg>
