<!-- Generated by IcoMoon.io -->
<svg version="1.1" xmlns="http://www.w3.org/2000/svg" width="32" height="32" viewBox="0 0 32 32">
<path d="M5.718 26.282h-4.237q-0.629 0-1.056-0.427t-0.426-1.060 0.426-1.054 1.056-0.422h5.718q0.63 0 1.056 0.426t0.426 1.056v5.718q0 0.63-0.427 1.056t-1.060 0.426-1.054-0.426-0.422-1.056v-4.238zM26.282 26.282v4.238q0 0.63-0.427 1.056t-1.060 0.426-1.054-0.426-0.422-1.056v-5.718q0-0.63 0.426-1.056t1.056-0.426h5.718q0.63 0 1.056 0.427t0.426 1.060-0.426 1.054-1.056 0.422h-4.238zM5.718 5.718v-4.237q0-0.629 0.427-1.056t1.060-0.426 1.054 0.426 0.422 1.056v5.718q0 0.63-0.426 1.056t-1.056 0.426h-5.718q-0.629 0-1.056-0.427t-0.426-1.060 0.426-1.054 1.056-0.422h4.237zM26.282 5.718h4.238q0.63 0 1.056 0.427t0.426 1.060-0.426 1.054-1.056 0.422h-5.718q-0.63 0-1.056-0.426t-0.426-1.056v-5.718q0-0.629 0.427-1.056t1.060-0.426 1.054 0.426 0.422 1.056v4.237z"></path>
</svg>
