<!-- Generated by IcoMoon.io -->
<svg version="1.1" xmlns="http://www.w3.org/2000/svg" width="32" height="32" viewBox="0 0 32 32">
<path d="M15.825 31.75q-5.979 0-10.354-3.901t-5.119-9.72q-0.087-0.569 0.306-1.014t1.021-0.474q0.583-0.029 1.020 0.335t0.569 0.977q0.671 4.666 4.215 7.773t8.342 3.106q5.41 0 9.166-3.784t3.755-9.194q0-5.323-3.784-9.005t-9.136-3.682q-2.989 0-5.6 1.371t-4.492 3.675h3.209q0.627 0 1.043 0.416t0.416 1.043-0.416 1.043-1.043 0.416h-6.679q-0.627 0-1.043-0.416t-0.416-1.043v-6.65q0-0.627 0.416-1.043t1.043-0.416 1.043 0.416 0.416 1.043v3.004q2.26-2.713 5.418-4.244t6.686-1.531q3.281 0 6.162 1.232t5.031 3.354 3.398 4.973 1.247 6.133-1.247 6.162-3.398 5.017-5.031 3.383-6.162 1.247zM17.4 15.358l4.812 4.754q0.423 0.423 0.423 1.036t-0.423 1.035-1.020 0.423-1.021-0.423l-5.25-5.191q-0.233-0.234-0.335-0.503t-0.102-0.562v-7.306q0-0.627 0.416-1.043t1.043-0.416 1.043 0.416 0.416 1.043v6.737z"></path>
</svg>
