<!-- Generated by IcoMoon.io -->
<svg version="1.1" xmlns="http://www.w3.org/2000/svg" width="32" height="32" viewBox="0 0 32 32">
<path d="M10.575 31.5c-2.813 0-5.196-0.976-7.147-2.928s-2.928-4.334-2.928-7.147v-10.85c0-2.813 0.976-5.196 2.928-7.147s4.334-2.928 7.147-2.928h10.85c2.813 0 5.196 0.976 7.147 2.928s2.928 4.334 2.928 7.147v10.85c0 2.813-0.976 5.196-2.928 7.147s-4.334 2.928-7.147 2.928zM10.575 28.629h10.85c1.99 0 3.688-0.703 5.095-2.11s2.11-3.105 2.11-5.095v-10.85c0-1.99-0.703-3.688-2.11-5.095s-3.105-2.11-5.095-2.11h-10.85c-1.99 0-3.688 0.703-5.095 2.11s-2.11 3.105-2.11 5.095v10.85c0 1.99 0.703 3.688 2.11 5.095s3.105 2.11 5.095 2.11z"></path>
</svg>
