<!-- Generated by IcoMoon.io -->
<svg version="1.1" xmlns="http://www.w3.org/2000/svg" width="32" height="32" viewBox="0 0 32 32">
<path d="M5.946 24.629q2.335-1.676 4.803-2.593t5.251-0.917 5.265 0.917 4.816 2.593q1.623-1.966 2.368-4.103t0.745-4.526q0-5.581-3.806-9.388t-9.388-3.806-9.388 3.806-3.806 9.388q0 2.388 0.758 4.526t2.382 4.103zM15.995 17.319q-2.304 0-3.881-1.581t-1.577-3.886 1.582-3.881 3.885-1.577 3.881 1.582 1.577 3.886-1.582 3.881-3.885 1.577zM16.012 31.833q-3.271 0-6.161-1.247t-5.041-3.398-3.398-5.034-1.247-6.162 1.247-6.155 3.398-5.027 5.034-3.398 6.162-1.247 6.155 1.247 5.027 3.398 3.398 5.028 1.247 6.149-1.247 6.161-3.398 5.041q-2.151 2.151-5.028 3.398t-6.149 1.247zM16 29.194q2.151 0 4.156-0.627t3.866-2.065q-1.86-1.332-3.879-2.039t-4.143-0.706-4.143 0.706-3.879 2.039q1.86 1.439 3.866 2.065t4.156 0.627zM16 14.681q1.24 0 2.032-0.792t0.792-2.032-0.792-2.032-2.032-0.792-2.032 0.792-0.792 2.032 0.792 2.032 2.032 0.792z"></path>
</svg>
