<!-- Generated by IcoMoon.io -->
<svg version="1.1" xmlns="http://www.w3.org/2000/svg" width="32" height="32" viewBox="0 0 32 32">
<path d="M5.16 31.528q-0.622 0-1.044-0.423t-0.421-1.047 0.421-1.042 1.044-0.417h21.681q0.622 0 1.044 0.423t0.421 1.047-0.421 1.042-1.044 0.417h-21.681zM16 25.082q-4.409 0-6.885-2.637t-2.475-7.090v-12.935q0-0.802 0.594-1.375t1.399-0.573 1.376 0.573 0.571 1.375v13.023q0 2.666 1.406 4.292t4.014 1.626 4.014-1.626 1.407-4.292v-13.023q0-0.802 0.594-1.375t1.399-0.573 1.376 0.573 0.571 1.375v12.935q0 4.453-2.475 7.090t-6.885 2.637z"></path>
</svg>
