<!-- Generated by IcoMoon.io -->
<svg version="1.1" xmlns="http://www.w3.org/2000/svg" width="32" height="32" viewBox="0 0 32 32">
<path d="M11.989 14.311h1.794q0.639 0 1.071-0.432t0.433-1.072v-1.794q0-0.639-0.433-1.071t-1.071-0.433h-2.533q-0.306 0-0.536 0.211t-0.23 0.539v6.549q0 0.328 0.23 0.539t0.536 0.211q0.317 0 0.528-0.23t0.211-0.536v-2.481zM11.989 12.807v-1.794h1.794v1.794h-1.794zM20.249 17.557q0.62 0 1.062-0.432t0.442-1.072v-5.040q0-0.639-0.442-1.071t-1.062-0.433h-2.507q-0.306 0-0.536 0.211t-0.23 0.538v6.525q0 0.326 0.23 0.551t0.536 0.224h2.507zM18.481 16.053v-5.040h1.768v5.040h-1.768zM25.078 14.311h1.108q0.317 0 0.528-0.23t0.211-0.536q0-0.317-0.211-0.528t-0.528-0.211h-1.108v-1.794h1.108q0.317 0 0.528-0.23t0.211-0.536q0-0.317-0.211-0.528t-0.528-0.211h-1.847q-0.306 0-0.536 0.211t-0.23 0.539v6.549q0 0.328 0.23 0.539t0.536 0.211q0.317 0 0.528-0.23t0.211-0.536v-2.481zM8.083 26.556q-1.069 0-1.854-0.785t-0.785-1.854v-21.111q0-1.069 0.785-1.854t1.854-0.785h21.111q1.069 0 1.854 0.785t0.785 1.854v21.111q0 1.069-0.785 1.854t-1.854 0.785h-21.111zM8.083 23.917h21.111v-21.111h-21.111v21.111zM2.806 31.833q-1.069 0-1.854-0.785t-0.785-1.854v-22.43q0-0.561 0.381-0.94t0.943-0.38 0.939 0.38 0.376 0.94v22.43h22.43q0.561 0 0.94 0.381t0.38 0.943-0.38 0.939-0.94 0.376h-22.43zM8.083 2.806v0z"></path>
</svg>
