<!-- Generated by IcoMoon.io -->
<svg version="1.1" xmlns="http://www.w3.org/2000/svg" width="32" height="32" viewBox="0 0 32 32">
<path d="M7.635 13.783q0-0.231-0.198-0.313t-0.37 0.089l-1.992 1.966q-0.211 0.201-0.211 0.47t0.211 0.48l1.992 1.966q0.172 0.171 0.37 0.089t0.198-0.314v-4.433zM18.217 21.172h-4.407q-0.225 0-0.323 0.198t0.072 0.369l1.966 1.992q0.201 0.211 0.47 0.211t0.48-0.211l1.966-1.992q0.171-0.171 0.089-0.369t-0.314-0.198zM18.217 10.828q0.231 0 0.314-0.198t-0.089-0.369l-1.966-1.966q-0.201-0.211-0.47-0.211t-0.48 0.211l-1.94 1.966q-0.171 0.171-0.089 0.369t0.313 0.198h4.407zM24.418 13.783v4.46q0 0.231 0.198 0.313t0.369-0.089l1.966-1.966q0.211-0.211 0.224-0.475t-0.198-0.475l-1.992-1.992q-0.171-0.171-0.369-0.089t-0.198 0.313zM2.806 28.667q-1.069 0-1.854-0.785t-0.785-1.854v-20.055q0-1.069 0.785-1.854t1.854-0.785h26.389q1.069 0 1.854 0.785t0.785 1.854v20.055q0 1.069-0.785 1.854t-1.854 0.785h-26.389zM2.806 26.028h26.389v-20.055h-26.389v20.055zM2.806 26.028v0z"></path>
</svg>
