<!-- Generated by IcoMoon.io -->
<svg version="1.1" xmlns="http://www.w3.org/2000/svg" width="32" height="32" viewBox="0 0 32 32">
<path d="M20.985 6.75c-1.947 0-3.038 0.974-3.038 2.921v12.658c0 1.947 0.974 2.921 2.921 2.921h7.789c1.947 0 2.921-0.974 2.921-2.921v-12.658c0-1.947-0.974-2.921-2.921-2.921zM24.744 9.087c1.558 0 2.726 0.389 3.505 1.246 0.974 0.779 1.363 1.947 1.363 3.311 0 0.974-0.389 1.947-0.974 2.804-0.389 0.584-1.168 1.168-1.947 1.811l-1.168 0.779c-0.779 0.584-1.168 0.779-1.363 1.071-0.195 0.195-0.389 0.389-0.584 0.779h6.232v2.473h-9.737c0-0.974 0.195-1.947 0.584-2.785 0.389-0.954 1.363-1.947 2.921-2.999 1.363-0.974 2.142-1.558 2.532-1.986 0.584-0.584 0.779-1.363 0.779-2.045 0-0.584-0.195-1.168-0.584-1.499-0.389-0.389-0.779-0.584-1.363-0.584-0.779 0-1.363 0.389-1.753 0.974-0.195 0.389-0.195 0.974-0.389 1.753h-2.726c0-1.168 0.389-2.142 0.584-2.921 0.779-1.363 2.142-2.142 3.895-2.142zM3.42 6.75c-1.947 0-2.999 0.974-2.999 2.921v12.658c0 1.947 0.974 2.921 2.999 2.921h7.789c1.947 0 2.921-0.974 2.921-2.921v-12.658c0-1.947-0.974-2.921-2.921-2.921zM6.925 8.941h2.259v14.362h-2.921v-9.932h-3.311v-1.947c0.974 0 1.558 0 1.889-0.058 0.643-0.136 1.032-0.331 1.422-0.721 0.195-0.389 0.389-0.584 0.487-0.974s0.097-0.584 0.097-0.584z"></path>
</svg>
