<!-- Generated by IcoMoon.io -->
<svg version="1.1" xmlns="http://www.w3.org/2000/svg" width="32" height="32" viewBox="0 0 32 32">
<path d="M10.952 17.348q-0.575 0-0.959-0.387t-0.384-0.961v-11.043l-3.708 3.708q-0.391 0.391-0.941 0.391t-0.951-0.38q-0.4-0.415-0.4-0.964t0.404-0.948l6-6.001q0.215-0.215 0.449-0.303t0.499-0.087 0.496 0.087q0.229 0.088 0.445 0.303l6.013 6.014q0.404 0.404 0.398 0.944t-0.412 0.955q-0.404 0.38-0.944 0.387t-0.944-0.398l-3.708-3.708v11.043q0 0.573-0.389 0.961t-0.964 0.387zM21.040 31.628q-0.266 0-0.496-0.087t-0.445-0.303l-6.013-6.014q-0.405-0.404-0.398-0.944t0.412-0.955q0.405-0.38 0.944-0.387t0.944 0.398l3.708 3.708v-11.043q0-0.573 0.389-0.961t0.964-0.387 0.959 0.387 0.384 0.961v11.043l3.708-3.708q0.391-0.391 0.941-0.391t0.951 0.38q0.4 0.415 0.4 0.964t-0.404 0.948l-6 6.001q-0.215 0.215-0.449 0.303t-0.499 0.087z"></path>
</svg>
