<!-- Generated by IcoMoon.io -->
<svg version="1.1" xmlns="http://www.w3.org/2000/svg" width="32" height="32" viewBox="0 0 32 32">
<path d="M21.7 14.074q0.924 0 1.57-0.647t0.647-1.57-0.647-1.57-1.57-0.647-1.57 0.647-0.647 1.57q0 0.924 0.647 1.57t1.57 0.647zM10.3 14.074q0.924 0 1.57-0.647t0.647-1.57-0.647-1.57-1.57-0.647-1.57 0.647-0.647 1.57q0 0.924 0.647 1.57t1.57 0.647zM16 31.833q-3.285 0-6.175-1.247t-5.027-3.384-3.384-5.027-1.247-6.175 1.247-6.175 3.384-5.027 5.027-3.384 6.175-1.247 6.175 1.247 5.027 3.384 3.384 5.027 1.247 6.175-1.247 6.175-3.384 5.027-5.027 3.384-6.175 1.247zM16 29.194q5.525 0 9.36-3.834t3.834-9.36-3.834-9.36-9.36-3.834-9.36 3.834-3.834 9.36 3.834 9.36 9.36 3.834zM15.987 24.682q2.282 0 4.209-1.055t3.114-2.913q0.238-0.465-0.033-0.913t-0.811-0.449h-12.933q-0.552 0-0.816 0.449t-0.026 0.913q1.188 1.858 3.121 2.913t4.176 1.055z"></path>
</svg>
