<!-- Generated by IcoMoon.io -->
<svg version="1.1" xmlns="http://www.w3.org/2000/svg" width="32" height="32" viewBox="0 0 32 32">
<path d="M10.68 30.346h-6.462q-1.038 0-1.802-0.763t-0.763-1.802v-6.462q1.744-0.128 3.013-1.275t1.269-2.853-1.269-2.853-3.013-1.275v-6.462q0-1.038 0.763-1.802t1.802-0.763h6.59q0.282-1.564 1.384-2.628t2.666-1.064 2.667 1.064 1.384 2.628h6.487q1.038 0 1.802 0.763t0.763 1.802v6.487q1.564 0.282 2.59 1.436t1.026 2.718-1.026 2.628-2.59 1.346v6.564q0 1.038-0.763 1.802t-1.802 0.763h-6.462q-0.128-1.872-1.314-3.077t-2.814-1.205-2.814 1.205-1.314 3.077zM4.218 27.782h4.423q0.948-2.41 2.779-3.346t3.385-0.936 3.387 0.936 2.782 3.346h4.423v-9.102h2.18q0.615 0 1.026-0.41t0.41-1.026-0.41-1.025-1.026-0.41h-2.18v-9.205h-9.102v-2.256q0-0.615-0.41-1.026t-1.026-0.41-1.025 0.41-0.41 1.026v2.256h-9.205v4.461q1.927 0.713 3.104 2.389t1.178 3.745q0 2.033-1.18 3.712t-3.102 2.41v4.461z"></path>
</svg>
