<!-- Generated by IcoMoon.io -->
<svg version="1.1" xmlns="http://www.w3.org/2000/svg" width="32" height="32" viewBox="0 0 32 32">
<path d="M2.963 32q-1.222 0-2.093-0.87t-0.87-2.093v-26.074q0-1.222 0.87-2.093t2.093-0.87h26.074q1.222 0 2.093 0.87t0.87 2.093v26.074q0 1.222-0.87 2.093t-2.093 0.87h-26.074zM2.963 29.037h26.074v-22.518h-26.074v22.518zM16.002 24.741q-3.587 0-6.409-1.938t-4.111-5.030q1.289-3.092 4.11-5.026t6.407-1.934 6.409 1.938 4.111 5.030q-1.289 3.092-4.11 5.026t-6.407 1.933zM16 22.37q2.518 0 4.621-1.217t3.29-3.376q-1.188-2.159-3.29-3.376t-4.621-1.217-4.621 1.217-3.29 3.376q1.188 2.159 3.29 3.376t4.621 1.217zM16.004 20.148q0.989 0 1.678-0.692t0.689-1.681-0.692-1.678-1.681-0.689q-0.989 0-1.678 0.692t-0.689 1.681 0.692 1.678 1.681 0.689z"></path>
</svg>
