<!-- Generated by IcoMoon.io -->
<svg version="1.1" xmlns="http://www.w3.org/2000/svg" width="32" height="32" viewBox="0 0 32 32">
<path d="M24.105 31.833q-1.555 0-2.662-1.107-1.107-1.108-1.107-2.662v-24.127q0-1.555 1.107-2.662t2.662-1.107h2.074q1.555 0 2.662 1.107 1.108 1.108 1.108 2.662v24.127q0 1.555-1.108 2.662-1.107 1.107-2.662 1.107h-2.074zM5.821 31.833q-1.555 0-2.662-1.107-1.108-1.108-1.108-2.662v-24.127q0-1.555 1.108-2.662 1.107-1.107 2.662-1.107h2.074q1.555 0 2.662 1.107 1.107 1.108 1.107 2.662v24.127q0 1.555-1.107 2.662t-2.662 1.107h-2.074z"></path>
</svg>
