<!-- Generated by IcoMoon.io -->
<svg version="1.1" xmlns="http://www.w3.org/2000/svg" width="32" height="32" viewBox="0 0 32 32">
<path d="M11.065 27.795h-4.403q-1.014 0-1.736-0.722t-0.722-1.736v-4.388l-3.207-3.229q-0.356-0.369-0.528-0.813t-0.172-0.903 0.172-0.907 0.528-0.817l3.207-3.229v-4.388q0-1.014 0.722-1.736t1.736-0.722h4.388l3.229-3.207q0.369-0.356 0.829-0.528t0.92-0.172 0.903 0.189 0.812 0.536l3.195 3.182h4.398q1.014 0 1.736 0.722t0.722 1.736v4.388l3.207 3.229q0.356 0.369 0.528 0.813t0.172 0.903-0.172 0.907-0.528 0.817l-3.207 3.229v4.388q0 1.014-0.722 1.736t-1.736 0.722h-4.398l-3.195 3.158q-0.368 0.335-0.812 0.517t-0.903 0.183-0.907-0.183-0.818-0.517l-3.24-3.158zM12.068 25.338l3.957 3.858 3.88-3.858h5.433v-5.431l3.907-3.907-3.907-3.907v-5.431h-5.431l-3.882-3.907-3.932 3.907h-5.431v5.431l-3.907 3.907 3.907 3.907v5.431h5.406zM16.025 23.225q3.010 0 5.129-2.121t2.119-5.129-2.12-5.128-5.129-2.119v14.498z"></path>
</svg>
