<!-- Generated by IcoMoon.io -->
<svg version="1.1" xmlns="http://www.w3.org/2000/svg" width="32" height="32" viewBox="0 0 32 32">
<path d="M25.583 17.655h-23.816q-0.711 0-1.183-0.472t-0.472-1.183 0.472-1.183 1.183-0.472h23.816l-10.758-10.758q-0.496-0.496-0.488-1.158t0.505-1.159q0.496-0.48 1.158-0.488t1.158 0.488l13.571 13.571q0.265 0.265 0.372 0.546t0.107 0.612-0.107 0.612q-0.108 0.282-0.372 0.546l-13.571 13.571q-0.48 0.48-1.15 0.48t-1.167-0.48q-0.496-0.496-0.496-1.167t0.496-1.167l10.741-10.741z"></path>
</svg>
