<!-- Generated by IcoMoon.io -->
<svg version="1.1" xmlns="http://www.w3.org/2000/svg" width="32" height="32" viewBox="0 0 32 32">
<path d="M7.952 27.036q-3.153 0-5.318-2.141t-2.165-5.294q0-2.788 1.747-4.765t4.418-2.459q0.082-0.424 0.223-0.923t0.365-0.935l-5.035-5.036q-0.341-0.341-0.341-0.823t0.341-0.824 0.823-0.341 0.823 0.341l24.637 24.637q0.341 0.341 0.347 0.818t-0.347 0.829q-0.341 0.341-0.829 0.347t-0.841-0.335l-3.13-3.094h-15.718zM7.952 24.683h13.413l-12.259-12.259q-0.282 0.482-0.377 1.047t-0.094 1.118h-0.682q-2.141 0-3.636 1.412t-1.494 3.541 1.494 3.636 3.636 1.506zM29.318 25.718l-1.788-1.765q0.788-0.565 1.218-1.276t0.429-1.665q0-1.506-1.071-2.565t-2.577-1.059h-2.283v-2.847q0-3.047-2.123-5.136t-5.16-2.088q-0.988 0-2.046 0.288t-1.965 0.923l-1.671-1.671q1.259-0.965 2.7-1.429t2.971-0.465q3.988 0 6.818 2.818t2.83 6.806v0.494q2.506 0.071 4.218 1.759t1.712 4.171q0 1.282-0.565 2.583t-1.647 2.123z"></path>
</svg>
