<!-- Generated by IcoMoon.io -->
<svg version="1.1" xmlns="http://www.w3.org/2000/svg" width="32" height="32" viewBox="0 0 32 32">
<path d="M16 30.391q-0.468 0-0.953-0.169t-0.852-0.539l-2.307-2.122q-4.679-4.323-8.215-8.348t-3.536-8.559q0-3.626 2.432-6.056t6.028-2.43q2.049 0 3.992 0.945t3.41 2.941q1.599-1.996 3.463-2.941t3.939-0.945q3.595 0 6.028 2.43t2.432 6.056q0 4.534-3.529 8.566t-8.235 8.354l-2.3 2.115q-0.363 0.367-0.843 0.534t-0.955 0.167zM14.81 8.857q-1.097-1.838-2.697-2.941t-3.516-1.104q-2.538 0-4.177 1.652t-1.639 4.202q0 2.209 1.517 4.666t3.629 4.765 4.365 4.306 3.708 3.331q1.454-1.309 3.708-3.318t4.362-4.336 3.629-4.784 1.52-4.641q0-2.538-1.652-4.191t-4.164-1.652q-1.943 0-3.529 1.090t-2.736 2.954q-0.225 0.344-0.515 0.502t-0.648 0.159-0.661-0.159-0.502-0.502z"></path>
</svg>
