<!-- Generated by IcoMoon.io -->
<svg version="1.1" xmlns="http://www.w3.org/2000/svg" width="32" height="32" viewBox="0 0 32 32">
<path d="M5.442 31.833q-2.188 0-3.731-1.546t-1.544-3.734 1.546-3.731 3.732-1.544q0.739 0 1.412 0.192t1.267 0.534l6.558-6.531v-4.908q-1.716-0.462-2.837-1.867t-1.122-3.253q0-2.186 1.546-3.732t3.734-1.546 3.731 1.546 1.544 3.732q0 1.848-1.122 3.253t-2.837 1.867v4.908l6.571 6.531q0.606-0.342 1.272-0.534t1.393-0.192q2.186 0 3.732 1.546t1.546 3.734-1.546 3.731-3.734 1.544-3.731-1.546-1.544-3.732q0-0.739 0.192-1.412t0.534-1.267l-6.003-6.030-6.003 6.030q0.342 0.594 0.534 1.267t0.192 1.412q0 2.186-1.546 3.732t-3.734 1.546zM26.553 29.194q1.098 0 1.87-0.769t0.772-1.867-0.769-1.87-1.867-0.772-1.87 0.769-0.772 1.867 0.769 1.87 1.867 0.772zM15.997 8.083q1.098 0 1.87-0.769t0.772-1.867-0.769-1.87-1.867-0.772-1.87 0.769-0.772 1.867 0.769 1.87 1.867 0.772zM5.441 29.194q1.098 0 1.87-0.769t0.772-1.867-0.769-1.87-1.867-0.772-1.87 0.769-0.772 1.867 0.769 1.87 1.867 0.772z"></path>
</svg>
