<!-- Generated by IcoMoon.io -->
<svg version="1.1" xmlns="http://www.w3.org/2000/svg" width="32" height="32" viewBox="0 0 32 32">
<path d="M2.814 27.261q-1.034 0-1.764-0.73t-0.73-1.764 0.73-1.764 1.764-0.73q0.178 0 0.357 0.018t0.464 0.089l7.127-7.127q-0.072-0.285-0.089-0.464t-0.018-0.357q0-1.034 0.73-1.764t1.764-0.73 1.764 0.73 0.73 1.764q0 0.072-0.107 0.819l3.92 3.92q0.285-0.072 0.464-0.089t0.357-0.018 0.357 0.018 0.464 0.089l5.702-5.702q-0.072-0.285-0.089-0.464t-0.018-0.357q0-1.034 0.73-1.764t1.764-0.73 1.764 0.73 0.73 1.764-0.73 1.764-1.764 0.73q-0.178 0-0.357-0.018t-0.464-0.089l-5.702 5.702q0.072 0.285 0.089 0.464t0.018 0.357q0 1.034-0.73 1.764t-1.764 0.73-1.764-0.73-0.73-1.764q0-0.178 0.018-0.357t0.089-0.464l-3.92-3.92q-0.285 0.072-0.464 0.089t-0.357 0.018q-0.072 0-0.819-0.107l-7.127 7.127q0.072 0.285 0.089 0.464t0.018 0.357q0 1.034-0.73 1.764t-1.764 0.73zM4.597 11.51l-0.712-1.568-1.568-0.712 1.568-0.712 0.712-1.568 0.712 1.568 1.568 0.712-1.568 0.712zM20.276 9.693l-1.104-2.352-2.352-1.104 2.352-1.104 1.104-2.352 1.104 2.352 2.352 1.104-2.352 1.104z"></path>
</svg>
