<!-- Generated by IcoMoon.io -->
<svg version="1.1" xmlns="http://www.w3.org/2000/svg" width="32" height="32" viewBox="0 0 32 32">
<path d="M21.958 23.837q-1.033 0.188-1.971 0.188t-1.971-0.188v-7.039l-5.067 4.974q-1.502-1.221-2.722-2.815l4.974-4.974h-7.039q-0.188-1.033-0.188-1.972t0.188-2.064h7.039l-4.974-4.974q0.657-0.938 1.313-1.502 0.47-0.563 1.408-1.313l5.068 4.974v-7.039q1.033-0.095 1.971-0.095t1.971 0.095v7.039l5.067-4.974q1.502 1.22 2.722 2.815l-4.974 4.974h7.039q0.188 1.126 0.188 2.064t-0.188 1.972h-7.039l4.974 4.974q-0.657 0.938-1.313 1.502-0.47 0.564-1.408 1.313l-5.067-4.974v7.039zM0.001 27.966q0-1.596 1.173-2.768t2.815-1.172 2.815 1.172 1.173 2.815-1.173 2.815-2.815 1.172-2.815-1.172-1.173-2.862z"></path>
</svg>
