<!-- Generated by IcoMoon.io -->
<svg version="1.1" xmlns="http://www.w3.org/2000/svg" width="32" height="32" viewBox="0 0 32 32">
<path d="M14.698 3.474v16.404q0 0.553-0.376 0.927t-0.931 0.374-0.927-0.374-0.371-0.927v-7.030q-2.578 0-4.413-1.732t-1.836-4.244 1.745-4.257 4.244-1.745h10.154q0.553 0 0.927 0.376t0.375 0.931-0.375 0.926-0.927 0.371h-2.083v16.404q0 0.553-0.376 0.927t-0.931 0.374-0.927-0.374-0.371-0.927v-16.404h-2.603zM12.094 10.243v-6.77q-1.523 0-2.584 0.931t-1.061 2.454 1.061 2.454 2.584 0.931zM25.113 27.532h-21.872q-0.553 0-0.928-0.376t-0.374-0.931 0.374-0.927 0.928-0.371h21.872l-1.849-1.849q-0.378-0.378-0.378-0.912t0.378-0.911 0.911-0.378 0.912 0.378l4.062 4.062q0.39 0.39 0.39 0.911t-0.39 0.912l-4.062 4.062q-0.378 0.377-0.912 0.377t-0.911-0.377-0.378-0.912 0.378-0.911l1.849-1.849z"></path>
</svg>
