<!-- Generated by IcoMoon.io -->
<svg version="1.1" xmlns="http://www.w3.org/2000/svg" width="32" height="32" viewBox="0 0 32 32">
<path d="M30.83 19.143l-11.662 11.688q-0.39 0.376-0.877 0.565t-0.974 0.188-0.967-0.195-0.87-0.558l-14.298-14.324q-0.351-0.351-0.559-0.824t-0.208-0.995v-11.674q0-1.071 0.763-1.835t1.835-0.763h11.7q0.521 0 1.010 0.211t0.847 0.568l14.259 14.272q0.4 0.39 0.583 0.877t0.183 0.974-0.188 0.974-0.578 0.851zM17.364 29.038l11.662-11.688-14.323-14.337h-11.688v11.61l14.35 14.415zM7.040 9.143q0.87 0 1.5-0.63t0.63-1.5-0.63-1.5-1.5-0.63-1.5 0.63-0.63 1.5 0.63 1.5 1.5 0.63zM18.545 23.584l4.545-4.545q0.429-0.429 0.643-0.972t0.214-1.158q0-1.27-0.897-2.168t-2.168-0.897q-0.775 0-1.53 0.48t-1.716 1.571q-1.013-1.117-1.735-1.584t-1.486-0.467q-1.27 0-2.168 0.897t-0.897 2.168q0 0.616 0.214 1.158t0.643 0.972l4.519 4.545q0.39 0.39 0.909 0.39t0.909-0.39z"></path>
</svg>
