<!-- Generated by IcoMoon.io -->
<svg version="1.1" xmlns="http://www.w3.org/2000/svg" width="32" height="32" viewBox="0 0 32 32">
<path d="M1.696 16.618q-0.656 0-1.101-0.445t-0.444-1.105 0.444-1.099q0.445-0.44 1.101-0.44h23.173q2.827 0 4.812 1.985t1.985 4.812-1.985 4.828-4.812 2h-5.84l1.761 1.73q0.463 0.433 0.445 1.059t-0.445 1.097q-0.463 0.47-1.104 0.478t-1.104-0.456l-4.372-4.403q-0.247-0.247-0.348-0.514t-0.1-0.572 0.1-0.568q0.1-0.262 0.348-0.51l4.403-4.433q0.457-0.463 1.086-0.463t1.092 0.458q0.425 0.459 0.445 1.089t-0.413 1.094l-1.792 1.823h5.84q1.537 0 2.622-1.104t1.085-2.639-1.085-2.618q-1.086-1.084-2.622-1.084h-23.173zM1.696 27.154q-0.656 0-1.101-0.446t-0.444-1.104 0.444-1.099q0.445-0.44 1.101-0.44h6.18q0.656 0 1.101 0.446t0.444 1.104-0.444 1.099q-0.445 0.44-1.101 0.44h-6.18zM1.696 6.113q-0.656 0-1.101-0.446t-0.444-1.104 0.444-1.099q0.445-0.44 1.101-0.44h26.571q0.656 0 1.101 0.446t0.444 1.104-0.444 1.099q-0.445 0.44-1.101 0.44h-26.571z"></path>
</svg>
