<!-- Generated by IcoMoon.io -->
<svg version="1.1" xmlns="http://www.w3.org/2000/svg" width="32" height="32" viewBox="0 0 32 32">
<path d="M16 19.666q-1.869 0-3.147-1.331t-1.278-3.232v-10.197q0-1.833 1.29-3.115t3.133-1.283 3.135 1.283 1.292 3.115v10.197q0 1.901-1.278 3.232t-3.147 1.331zM14.626 30.468v-4.054q-3.903-0.481-6.741-3.202t-3.333-6.693q-0.082-0.587 0.305-1.001t0.975-0.415q0.589 0 0.981 0.405t0.501 0.997q0.522 3.188 3.009 5.222t5.667 2.034q3.226 0 5.699-2.041t2.996-5.215q0.11-0.591 0.506-0.997t0.983-0.405 0.971 0.415 0.303 1.001q-0.495 3.917-3.312 6.666t-6.762 3.229v4.054q0 0.584-0.396 0.979t-0.983 0.395q-0.586 0-0.977-0.395t-0.392-0.979zM16 16.918q0.729 0 1.203-0.529t0.474-1.285v-10.197q0-0.701-0.482-1.175t-1.195-0.474-1.195 0.474-0.482 1.175v10.197q0 0.756 0.474 1.285t1.203 0.529z"></path>
</svg>
