<!-- Generated by IcoMoon.io -->
<svg version="1.1" xmlns="http://www.w3.org/2000/svg" width="32" height="32" viewBox="0 0 32 32">
<path d="M16 27.807l4.81-4.81q0.453-0.449 1.096-0.449t1.092 0.453 0.449 1.093-0.449 1.091l-5.949 5.949q-0.24 0.24-0.499 0.337t-0.554 0.097-0.55-0.097-0.495-0.337l-5.949-5.949q-0.449-0.453-0.449-1.095t0.453-1.092 1.094-0.449 1.091 0.449l4.81 4.81zM16 4.373l-4.81 4.81q-0.453 0.449-1.096 0.449t-1.092-0.453-0.449-1.094 0.449-1.091l5.949-5.949q0.24-0.24 0.499-0.337t0.554-0.097 0.55 0.097 0.495 0.337l5.949 5.949q0.449 0.453 0.449 1.095t-0.453 1.092-1.094 0.449-1.091-0.449l-4.81-4.81z"></path>
</svg>
