<!-- Generated by IcoMoon.io -->
<svg version="1.1" xmlns="http://www.w3.org/2000/svg" width="32" height="32" viewBox="0 0 32 32">
<path d="M5.237 28.833h3.762q0.62 0 1.039 0.421t0.419 1.043-0.419 1.038-1.039 0.416h-7.292q-0.62 0-1.039-0.419t-0.419-1.039v-7.292q0-0.62 0.421-1.039t1.043-0.419 1.038 0.419 0.416 1.039v3.762l5.104-5.104q0.423-0.423 1.036-0.423t1.036 0.423 0.423 1.036-0.423 1.036l-5.104 5.104zM28.833 5.237l-5.075 5.075q-0.423 0.423-1.020 0.408t-1.020-0.437-0.423-1.035 0.423-1.036l5.046-5.046h-3.762q-0.62 0-1.039-0.421t-0.419-1.043 0.419-1.038 1.039-0.416h7.292q0.62 0 1.039 0.419t0.419 1.039v7.292q0 0.62-0.421 1.039t-1.043 0.419-1.038-0.419-0.416-1.039v-3.762z"></path>
</svg>
