<!-- Generated by IcoMoon.io -->
<svg version="1.1" xmlns="http://www.w3.org/2000/svg" width="32" height="32" viewBox="0 0 32 32">
<path d="M15.68 0.083c-2.38 0-4.341 1.961-4.341 4.341v0.26c-0.001 0.519-0.274 0.993-0.724 1.252-0 0-0.001 0-0.001 0s-0.001 0-0.002 0h0l-0.622 0.362c-0.449 0.258-0.995 0.259-1.444 0-0.008-0.005-0.022-0.014-0.036-0.022l-0.007-0.004-0.175-0.093c-2.059-1.188-4.732-0.472-5.923 1.585l-0.319 0.551c-0 0-0.001 0-0.001 0s-0.001 0-0.002 0h0c-1.188 2.059-0.472 4.735 1.585 5.926l-0.076-0.048 0.218 0.144c0.020 0.014 0.046 0.031 0.073 0.047l0.006 0.004c0.447 0.258 0.72 0.727 0.724 1.243v0.729c0 0.001 0 0.002 0 0.003s0 0.002 0 0.003v-0c0.002 0.521-0.272 0.997-0.724 1.258-0.014 0.008-0.021 0.013-0.028 0.018l0.006-0.003-0.198 0.119c-2.057 1.192-2.773 3.867-1.585 5.926 0 0 0.001 0 0.001 0s0.001 0 0.002 0h-0l0.319 0.551c1.192 2.057 3.864 2.773 5.923 1.585l0.175-0.093c0.021-0.012 0.035-0.020 0.048-0.029l-0.006 0.004c0.45-0.26 0.997-0.26 1.447 0l0.619 0.362c0 0 0.001 0 0.001 0s0.001 0 0.002 0h-0c0.449 0.259 0.723 0.733 0.724 1.252v0.26c0 2.38 1.961 4.341 4.341 4.341h0.639c2.38 0 4.341-1.961 4.341-4.341v-0.26c0-0.519 0.274-0.993 0.724-1.252 0 0 0.001 0 0.002 0s0.001 0 0.002 0h-0l0.619-0.362c0.45-0.26 0.997-0.26 1.447 0 0.008 0.005 0.022 0.014 0.036 0.022l0.007 0.004 0.175 0.093c2.059 1.188 4.732 0.472 5.924-1.585-0.001 0.002 0.002-0.003 0.005-0.008l0.317-0.56v-0.003c1.186-2.059 0.471-4.73-1.585-5.921-0.008-0.005-0.023-0.014-0.038-0.022l-0.008-0.004-0.175-0.093c-0.452-0.261-0.726-0.736-0.724-1.258 0-0.001 0-0.002 0-0.003s0-0.002 0-0.003v0-0.724c0-0.001 0-0.002 0-0.003s0-0.002 0-0.003v0c-0.002-0.521 0.272-0.997 0.724-1.258 0.014-0.008 0.021-0.013 0.028-0.018l-0.006 0.003 0.198-0.119c2.057-1.192 2.773-3.867 1.585-5.926-0 0-0.001 0-0.002 0s-0.001 0-0.002 0h0l-0.32-0.551c-1.192-2.057-3.864-2.773-5.924-1.585l-0.175 0.093c-0.021 0.012-0.035 0.020-0.048 0.029l0.006-0.004c-0.449 0.259-0.995 0.258-1.444 0h-0.003l-0.619-0.362c-0 0-0.001 0-0.002 0s-0.001 0-0.002 0h0c-0.449-0.259-0.723-0.733-0.724-1.252v-0.26c0-2.38-1.961-4.341-4.341-4.341zM15.68 2.977h0.639c0.816 0 1.447 0.631 1.447 1.447v0.26c0 0 0 0.001 0 0.001s0 0.001 0 0.002v-0c0.002 1.547 0.831 2.98 2.17 3.753h-0.006l0.622 0.362c0.001 0 0.002 0 0.003 0s0.002 0 0.003 0h-0c1.341 0.774 3 0.774 4.341 0l-0.042 0.025 0.218-0.116c0.019-0.012 0.032-0.020 0.045-0.029l-0.005 0.003c0.706-0.407 1.567-0.177 1.975 0.529l0.317 0.548c0.407 0.706 0.18 1.567-0.526 1.975-0.014 0.007-0.020 0.011-0.026 0.015l0.007-0.004-0.198 0.119c-1.346 0.777-2.177 2.221-2.17 3.776v0.712c-0.006 1.555 0.824 2.998 2.17 3.776 0.008 0.005 0.022 0.014 0.036 0.022l0.185 0.1c0.701 0.41 0.929 1.266 0.523 1.97 0.002-0.004 0-0.001-0.002 0.003l-0.004 0.008-0.311 0.551c-0.409 0.705-1.269 0.936-1.975 0.529-0.008-0.005-0.020-0.014-0.034-0.022l-0.006-0.004-0.218-0.116 0.042 0.025c-1.341-0.774-3-0.774-4.341 0-0.001 0-0.002 0-0.003 0s-0.002 0-0.003 0h0l-0.622 0.362h0.006c-1.34 0.773-2.169 2.206-2.17 3.753 0 0 0 0.001 0 0.002s0 0.001 0 0.002v-0 0.26c0 0.816-0.631 1.447-1.447 1.447h-0.639c-0.816 0-1.447-0.631-1.447-1.447v-0.26c0-0 0-0.001 0-0.002s0-0.001 0-0.002v0c-0.002-1.547-0.831-2.98-2.17-3.753h0.006l-0.622-0.362c-0.001 0-0.002 0-0.003 0s-0.002 0-0.003 0h0c-1.341-0.774-3-0.774-4.341 0l0.042-0.025-0.218 0.116c-0.019 0.012-0.032 0.020-0.045 0.029l0.005-0.003c-0.706 0.407-1.567 0.177-1.976-0.528l-0.316-0.548c-0.407-0.706-0.18-1.567 0.526-1.975 0.014-0.007 0.020-0.011 0.027-0.015l-0.007 0.004 0.198-0.119c1.346-0.777 2.177-2.221 2.17-3.776v-0.732c0-0.001 0-0.003 0-0.004s0-0.003 0-0.004v0c-0.009-1.539-0.837-2.964-2.17-3.733l0.079 0.048-0.218-0.144c-0.020-0.013-0.046-0.029-0.072-0.044l-0.007-0.004c-0.705-0.409-0.933-1.269-0.526-1.975l0.316-0.548c0.409-0.705 1.269-0.936 1.975-0.529 0.008 0.005 0.020 0.014 0.034 0.022l0.006 0.004 0.218 0.116-0.042-0.025c1.341 0.774 3 0.774 4.341 0 0.001 0 0.002 0 0.003 0s0.002 0 0.003 0h-0l0.622-0.362h-0.006c1.34-0.774 2.169-2.206 2.17-3.753 0-0 0-0.001 0-0.001s0-0.001 0-0.002v0-0.26c0-0.816 0.631-1.447 1.447-1.447z"></path>
<path d="M16 10.212c-3.179 0-5.788 2.608-5.788 5.788s2.608 5.788 5.788 5.788c3.179 0 5.788-2.608 5.788-5.788s-2.608-5.788-5.788-5.788zM16 13.106c1.615 0 2.894 1.279 2.894 2.894s-1.279 2.894-2.894 2.894-2.894-1.279-2.894-2.894 1.279-2.894 2.894-2.894z"></path>
</svg>
