<!-- Generated by IcoMoon.io -->
<svg version="1.1" xmlns="http://www.w3.org/2000/svg" width="32" height="32" viewBox="0 0 32 32">
<path d="M3.103 14.681q-1.088 0-1.864-0.775t-0.775-1.864v-6.069q0-1.088 0.775-1.864t1.864-0.775h13.986q0.561 0 0.94 0.379t0.379 0.94v8.708q0 0.561-0.379 0.94t-0.94 0.38h-13.986zM3.103 12.042h12.667v-6.069h-12.667v6.069zM3.103 28.667q-1.088 0-1.864-0.775t-0.775-1.864v-6.069q0-1.088 0.775-1.864t1.864-0.776h17.153q0.561 0 0.94 0.38t0.379 0.94v8.708q0 0.561-0.379 0.94t-0.94 0.379h-17.153zM3.103 26.027h15.833v-6.069h-15.833v6.069zM24.214 14.681h-1.847q-0.561 0-0.94-0.38t-0.379-0.94v-8.708q0-0.561 0.379-0.94t0.94-0.379h7.851q0.699 0 1.082 0.561t0.145 1.22l-2.481 6.663h1.082q0.752 0 1.128 0.613t0.086 1.273l-5.779 14.554q-0.092 0.238-0.304 0.343t-0.435 0.053-0.376-0.222-0.152-0.438v-13.273zM3.103 12.042v0zM3.103 26.027v0zM7.325 9.007q0-0.515-0.337-0.851t-0.851-0.337-0.851 0.337-0.337 0.851 0.337 0.851 0.851 0.337 0.851-0.337 0.337-0.851zM6.138 24.181q0.515 0 0.851-0.337t0.337-0.851-0.337-0.851-0.851-0.337-0.851 0.337-0.337 0.851 0.337 0.851 0.851 0.337z"></path>
</svg>
