<!-- Generated by IcoMoon.io -->
<svg version="1.1" xmlns="http://www.w3.org/2000/svg" width="32" height="32" viewBox="0 0 32 32">
<path d="M3.511 31.776q-1.331 0-2.309-0.978t-0.978-2.309v-5.029q0-0.698 0.474-1.171t1.175-0.472 1.169 0.472 0.469 1.171v5.029h24.978v-5.029q0-0.698 0.474-1.171t1.175-0.472 1.169 0.472 0.469 1.171v5.029q0 1.331-0.978 2.309t-2.309 0.978h-24.978zM14.357 6.567l-4.486 4.486q-0.486 0.493-1.156 0.469t-1.174-0.518q-0.464-0.493-0.472-1.167t0.485-1.167l7.296-7.296q0.263-0.263 0.547-0.37t0.608-0.106 0.604 0.106q0.28 0.107 0.542 0.37l7.329 7.329q0.493 0.493 0.485 1.15t-0.471 1.15q-0.506 0.493-1.187 0.501t-1.175-0.485l-4.486-4.454v15.907q0 0.699-0.474 1.171t-1.175 0.473-1.169-0.473-0.469-1.171v-15.907z"></path>
</svg>
