<!-- Generated by IcoMoon.io -->
<svg version="1.1" xmlns="http://www.w3.org/2000/svg" width="32" height="32" viewBox="0 0 32 32">
<path d="M17.13 17.713s0-2.501-1.21-2.583c-1.21-0.162-5.004 0-5.004 0v-7.747h5.649s-0.080-2.583-1.13-2.583h-9.2l1.533-4.116s-2.259 0.162-3.147 1.614c-0.807 1.453-3.389 8.877-3.389 8.877s0.888 0.404 2.341-0.726c1.453-1.049 1.937-2.986 1.937-2.986l2.663-0.162 0.080 7.827s-4.762-0.080-5.649 0c-0.968 0.080-1.453 2.583-1.453 2.583h7.182s-0.646 4.438-2.421 7.505c-1.856 3.228-5.407 5.73-5.407 5.73s2.501 1.049 5.004-0.404 4.277-7.827 4.277-7.827l5.73 7.183s0.484-3.389-0.080-4.438c-0.646-0.968-4.035-4.842-4.035-4.842l-1.453 1.291 1.049-4.277 6.133 0.080zM18.583 4.64l-0.080 23.24h2.341l0.807 2.825 4.116-2.825h5.73v-23.24h-12.911zM28.911 25.298h-2.663l-3.389 2.583-0.726-2.583h-0.726v-17.994h7.505v17.994z"></path>
</svg>
