<!-- Generated by IcoMoon.io -->
<svg version="1.1" xmlns="http://www.w3.org/2000/svg" width="32" height="32" viewBox="0 0 32 32">
<path d="M6.396 30.109q-0.722 0-1.201-0.479t-0.479-1.201 0.479-1.202 1.201-0.479h13.504q3.41 0 5.887-2.234t2.477-5.56-2.477-5.56q-2.478-2.234-5.887-2.234h-14.142l4.4 4.4q0.487 0.487 0.487 1.176t-0.487 1.176-1.176 0.487-1.176-0.487l-7.256-7.256q-0.268-0.268-0.378-0.554t-0.109-0.621 0.109-0.622q0.109-0.285 0.378-0.554l7.256-7.256q0.487-0.487 1.176-0.487t1.176 0.487 0.487 1.176-0.487 1.176l-4.4 4.4h14.109q4.82 0 8.289 3.208t3.468 7.945-3.468 7.944q-3.469 3.208-8.289 3.208h-13.471z"></path>
</svg>
