<!-- Generated by IcoMoon.io -->
<svg version="1.1" xmlns="http://www.w3.org/2000/svg" width="32" height="32" viewBox="0 0 32 32">
<path d="M16 1.469c-8.013 0-14.531 6.519-14.531 14.531s6.519 14.531 14.531 14.531 14.531-6.519 14.531-14.531-6.519-14.531-14.531-14.531zM16 0.5c8.561 0 15.5 6.939 15.5 15.5s-6.939 15.5-15.5 15.5-15.5-6.939-15.5-15.5 6.939-15.5 15.5-15.5z"></path>
<path d="M22.001 9.387c0-0.19-0.118-0.403-0.356-0.616-0.261-0.19-0.498-0.308-0.711-0.308-0.403 0-0.687 0.118-0.853 0.332-0.177 0.213-0.285 0.489-0.285 0.79 0 0.006 0 0.011 0 0.016v-0.001 0.498c0 0.19 0.023 0.356 0.023 0.498 0 0.308 0.023 0.593 0.023 0.829v0.829c0 1.114 0 2.204 0.047 3.295 0 1.114 0.023 2.228 0.023 3.342 0 0.379-0.023 0.734-0.023 1.114s-0.023 0.806-0.047 1.327q-1.599-1.209-2.559-2.56c-0.61-0.817-1.186-1.74-1.68-2.712l-0.050-0.108c-0.118-0.213-0.237-0.498-0.379-0.829s-0.308-0.711-0.474-1.162c-0.19-0.45-0.356-0.948-0.545-1.517-0.213-0.545-0.45-1.162-0.687-1.825l-0.237-0.806c-0.095-0.237-0.19-0.498-0.308-0.759-0.261-0.521-0.734-0.806-1.398-0.806-0.002 0-0.004 0-0.007 0-0.259 0-0.496 0.089-0.683 0.239l0.002-0.002c-0.213 0.19-0.308 0.403-0.308 0.664-0.001 0.018-0.001 0.041-0.001 0.063 0 0.095 0.009 0.188 0.026 0.278l-0.002-0.009c0 0.118-0.023 0.237-0.023 0.332-0.19 1.47-0.332 2.915-0.403 4.337-0.071 1.445-0.095 2.892-0.095 4.361 0 1.778 0.023 3.033 0.071 3.792-0.001 0.022-0.001 0.048-0.001 0.075 0 0.133 0.009 0.263 0.026 0.39l-0.002-0.015c0 0.166 0.047 0.308 0.095 0.45 0.046 0.163 0.138 0.3 0.26 0.402l0.001 0.001q0.142 0.142 0.498 0.142c0.278-0.001 0.539-0.071 0.767-0.194l-0.009 0.004c0.261-0.095 0.403-0.261 0.403-0.498-0.005-0.179-0.021-0.351-0.050-0.518l0.003 0.021-0.095-0.45c-0.045-0.105-0.071-0.227-0.071-0.356v0l-0.095-0.379c-0.045-0.214-0.071-0.459-0.071-0.711v0c-0.023-0.285-0.023-0.759-0.023-1.422-0.023-0.616-0.023-1.422-0.023-2.417 0-0.782 0-1.612 0.023-2.489q0-1.28 0.142-3.2c0.474 1.588 0.972 3.033 1.517 4.314 0.587 1.39 1.246 2.583 2.012 3.695l-0.045-0.069c0.285 0.426 0.593 0.877 0.972 1.304 0.367 0.447 0.739 0.849 1.133 1.228l0.005 0.004c0.375 0.362 0.777 0.703 1.199 1.019l0.033 0.023c0.337 0.296 0.719 0.557 1.13 0.767l0.031 0.015c0.108 0.060 0.236 0.095 0.373 0.095 0.011 0 0.020 0 0.031-0.001h-0.002c0.403 0 0.687-0.166 0.853-0.521 0.089-0.217 0.186-0.5 0.269-0.791l0.015-0.063 0.142-1.019 0.047-1.067v-3.602c0-0.877 0-1.778 0.023-2.679v-1.517c0-0.521 0-1.019 0.047-1.517 0.001-0.129 0.027-0.251 0.074-0.361l-0.002 0.006 0.095-0.356c0.047-0.142 0.095-0.261 0.118-0.332 0.020-0.093 0.037-0.206 0.047-0.323l0.001-0.010z"></path>
</svg>
