<!-- Generated by IcoMoon.io -->
<svg version="1.1" xmlns="http://www.w3.org/2000/svg" width="32" height="32" viewBox="0 0 32 32">
<path d="M7.868 11.646l6.517-10.484q0.216-0.324 0.499-0.479t0.634-0.155 0.634 0.155 0.5 0.479l6.517 10.484q0.216 0.351 0.202 0.715t-0.189 0.674-0.475 0.493-0.699 0.182h-12.98q-0.402 0-0.704-0.185t-0.47-0.489q-0.175-0.31-0.189-0.674t0.202-0.715zM24.559 31.683q-3.009 0-5.067-2.058t-2.058-5.067 2.058-5.067 5.067-2.058 5.067 2.058 2.058 5.067-2.058 5.067-5.067 2.058zM0.919 29.39v-9.823q0-0.574 0.388-0.961t0.961-0.388h9.823q0.574 0 0.961 0.388t0.388 0.961v9.823q0 0.574-0.388 0.961t-0.961 0.388h-9.823q-0.573 0-0.961-0.388t-0.388-0.961zM24.562 28.985q1.86 0 3.141-1.284t1.282-3.144-1.284-3.141-3.144-1.282-3.141 1.284-1.282 3.144 1.284 3.141 3.144 1.282zM3.618 28.040h7.124v-7.124h-7.124v7.124zM11.444 11.012h8.15l-4.075-6.584-4.075 6.584z"></path>
</svg>
