<!-- Generated by IcoMoon.io -->
<svg version="1.1" xmlns="http://www.w3.org/2000/svg" width="32" height="32" viewBox="0 0 32 32">
<path d="M16 31.833q-3.246 0-6.135-1.247t-5.047-3.404-3.404-5.047-1.247-6.135q0-3.338 1.273-6.228t3.47-5.027 5.14-3.358 6.294-1.22q3.14 0 5.951 1.062t4.928 2.943 3.365 4.459 1.247 5.627q0 4.367-2.586 6.828t-6.65 2.461h-2.956q-0.594 0-0.983 0.435t-0.39 0.963q0 0.871 0.581 1.669t0.581 1.841q0 1.663-0.917 2.52t-2.514 0.858zM6.949 17.214q0.871 0 1.491-0.62t0.62-1.491-0.62-1.491-1.491-0.62-1.491 0.62-0.62 1.491 0.62 1.491 1.491 0.62zM11.857 10.617q0.871 0 1.491-0.62t0.62-1.491-0.62-1.491-1.491-0.62-1.491 0.62-0.62 1.491 0.62 1.491 1.491 0.62zM20.143 10.617q0.871 0 1.491-0.62t0.62-1.491-0.62-1.491-1.491-0.62-1.491 0.62-0.62 1.491 0.62 1.491 1.491 0.62zM25.183 17.214q0.871 0 1.491-0.62t0.62-1.491-0.62-1.491-1.491-0.62-1.491 0.62-0.62 1.491 0.62 1.491 1.491 0.62zM16 29.194q0.409 0 0.6-0.184t0.191-0.554q0-0.554-0.581-1.122t-0.58-2.151q0-1.768 1.174-3.022t2.943-1.253h2.85q2.876 0 4.736-1.682t1.86-4.968q0-5.080-3.859-8.266t-8.992-3.186q-5.647 0-9.593 3.826t-3.945 9.368q0 5.476 3.859 9.335t9.335 3.859z"></path>
</svg>
