<!-- Generated by IcoMoon.io -->
<svg version="1.1" xmlns="http://www.w3.org/2000/svg" width="32" height="32" viewBox="0 0 32 32">
<path d="M31.068 19.193l-11.849 11.875q-0.396 0.382-0.891 0.574t-0.99 0.191-0.983-0.198-0.884-0.567l-14.527-14.553q-0.356-0.356-0.568-0.837t-0.211-1.011v-11.861q0-1.089 0.775-1.864t1.864-0.775h11.888q0.53 0 1.026 0.214t0.861 0.577l14.488 14.501q0.406 0.396 0.592 0.891t0.186 0.99-0.191 0.99-0.587 0.865zM17.385 29.247l11.849-11.875-14.553-14.567h-11.875v11.796l14.58 14.646zM6.896 9.033q0.884 0 1.524-0.64t0.64-1.524-0.64-1.524-1.524-0.64-1.524 0.64-0.64 1.524 0.64 1.524 1.524 0.64zM18.586 23.706l4.618-4.618q0.435-0.435 0.653-0.987t0.218-1.177q0-1.291-0.911-2.202t-2.203-0.911q-0.788 0-1.555 0.488t-1.744 1.597q-1.029-1.134-1.763-1.609t-1.51-0.475q-1.291 0-2.202 0.911t-0.911 2.202q0 0.625 0.218 1.177t0.653 0.987l4.592 4.618q0.396 0.396 0.924 0.396t0.924-0.396z"></path>
</svg>
