<!-- Generated by IcoMoon.io -->
<svg version="1.1" xmlns="http://www.w3.org/2000/svg" width="32" height="32" viewBox="0 0 32 32">
<path d="M26.85 31.5h-21.7c-2.635 0-4.65-2.015-4.65-4.65v-21.7c0-2.635 2.015-4.65 4.65-4.65h21.7c2.635 0 4.65 2.015 4.65 4.65v21.7c0 2.635-2.015 4.65-4.65 4.65zM5.15 3.6c-0.93 0-1.55 0.62-1.55 1.55v21.7c0 0.93 0.62 1.55 1.55 1.55h21.7c0.93 0 1.55-0.62 1.55-1.55v-21.7c0-0.93-0.62-1.55-1.55-1.55h-21.7z"></path>
<path d="M29.95 12.9h-27.9c-0.93 0-1.55-0.62-1.55-1.55s0.62-1.55 1.55-1.55h27.9c0.93 0 1.55 0.62 1.55 1.55s-0.62 1.55-1.55 1.55z"></path>
<path d="M11.35 31.5c-0.93 0-1.55-0.62-1.55-1.55v-18.6c0-0.93 0.62-1.55 1.55-1.55s1.55 0.62 1.55 1.55v18.6c0 0.93-0.62 1.55-1.55 1.55z"></path>
</svg>
