<!-- Generated by IcoMoon.io -->
<svg version="1.1" xmlns="http://www.w3.org/2000/svg" width="32" height="32" viewBox="0 0 32 32">
<path d="M3.371 14.565q-1.184 0-2.027-0.843t-0.843-2.027v-8.324q0-1.184 0.843-2.027t2.027-0.843h8.324q1.184 0 2.027 0.843t0.843 2.027v8.324q0 1.184-0.843 2.027t-2.027 0.843h-8.324zM3.371 31.5q-1.184 0-2.027-0.843t-0.843-2.027v-8.324q0-1.184 0.843-2.027t2.027-0.843h8.324q1.184 0 2.027 0.843t0.843 2.027v8.324q0 1.184-0.843 2.027t-2.027 0.843h-8.324zM20.305 14.565q-1.184 0-2.027-0.843t-0.843-2.027v-8.324q0-1.184 0.843-2.027t2.027-0.843h8.324q1.184 0 2.027 0.843t0.843 2.027v8.324q0 1.184-0.843 2.027t-2.027 0.843h-8.324zM20.305 31.5q-1.184 0-2.027-0.843t-0.843-2.027v-8.324q0-1.184 0.843-2.027t2.027-0.843h8.324q1.184 0 2.027 0.843t0.843 2.027v8.324q0 1.184-0.843 2.027t-2.027 0.843h-8.324zM3.371 11.695h8.324v-8.324h-8.324v8.324zM20.305 11.695h8.324v-8.324h-8.324v8.324zM20.305 28.629h8.324v-8.324h-8.324v8.324zM3.371 28.629h8.324v-8.324h-8.324v8.324z"></path>
</svg>
