<!-- Generated by IcoMoon.io -->
<svg version="1.1" xmlns="http://www.w3.org/2000/svg" width="32" height="32" viewBox="0 0 32 32">
<path d="M6.726 26.274l-3.993 3.993q-0.606 0.606-1.398 0.273t-0.792-1.188v-25.233q0-1.043 0.766-1.81t1.81-0.766h25.761q1.043 0 1.81 0.766t0.766 1.81v19.578q0 1.043-0.766 1.81t-1.81 0.766h-22.155zM5.618 23.698h23.263v-19.578h-25.761v22.219l2.499-2.641zM3.119 23.698v0zM9.457 15.377q0.657 0 1.101-0.444t0.444-1.101-0.444-1.101-1.101-0.444-1.101 0.444-0.444 1.101 0.444 1.101 1.101 0.444zM16.077 15.377q0.657 0 1.101-0.444t0.444-1.101-0.444-1.101-1.101-0.444-1.101 0.444-0.444 1.101 0.444 1.101 1.101 0.444zM22.518 15.377q0.657 0 1.101-0.444t0.444-1.101-0.444-1.101-1.101-0.444-1.101 0.444-0.444 1.101 0.444 1.101 1.101 0.444z"></path>
</svg>
