<!-- Generated by IcoMoon.io -->
<svg version="1.1" xmlns="http://www.w3.org/2000/svg" width="32" height="32" viewBox="0 0 32 32">
<path d="M6.040 25.96h-4.105q-0.61 0-1.023-0.414t-0.413-1.027 0.413-1.021 1.023-0.409h5.54q0.61 0 1.023 0.413t0.413 1.023v5.54q0 0.61-0.414 1.023t-1.027 0.413-1.021-0.413-0.409-1.023v-4.105zM25.96 25.96v4.105q0 0.61-0.414 1.023t-1.027 0.413-1.021-0.413-0.409-1.023v-5.54q0-0.61 0.413-1.023t1.023-0.413h5.54q0.61 0 1.023 0.414t0.413 1.027-0.413 1.021-1.023 0.409h-4.105zM6.040 6.040v-4.105q0-0.61 0.414-1.023t1.027-0.413 1.021 0.413 0.409 1.023v5.54q0 0.61-0.413 1.023t-1.023 0.413h-5.54q-0.61 0-1.023-0.414t-0.413-1.027 0.413-1.021 1.023-0.409h4.105zM25.96 6.040h4.105q0.61 0 1.023 0.414t0.413 1.027-0.413 1.021-1.023 0.409h-5.54q-0.61 0-1.023-0.413t-0.413-1.023v-5.54q0-0.61 0.414-1.023t1.027-0.413 1.021 0.413 0.409 1.023v4.105z"></path>
</svg>
