<!-- Generated by IcoMoon.io -->
<svg version="1.1" xmlns="http://www.w3.org/2000/svg" width="32" height="32" viewBox="0 0 32 32">
<path d="M17.935 16l-12.394-12.049q-0.174-0.177-0.266-0.407t-0.092-0.449v-0.679q0-0.49 0.337-0.828t0.824-0.339h18.631q0.768 0 1.304 0.538t0.536 1.309-0.536 1.312-1.304 0.542h-13.863l10.166 9.942q0.472 0.457 0.472 1.107t-0.472 1.11l-10.166 9.96h13.863q0.768 0 1.304 0.538t0.536 1.309-0.536 1.302-1.304 0.532h-18.948q-0.341 0-0.593-0.251t-0.252-0.592v-1.161q0-0.177 0.059-0.338t0.198-0.271l12.495-12.138z"></path>
</svg>
