<!-- Generated by IcoMoon.io -->
<svg version="1.1" xmlns="http://www.w3.org/2000/svg" width="32" height="32" viewBox="0 0 32 32">
<path d="M20.794 16.747l-2.455-2.455h2.416q0.546 0 0.916 0.369t0.37 0.916q0 0.463-0.27 0.784t-0.694 0.386h-0.283zM29.522 30.924q-0.373 0.373-0.913 0.373t-0.913-0.373l-26.966-26.941q-0.373-0.373-0.373-0.912t0.373-0.913 0.913-0.373 0.912 0.373l26.966 26.966q0.372 0.373 0.372 0.9t-0.372 0.9zM8.288 23.212q-3.2 0-5.456-2.256t-2.256-5.456q0-2.738 1.684-4.846t4.306-2.686l2.391 2.391h-0.668q-2.143 0-3.642 1.498t-1.5 3.637 1.5 3.643 3.642 1.504h5.141q0.546 0 0.916 0.371t0.37 0.919-0.37 0.915-0.916 0.366h-5.141zM11.245 16.785q-0.546 0-0.916-0.371t-0.37-0.919 0.37-0.914 0.916-0.366h1.581l2.558 2.57h-4.139zM25.537 21.811q-0.244-0.476-0.096-0.99t0.611-0.758q1.273-0.655 2.037-1.838t0.765-2.648q0-2.143-1.5-3.642t-3.642-1.5h-4.755q-0.546 0-0.916-0.371t-0.37-0.919 0.37-0.915 0.916-0.366h4.755q3.2 0 5.456 2.256t2.256 5.456q0 2.147-1.125 3.914t-2.975 2.796q-0.463 0.27-1.003 0.135t-0.784-0.61z"></path>
</svg>
