<!-- Generated by IcoMoon.io -->
<svg version="1.1" xmlns="http://www.w3.org/2000/svg" width="32" height="32" viewBox="0 0 32 32">
<path d="M5.117 22.298l3.654 3.654q0.385 0.385 0.385 0.928t-0.375 0.937q-0.409 0.394-0.95 0.394t-0.934-0.399l-5.913-5.913q-0.212-0.212-0.299-0.442t-0.086-0.491 0.086-0.488q0.087-0.226 0.299-0.438l5.926-5.926q0.399-0.399 0.93-0.392t0.941 0.405q0.375 0.399 0.382 0.93t-0.392 0.931l-3.654 3.654h10.883q0.565 0 0.947 0.383t0.382 0.95-0.382 0.945-0.947 0.379h-10.883zM26.883 12.359h-10.883q-0.565 0-0.947-0.383t-0.382-0.95 0.382-0.945 0.947-0.379h10.883l-3.654-3.654q-0.385-0.385-0.385-0.928t0.375-0.937q0.409-0.394 0.95-0.394t0.934 0.399l5.913 5.913q0.212 0.212 0.299 0.442t0.086 0.492-0.086 0.488q-0.087 0.226-0.299 0.438l-5.926 5.926q-0.399 0.399-0.93 0.392t-0.941-0.405q-0.375-0.399-0.381-0.93t0.392-0.93l3.654-3.654z"></path>
</svg>
