<!-- Generated by IcoMoon.io -->
<svg version="1.1" xmlns="http://www.w3.org/2000/svg" width="32" height="32" viewBox="0 0 32 32">
<path d="M3.065 27.917q-0.981 0-1.732-0.751t-0.751-1.732v-18.868q0-0.981 0.751-1.732t1.732-0.751h8.925q0.508 0 0.968 0.198t0.797 0.536l1.748 1.748h13.63q0.527 0 0.884 0.358t0.357 0.888-0.357 0.883-0.884 0.354h-14.685l-2.482-2.482h-8.9v18.868l3.215-12.078q0.223-0.819 0.908-1.322t1.513-0.503h20.656q1.229 0 1.98 0.975t0.416 2.166l-3.079 11.395q-0.248 0.919-0.912 1.384t-1.607 0.465h-23.089zM5.672 25.434h20.606l2.979-11.42h-20.606l-2.979 11.42zM3.065 13.418v0zM5.672 25.434v0z"></path>
</svg>
