<!-- Generated by IcoMoon.io -->
<svg version="1.1" xmlns="http://www.w3.org/2000/svg" width="32" height="32" viewBox="0 0 32 32">
<path d="M1.708 26.5q-0.62 0-1.039-0.421t-0.419-1.042 0.419-1.038q0.42-0.416 1.039-0.416h28.584q0.619 0 1.039 0.421t0.419 1.042-0.419 1.038q-0.42 0.416-1.039 0.416h-28.584zM1.708 17.458q-0.62 0-1.039-0.42t-0.419-1.043 0.419-1.037q0.42-0.416 1.039-0.416h28.584q0.619 0 1.039 0.42t0.419 1.043-0.419 1.037q-0.42 0.416-1.039 0.416h-28.584zM1.708 8.417q-0.62 0-1.039-0.421t-0.419-1.042 0.419-1.038q0.42-0.416 1.039-0.416h28.584q0.619 0 1.039 0.421t0.419 1.042-0.419 1.038q-0.42 0.416-1.039 0.416h-28.584z"></path>
</svg>
