<!-- Generated by IcoMoon.io -->
<svg version="1.1" xmlns="http://www.w3.org/2000/svg" width="32" height="32" viewBox="0 0 32 32">
<path d="M3.144 31.583q-0.506 0-0.838-0.331t-0.331-0.838 0.331-0.838 0.838-0.331h2.727v-1.169h-1.169q-0.506 0-0.838-0.331t-0.331-0.838 0.331-0.838 0.838-0.331h1.169v-1.169h-2.727q-0.506 0-0.838-0.331t-0.331-0.838 0.331-0.838 0.838-0.331h3.506q0.662 0 1.11 0.448t0.448 1.11v1.558q0 0.662-0.448 1.11t-1.11 0.448q0.662 0 1.11 0.448t0.448 1.11v1.558q0 0.662-0.448 1.11t-1.11 0.448h-3.506zM2.962 20.675q-0.403 0-0.695-0.292t-0.292-0.695v-3.299q0-0.662 0.448-1.11t1.11-0.448h2.337v-1.169h-2.727q-0.506 0-0.838-0.331t-0.331-0.838 0.331-0.838 0.838-0.331h3.506q0.662 0 1.11 0.448t0.448 1.11v2.727q0 0.662-0.448 1.11t-1.11 0.448h-2.337v1.169h2.727q0.506 0 0.838 0.331t0.331 0.838-0.331 0.838-0.838 0.331h-4.078zM5.481 9.767q-0.506 0-0.838-0.331t-0.331-0.838v-5.844h-1.169q-0.506 0-0.838-0.331t-0.331-0.838 0.331-0.838 0.838-0.331h2.545q0.403 0 0.682 0.279t0.279 0.682v7.22q0 0.506-0.331 0.838t-0.838 0.331zM12.857 26.675q-0.552 0-0.925-0.375t-0.373-0.928 0.373-0.924 0.925-0.37h15.869q0.552 0 0.925 0.375t0.373 0.928-0.373 0.924-0.925 0.37h-15.869zM12.857 17.247q-0.552 0-0.925-0.375t-0.373-0.928 0.373-0.924 0.925-0.37h15.869q0.552 0 0.925 0.375t0.373 0.928-0.373 0.924-0.925 0.37h-15.869zM12.857 7.819q-0.552 0-0.925-0.375t-0.373-0.928 0.373-0.924 0.925-0.37h15.869q0.552 0 0.925 0.375t0.373 0.928-0.373 0.924-0.925 0.37h-15.869z"></path>
</svg>
