<!-- Generated by IcoMoon.io -->
<svg version="1.1" xmlns="http://www.w3.org/2000/svg" width="32" height="32" viewBox="0 0 32 32">
<path d="M7.8 13.827q0-0.226-0.194-0.307t-0.363 0.087l-1.953 1.927q-0.207 0.197-0.207 0.461t0.207 0.47l1.953 1.927q0.168 0.168 0.363 0.087t0.194-0.307v-4.346zM18.173 21.070h-4.32q-0.22 0-0.317 0.194t0.071 0.362l1.927 1.953q0.197 0.207 0.461 0.207t0.47-0.207l1.927-1.953q0.168-0.168 0.087-0.362t-0.307-0.194zM18.173 10.93q0.226 0 0.307-0.194t-0.087-0.362l-1.927-1.927q-0.197-0.207-0.461-0.207t-0.47 0.207l-1.901 1.927q-0.168 0.168-0.087 0.362t0.307 0.194h4.32zM24.252 13.827v4.372q0 0.226 0.194 0.307t0.362-0.087l1.927-1.927q0.207-0.207 0.22-0.466t-0.194-0.466l-1.953-1.953q-0.168-0.168-0.362-0.087t-0.194 0.307zM3.066 28.417q-1.048 0-1.817-0.77t-0.769-1.817v-19.659q0-1.048 0.769-1.817t1.817-0.769h25.868q1.048 0 1.817 0.769t0.77 1.817v19.659q0 1.048-0.77 1.817t-1.817 0.77h-25.868zM3.066 25.83h25.868v-19.659h-25.868v19.659zM3.066 25.83v0z"></path>
</svg>
