<!-- Generated by IcoMoon.io -->
<svg version="1.1" xmlns="http://www.w3.org/2000/svg" width="32" height="32" viewBox="0 0 32 32">
<path d="M4.895 22.427l3.729 3.729q0.393 0.393 0.393 0.947t-0.382 0.956q-0.417 0.402-0.969 0.402t-0.953-0.407l-6.034-6.034q-0.217-0.217-0.305-0.451t-0.088-0.502 0.088-0.498q0.088-0.23 0.305-0.447l6.048-6.047q0.407-0.407 0.949-0.4t0.96 0.414q0.382 0.407 0.389 0.949t-0.4 0.95l-3.729 3.729h11.105q0.576 0 0.966 0.391t0.39 0.969-0.39 0.965-0.966 0.386h-11.105zM27.105 12.285h-11.105q-0.576 0-0.966-0.391t-0.39-0.969 0.39-0.965 0.966-0.386h11.105l-3.729-3.729q-0.393-0.393-0.393-0.947t0.382-0.956q0.417-0.402 0.969-0.402t0.953 0.407l6.034 6.034q0.217 0.217 0.305 0.451t0.088 0.502-0.088 0.498q-0.088 0.23-0.305 0.447l-6.048 6.047q-0.407 0.407-0.949 0.4t-0.96-0.414q-0.382-0.407-0.389-0.949t0.4-0.95l3.729-3.729z"></path>
</svg>
