<!-- Generated by IcoMoon.io -->
<svg version="1.1" xmlns="http://www.w3.org/2000/svg" width="32" height="32" viewBox="0 0 32 32">
<path d="M19.424 3.23h-7.002v4.689l-5.546-5.546q-0.166-0.166-0.224-0.319t-0.058-0.358q0-0.391 0.255-0.707t0.728-0.316h14.401q0.543 0 0.91 0.367t0.367 0.91q0 0.511-0.463 0.719t-0.815 0.559v11.423q0 0.543-0.369 0.91t-0.914 0.367-0.909-0.367-0.364-0.91v-11.423zM14.722 30.063v-9.226h-6.415q-0.761 0-1.217-0.53t-0.457-1.166q0-0.318 0.13-0.636t0.419-0.607l2.683-2.607v-2.734l-9.251-9.277q-0.371-0.371-0.377-0.888t0.377-0.901q0.37-0.37 0.894-0.37t0.894 0.37l26.744 26.77q0.383 0.383 0.377 0.901t-0.389 0.911q-0.383 0.36-0.895 0.367t-0.894-0.377l-9.226-9.226h-0.843v9.226q0 0.543-0.368 0.91t-0.914 0.367-0.909-0.367-0.364-0.91zM10.327 18.282h5.239l-3.118-3.118-0.025 1.124-2.096 1.993z"></path>
</svg>
