<!-- Generated by IcoMoon.io -->
<svg version="1.1" xmlns="http://www.w3.org/2000/svg" width="32" height="32" viewBox="0 0 32 32">
<path d="M15.987 24.523q2.903 0 4.888-1.986t1.986-4.888-1.986-4.875-4.888-1.972-4.875 1.972-1.972 4.875 1.972 4.888 4.875 1.986zM15.987 21.885q-1.808 0-3.008-1.214t-1.201-3.021 1.201-3.008 3.008-1.201 3.021 1.201 1.214 3.008-1.214 3.021-3.021 1.214zM2.806 30.25q-1.069 0-1.854-0.785t-0.785-1.854v-19.871q0-1.042 0.785-1.841t1.854-0.798h5.542l2.111-2.454q0.356-0.449 0.878-0.673t1.115-0.224h7.099q0.594 0 1.115 0.224t0.878 0.673l2.111 2.454h5.542q1.043 0 1.841 0.798t0.798 1.841v19.871q0 1.069-0.798 1.854t-1.841 0.785h-26.389zM2.806 27.611h26.389v-19.871h-6.755l-2.89-3.351h-7.099l-2.89 3.351h-6.755v19.871z"></path>
</svg>
