<!-- Generated by IcoMoon.io -->
<svg version="1.1" xmlns="http://www.w3.org/2000/svg" width="32" height="32" viewBox="0 0 32 32">
<path d="M4.572 31.583q-1.052 0-1.825-0.773t-0.773-1.825v-23.375q0-1.052 0.773-1.825t1.825-0.773h2.207v-1.247q0-0.574 0.388-0.962t0.962-0.388q0.585 0 0.98 0.388t0.396 0.962v1.247h12.986v-1.247q0-0.574 0.388-0.962t0.962-0.388q0.585 0 0.981 0.388t0.396 0.962v1.247h2.207q1.052 0 1.825 0.773t0.773 1.825v23.375q0 1.052-0.773 1.825t-1.825 0.773h-22.855zM4.572 28.986h22.855v-16.363h-22.855v16.363zM4.572 10.026h22.855v-4.416h-22.855v4.416zM4.572 10.026v0zM16 19.117q-0.662 0-1.11-0.448t-0.448-1.11 0.448-1.11 1.11-0.448 1.11 0.448 0.448 1.11-0.448 1.11-1.11 0.448zM9.767 19.117q-0.662 0-1.11-0.448t-0.448-1.11 0.448-1.11 1.11-0.448 1.11 0.448 0.448 1.11-0.448 1.11-1.11 0.448zM22.233 19.117q-0.662 0-1.11-0.448t-0.448-1.11 0.448-1.11 1.11-0.448 1.11 0.448 0.448 1.11-0.448 1.11-1.11 0.448zM16 25.35q-0.662 0-1.11-0.448t-0.448-1.11 0.448-1.11 1.11-0.448 1.11 0.448 0.448 1.11-0.448 1.11-1.11 0.448zM9.767 25.35q-0.662 0-1.11-0.448t-0.448-1.11 0.448-1.11 1.11-0.448 1.11 0.448 0.448 1.11-0.448 1.11-1.11 0.448zM22.233 25.35q-0.662 0-1.11-0.448t-0.448-1.11 0.448-1.11 1.11-0.448 1.11 0.448 0.448 1.11-0.448 1.11-1.11 0.448z"></path>
</svg>
