<!-- Generated by IcoMoon.io -->
<svg version="1.1" xmlns="http://www.w3.org/2000/svg" width="32" height="32" viewBox="0 0 32 32">
<path d="M2.963 32q-1.2 0-2.082-0.881t-0.881-2.082v-26.074q0-1.2 0.881-2.082t2.082-0.881h10.934q0.63 0 1.056 0.428t0.426 1.059-0.426 1.054-1.056 0.422h-10.934v26.074h26.074v-10.934q0-0.63 0.428-1.056t1.059-0.426 1.054 0.426 0.422 1.056v10.934q0 1.2-0.881 2.082t-2.082 0.881h-26.074zM29.037 5.066l-16.267 16.267q-0.43 0.43-1.037 0.415t-1.037-0.444-0.43-1.037 0.43-1.037l16.267-16.267h-7.141q-0.63 0-1.056-0.428t-0.426-1.059 0.426-1.054 1.056-0.422h10.696q0.63 0 1.056 0.426t0.426 1.056v10.696q0 0.63-0.428 1.056t-1.059 0.426-1.054-0.426-0.422-1.056v-7.111z"></path>
</svg>
