<!-- Generated by IcoMoon.io -->
<svg version="1.1" xmlns="http://www.w3.org/2000/svg" width="32" height="32" viewBox="0 0 32 32">
<path d="M4.607 8.217l-2.305 2.265q-0.393 0.366-0.942 0.366t-0.956-0.407q-0.393-0.393-0.393-0.949t0.393-0.95l4.611-4.61q0.217-0.217 0.447-0.305t0.502-0.088 0.502 0.088 0.447 0.305l4.61 4.61q0.393 0.393 0.4 0.943t-0.4 0.956q-0.393 0.393-0.943 0.386t-0.956-0.373l-2.305-2.237v15.566l2.305-2.265q0.393-0.366 0.943-0.366t0.956 0.407q0.393 0.393 0.393 0.95t-0.393 0.949l-4.611 4.61q-0.217 0.217-0.447 0.305t-0.502 0.088-0.502-0.088-0.447-0.305l-4.611-4.61q-0.393-0.393-0.4-0.942t0.4-0.956q0.393-0.393 0.942-0.386t0.956 0.373l2.305 2.237v-15.566zM17.081 27.363q-0.583 0-0.969-0.386t-0.386-0.969 0.386-0.97 0.969-0.386h13.56q0.583 0 0.969 0.386t0.386 0.97-0.386 0.969-0.969 0.386h-13.56zM17.081 17.328q-0.583 0-0.969-0.386t-0.386-0.969 0.386-0.969 0.969-0.386h13.56q0.583 0 0.969 0.386t0.386 0.969-0.386 0.969-0.969 0.386h-13.56zM17.081 7.295q-0.583 0-0.969-0.386t-0.386-0.97 0.386-0.969 0.969-0.386h13.56q0.583 0 0.969 0.386t0.386 0.969-0.386 0.97-0.969 0.386h-13.56z"></path>
</svg>
