<!-- Generated by IcoMoon.io -->
<svg version="1.1" xmlns="http://www.w3.org/2000/svg" width="32" height="32" viewBox="0 0 32 32">
<path d="M16 18.14l2.592 1.573q0.404 0.255 0.801-0.045t0.292-0.794l-0.674-2.936 2.247-1.947q0.39-0.345 0.247-0.794t-0.652-0.509l-2.966-0.255-1.198-2.801q-0.19-0.449-0.687-0.449t-0.691 0.449l-1.198 2.801-2.966 0.255q-0.509 0.060-0.652 0.509t0.247 0.794l2.247 1.947-0.674 2.936q-0.105 0.494 0.292 0.794t0.801 0.045l2.592-1.573zM16 27.801l-8.389 3.595q-1.498 0.644-2.846-0.24t-1.348-2.501v-24.971q0-1.213 0.891-2.104t2.105-0.891h19.174q1.213 0 2.105 0.891t0.891 2.104v24.971q0 1.617-1.348 2.501t-2.846 0.24l-8.389-3.595zM16 24.566l9.587 4.074v-24.956h-19.174v24.956l9.586-4.074zM16 3.684v0z"></path>
</svg>
