<!-- Generated by IcoMoon.io -->
<svg version="1.1" xmlns="http://www.w3.org/2000/svg" width="32" height="32" viewBox="0 0 32 32">
<path d="M18.067 16l-13.234-12.865q-0.186-0.189-0.284-0.435t-0.098-0.479v-0.725q0-0.523 0.36-0.884 0.36-0.362 0.88-0.362h19.894q0.82 0 1.392 0.575t0.573 1.397-0.573 1.4-1.392 0.579h-14.803l10.856 10.616q0.504 0.488 0.504 1.182t-0.504 1.185l-10.856 10.636h14.803q0.82 0 1.392 0.575t0.573 1.398-0.573 1.39-1.392 0.568h-20.233q-0.364 0-0.633-0.268t-0.269-0.632v-1.24q0-0.189 0.063-0.361t0.211-0.289l13.342-12.961z"></path>
</svg>
