<!-- Generated by IcoMoon.io -->
<svg version="1.1" xmlns="http://www.w3.org/2000/svg" width="32" height="32" viewBox="0 0 32 32">
<path d="M3.030 31.554q-0.755 0-1.295-0.534-0.538-0.534-0.538-1.307 0-0.759 0.538-1.292 0.54-0.534 1.295-0.534h6.371l8.142-23.974h-7.091q-0.755 0-1.294-0.541-0.54-0.541-0.54-1.3 0-0.774 0.54-1.3 0.538-0.526 1.294-0.526h17.221q0.771 0 1.303 0.534 0.531 0.534 0.531 1.307 0 0.759-0.531 1.293-0.532 0.534-1.303 0.534h-6.22l-8.128 23.974h6.926q0.771 0 1.303 0.541 0.531 0.54 0.531 1.299 0 0.774-0.531 1.301-0.532 0.526-1.303 0.526h-17.221z"></path>
</svg>
