<!-- Generated by IcoMoon.io -->
<svg version="1.1" xmlns="http://www.w3.org/2000/svg" width="32" height="32" viewBox="0 0 32 32">
<path d="M14.357 25.515v-23.647q0-0.706 0.469-1.175t1.175-0.469 1.175 0.469 0.469 1.175v23.647l10.682-10.682q0.493-0.493 1.15-0.485t1.151 0.502q0.476 0.493 0.485 1.15t-0.485 1.15l-13.476 13.476q-0.263 0.263-0.542 0.37t-0.608 0.106-0.608-0.106q-0.28-0.107-0.542-0.37l-13.476-13.476q-0.476-0.476-0.476-1.142t0.476-1.158q0.493-0.493 1.158-0.493t1.158 0.493l10.666 10.665z"></path>
</svg>
