<!-- Generated by IcoMoon.io -->
<svg version="1.1" xmlns="http://www.w3.org/2000/svg" width="32" height="32" viewBox="0 0 32 32">
<path d="M30.592 19.092l-11.475 11.5q-0.383 0.37-0.863 0.556t-0.958 0.185-0.952-0.192-0.856-0.549l-14.068-14.094q-0.345-0.345-0.55-0.81t-0.204-0.979v-11.487q0-1.054 0.751-1.805t1.805-0.751h11.513q0.513 0 0.994 0.208t0.834 0.559l14.030 14.043q0.393 0.383 0.573 0.862t0.18 0.958-0.185 0.958-0.569 0.837zM17.342 28.829l11.474-11.5-14.094-14.107h-11.5v11.423l14.119 14.183zM7.183 9.253q0.856 0 1.476-0.62t0.62-1.476-0.62-1.476-1.476-0.619-1.476 0.619-0.62 1.476 0.62 1.476 1.476 0.62zM18.504 23.462l4.472-4.472q0.422-0.422 0.633-0.956t0.211-1.14q0-1.25-0.882-2.133t-2.133-0.882q-0.763 0-1.506 0.473t-1.689 1.546q-0.997-1.099-1.707-1.559t-1.462-0.46q-1.25 0-2.133 0.882t-0.882 2.133q0 0.606 0.211 1.14t0.633 0.956l4.447 4.472q0.383 0.383 0.894 0.383t0.894-0.383z"></path>
</svg>
