<!-- Generated by IcoMoon.io -->
<svg version="1.1" xmlns="http://www.w3.org/2000/svg" width="32" height="32" viewBox="0 0 32 32">
<path d="M30.94 12.363v2.361h-7.817l-0.458 4.491h0.069c0.475-0.484 1.058-0.86 1.709-1.090l0.031-0.010c0.568-0.218 1.226-0.344 1.912-0.344 0.028 0 0.057 0 0.085 0.001h-0.004c0.057-0.002 0.124-0.004 0.19-0.004 1.398 0 2.662 0.578 3.565 1.507l0.001 0.001c0.915 1.023 1.476 2.381 1.476 3.87 0 0.106-0.003 0.211-0.009 0.315l0.001-0.015c0.001 0.038 0.002 0.083 0.002 0.13 0 1.621-0.748 3.068-1.916 4.015l-0.010 0.008c-1.106 0.9-2.531 1.444-4.085 1.444-0.047 0-0.093 0-0.14-0.002h0.007c-0.046 0.001-0.099 0.002-0.154 0.002-1.383 0-2.661-0.456-3.689-1.227l0.016 0.012c-1.129-0.834-1.873-2.134-1.947-3.611v-0.011h2.634c0.055 0.811 0.453 1.521 1.049 1.99l0.006 0.005c0.547 0.361 1.217 0.577 1.937 0.577 0.060 0 0.12-0.002 0.179-0.005h-0.009c0.028 0.001 0.062 0.001 0.095 0.001 0.907 0 1.734-0.34 2.361-0.898l-0.004 0.003c0.608-0.574 0.987-1.386 0.987-2.287 0-0.042-0.001-0.084-0.003-0.126v0.006c0.003-0.059 0.005-0.127 0.005-0.195 0-0.911-0.322-1.747-0.858-2.399l0.005 0.007c-0.553-0.585-1.335-0.95-2.202-0.95-0.081 0-0.163 0.003-0.242 0.010l0.011-0.001c-0.040-0.001-0.088-0.002-0.135-0.002-0.615 0-1.199 0.136-1.722 0.38l0.026-0.011c-0.57 0.275-1.026 0.709-1.321 1.246l-0.008 0.016h-2.492l0.893-9.213z"></path>
<path d="M14.112 2.955v11.453h-10.948v-11.453h-2.863v25.771h2.863v-11.453h10.948v11.453h2.863v-25.771z"></path>
</svg>
