<!-- Generated by IcoMoon.io -->
<svg version="1.1" xmlns="http://www.w3.org/2000/svg" width="32" height="32" viewBox="0 0 32 32">
<path d="M4.807 20.527l-1.649 4.651q-0.125 0.389-0.467 0.622t-0.763 0.233q-0.7 0-1.081-0.553t-0.117-1.19l6.595-17.92q0.155-0.42 0.49-0.646t0.755-0.226h1.027q0.42 0 0.762 0.226t0.498 0.646l6.627 17.936q0.264 0.638-0.14 1.182t-1.089 0.545q-0.42 0-0.762-0.226t-0.467-0.645l-1.633-4.636h-8.587zM5.663 18.162h6.86l-3.391-9.582h-0.125l-3.345 9.582zM24.439 26.5q-2.38 0-3.858-1.237t-1.478-3.306q0-2.147 1.641-3.477t4.255-1.33q1.167 0 2.209 0.202t1.789 0.56v-0.747q0-1.633-0.957-2.551t-2.699-0.918q-0.762 0-1.517 0.226t-1.377 0.707q-0.451 0.343-0.879 0.218t-0.693-0.467q-0.264-0.342-0.218-0.778t0.497-0.747q0.933-0.653 2.007-0.957t2.193-0.303q3.003 0 4.511 1.47t1.509 4.41v7.389q0 0.482-0.35 0.824t-0.832 0.343-0.825-0.35-0.342-0.832v-0.7h-0.187q-0.715 1.167-1.945 1.758t-2.457 0.591zM24.626 24.478q1.664 0 3.041-1.307t1.377-3.235q-0.715-0.373-1.703-0.599t-1.937-0.226q-1.804 0-2.815 0.763t-1.011 2.084q0 1.12 0.887 1.82t2.163 0.7z"></path>
</svg>
