<!-- Generated by IcoMoon.io -->
<svg version="1.1" xmlns="http://www.w3.org/2000/svg" width="32" height="32" viewBox="0 0 32 32">
<path d="M15.996 23.393q-0.322 0-0.599-0.106t-0.539-0.367l-7.279-7.278q-0.49-0.499-0.465-1.163t0.485-1.155q0.503-0.49 1.179-0.497t1.167 0.481l4.423 4.455v-15.798q0-0.693 0.47-1.163t1.167-0.469q0.696 0 1.161 0.469t0.465 1.163v15.798l4.455-4.455q0.483-0.49 1.148-0.465t1.166 0.514q0.461 0.49 0.469 1.159t-0.482 1.158l-7.246 7.246q-0.261 0.262-0.543 0.367t-0.604 0.106zM3.598 31.667q-1.322 0-2.293-0.971t-0.971-2.293v-4.994q0-0.693 0.471-1.163t1.167-0.469 1.161 0.469 0.465 1.163v4.994h24.805v-4.994q0-0.693 0.471-1.163t1.167-0.469 1.161 0.469 0.465 1.163v4.994q0 1.322-0.971 2.293t-2.293 0.971h-24.805z"></path>
</svg>
