<!-- Generated by IcoMoon.io -->
<svg version="1.1" xmlns="http://www.w3.org/2000/svg" width="32" height="32" viewBox="0 0 32 32">
<path d="M13.405 18.946l-4.113-4.113q-0.423-0.423-1.036-0.408t-1.036 0.437-0.423 1.036 0.423 1.035l5.162 5.134q0.437 0.437 1.021 0.437t1.020-0.437l10.5-10.5q0.423-0.423 0.423-1.036t-0.423-1.036-1.036-0.423-1.035 0.423l-9.45 9.45zM3.167 31.75q-1.181 0-2.049-0.868t-0.868-2.049v-25.666q0-1.181 0.868-2.049t2.049-0.868h25.666q1.181 0 2.049 0.868t0.868 2.049v25.666q0 1.181-0.868 2.049t-2.049 0.868h-25.666zM3.167 28.833h25.666v-25.666h-25.666v25.666zM3.167 3.167v0z"></path>
</svg>
