<!-- Generated by IcoMoon.io -->
<svg version="1.1" xmlns="http://www.w3.org/2000/svg" width="32" height="32" viewBox="0 0 32 32">
<path d="M14.834 16.833v-9.758q-2.951 0.428-4.617 2.672t-1.666 4.778h-0.69q-2.142 0-3.666 1.511t-1.523 3.749 1.559 3.749 3.701 1.511h17.613q1.571 0 2.678-1.107t1.107-2.678-1.107-2.678-2.678-1.107h-2.213v-2.951q0-2.19-1.047-3.862t-2.713-2.707v-2.654q2.809 1.107 4.474 3.636t1.666 5.587v0.571q2.535 0.048 4.266 1.803t1.732 4.361q0 2.535-1.815 4.35t-4.35 1.815h-17.613q-3.177 0-5.409-2.213t-2.231-5.391q0-2.809 1.761-4.927t4.475-2.606q0.559-2.856 2.963-5.165t5.343-2.309q0.964 0 1.672 0.601t0.708 1.541v9.877l1.904-1.892q0.345-0.345 0.827-0.345t0.839 0.357q0.345 0.345 0.345 0.845t-0.345 0.845l-3.927 3.951q-0.357 0.357-0.833 0.357t-0.833-0.357l-3.951-3.951q-0.345-0.345-0.339-0.839t0.363-0.851q0.345-0.345 0.839-0.351t0.851 0.339l1.88 1.892z"></path>
</svg>
