<!-- Generated by IcoMoon.io -->
<svg version="1.1" xmlns="http://www.w3.org/2000/svg" width="32" height="32" viewBox="0 0 32 32">
<path d="M16 31.583q-3.247 0-6.090-1.227t-4.954-3.337-3.324-4.967-1.214-6.103q0-3.26 1.214-6.084t3.324-4.935 4.954-3.311 6.090-1.201q3.26 0 6.097 1.201t4.948 3.311 3.324 4.935 1.214 6.084q0 3.246-1.214 6.103t-3.324 4.967-4.948 3.337-6.097 1.227zM16 29.012q1.247-1.402 2.104-3.117t1.402-3.948h-6.986q0.519 2.129 1.377 3.883t2.104 3.182zM12.442 28.492q-0.883-1.416-1.526-3.019t-1.071-3.526h-5.428q1.364 2.493 3.227 4.026t4.798 2.519zM19.584 28.466q2.597-0.831 4.656-2.506t3.344-4.013h-5.402q-0.455 1.896-1.085 3.5t-1.513 3.019zM3.455 19.35h5.896q-0.117-0.961-0.149-1.773t-0.032-1.63q0-0.922 0.045-1.682t0.162-1.643h-5.922q-0.247 0.883-0.344 1.63t-0.097 1.695 0.097 1.734 0.344 1.669zM12 19.35h8.025q0.143-1.065 0.189-1.825t0.045-1.578q0-0.792-0.045-1.526t-0.189-1.799h-8.025q-0.143 1.065-0.188 1.799t-0.045 1.526q0 0.818 0.045 1.578t0.188 1.825zM22.623 19.35h5.922q0.247-0.883 0.344-1.669t0.097-1.734-0.097-1.695-0.344-1.63h-5.896q0.117 1.169 0.162 1.903t0.045 1.422q0 0.844-0.058 1.603t-0.175 1.799zM22.155 10.026h5.428q-1.233-2.441-3.292-4.117t-4.733-2.402q0.883 1.39 1.513 2.967t1.084 3.552zM12.52 10.026h7.013q-0.442-1.948-1.364-3.74t-2.169-3.247q-1.169 1.169-1.987 2.818t-1.493 4.169zM4.416 10.026h5.454q0.403-1.896 1.019-3.461t1.526-3.032q-2.675 0.727-4.694 2.376t-3.305 4.117z"></path>
</svg>
