<!-- Generated by IcoMoon.io -->
<svg version="1.1" xmlns="http://www.w3.org/2000/svg" width="32" height="32" viewBox="0 0 32 32">
<path d="M4.702 1.877c-2.323 0-4.237 1.914-4.237 4.237v18.36c0 2.323 1.914 4.237 4.237 4.237h22.597c2.323 0 4.237-1.914 4.237-4.237v-14.123c0-2.323-1.914-4.237-4.237-4.237h-11.158c-0.002 0-0.005-0-0.007-0s-0.005 0-0.007 0h0c-0.482 0.005-0.927-0.232-1.192-0.634-0.006-0.007-0.009-0.012-0.013-0.016l0.002 0.003-1.134-1.683c-0.783-1.189-2.116-1.906-3.539-1.906zM4.702 4.702h5.55c0.477 0 0.918 0.236 1.181 0.634 0.006 0.011 0.009 0.015 0.012 0.020l-0.004-0.006 1.134 1.683c0.001 0.002 0.004 0.001 0.005 0.003 0.791 1.198 2.139 1.917 3.575 1.903h11.144c0.797 0 1.412 0.616 1.412 1.412v14.123c0 0.797-0.616 1.412-1.412 1.412h-22.597c-0.797 0-1.412-0.616-1.412-1.412v-18.36c0-0.797 0.616-1.412 1.412-1.412z"></path>
<path d="M1.877 11.904c-0.78 0-1.412 0.632-1.412 1.412v0c0 0.78 0.632 1.412 1.412 1.412v0h28.246c0.78 0 1.412-0.632 1.412-1.412v0c0-0.78-0.632-1.412-1.412-1.412v0z"></path>
</svg>
