<!-- Generated by IcoMoon.io -->
<svg version="1.1" xmlns="http://www.w3.org/2000/svg" width="32" height="32" viewBox="0 0 32 32">
<path d="M15.524 32.964l-4.413-4.413q-0.317-0.317-0.152-0.727t0.628-0.409h8.852q0.447 0 0.607 0.409t-0.158 0.727l-4.413 4.413q-0.202 0.211-0.471 0.211t-0.48-0.211zM2.788 23.927q-1.070 0-1.857-0.786t-0.786-1.857v-16.911q0-1.070 0.786-1.857t1.857-0.786h26.424q1.070 0 1.857 0.786t0.786 1.857v16.911q0 1.070-0.786 1.857t-1.857 0.786h-26.424zM2.788 21.285h26.424v-16.911h-26.424v16.911zM11.085 19.039h9.856q0.561 0 0.941-0.381t0.38-0.945-0.38-0.94-0.941-0.377h-9.856q-0.562 0-0.941 0.381t-0.38 0.945 0.38 0.94 0.941 0.377zM2.788 21.285v0zM6.148 9.262q0.564 0 0.94-0.381t0.377-0.945-0.381-0.94-0.945-0.377-0.94 0.381-0.377 0.945 0.381 0.94 0.945 0.377zM11.090 9.262q0.563 0 0.94-0.381t0.377-0.945-0.381-0.94-0.945-0.377-0.94 0.381-0.377 0.945 0.381 0.94 0.945 0.377zM16.005 9.262q0.563 0 0.94-0.381t0.377-0.945-0.381-0.94-0.945-0.377-0.94 0.381-0.377 0.945 0.381 0.94 0.945 0.377zM20.946 9.262q0.564 0 0.94-0.381t0.377-0.945-0.381-0.94-0.945-0.377-0.94 0.381-0.377 0.945 0.381 0.94 0.945 0.377zM25.86 9.262q0.564 0 0.94-0.381t0.377-0.945-0.381-0.94-0.945-0.377-0.94 0.381-0.377 0.945 0.381 0.94 0.945 0.377zM6.148 14.15q0.564 0 0.94-0.381t0.377-0.945-0.381-0.94-0.945-0.377-0.94 0.381-0.377 0.945 0.381 0.94 0.945 0.377zM11.090 14.15q0.563 0 0.94-0.381t0.377-0.945-0.381-0.94-0.945-0.377-0.94 0.381-0.377 0.945 0.381 0.94 0.945 0.377zM16.005 14.15q0.563 0 0.94-0.381t0.377-0.945-0.381-0.94-0.945-0.377-0.94 0.381-0.377 0.945 0.381 0.94 0.945 0.377zM20.946 14.15q0.564 0 0.94-0.381t0.377-0.945-0.381-0.94-0.945-0.377-0.94 0.381-0.377 0.945 0.381 0.94 0.945 0.377zM25.86 14.15q0.564 0 0.94-0.381t0.377-0.945-0.381-0.94-0.945-0.377-0.94 0.381-0.377 0.945 0.381 0.94 0.945 0.377z"></path>
</svg>
