<!-- Generated by IcoMoon.io -->
<svg version="1.1" xmlns="http://www.w3.org/2000/svg" width="32" height="32" viewBox="0 0 32 32">
<path d="M10.683 26.556q-1.069 0-1.854-0.785t-0.785-1.854v-21.111q0-1.069 0.785-1.854t1.854-0.785h16.361q1.069 0 1.854 0.785t0.785 1.854v21.111q0 1.069-0.785 1.854t-1.854 0.785h-16.361zM10.683 23.917h16.361v-21.111h-16.361v21.111zM5.405 31.833q-1.069 0-1.854-0.785t-0.785-1.854v-22.43q0-0.561 0.381-0.94t0.943-0.38 0.939 0.38 0.376 0.94v22.43h17.68q0.561 0 0.94 0.381t0.38 0.943-0.38 0.939-0.94 0.376h-17.68zM10.683 23.917v0z"></path>
</svg>
