<!-- Generated by IcoMoon.io -->
<svg version="1.1" xmlns="http://www.w3.org/2000/svg" width="32" height="32" viewBox="0 0 32 32">
<path d="M32 11.636h-2.909v-2.909h2.909v2.909zM32 17.455h-2.909v-2.909h2.909v2.909zM32 5.818h-2.909v-2.909c1.6 0 2.909 1.309 2.909 2.909zM20.364 29.091h-2.909v-2.909h2.909v2.909zM32 23.273h-2.909v-2.909h2.909v2.909zM29.091 29.091v-2.909h2.909c0 1.6-1.309 2.909-2.909 2.909zM2.909 2.909h11.636v8.727h-14.545v-5.818c0-1.6 1.309-2.909 2.909-2.909zM2.909 23.273h-2.909v-2.909h2.909v2.909zM20.364 5.818h-2.909v-2.909h2.909v2.909zM26.182 29.091h-2.909v-2.909h2.909v2.909zM26.182 5.818h-2.909v-2.909h2.909v2.909zM2.909 29.091c-1.6 0-2.909-1.309-2.909-2.909h2.909v2.909zM2.909 17.455h-2.909v-2.909h2.909v2.909zM14.545 29.091h-2.909v-2.909h2.909v2.909zM8.727 29.091h-2.909v-2.909h2.909v2.909z"></path>
</svg>
