<!-- Generated by IcoMoon.io -->
<svg version="1.1" xmlns="http://www.w3.org/2000/svg" width="32" height="32" viewBox="0 0 32 32">
<path d="M26.288 11.322q-2.029 0-3.536-1.254t-1.942-3.159h-9.659q-0.35 1.592-1.501 2.743t-2.743 1.501v9.659q1.905 0.434 3.159 1.939t1.254 3.548q0 2.339-1.651 3.979t-3.969 1.64q-2.339 0-3.979-1.64t-1.64-3.989q0-2.029 1.254-3.536t3.159-1.942v-9.659q-1.905-0.434-3.159-1.929t-1.254-3.545q0-2.308 1.643-3.952t3.952-1.643q2.050 0 3.545 1.254t1.929 3.159h9.659q0.434-1.905 1.939-3.159t3.548-1.254q2.339 0 3.979 1.64t1.64 3.967-1.64 3.979-3.989 1.652zM5.672 29.505q1.335 0 2.287-0.941t0.951-2.236q0-1.335-0.951-2.287t-2.287-0.951q-1.295 0-2.236 0.951t-0.941 2.287q0 1.295 0.941 2.236t2.236 0.941zM5.672 8.91q1.335 0 2.287-0.949t0.951-2.282q0-1.313-0.951-2.248t-2.287-0.935q-1.295 0-2.236 0.935t-0.941 2.248q0 1.333 0.941 2.282t2.236 0.949zM26.322 31.917q-2.328 0-3.985-1.643t-1.658-3.952q0-2.328 1.655-3.985t3.979-1.658 3.964 1.655 1.64 3.979-1.643 3.964-3.952 1.64zM26.322 29.505q1.313 0 2.248-0.941t0.935-2.236q0-1.335-0.935-2.287t-2.248-0.951q-1.333 0-2.282 0.951t-0.949 2.287q0 1.295 0.949 2.236t2.282 0.941zM26.322 8.91q1.313 0 2.248-0.949t0.935-2.282q0-1.313-0.935-2.248t-2.248-0.935q-1.333 0-2.282 0.935t-0.949 2.248q0 1.333 0.949 2.282t2.282 0.949z"></path>
</svg>
