<!-- Generated by IcoMoon.io -->
<svg version="1.1" xmlns="http://www.w3.org/2000/svg" width="32" height="32" viewBox="0 0 32 32">
<path d="M24.797 31.167q-0.605 0-1.014-0.409t-0.409-1.014v-1.708q0-0.605 0.409-1.014t1.014-0.41h3.73v-1.708h-4.442q-0.285 0-0.498-0.214t-0.214-0.498 0.214-0.498 0.498-0.214h4.442q0.605 0 1.014 0.409t0.409 1.014v1.708q0 0.605-0.409 1.014t-1.014 0.41h-3.73v1.708h4.442q0.285 0 0.498 0.214t0.214 0.498-0.214 0.498-0.498 0.214h-4.442zM3.714 27.75q-0.991 0-1.449-0.854t0.054-1.694l6.278-9.88-5.694-8.926q-0.513-0.825-0.064-1.694t1.432-0.868q0.454 0 0.832 0.205t0.605 0.578l5.111 8.129h0.057l5.097-8.129q0.225-0.373 0.618-0.578t0.805-0.205q1.011 0 1.452 0.868t-0.071 1.708l-5.694 8.912 6.292 9.88q0.512 0.84 0.039 1.694t-1.423 0.854q-0.438 0-0.821-0.205t-0.613-0.578l-5.68-8.969h-0.057l-5.68 8.969q-0.225 0.373-0.618 0.578t-0.805 0.205z"></path>
</svg>
