<!-- Generated by IcoMoon.io -->
<svg version="1.1" xmlns="http://www.w3.org/2000/svg" width="32" height="32" viewBox="0 0 32 32">
<path d="M1.947 16.607q-0.644 0-1.081-0.438t-0.436-1.085 0.436-1.080q0.437-0.432 1.081-0.432h22.766q2.777 0 4.728 1.95t1.95 4.728-1.95 4.743-4.728 1.965h-5.737l1.73 1.7q0.455 0.425 0.437 1.041t-0.437 1.077q-0.455 0.462-1.085 0.469t-1.085-0.448l-4.295-4.325q-0.243-0.243-0.341-0.505t-0.098-0.561 0.098-0.558q0.099-0.258 0.341-0.501l4.325-4.355q0.449-0.455 1.067-0.455t1.073 0.45q0.418 0.451 0.437 1.070t-0.406 1.075l-1.761 1.791h5.737q1.51 0 2.576-1.085t1.066-2.593-1.066-2.572q-1.067-1.065-2.576-1.065h-22.766zM1.947 26.958q-0.644 0-1.081-0.438t-0.436-1.085 0.436-1.080q0.437-0.432 1.081-0.432h6.071q0.645 0 1.081 0.438t0.436 1.085-0.436 1.080q-0.437 0.432-1.081 0.432h-6.071zM1.947 6.287q-0.644 0-1.081-0.438t-0.436-1.085 0.436-1.080q0.437-0.432 1.081-0.432h26.105q0.645 0 1.081 0.438t0.436 1.085-0.436 1.080q-0.437 0.432-1.081 0.432h-26.105z"></path>
</svg>
