<!-- Generated by IcoMoon.io -->
<svg version="1.1" xmlns="http://www.w3.org/2000/svg" width="32" height="32" viewBox="0 0 32 32">
<path d="M16.080 25.315q0.699 0 1.18-0.482t0.482-1.181-0.483-1.18-1.181-0.482-1.18 0.483-0.482 1.181 0.483 1.18q0.482 0.481 1.181 0.481zM16.007 31.833q-3.279 0-6.162-1.247t-5.034-3.398-3.398-5.036-1.247-6.166 1.247-6.166 3.398-5.023q2.151-2.138 5.036-3.384t6.166-1.247 6.166 1.247 5.023 3.384 3.384 5.027 1.247 6.168-1.247 6.162-3.384 5.029-5.027 3.398-6.168 1.252zM16.013 29.194q5.502 0 9.342-3.853t3.84-9.355-3.834-9.342-9.36-3.84q-5.489 0-9.342 3.834t-3.853 9.36q0 5.489 3.853 9.342t9.355 3.853zM16.126 8.981q1.128 0 1.979 0.699t0.851 1.773q0 0.984-0.591 1.722t-1.336 1.387q-0.91 0.765-1.59 1.699t-0.679 2.101q0 0.475 0.36 0.772t0.84 0.297q0.515 0 0.861-0.343t0.445-0.858q0.132-0.831 0.66-1.498t1.193-1.228q0.957-0.824 1.597-1.88t0.64-2.312q0-2.003-1.537-3.315t-3.621-1.313q-1.439 0-2.765 0.607t-2.118 1.808q-0.277 0.422-0.231 0.904t0.428 0.759q0.486 0.317 1.007 0.198t0.868-0.594q0.482-0.671 1.204-1.028t1.534-0.358z"></path>
</svg>
