<!-- Generated by IcoMoon.io -->
<svg version="1.1" xmlns="http://www.w3.org/2000/svg" width="32" height="32" viewBox="0 0 32 32">
<path d="M14.63 27.097v-6.083q0-0.582 0.395-0.976t0.98-0.394q0.584 0 0.974 0.394t0.391 0.976v6.069l2.425-2.439q0.415-0.411 1.002-0.411t0.998 0.414 0.411 1-0.411 0.997l-4.836 4.836q-0.219 0.219-0.456 0.308t-0.507 0.089-0.503-0.089-0.452-0.308l-4.85-4.85q-0.411-0.411-0.405-0.993t0.418-0.993 0.989-0.411 0.998 0.411l2.439 2.453zM4.917 17.37l2.302 2.288q0.411 0.415 0.411 1.002t-0.414 0.998-1 0.411-0.997-0.411l-4.699-4.699q-0.219-0.219-0.308-0.456t-0.089-0.507 0.089-0.503 0.308-0.452l4.726-4.726q0.42-0.411 0.998-0.411t0.989 0.411 0.411 0.988-0.411 0.998l-2.329 2.329h6.083q0.582 0 0.976 0.395t0.394 0.98q0 0.584-0.394 0.974t-0.976 0.391h-6.069zM27.097 17.37h-6.055q-0.582 0-0.976-0.395t-0.394-0.98q0-0.584 0.394-0.974t0.976-0.391h6.041l-2.302-2.288q-0.411-0.415-0.411-1.002t0.414-0.998 1-0.411 0.997 0.411l4.699 4.699q0.219 0.219 0.308 0.456t0.089 0.507-0.089 0.503-0.308 0.452l-4.713 4.713q-0.411 0.411-0.986 0.404t-0.986-0.417-0.411-0.989 0.411-0.998l2.302-2.302zM14.63 4.903l-2.316 2.315q-0.411 0.411-0.986 0.411t-0.986-0.411-0.411-0.988 0.411-0.998l4.699-4.713q0.219-0.219 0.456-0.308t0.507-0.089 0.503 0.089 0.452 0.308l4.713 4.713q0.411 0.411 0.411 0.986t-0.411 0.986-0.989 0.411-0.998-0.411l-2.316-2.302v6.055q0 0.582-0.395 0.976t-0.98 0.394q-0.584 0-0.974-0.394t-0.391-0.976v-6.055z"></path>
</svg>
