<!-- Generated by IcoMoon.io -->
<svg version="1.1" xmlns="http://www.w3.org/2000/svg" width="32" height="32" viewBox="0 0 32 32">
<path d="M5.334 32h14.222c3.022 0 5.334-2.311 5.334-5.334v-14.222c0-3.022-2.311-5.334-5.334-5.334h-14.222c-3.022 0-5.334 2.311-5.334 5.334v14.222c0 3.022 2.311 5.334 5.334 5.334zM19.555 10.666c1.066 0 1.778 0.711 1.778 1.778v14.222c0 1.066-0.711 1.778-1.778 1.778h-14.222c-1.066 0-1.778-0.711-1.778-1.778v-14.222c0-1.066 0.711-1.778 1.778-1.778h14.222z"></path>
<path d="M23.111 24.889h3.555c3.022 0 5.334-2.311 5.334-5.334v-14.222c0-3.022-2.311-5.334-5.334-5.334h-14.222c-3.022 0-5.334 2.311-5.334 5.334v3.556c0 1.066 0.711 1.778 1.778 1.778s1.778-0.711 1.778-1.778v-3.556c0-1.066 0.711-1.778 1.778-1.778h14.222c1.066 0 1.778 0.711 1.778 1.778v14.222c0 1.066-0.711 1.778-1.778 1.778h-3.555c-1.066 0-1.778 0.711-1.778 1.778s0.711 1.778 1.778 1.778z"></path>
</svg>
