<!-- Generated by IcoMoon.io -->
<svg version="1.1" xmlns="http://www.w3.org/2000/svg" width="32" height="32" viewBox="0 0 32 32">
<path d="M15.685 0.333c-2.343 0-4.273 1.93-4.273 4.273v0.256c-0.001 0.511-0.27 0.977-0.712 1.232-0 0-0.001 0-0.001 0s-0.001 0-0.002 0h0l-0.612 0.356c-0.442 0.254-0.98 0.255-1.421 0-0.008-0.005-0.021-0.013-0.035-0.021l-0.007-0.004-0.172-0.092c-2.027-1.169-4.658-0.464-5.83 1.561l-0.314 0.542c-0 0-0.001 0-0.001 0s-0.001 0-0.002 0h0c-1.169 2.027-0.464 4.66 1.561 5.833l-0.075-0.047 0.214 0.142c0.020 0.014 0.046 0.031 0.072 0.047l0.006 0.004c0.44 0.254 0.709 0.716 0.712 1.224v0.718c0 0.001 0 0.002 0 0.003s0 0.002 0 0.003v-0c0.002 0.513-0.268 0.981-0.712 1.238-0.013 0.008-0.021 0.013-0.028 0.017l0.006-0.003-0.195 0.117c-2.025 1.173-2.73 3.806-1.561 5.833 0 0 0.001 0 0.001 0s0.001 0 0.002 0h-0l0.314 0.542c1.173 2.025 3.804 2.73 5.83 1.561l0.172-0.092c0.020-0.012 0.034-0.020 0.048-0.029l-0.006 0.003c0.443-0.256 0.982-0.256 1.424 0l0.609 0.356c0 0 0.001 0 0.001 0s0.001 0 0.002 0h-0c0.442 0.255 0.712 0.722 0.712 1.232v0.256c0 2.343 1.93 4.273 4.273 4.273h0.629c2.343 0 4.273-1.93 4.273-4.273v-0.256c0-0.511 0.27-0.977 0.712-1.232 0 0 0.001 0 0.001 0s0.001 0 0.002 0h-0l0.609-0.356c0.443-0.256 0.982-0.256 1.424 0 0.008 0.005 0.021 0.013 0.035 0.021l0.007 0.004 0.172 0.092c2.027 1.169 4.658 0.464 5.831-1.561-0.001 0.002 0.002-0.003 0.005-0.008l0.312-0.551v-0.003c1.167-2.027 0.464-4.655-1.561-5.828-0.008-0.005-0.022-0.013-0.037-0.021l-0.007-0.004-0.172-0.092c-0.444-0.257-0.714-0.725-0.712-1.238 0-0.001 0-0.002 0-0.003s0-0.002 0-0.003v0-0.712c0-0.001 0-0.002 0-0.003s0-0.002 0-0.003v0c-0.002-0.513 0.268-0.981 0.712-1.238 0.013-0.008 0.021-0.013 0.028-0.017l-0.006 0.003 0.195-0.117c2.025-1.173 2.73-3.806 1.561-5.833-0 0-0.001 0-0.001 0s-0.001 0-0.002 0h0l-0.314-0.542c-1.173-2.025-3.804-2.73-5.831-1.561l-0.172 0.092c-0.020 0.012-0.034 0.020-0.048 0.029l0.006-0.003c-0.442 0.255-0.979 0.254-1.421 0h-0.003l-0.609-0.356c-0 0-0.001 0-0.001 0s-0.001 0-0.002 0h0c-0.442-0.255-0.712-0.722-0.712-1.232v-0.256c0-2.343-1.93-4.273-4.273-4.273zM15.685 3.182h0.629c0.803 0 1.424 0.621 1.424 1.424v0.256c0 0 0 0.001 0 0.001s0 0.001 0 0.002v-0c0.002 1.523 0.818 2.933 2.136 3.694h-0.006l0.612 0.356c0.001 0 0.002 0 0.003 0s0.002 0 0.003 0h-0c1.32 0.762 2.953 0.762 4.273 0l-0.042 0.025 0.214-0.114c0.019-0.012 0.031-0.020 0.044-0.028l-0.005 0.003c0.695-0.401 1.542-0.174 1.944 0.52l0.312 0.54c0.401 0.695 0.177 1.542-0.517 1.944-0.013 0.007-0.020 0.011-0.026 0.015l0.007-0.004-0.195 0.117c-1.325 0.765-2.142 2.186-2.136 3.716v0.701c-0.006 1.53 0.811 2.951 2.136 3.716 0.008 0.005 0.021 0.013 0.035 0.021l0.182 0.098c0.69 0.404 0.914 1.246 0.515 1.939 0.002-0.004 0-0.001-0.002 0.003l-0.004 0.008-0.306 0.542c-0.402 0.694-1.249 0.921-1.944 0.52-0.008-0.005-0.020-0.014-0.033-0.022l-0.006-0.003-0.214-0.114 0.042 0.025c-1.32-0.762-2.953-0.762-4.273 0-0.001 0-0.002 0-0.003 0s-0.002 0-0.003 0h0l-0.612 0.356h0.006c-1.319 0.761-2.135 2.171-2.136 3.694 0 0 0 0.001 0 0.001s0 0.001 0 0.002v-0 0.256c0 0.803-0.621 1.424-1.424 1.424h-0.629c-0.803 0-1.424-0.621-1.424-1.424v-0.256c0-0 0-0.001 0-0.001s0-0.001 0-0.002v0c-0.002-1.523-0.818-2.933-2.136-3.694h0.006l-0.612-0.356c-0.001 0-0.002 0-0.003 0s-0.002 0-0.003 0h0c-1.32-0.762-2.953-0.762-4.273 0l0.042-0.025-0.214 0.114c-0.019 0.012-0.031 0.020-0.044 0.028l0.005-0.003c-0.695 0.401-1.542 0.174-1.945-0.52l-0.312-0.54c-0.401-0.695-0.177-1.542 0.517-1.944 0.013-0.007 0.020-0.011 0.026-0.015l-0.007 0.004 0.195-0.117c1.325-0.765 2.142-2.186 2.136-3.716v-0.72c0-0.001 0-0.003 0-0.004s0-0.003 0-0.004v0c-0.009-1.515-0.824-2.917-2.136-3.675l0.078 0.047-0.214-0.142c-0.020-0.013-0.045-0.029-0.071-0.044l-0.007-0.004c-0.694-0.402-0.918-1.249-0.517-1.944l0.312-0.54c0.402-0.694 1.249-0.921 1.944-0.52 0.008 0.005 0.020 0.014 0.033 0.022l0.006 0.004 0.214 0.114-0.042-0.025c1.32 0.762 2.953 0.762 4.273 0 0.001 0 0.002 0 0.003 0s0.002 0 0.003 0h-0l0.612-0.356h-0.006c1.319-0.761 2.135-2.171 2.136-3.694 0-0 0-0.001 0-0.001s0-0.001 0-0.002v0-0.256c0-0.803 0.621-1.424 1.424-1.424z"></path>
<path d="M16 10.303c-3.129 0-5.697 2.567-5.697 5.697s2.567 5.697 5.697 5.697c3.129 0 5.697-2.567 5.697-5.697s-2.567-5.697-5.697-5.697zM16 13.151c1.59 0 2.849 1.258 2.849 2.849s-1.259 2.849-2.849 2.849-2.849-1.259-2.849-2.849 1.258-2.849 2.849-2.849z"></path>
</svg>
