<!-- Generated by IcoMoon.io -->
<svg version="1.1" xmlns="http://www.w3.org/2000/svg" width="32" height="32" viewBox="0 0 32 32">
<path d="M21.991 27.721c-1.141-1.040-1.863-2.523-1.892-4.175v-0.005h2.477c-0.001 0.025-0.001 0.053-0.001 0.082 0 0.966 0.406 1.837 1.057 2.452l0.002 0.002c0.568 0.512 1.324 0.825 2.152 0.825 0.050 0 0.1-0.001 0.149-0.003h-0.007c0.040 0.002 0.086 0.003 0.133 0.003 0.912 0 1.744-0.348 2.368-0.918l-0.003 0.003c0.515-0.505 0.835-1.209 0.835-1.986 0-0.017 0-0.033 0-0.049v0.003c0.005-0.061 0.008-0.132 0.008-0.204 0-0.767-0.342-1.454-0.884-1.916l-0.004-0.003c-0.595-0.436-1.34-0.698-2.147-0.698-0.092 0-0.183 0.003-0.274 0.010l0.012-0.001h-1.171v-1.872h1.15c0.069 0.005 0.149 0.008 0.231 0.008 0.753 0 1.449-0.252 2.004-0.677l-0.008 0.006c0.474-0.441 0.77-1.067 0.77-1.763 0-0.046-0.001-0.093-0.004-0.138v0.006c0.003-0.043 0.004-0.093 0.004-0.144 0-0.673-0.269-1.282-0.703-1.729v0.001c-0.529-0.42-1.206-0.673-1.943-0.673-0.085 0-0.17 0.003-0.253 0.010l0.011-0.001c-0.058-0.004-0.127-0.006-0.194-0.006-0.795 0-1.522 0.288-2.083 0.766l0.005-0.004c-0.574 0.584-0.939 1.377-0.968 2.253v0.006h-2.409c0.058-1.509 0.731-2.85 1.774-3.787l0.005-0.004c0.953-0.841 2.212-1.353 3.591-1.353 0.092 0 0.183 0.002 0.274 0.007l-0.013-0.001c0.092-0.005 0.2-0.008 0.309-0.008 1.352 0 2.599 0.449 3.6 1.208l-0.015-0.011c0.886 0.755 1.444 1.871 1.444 3.118 0 0.058-0.001 0.115-0.004 0.172v-0.008c0.002 0.049 0.004 0.106 0.004 0.164 0 1.641-1.119 3.021-2.636 3.418l-0.025 0.006c0.864 0.243 1.598 0.713 2.158 1.341l0.004 0.005c0.505 0.601 0.811 1.384 0.811 2.239 0 0.049-0.001 0.097-0.003 0.145v-0.007c0.002 0.044 0.002 0.097 0.002 0.149 0 1.398-0.589 2.658-1.531 3.547l-0.002 0.002c-1.066 0.91-2.46 1.466-3.983 1.466-0.079 0-0.159-0.002-0.237-0.005h0.012c-0.086 0.005-0.187 0.007-0.289 0.007-1.394 0-2.676-0.482-3.687-1.287l0.012 0.009zM13.98 29.005v-11.74h-10.825v11.416h-2.854v-25.684h2.854v11.416h10.825v-11.096h2.854v25.684z"></path>
</svg>
