<!-- Generated by IcoMoon.io -->
<svg version="1.1" xmlns="http://www.w3.org/2000/svg" width="32" height="32" viewBox="0 0 32 32">
<path d="M16 18.804l-12.337 12.337q-0.581 0.581-1.403 0.581t-1.402-0.581-0.581-1.402q0-0.821 0.581-1.403l12.337-12.337-12.337-12.337q-0.581-0.581-0.581-1.403t0.581-1.402 1.402-0.581q0.821 0 1.403 0.581l12.337 12.337 12.337-12.337q0.581-0.581 1.403-0.581t1.402 0.581 0.581 1.402q0 0.821-0.581 1.403l-12.337 12.337 12.337 12.337q0.581 0.581 0.581 1.403t-0.581 1.402-1.402 0.581q-0.821 0-1.403-0.581l-12.337-12.337z"></path>
</svg>
