<!-- Generated by IcoMoon.io -->
<svg version="1.1" xmlns="http://www.w3.org/2000/svg" width="32" height="32" viewBox="0 0 32 32">
<path d="M3.371 31.5q-1.163 0-2.017-0.854t-0.854-2.017v-25.259q0-1.163 0.854-2.017t2.017-0.854h25.259q1.163 0 2.017 0.854t0.854 2.017v25.259q0 1.163-0.854 2.017t-2.017 0.854h-25.259zM3.371 28.629h6.502v-6.502h-6.502v6.502zM12.742 28.629h6.516v-6.502h-6.516v6.502zM22.128 28.629h6.502v-6.502h-6.502v6.502zM3.371 19.258h6.502v-6.516h-6.502v6.516zM12.742 19.258h6.516v-6.516h-6.516v6.516zM22.128 19.258h6.502v-6.516h-6.502v6.516zM3.371 9.872h6.502v-6.502h-6.502v6.502zM12.742 9.872h6.516v-6.502h-6.516v6.502zM22.128 9.872h6.502v-6.502h-6.502v6.502z"></path>
</svg>
