<!-- Generated by IcoMoon.io -->
<svg version="1.1" xmlns="http://www.w3.org/2000/svg" width="32" height="32" viewBox="0 0 32 32">
<path d="M1.708 31.75q-0.62 0-1.039-0.421t-0.419-1.043 0.419-1.038 1.039-0.416h28.584q0.62 0 1.039 0.421t0.419 1.043-0.419 1.038-1.039 0.416h-28.584zM15.708 24.604q-0.62 0-1.039-0.421t-0.419-1.043 0.419-1.038 1.039-0.416h14.584q0.62 0 1.039 0.421t0.419 1.043-0.419 1.038-1.039 0.416h-14.584zM15.708 17.458q-0.62 0-1.039-0.421t-0.419-1.043 0.419-1.037 1.039-0.416h14.584q0.62 0 1.039 0.421t0.419 1.043-0.419 1.037-1.039 0.416h-14.584zM15.708 10.312q-0.62 0-1.039-0.421t-0.419-1.043 0.419-1.038 1.039-0.416h14.584q0.62 0 1.039 0.421t0.419 1.043-0.419 1.038-1.039 0.416h-14.584zM1.708 3.167q-0.62 0-1.039-0.421t-0.419-1.043 0.419-1.038 1.039-0.416h28.584q0.62 0 1.039 0.421t0.419 1.043-0.419 1.038-1.039 0.416h-28.584zM5.442 21.104l-4.667-4.667q-0.233-0.223-0.233-0.52t0.233-0.53l4.696-4.55q0.379-0.35 0.803-0.174t0.423 0.669v9.246q0 0.51-0.452 0.693t-0.802-0.168z"></path>
</svg>
