<!-- Generated by IcoMoon.io -->
<svg version="1.1" xmlns="http://www.w3.org/2000/svg" width="32" height="32" viewBox="0 0 32 32">
<path d="M7.102 26.333h17.796q0.61 0 1.023-0.414t0.413-1.026-0.413-1.021-1.023-0.409h-17.796q-0.61 0-1.023 0.414t-0.413 1.026 0.413 1.021 1.023 0.409zM3.371 31.5q-1.163 0-2.017-0.854t-0.854-2.017v-25.259q0-1.163 0.854-2.017t2.017-0.854h25.259q1.163 0 2.017 0.854t0.854 2.017v25.259q0 1.163-0.854 2.017t-2.017 0.854h-25.259zM3.371 28.629h25.259v-25.259h-25.259v25.259zM3.371 3.371v0z"></path>
</svg>
