<!-- Generated by IcoMoon.io -->
<svg version="1.1" xmlns="http://www.w3.org/2000/svg" width="32" height="32" viewBox="0 0 32 32">
<path d="M10.75 12.5c-0.414 0-0.789 0.168-1.060 0.439l-9 9c-0.271 0.271-0.439 0.646-0.439 1.060v0 4.5c0 0.828 0.672 1.5 1.5 1.5h13.5c0.414-0 0.789-0.168 1.060-0.439l4.5-4.5c0.271-0.271 0.439-0.646 0.439-1.060s-0.168-0.789-0.439-1.061v0c-0.271-0.271-0.646-0.439-1.060-0.439s-0.789 0.168-1.061 0.439l-4.060 4.060h-11.379v-2.379l8.561-8.561c0.271-0.271 0.439-0.646 0.439-1.060s-0.168-0.789-0.439-1.060v0c-0.271-0.271-0.646-0.439-1.060-0.439v0z"></path>
<path d="M18.25 2c-0.414 0-0.789 0.168-1.060 0.439l-6.899 6.899c-0.004 0.004-0.008 0.008-0.012 0.012l-0 0c-1.703 1.738-1.703 4.561 0 6.299 0.004 0.004 0.008 0.008 0.012 0.012l7.799 7.799c0.004 0.004 0.008 0.008 0.012 0.012l0 0c1.738 1.703 4.561 1.703 6.299 0 0.004-0.004 0.008-0.008 0.012-0.012l6.9-6.9c0.271-0.271 0.439-0.646 0.439-1.060s-0.168-0.789-0.439-1.060v0c-0.271-0.271-0.646-0.439-1.060-0.439s-0.789 0.168-1.061 0.439l-6.891 6.891c-0.595 0.583-1.502 0.583-2.098 0l-7.781-7.781c-0.583-0.595-0.583-1.502 0-2.098l6.891-6.891c0.271-0.271 0.439-0.646 0.439-1.060s-0.168-0.789-0.439-1.061v0c-0.271-0.271-0.646-0.439-1.060-0.439v0z"></path>
</svg>
