<!-- Generated by IcoMoon.io -->
<svg version="1.1" xmlns="http://www.w3.org/2000/svg" width="32" height="32" viewBox="0 0 32 32">
<path d="M14.677 3.27v16.671q0 0.562-0.382 0.943t-0.946 0.38-0.942-0.38-0.377-0.943v-7.145q-2.62 0-4.485-1.76t-1.865-4.313 1.773-4.326 4.313-1.773h10.32q0.562 0 0.943 0.382t0.381 0.946-0.381 0.942-0.943 0.377h-2.117v16.671q0 0.562-0.382 0.943t-0.946 0.38-0.942-0.38-0.377-0.943v-16.671h-2.646zM6.739 27.72l1.879 1.879q0.384 0.384 0.384 0.926t-0.384 0.926-0.926 0.384-0.926-0.384l-4.128-4.128q-0.397-0.397-0.397-0.926t0.397-0.926l4.128-4.128q0.384-0.384 0.926-0.384t0.926 0.384 0.384 0.926-0.384 0.926l-1.879 1.879h22.228q0.562 0 0.943 0.382t0.38 0.946-0.38 0.942-0.943 0.377h-22.228zM12.031 10.149v-6.88q-1.548 0-2.626 0.946t-1.078 2.494 1.078 2.494 2.626 0.946z"></path>
</svg>
