<!-- Generated by IcoMoon.io -->
<svg version="1.1" xmlns="http://www.w3.org/2000/svg" width="32" height="32" viewBox="0 0 32 32">
<path d="M22.182 2.853v12.468l2.932 2.694q0.211 0.212 0.304 0.458t0.092 0.51v0.757q0 0.559-0.38 0.936t-0.941 0.376h-6.869v9.325q0 0.561-0.381 0.941t-0.945 0.38-0.939-0.38-0.376-0.941v-9.325h-6.869q-0.561 0-0.941-0.379t-0.38-0.938v-0.757q0-0.264 0.092-0.508t0.304-0.456l2.774-2.694v-12.468h-0.528q-0.561 0-0.941-0.381t-0.38-0.944 0.38-0.94 0.941-0.376h13.578q0.561 0 0.941 0.381t0.38 0.944-0.38 0.94-0.941 0.376h-0.528zM10.135 18.412h11.571l-2.166-2.061v-13.499h-7.238v13.499l-2.166 2.061z"></path>
</svg>
