<!-- Generated by IcoMoon.io -->
<svg version="1.1" xmlns="http://www.w3.org/2000/svg" width="32" height="32" viewBox="0 0 32 32">
<path d="M4.572 31.586q-1.104 0-1.851-0.747t-0.747-1.851v-22.855q0-1.104 0.747-1.851t1.851-0.747h7.415q0.325-1.364 1.454-2.24t2.558-0.877q1.454 0 2.578 0.877t1.448 2.24h7.402q1.104 0 1.851 0.747t0.747 1.851v22.855q0 1.104-0.747 1.851t-1.851 0.747h-22.855zM4.572 28.988h22.855v-22.855h-2.597v2.597q0 0.552-0.374 0.925t-0.925 0.374h-15.064q-0.552 0-0.925-0.374t-0.374-0.925v-2.597h-2.597v22.855zM16 6.133q0.662 0 1.11-0.448t0.448-1.11-0.448-1.11-1.11-0.448-1.11 0.448-0.448 1.11 0.448 1.11 1.11 0.448z"></path>
</svg>
