<!-- Generated by IcoMoon.io -->
<svg version="1.1" xmlns="http://www.w3.org/2000/svg" width="32" height="32" viewBox="0 0 32 32">
<path d="M9.6 22.401c-0.48 0-0.8-0.16-1.12-0.48-0.641-0.64-0.641-1.6 0-2.239l3.679-3.68-3.68-3.68c-0.641-0.64-0.641-1.6 0-2.239s1.6-0.64 2.239 0l4.8 4.8c0.64 0.64 0.64 1.6 0 2.239l-4.8 4.8c-0.32 0.32-0.64 0.48-1.12 0.48zM22.401 22.401h-4.8c-0.96 0-1.6-0.64-1.6-1.6s0.64-1.6 1.6-1.6h4.8c0.96 0 1.6 0.64 1.6 1.6s-0.64 1.6-1.6 1.6z"></path>
<path d="M27.2 30.4h-22.399c-2.72 0-4.8-2.081-4.8-4.8v-19.2c0-2.72 2.080-4.8 4.8-4.8h22.399c2.72 0 4.8 2.080 4.8 4.8v19.2c0 2.72-2.081 4.8-4.8 4.8zM4.8 4.8c-0.96 0-1.6 0.641-1.6 1.6v19.2c0 0.96 0.64 1.6 1.6 1.6h22.4c0.96 0 1.6-0.64 1.6-1.6v-19.2c0-0.96-0.64-1.6-1.6-1.6h-22.399z"></path>
</svg>
