<!-- Generated by IcoMoon.io -->
<svg version="1.1" xmlns="http://www.w3.org/2000/svg" width="32" height="32" viewBox="0 0 32 32">
<path d="M2.963 32q-1.2 0-2.082-0.881t-0.881-2.082v-26.074q0-1.2 0.881-2.082t2.082-0.881h26.074q1.2 0 2.082 0.881t0.881 2.082v26.074q0 1.2-0.881 2.082t-2.082 0.881h-26.074zM2.963 29.037h26.074v-26.074h-26.074v26.074zM2.963 29.037v0zM6.696 24.978h18.637q0.43 0 0.644-0.4t-0.052-0.785l-5.096-6.8q-0.238-0.296-0.593-0.296t-0.592 0.296l-5.096 6.652-3.496-4.756q-0.238-0.296-0.593-0.296t-0.592 0.296l-3.733 4.904q-0.296 0.386-0.082 0.785t0.644 0.4z"></path>
</svg>
