<!-- Generated by IcoMoon.io -->
<svg version="1.1" xmlns="http://www.w3.org/2000/svg" width="32" height="32" viewBox="0 0 32 32">
<path d="M16 19.608q-1.839 0-3.097-1.31t-1.258-3.18v-10.034q0-1.803 1.27-3.066t3.083-1.262 3.085 1.262 1.271 3.066v10.034q0 1.871-1.258 3.18t-3.097 1.31zM14.648 30.237v-3.99q-3.841-0.473-6.633-3.151t-3.28-6.586q-0.081-0.577 0.3-0.985t0.96-0.408q0.579 0 0.965 0.399t0.493 0.981q0.514 3.137 2.961 5.139t5.576 2.002q3.174 0 5.608-2.008t2.948-5.132q0.108-0.581 0.498-0.981t0.967-0.399 0.956 0.408 0.298 0.985q-0.487 3.854-3.259 6.559t-6.654 3.178v3.99q0 0.574-0.39 0.964t-0.967 0.389q-0.576 0-0.962-0.389t-0.385-0.964zM16 16.903q0.717 0 1.183-0.52t0.467-1.264v-10.034q0-0.69-0.474-1.156t-1.176-0.467-1.176 0.467-0.474 1.156v10.034q0 0.744 0.467 1.264t1.183 0.52z"></path>
</svg>
