<!-- Generated by IcoMoon.io -->
<svg version="1.1" xmlns="http://www.w3.org/2000/svg" width="32" height="32" viewBox="0 0 32 32">
<path d="M1.708 3.167q-0.62 0-1.039-0.421t-0.419-1.043 0.419-1.038 1.039-0.416h28.584q0.62 0 1.039 0.421t0.419 1.043-0.419 1.038-1.039 0.416h-28.584zM12.208 10.312q-0.62 0-1.039-0.421t-0.419-1.043 0.419-1.038 1.039-0.416h18.083q0.62 0 1.039 0.421t0.419 1.043-0.419 1.038-1.039 0.416h-18.083zM1.708 17.458q-0.62 0-1.039-0.421t-0.419-1.043 0.419-1.037 1.039-0.416h28.584q0.62 0 1.039 0.421t0.419 1.043-0.419 1.037-1.039 0.416h-28.584zM12.208 24.604q-0.62 0-1.039-0.421t-0.419-1.043 0.419-1.038 1.039-0.416h18.083q0.62 0 1.039 0.421t0.419 1.043-0.419 1.038-1.039 0.416h-18.083zM1.708 31.75q-0.62 0-1.039-0.421t-0.419-1.043 0.419-1.038 1.039-0.416h28.584q0.62 0 1.039 0.421t0.419 1.043-0.419 1.038-1.039 0.416h-28.584z"></path>
</svg>
