<!-- Generated by IcoMoon.io -->
<svg version="1.1" xmlns="http://www.w3.org/2000/svg" width="32" height="32" viewBox="0 0 32 32">
<path d="M3.371 28.629h4.104q0.61 0 1.023 0.414t0.413 1.026-0.413 1.021-1.023 0.409h-5.54q-0.61 0-1.023-0.413t-0.413-1.023v-5.54q0-0.61 0.414-1.023t1.026-0.413 1.021 0.413 0.409 1.023v4.104zM28.629 28.629v-4.104q0-0.61 0.414-1.023t1.026-0.413 1.021 0.413 0.409 1.023v5.54q0 0.61-0.413 1.023t-1.023 0.413h-5.54q-0.61 0-1.023-0.414t-0.413-1.026 0.413-1.021 1.023-0.409h4.104zM3.371 3.371v4.104q0 0.61-0.414 1.023t-1.026 0.413-1.021-0.413-0.409-1.023v-5.54q0-0.61 0.413-1.023t1.023-0.413h5.54q0.61 0 1.023 0.414t0.413 1.026-0.413 1.021-1.023 0.409h-4.104zM28.629 3.371h-4.104q-0.61 0-1.023-0.414t-0.413-1.026 0.413-1.021 1.023-0.409h5.54q0.61 0 1.023 0.413t0.413 1.023v5.54q0 0.61-0.414 1.023t-1.026 0.413-1.021-0.413-0.409-1.023v-4.104z"></path>
</svg>
