<!-- Generated by IcoMoon.io -->
<svg version="1.1" xmlns="http://www.w3.org/2000/svg" width="32" height="32" viewBox="0 0 32 32">
<path d="M0.234 23.859q0-1.239 0.637-2.257t1.744-1.53q2.477-1.131 4.632-1.649t4.418-0.518 4.406 0.518 4.62 1.649q1.108 0.512 1.757 1.53t0.649 2.257v1.191q0 0.982-0.7 1.682t-1.682 0.699h-18.101q-0.982 0-1.682-0.699t-0.699-1.682v-1.191zM29.385 27.432h-4.501q0.25-0.572 0.423-1.161t0.173-1.221v-1.286q0-2.024-0.982-3.423t-2.899-2.364q2.251 0.262 4.239 0.768t3.358 1.233q1.215 0.691 1.893 1.649t0.679 2.137v1.286q0 0.982-0.699 1.682t-1.682 0.699zM11.665 15.976q-2.358 0-3.918-1.56t-1.56-3.918 1.56-3.918 3.918-1.56 3.918 1.56 1.56 3.918-1.56 3.918-3.918 1.56zM25.003 10.498q0 2.358-1.56 3.918t-3.918 1.56q-0.393 0-0.917-0.065t-0.917-0.196q0.893-0.976 1.364-2.31t0.471-2.905-0.471-2.858-1.364-2.358q0.429-0.131 0.917-0.196t0.917-0.065q2.358 0 3.918 1.56t1.56 3.918zM2.615 25.050h18.101v-1.191q0-0.512-0.292-0.976t-0.732-0.667q-2.358-1.084-4.18-1.507t-3.846-0.423-3.858 0.423-4.192 1.507q-0.44 0.203-0.72 0.667t-0.28 0.976v1.191zM11.665 13.595q1.322 0 2.209-0.887t0.887-2.209-0.887-2.209-2.209-0.887-2.209 0.887-0.887 2.209 0.887 2.209 2.209 0.887z"></path>
</svg>
