<!-- Generated by IcoMoon.io -->
<svg version="1.1" xmlns="http://www.w3.org/2000/svg" width="32" height="32" viewBox="0 0 32 32">
<path d="M31.692 5.895l-0.007-0.116-0.012-0.115-0.017-0.114-0.021-0.111-0.025-0.111-0.029-0.109-0.034-0.107-0.037-0.105-0.042-0.104-0.045-0.101-0.049-0.099-0.053-0.097-0.057-0.094-0.060-0.092-0.064-0.090-0.067-0.087-0.071-0.084-0.073-0.082-0.076-0.078-0.078-0.076-0.082-0.073-0.084-0.071-0.087-0.067-0.090-0.064-0.092-0.060-0.094-0.057-0.097-0.053-0.099-0.049-0.101-0.045-0.104-0.041-0.105-0.037-0.107-0.033-0.109-0.030-0.111-0.025-0.111-0.021-0.114-0.017-0.115-0.012-0.116-0.007-0.118-0.003h-5.708v14.268h8.56v-11.415l-0.003-0.118zM11.719 6.012h2.853v-2.853h-2.853v2.853zM2.757 3.187l-0.195 0.035-0.19 0.048-0.184 0.061-0.179 0.073-0.173 0.084-0.167 0.095-0.159 0.106-0.151 0.117-0.144 0.126-0.135 0.134-0.126 0.144-0.116 0.151-0.106 0.159-0.095 0.167-0.084 0.173-0.073 0.179-0.060 0.185-0.048 0.191-0.035 0.194-0.022 0.199-0.007 0.203h2.853v-2.853l-0.203 0.007-0.199 0.022zM6.012 6.012h2.854v-2.853h-2.854v2.853zM17.427 6.012h2.853v-2.853h-2.853v2.853zM0.306 11.719h2.853v-2.853h-2.853v2.853zM0.306 17.427h2.853v-2.854h-2.853v2.854zM0.306 23.134h2.853v-2.853h-2.853v2.853zM28.841 23.134h2.853v-2.853h-2.853v2.853zM0.312 26.191l0.022 0.199 0.035 0.194 0.048 0.191 0.060 0.185 0.073 0.18 0.084 0.173 0.095 0.167 0.106 0.159 0.116 0.151 0.126 0.144 0.135 0.134 0.144 0.126 0.151 0.117 0.159 0.106 0.167 0.095 0.173 0.084 0.179 0.073 0.185 0.061 0.19 0.048 0.195 0.035 0.199 0.022 0.203 0.007v-2.853h-2.853l0.007 0.203zM11.719 28.841h2.853v-2.853h-2.853v2.853zM6.012 28.841h2.854v-2.853h-2.854v2.853zM17.427 28.841h2.853v-2.853h-2.853v2.853zM29.438 28.778l0.19-0.048 0.185-0.061 0.18-0.073 0.173-0.084 0.167-0.095 0.159-0.106 0.151-0.117 0.144-0.126 0.135-0.134 0.126-0.144 0.116-0.151 0.106-0.159 0.095-0.167 0.084-0.173 0.073-0.18 0.060-0.185 0.048-0.191 0.035-0.194 0.022-0.199 0.007-0.203h-2.853v2.853l0.203-0.007 0.199-0.022 0.195-0.035zM23.134 28.841h2.854v-2.853h-2.854v2.853z"></path>
</svg>
