<!-- Generated by IcoMoon.io -->
<svg version="1.1" xmlns="http://www.w3.org/2000/svg" width="32" height="32" viewBox="0 0 32 32">
<path d="M16 31.833q-3.285 0-6.175-1.247t-5.027-3.384-3.384-5.027-1.247-6.175 1.247-6.175 3.384-5.027 5.027-3.384 6.175-1.247 6.175 1.247 5.027 3.384 3.384 5.027 1.247 6.175v2.164q0 2.256-1.573 3.82t-3.863 1.564q-1.414 0-2.666-0.66t-1.979-1.874q-1.069 1.28-2.581 1.906t-3.171 0.627q-3.143 0-5.358-2.197t-2.215-5.351 2.215-5.377 5.358-2.223 5.358 2.223 2.215 5.377v2.164q0 1.151 0.818 1.948t1.992 0.797 1.993-0.797 0.818-1.948v-2.164q0-5.525-3.834-9.36t-9.36-3.834-9.36 3.834-3.834 9.36 3.834 9.36 9.36 3.834h6.967q0.561 0 0.94 0.381t0.379 0.943-0.379 0.939-0.94 0.376h-6.967zM16.002 20.908q2.057 0 3.495-1.432t1.439-3.477q0-2.085-1.44-3.523t-3.497-1.438-3.495 1.438-1.439 3.523q0 2.045 1.44 3.477t3.497 1.432z"></path>
</svg>
