<!-- Generated by IcoMoon.io -->
<svg version="1.1" xmlns="http://www.w3.org/2000/svg" width="32" height="32" viewBox="0 0 32 32">
<path d="M22.106 27.946c-1.163-1.060-1.899-2.571-1.928-4.255v-0.005h2.525c-0.001 0.025-0.001 0.054-0.001 0.084 0 0.985 0.414 1.872 1.077 2.499l0.002 0.002c0.579 0.522 1.349 0.841 2.193 0.841 0.051 0 0.102-0.001 0.152-0.003h-0.007c0.041 0.002 0.088 0.003 0.136 0.003 0.93 0 1.778-0.355 2.414-0.936l-0.003 0.003c0.525-0.515 0.851-1.232 0.851-2.024 0-0.017 0-0.034 0-0.050v0.003c0.005-0.062 0.008-0.135 0.008-0.208 0-0.782-0.349-1.482-0.901-1.953l-0.004-0.003c-0.606-0.444-1.366-0.711-2.188-0.711-0.094 0-0.187 0.003-0.279 0.010l0.012-0.001h-1.193v-1.908h1.172c0.070 0.005 0.152 0.008 0.235 0.008 0.768 0 1.477-0.257 2.043-0.69l-0.008 0.006c0.483-0.449 0.785-1.087 0.785-1.797 0-0.047-0.001-0.095-0.004-0.141v0.006c0.003-0.044 0.004-0.095 0.004-0.147 0-0.686-0.274-1.307-0.717-1.762v0.001c-0.539-0.428-1.229-0.686-1.98-0.686-0.087 0-0.173 0.003-0.258 0.010l0.011-0.001c-0.059-0.004-0.129-0.006-0.198-0.006-0.81 0-1.551 0.294-2.123 0.781l0.005-0.004c-0.585 0.595-0.957 1.403-0.987 2.296v0.006h-2.455c0.059-1.538 0.745-2.905 1.808-3.86l0.005-0.004c0.971-0.857 2.255-1.379 3.66-1.379 0.094 0 0.187 0.002 0.279 0.007l-0.013-0.001c0.094-0.005 0.204-0.008 0.315-0.008 1.378 0 2.649 0.458 3.669 1.231l-0.015-0.011c0.903 0.769 1.472 1.907 1.472 3.178 0 0.059-0.001 0.117-0.004 0.175v-0.008c0.002 0.050 0.004 0.108 0.004 0.167 0 1.673-1.141 3.079-2.687 3.484l-0.025 0.006c0.881 0.248 1.629 0.727 2.199 1.367l0.004 0.005c0.515 0.613 0.827 1.411 0.827 2.282 0 0.050-0.001 0.099-0.003 0.148v-0.007c0.002 0.045 0.002 0.099 0.002 0.152 0 1.425-0.6 2.709-1.56 3.615l-0.002 0.002c-1.086 0.928-2.507 1.494-4.060 1.494-0.081 0-0.162-0.002-0.242-0.005h0.012c-0.088 0.005-0.191 0.007-0.295 0.007-1.421 0-2.727-0.491-3.758-1.312l0.012 0.009zM13.941 29.255v-11.966h-11.033v11.635h-2.909v-26.178h2.909v11.635h11.033v-11.309h2.909v26.178z"></path>
</svg>
