<!-- Generated by IcoMoon.io -->
<svg version="1.1" xmlns="http://www.w3.org/2000/svg" width="32" height="32" viewBox="0 0 32 32">
<path stroke-linejoin="round" stroke-linecap="round" stroke-miterlimit="4" stroke-width="2.6667" stroke="#000" fill="#000" d="M23.057 9.724c-0.241 0.241-0.39 0.575-0.39 0.943s0.149 0.701 0.39 0.943l4.391 4.391-4.391 4.391c-0.241 0.241-0.39 0.575-0.39 0.943s0.149 0.701 0.39 0.943v0c0.241 0.241 0.575 0.39 0.943 0.39s0.701-0.149 0.943-0.39l5.333-5.333c0.241-0.241 0.39-0.575 0.39-0.943s-0.149-0.701-0.39-0.943l-5.333-5.333c-0.241-0.241-0.575-0.39-0.943-0.39s-0.701 0.149-0.943 0.39v0z"></path>
<path stroke-linejoin="round" stroke-linecap="round" stroke-miterlimit="4" stroke-width="2.6667" stroke="#000" fill="#000" d="M8 9.333c-0.368 0-0.701 0.149-0.943 0.391l-5.333 5.333c-0.241 0.241-0.39 0.575-0.39 0.943s0.149 0.701 0.39 0.943l5.333 5.333c0.241 0.241 0.575 0.39 0.943 0.39s0.701-0.149 0.943-0.39v0c0.241-0.241 0.39-0.575 0.39-0.943s-0.149-0.701-0.39-0.943l-4.391-4.391 4.391-4.391c0.241-0.241 0.39-0.575 0.39-0.943s-0.149-0.701-0.39-0.943v0c-0.241-0.241-0.575-0.391-0.943-0.391v0z"></path>
<path stroke-linejoin="round" stroke-linecap="round" stroke-miterlimit="4" stroke-width="2.6667" stroke="#000" fill="#000" d="M19.732 4.060c-0.119-0.039-0.257-0.061-0.399-0.061-0.595 0-1.098 0.389-1.27 0.927l-0.003 0.009-6.667 21.333c-0.039 0.119-0.061 0.257-0.061 0.399 0 0.595 0.389 1.098 0.927 1.27l0.009 0.003c0.119 0.039 0.257 0.061 0.399 0.061 0.595 0 1.098-0.389 1.27-0.927l0.003-0.009 6.667-21.333c0.039-0.119 0.061-0.257 0.061-0.399 0-0.595-0.389-1.098-0.927-1.27l-0.009-0.003z"></path>
</svg>
