<!-- Generated by IcoMoon.io -->
<svg version="1.1" xmlns="http://www.w3.org/2000/svg" width="32" height="32" viewBox="0 0 32 32">
<path d="M4.389 31.836q-1.122 0-1.88-0.759t-0.759-1.88v-23.222q0-1.122 0.759-1.88t1.88-0.759h7.534q0.33-1.385 1.478-2.276t2.599-0.891q1.478 0 2.619 0.891t1.471 2.276h7.521q1.122 0 1.88 0.759t0.759 1.88v23.222q0 1.122-0.759 1.88t-1.88 0.759h-23.222zM4.389 29.197h23.222v-23.222h-2.639v2.639q0 0.561-0.38 0.94t-0.94 0.38h-15.305q-0.561 0-0.94-0.38t-0.38-0.94v-2.639h-2.639v23.222zM16 5.975q0.673 0 1.128-0.455t0.455-1.128-0.455-1.128-1.128-0.455-1.128 0.455-0.455 1.128 0.455 1.128 1.128 0.455z"></path>
</svg>
