<!-- Generated by IcoMoon.io -->
<svg version="1.1" xmlns="http://www.w3.org/2000/svg" width="32" height="32" viewBox="0 0 32 32">
<path d="M15.996 30.417q-1.092 0-1.866-0.778t-0.773-1.87 0.778-1.866 1.87-0.773 1.866 0.778 0.773 1.87-0.778 1.865-1.87 0.773zM15.996 18.643q-1.092 0-1.866-0.778t-0.773-1.87 0.778-1.866 1.87-0.773 1.866 0.778 0.773 1.87-0.778 1.866-1.87 0.773zM15.996 6.869q-1.092 0-1.866-0.778t-0.773-1.87 0.778-1.865 1.87-0.773 1.866 0.778 0.773 1.87-0.778 1.865-1.87 0.773z"></path>
</svg>
