<!-- Generated by IcoMoon.io -->
<svg version="1.1" xmlns="http://www.w3.org/2000/svg" width="32" height="32" viewBox="0 0 32 32">
<path d="M4.748 21.001l-1.688 4.761q-0.128 0.399-0.478 0.637t-0.781 0.239q-0.717 0-1.106-0.566t-0.119-1.218l6.752-18.347q0.159-0.43 0.502-0.661t0.773-0.231h1.051q0.43 0 0.78 0.231t0.51 0.661l6.785 18.363q0.27 0.653-0.143 1.21t-1.115 0.558q-0.43 0-0.78-0.231t-0.478-0.661l-1.672-4.746h-8.791zM5.624 18.58h7.023l-3.471-9.81h-0.128l-3.424 9.81zM24.847 27.117q-2.437 0-3.95-1.266t-1.513-3.385q0-2.198 1.68-3.559t4.356-1.362q1.195 0 2.261 0.207t1.831 0.573v-0.764q0-1.672-0.98-2.612t-2.763-0.94q-0.78 0-1.553 0.231t-1.41 0.724q-0.462 0.351-0.899 0.223t-0.709-0.478q-0.27-0.35-0.223-0.797t0.509-0.764q0.956-0.669 2.055-0.979t2.245-0.31q3.074 0 4.619 1.505t1.544 4.515v7.565q0 0.493-0.358 0.844t-0.852 0.351-0.844-0.358-0.35-0.852v-0.717h-0.191q-0.732 1.195-1.991 1.8t-2.516 0.605zM25.038 25.046q1.704 0 3.113-1.338t1.41-3.312q-0.732-0.382-1.744-0.613t-1.983-0.231q-1.847 0-2.882 0.781t-1.035 2.134q0 1.147 0.908 1.863t2.214 0.717z"></path>
</svg>
