<!-- Generated by IcoMoon.io -->
<svg version="1.1" xmlns="http://www.w3.org/2000/svg" width="32" height="32" viewBox="0 0 32 32">
<path d="M8.113 27.167q-3.106 0-5.287-2.164t-2.181-5.27q0-2.722 1.71-4.804t4.386-2.559q0.756-3.327 3.35-5.421t5.956-2.094q3.967 0 6.706 2.844t2.739 6.857v0.558q2.478 0.046 4.17 1.774t1.693 4.252q0 2.478-1.774 4.252t-4.252 1.774h-17.216zM8.113 24.841h17.216q1.535 0 2.617-1.082t1.082-2.617-1.082-2.617-2.617-1.082h-2.164v-2.885q0-3.083-2.099-5.229t-5.112-2.146-5.124 2.146-2.111 5.229h-0.675q-2.117 0-3.594 1.489t-1.477 3.653q0 2.14 1.501 3.641t3.641 1.501z"></path>
</svg>
