<!-- Generated by IcoMoon.io -->
<svg version="1.1" xmlns="http://www.w3.org/2000/svg" width="32" height="32" viewBox="0 0 32 32">
<path d="M16 31.821q-2.867 0-5.316-1.377t-3.708-3.897h-3.575q-0.622 0-1.044-0.423t-0.421-1.047 0.421-1.042 1.044-0.417h2.461q-0.249-1.055-0.256-2.129t-0.008-2.149h-2.226q-0.623 0-1.044-0.423t-0.421-1.047 0.421-1.042 1.044-0.417h2.226q0-1.143 0.022-2.27t0.301-2.241h-2.52q-0.622 0-1.044-0.423t-0.421-1.047 0.421-1.042 1.044-0.417h3.692q0.615-1.157 1.545-2.065t2.087-1.538l-2.212-2.197q-0.396-0.396-0.396-0.983t0.423-1.014q0.387-0.391 0.986-0.391t0.994 0.396l3.018 3.018q1.221-0.425 2.486-0.425t2.495 0.425l3.047-3.032q0.396-0.396 0.982-0.396t1.014 0.423q0.391 0.387 0.391 0.986t-0.396 0.994l-2.197 2.197q1.157 0.63 2.055 1.551t1.578 2.053h3.633q0.623 0 1.044 0.423t0.421 1.047-0.421 1.042-1.044 0.417h-2.549q0.307 1.113 0.301 2.246t-0.008 2.265h2.256q0.623 0 1.044 0.423t0.421 1.047-0.421 1.042-1.044 0.417h-2.256q0 1.084 0.008 2.153t-0.242 2.124h2.49q0.623 0 1.044 0.423t0.421 1.047-0.421 1.042-1.044 0.417h-3.574q-1.231 2.549-3.697 3.911t-5.356 1.362zM16.005 28.891q3.071 0 5.254-2.168t2.182-5.244v-7.236q0-3.076-2.187-5.244t-5.259-2.168-5.254 2.168-2.182 5.244v7.236q0 3.076 2.187 5.244t5.259 2.168zM13.949 23.032h4.102q0.622 0 1.044-0.423t0.421-1.047-0.421-1.042-1.044-0.417h-4.102q-0.622 0-1.044 0.423t-0.421 1.047 0.421 1.042 1.044 0.417zM13.949 15.619h4.102q0.622 0 1.044-0.423t0.421-1.048-0.421-1.042-1.044-0.417h-4.102q-0.622 0-1.044 0.423t-0.421 1.048 0.421 1.042 1.044 0.417zM16 17.875v0z"></path>
</svg>
