<!-- Generated by IcoMoon.io -->
<svg version="1.1" xmlns="http://www.w3.org/2000/svg" width="32" height="32" viewBox="0 0 32 32">
<path d="M3.371 31.5q-1.184 0-2.027-0.843t-0.843-2.027v-25.259q0-1.184 0.843-2.027t2.027-0.843h25.259q1.184 0 2.027 0.843t0.843 2.027v25.259q0 1.184-0.843 2.027t-2.027 0.843h-25.259zM3.371 28.629h25.259v-21.814h-25.259v21.814zM16.001 24.468q-3.474 0-6.208-1.877t-3.983-4.873q1.248-2.995 3.982-4.868t6.207-1.873 6.208 1.877 3.983 4.873q-1.248 2.995-3.982 4.868t-6.207 1.873zM16 22.171q2.44 0 4.476-1.179t3.187-3.27q-1.151-2.091-3.187-3.27t-4.476-1.179-4.476 1.179-3.187 3.27q1.151 2.091 3.187 3.27t4.476 1.179zM16.004 20.018q0.958 0 1.625-0.671t0.667-1.629-0.671-1.625-1.629-0.667-1.625 0.671-0.667 1.629 0.671 1.625 1.629 0.667z"></path>
</svg>
