<!-- Generated by IcoMoon.io -->
<svg version="1.1" xmlns="http://www.w3.org/2000/svg" width="32" height="32" viewBox="0 0 32 32">
<path d="M14.548 32h-11.585q-1.2 0-2.082-0.881t-0.881-2.082v-26.074q0-1.2 0.881-2.082t2.082-0.881h11.585v32zM11.585 29.037v-26.074h-8.622v26.074h8.622zM17.511 14.489v-14.489h11.526q1.2 0 2.082 0.881t0.881 2.082v11.526h-14.489zM20.474 11.526h8.563v-8.563h-8.563v8.563zM17.511 32v-14.548h14.489v11.585q0 1.2-0.881 2.082t-2.082 0.881h-11.526zM20.474 29.037h8.563v-8.622h-8.563v8.622z"></path>
</svg>
