<!-- Generated by IcoMoon.io -->
<svg version="1.1" xmlns="http://www.w3.org/2000/svg" width="32" height="32" viewBox="0 0 32 32">
<path d="M26.333 24.898v-17.796q0-0.61-0.414-1.023t-1.026-0.413-1.021 0.413-0.409 1.023v17.796q0 0.61 0.414 1.023t1.026 0.413 1.021-0.413 0.409-1.023zM31.5 28.629q0 1.163-0.854 2.017t-2.017 0.854h-25.259q-1.163 0-2.017-0.854t-0.854-2.017v-25.259q0-1.163 0.854-2.017t2.017-0.854h25.259q1.163 0 2.017 0.854t0.854 2.017zM28.629 28.629v-25.259h-25.259v25.259zM3.371 28.629h25.259z"></path>
</svg>
