<!-- Generated by IcoMoon.io -->
<svg version="1.1" xmlns="http://www.w3.org/2000/svg" width="32" height="32" viewBox="0 0 32 32">
<path d="M6.417 17.655l10.758 10.758q0.496 0.496 0.488 1.158t-0.505 1.159q-0.496 0.48-1.158 0.488t-1.158-0.488l-13.571-13.571q-0.265-0.265-0.373-0.546t-0.107-0.612 0.107-0.612q0.108-0.281 0.373-0.546l13.571-13.571q0.479-0.48 1.15-0.48t1.167 0.48q0.496 0.496 0.496 1.167t-0.496 1.167l-10.741 10.741h23.816q0.711 0 1.183 0.472t0.472 1.183-0.472 1.183-1.183 0.472h-23.816z"></path>
</svg>
