<!-- Generated by IcoMoon.io -->
<svg version="1.1" xmlns="http://www.w3.org/2000/svg" width="32" height="32" viewBox="0 0 32 32">
<path d="M21.242 19.013l1.181-4.274q0.106-0.398-0.033-0.796t-0.498-0.637l-3.65-2.508q-0.265-0.212-0.586-0.089t-0.422 0.474l-1.181 4.273q-0.106 0.398 0.033 0.796t0.498 0.637l3.649 2.508q0.265 0.213 0.586 0.090t0.422-0.474zM4.189 28.116l-2.19-0.929q-1.265-0.545-1.714-1.865t0.215-2.607l3.689-8.573v13.974zM10.081 30.81q-1.336 0-2.287-0.956t-0.951-2.296v-11.479l5.056 13.669q0.119 0.305 0.239 0.551t0.345 0.511h-2.402zM17.672 30.081q-1.022 0.358-2.042-0.098t-1.382-1.468l-7.445-20.344q-0.358-1.022 0.105-2.034t1.488-1.377l12.461-4.512q1.022-0.358 2.050 0.093t1.387 1.473l7.485 20.318q0.358 1.022-0.098 2.034t-1.467 1.377l-12.541 4.539zM16.77 27.572l12.448-4.539-7.445-20.278-12.435 4.512 7.431 20.305z"></path>
</svg>
