<!-- Generated by IcoMoon.io -->
<svg version="1.1" xmlns="http://www.w3.org/2000/svg" width="32" height="32" viewBox="0 0 32 32">
<path d="M3.066 28.417q-1.048 0-1.817-0.77t-0.769-1.817v-19.659q0-1.048 0.769-1.817t1.817-0.769h25.868q1.048 0 1.817 0.769t0.77 1.817v19.659q0 1.048-0.77 1.817t-1.817 0.77h-25.868zM3.066 25.83h25.868v-19.659h-25.868v19.659zM14.732 21.044l-3.027-4.178q-0.207-0.258-0.517-0.272t-0.517 0.246l-3.285 4.333q-0.259 0.336-0.065 0.686t0.582 0.349h16.219q0.375 0 0.563-0.349t-0.045-0.686l-4.45-6.014q-0.207-0.258-0.517-0.258t-0.517 0.258l-4.423 5.885zM3.066 25.83v0z"></path>
</svg>
