<!-- Generated by IcoMoon.io -->
<svg version="1.1" xmlns="http://www.w3.org/2000/svg" width="32" height="32" viewBox="0 0 32 32">
<path d="M3.103 26.833q-1.045 0-1.812-0.78t-0.767-1.799v-16.508q0-1.045 0.767-1.812t1.812-0.767h25.793q1.045 0 1.812 0.767t0.767 1.812v16.508q0 1.019-0.767 1.799t-1.812 0.78h-25.793zM3.103 24.254h25.793v-16.508h-25.793v16.508zM10.583 22.062h10.833q0.548 0 0.919-0.372t0.371-0.922-0.371-0.918-0.919-0.367h-10.833q-0.548 0-0.919 0.372t-0.371 0.922 0.371 0.918 0.919 0.367zM3.103 24.254v0zM6.538 12.518q0.55 0 0.918-0.372t0.367-0.922-0.372-0.918-0.922-0.367-0.918 0.372-0.367 0.922 0.372 0.918 0.922 0.367zM11.285 12.518q0.55 0 0.917-0.372t0.367-0.922-0.372-0.918-0.922-0.367-0.917 0.372-0.367 0.922 0.372 0.918 0.922 0.367zM16.005 12.518q0.55 0 0.917-0.372t0.367-0.922-0.372-0.918-0.922-0.367-0.917 0.372-0.367 0.922 0.372 0.918 0.922 0.367zM20.751 12.518q0.55 0 0.918-0.372t0.367-0.922-0.372-0.918-0.922-0.367-0.918 0.372-0.367 0.922 0.372 0.918 0.922 0.367zM25.471 12.518q0.55 0 0.918-0.372t0.367-0.922-0.372-0.918-0.922-0.367-0.918 0.372-0.367 0.922 0.372 0.918 0.922 0.367zM6.538 17.29q0.55 0 0.918-0.372t0.367-0.922-0.372-0.917-0.922-0.367-0.918 0.372-0.367 0.922 0.372 0.917 0.922 0.367zM11.285 17.29q0.55 0 0.917-0.372t0.367-0.922-0.372-0.917-0.922-0.367-0.917 0.372-0.367 0.922 0.372 0.917 0.922 0.367zM16.005 17.29q0.55 0 0.917-0.372t0.367-0.922-0.372-0.917-0.922-0.367-0.917 0.372-0.367 0.922 0.372 0.917 0.922 0.367zM20.751 17.29q0.55 0 0.918-0.372t0.367-0.922-0.372-0.917-0.922-0.367-0.918 0.372-0.367 0.922 0.372 0.917 0.922 0.367zM25.471 17.29q0.55 0 0.918-0.372t0.367-0.922-0.372-0.917-0.922-0.367-0.918 0.372-0.367 0.922 0.372 0.917 0.922 0.367z"></path>
</svg>
