<!-- Generated by IcoMoon.io -->
<svg version="1.1" xmlns="http://www.w3.org/2000/svg" width="32" height="32" viewBox="0 0 32 32">
<path d="M32 20.364h-2.909v2.909h2.909v-2.909zM32 14.545h-2.909v2.909h2.909v-2.909zM32 26.182h-2.909v2.909c1.6 0 2.909-1.309 2.909-2.909zM20.364 2.909h-2.909v2.909h2.909v-2.909zM32 8.727h-2.909v2.909h2.909v-2.909zM29.091 2.909v2.909h2.909c0-1.6-1.309-2.909-2.909-2.909zM2.909 29.091h11.636v-8.727h-14.545v5.818c0 1.6 1.309 2.909 2.909 2.909zM2.909 8.727h-2.909v2.909h2.909v-2.909zM20.364 26.182h-2.909v2.909h2.909v-2.909zM26.182 2.909h-2.909v2.909h2.909v-2.909zM26.182 26.182h-2.909v2.909h2.909v-2.909zM2.909 2.909c-1.6 0-2.909 1.309-2.909 2.909h2.909v-2.909zM2.909 14.545h-2.909v2.909h2.909v-2.909zM14.545 2.909h-2.909v2.909h2.909v-2.909zM8.727 2.909h-2.909v2.909h2.909v-2.909z"></path>
</svg>
