<!-- Generated by IcoMoon.io -->
<svg version="1.1" xmlns="http://www.w3.org/2000/svg" width="32" height="32" viewBox="0 0 32 32">
<path d="M17.037 31.917q-3.232 0-5.993-1.598t-4.474-4.335l-5.438-8.634q-0.205-0.338-0.163-0.717t0.332-0.669l0.072-0.072q0.627-0.639 1.513-0.712t1.61 0.446l4.269 3.087v-14.53q0-0.494 0.344-0.85t0.862-0.356q0.495 0 0.85 0.356t0.356 0.85v16.857q0 0.748-0.657 1.079t-1.26-0.103l-4.184-3.051 3.509 5.619q1.338 2.279 3.581 3.599t4.872 1.32q3.967 0 6.77-2.755t2.803-6.698v-14.422q0-0.494 0.344-0.85t0.862-0.356q0.494 0 0.85 0.356t0.356 0.85v14.422q0 4.956-3.503 8.41t-8.483 3.455zM15.928 0.083q0.518 0 0.862 0.356t0.344 0.85v13.264q0 0.518-0.344 0.862t-0.862 0.344-0.862-0.344-0.344-0.862v-13.264q0-0.494 0.356-0.85t0.85-0.356zM21.885 1.53q0.494 0 0.85 0.356t0.356 0.85v11.817q0 0.518-0.344 0.862t-0.862 0.344-0.862-0.344-0.344-0.862v-11.817q0-0.494 0.344-0.85t0.862-0.356z"></path>
</svg>
