<!-- Generated by IcoMoon.io -->
<svg version="1.1" xmlns="http://www.w3.org/2000/svg" width="32" height="32" viewBox="0 0 32 32">
<path d="M15.996 31.667q-1.187 0-2.027-0.845t-0.84-2.032 0.845-2.027 2.032-0.84 2.027 0.845 0.84 2.032-0.845 2.027-2.032 0.84zM15.996 18.873q-1.187 0-2.027-0.845t-0.84-2.032 0.845-2.027 2.032-0.84 2.027 0.845 0.84 2.032-0.845 2.027-2.032 0.84zM15.996 6.077q-1.187 0-2.027-0.845t-0.84-2.032 0.845-2.027 2.032-0.84 2.027 0.845 0.84 2.032-0.845 2.027-2.032 0.84z"></path>
</svg>
