<!-- Generated by IcoMoon.io -->
<svg version="1.1" xmlns="http://www.w3.org/2000/svg" width="32" height="32" viewBox="0 0 32 32">
<path d="M16 0.896c-8.557 0-15.487 6.934-15.487 15.487 0 6.844 4.437 12.648 10.589 14.694 0.774 0.146 1.058-0.333 1.058-0.744 0-0.368-0.013-1.343-0.019-2.633-4.308 0.934-5.216-2.078-5.216-2.078-0.705-1.788-1.723-2.265-1.723-2.265-1.403-0.96 0.108-0.941 0.108-0.941 1.556 0.108 2.372 1.595 2.372 1.595 1.381 2.369 3.625 1.684 4.511 1.288 0.139-1.002 0.538-1.684 0.981-2.071-3.439-0.387-7.054-1.719-7.054-7.654 0-1.691 0.6-3.071 1.594-4.155-0.174-0.391-0.697-1.966 0.136-4.099 0 0 1.297-0.415 4.259 1.587 1.239-0.345 2.555-0.515 3.872-0.523 1.316 0.008 2.633 0.178 3.872 0.523 2.943-2.003 4.24-1.587 4.24-1.587 0.832 2.133 0.31 3.708 0.155 4.099 0.987 1.084 1.587 2.465 1.587 4.155 0 5.95-3.62 7.26-7.066 7.64 0.542 0.465 1.045 1.414 1.045 2.865 0 2.072-0.019 3.737-0.019 4.241 0 0.407 0.271 0.89 1.065 0.736 6.196-2.032 10.629-7.84 10.629-14.673 0-8.553-6.934-15.487-15.487-15.487z"></path>
</svg>
