<!-- Generated by IcoMoon.io -->
<svg version="1.1" xmlns="http://www.w3.org/2000/svg" width="32" height="32" viewBox="0 0 32 32">
<path d="M16 31.5q-6.502 0-11.001-2.002t-4.499-4.887v-17.222q0-2.842 4.542-4.865t10.958-2.023 10.958 2.023 4.542 4.865v17.222q0 2.885-4.499 4.887t-11.001 2.002zM16 10.618q3.746 0 7.635-1.127t4.794-2.49q-0.933-1.335-4.815-2.483t-7.614-1.148q-3.832 0-7.642 1.112t-4.815 2.519q1.004 1.435 4.786 2.526t7.671 1.091zM15.971 19.617q1.808 0 3.573-0.186t3.38-0.553 3.071-0.897 2.633-1.191v-6.171q-1.205 0.66-2.662 1.191t-3.086 0.897-3.365 0.567-3.545 0.201-3.588-0.201-3.394-0.567-3.050-0.897q-1.435-0.531-2.569-1.191v6.171q1.134 0.661 2.554 1.191t3.036 0.897 3.394 0.553 3.617 0.186zM16 28.629q2.038 0 4.184-0.345t3.939-0.911 3.028-1.263q1.234-0.696 1.478-1.428v-4.995q-1.177 0.66-2.633 1.177t-3.071 0.883-3.365 0.552-3.588 0.187q-1.837 0-3.617-0.187t-3.394-0.552-3.036-0.883-2.554-1.177v5.038q0.215 0.703 1.428 1.406t3.021 1.256 3.961 0.897 4.22 0.345z"></path>
</svg>
