<!-- Generated by IcoMoon.io -->
<svg version="1.1" xmlns="http://www.w3.org/2000/svg" width="32" height="32" viewBox="0 0 32 32">
<path d="M6.548 32q-1.222 0-2.092-0.87t-0.87-2.093v-24.592h-0.326q-0.629 0-1.056-0.428t-0.426-1.059 0.426-1.054 1.056-0.422h7.052q0-0.637 0.426-1.059t1.056-0.422h8.415q0.63 0 1.056 0.426t0.426 1.056h7.052q0.63 0 1.056 0.428t0.426 1.059-0.426 1.054-1.056 0.422h-0.326v24.592q0 1.222-0.87 2.093t-2.092 0.87h-18.904zM25.452 4.444h-18.904v24.592h18.904v-24.592zM12.361 25.304q0.632 0 1.054-0.426t0.422-1.056v-14.192q0-0.63-0.427-1.056t-1.060-0.426-1.054 0.426-0.422 1.056v14.192q0 0.63 0.427 1.056t1.060 0.426zM19.65 25.304q0.632 0 1.054-0.426t0.422-1.056v-14.192q0-0.63-0.427-1.056t-1.060-0.426-1.054 0.426-0.422 1.056v14.192q0 0.63 0.427 1.056t1.060 0.426zM6.548 4.444v0z"></path>
</svg>
