<!-- Generated by IcoMoon.io -->
<svg version="1.1" xmlns="http://www.w3.org/2000/svg" width="32" height="32" viewBox="0 0 32 32">
<path d="M10.986 27.983h-4.473q-1.030 0-1.763-0.733t-0.733-1.763v-4.458l-3.258-3.281q-0.362-0.374-0.537-0.826t-0.175-0.918 0.175-0.922 0.537-0.83l3.258-3.281v-4.458q0-1.030 0.733-1.763t1.763-0.733h4.458l3.281-3.258q0.374-0.362 0.843-0.537t0.935-0.175 0.918 0.192 0.825 0.544l3.246 3.233h4.469q1.030 0 1.763 0.733t0.733 1.763v4.458l3.258 3.281q0.362 0.374 0.537 0.826t0.175 0.918-0.175 0.922-0.537 0.83l-3.258 3.281v4.458q0 1.030-0.733 1.763t-1.763 0.733h-4.469l-3.246 3.208q-0.373 0.34-0.825 0.526t-0.918 0.186-0.922-0.186-0.831-0.526l-3.291-3.208zM12.006 25.487l4.020 3.92 3.942-3.92h5.519v-5.517l3.97-3.97-3.97-3.97v-5.517h-5.517l-3.944-3.97-3.994 3.97h-5.517v5.517l-3.97 3.97 3.97 3.97v5.517h5.492zM16.025 23.34q3.058 0 5.211-2.155t2.153-5.211-2.154-5.21-5.21-2.153v14.729z"></path>
</svg>
