<!-- Generated by IcoMoon.io -->
<svg version="1.1" xmlns="http://www.w3.org/2000/svg" width="32" height="32" viewBox="0 0 32 32">
<path d="M7.738 11.576l6.622-10.652q0.219-0.329 0.507-0.487t0.645-0.158 0.644 0.158 0.508 0.487l6.622 10.652q0.219 0.357 0.206 0.727t-0.192 0.685-0.483 0.501-0.71 0.185h-13.189q-0.409 0-0.716-0.188t-0.477-0.497q-0.178-0.315-0.192-0.685t0.206-0.727zM24.697 31.935q-3.057 0-5.148-2.091t-2.091-5.148 2.091-5.148 5.148-2.091 5.148 2.091 2.091 5.148-2.091 5.148-5.148 2.091zM0.677 29.604v-9.98q0-0.583 0.394-0.977t0.977-0.394h9.981q0.583 0 0.977 0.394t0.394 0.977v9.98q0 0.583-0.394 0.977t-0.977 0.394h-9.981q-0.582 0-0.977-0.394t-0.394-0.977zM24.699 29.193q1.889 0 3.192-1.304t1.302-3.195-1.304-3.192-3.195-1.302-3.192 1.304-1.302 3.195 1.304 3.192 3.195 1.302zM3.419 28.234h7.239v-7.239h-7.239v7.239zM11.371 10.932h8.28l-4.14-6.69-4.141 6.69z"></path>
</svg>
