<!-- Generated by IcoMoon.io -->
<svg version="1.1" xmlns="http://www.w3.org/2000/svg" width="32" height="32" viewBox="0 0 32 32">
<path d="M9.933 23.239l-1.547 6.082q-0.105 0.496-0.481 0.795t-0.886 0.301q-0.706 0-1.157-0.555t-0.256-1.247l1.352-5.376h-5.271q-0.721 0-1.186-0.578t-0.27-1.284q0.105-0.51 0.51-0.826t0.946-0.315h6.022l2.132-8.47h-5.271q-0.721 0-1.186-0.578t-0.27-1.284q0.105-0.511 0.51-0.826t0.946-0.315h6.022l1.517-6.082q0.105-0.496 0.48-0.795t0.886-0.301q0.706 0 1.141 0.541t0.27 1.231l-1.321 5.406h8.5l1.516-6.082q0.105-0.496 0.481-0.795t0.886-0.301q0.705 0 1.141 0.541t0.27 1.231l-1.321 5.406h5.271q0.721 0 1.186 0.578t0.27 1.284q-0.105 0.51-0.51 0.826t-0.946 0.315h-6.022l-2.132 8.47h5.271q0.721 0 1.186 0.578t0.27 1.284q-0.105 0.511-0.51 0.826t-0.946 0.315h-6.022l-1.547 6.082q-0.105 0.496-0.481 0.795t-0.886 0.301q-0.705 0-1.156-0.555t-0.256-1.247l1.352-5.376h-8.5zM10.684 20.235h8.5l2.132-8.47h-8.5l-2.132 8.47z"></path>
</svg>
