<!-- Generated by IcoMoon.io -->
<svg version="1.1" xmlns="http://www.w3.org/2000/svg" width="32" height="32" viewBox="0 0 32 32">
<path d="M26.069 11.244h-13.903q-3.352 0-5.788 2.196t-2.435 5.466 2.435 5.465q2.436 2.196 5.788 2.196h13.275q0.71 0 1.18 0.47t0.47 1.181-0.47 1.18-1.18 0.47h-13.243q-4.738 0-8.149-3.154t-3.409-7.81 3.409-7.811q3.41-3.154 8.149-3.154h13.87l-4.326-4.326q-0.479-0.479-0.479-1.156t0.479-1.156 1.156-0.479 1.156 0.479l7.133 7.133q0.264 0.265 0.372 0.545t0.107 0.611q0 0.33-0.107 0.611t-0.372 0.545l-7.133 7.133q-0.479 0.479-1.156 0.479t-1.156-0.479-0.479-1.156 0.479-1.156l4.326-4.326z"></path>
</svg>
