<!-- Generated by IcoMoon.io -->
<svg version="1.1" xmlns="http://www.w3.org/2000/svg" width="32" height="32" viewBox="0 0 32 32">
<path d="M16.003 21.622q2.649 0 4.501-1.855t1.852-4.504-1.855-4.501-4.504-1.852-4.501 1.855-1.852 4.504 1.855 4.501 4.504 1.852zM15.994 19.325q-1.693 0-2.872-1.185t-1.18-2.878 1.185-2.872 2.878-1.18 2.872 1.185 1.18 2.878-1.185 2.872-2.878 1.18zM16 26.267q-4.938 0-8.99-2.738t-6.472-7.064q-0.159-0.284-0.238-0.584t-0.079-0.616 0.079-0.614 0.238-0.582q2.42-4.327 6.472-7.064t8.99-2.738 8.99 2.738 6.472 7.064q0.159 0.284 0.238 0.584t0.079 0.616-0.079 0.614-0.238 0.582q-2.42 4.327-6.472 7.064t-8.99 2.738zM15.996 23.822q4.343 0 7.979-2.328t5.543-6.227q-1.907-3.899-5.539-6.227t-7.975-2.328-7.979 2.328-5.567 6.227q1.931 3.899 5.563 6.227t7.975 2.328z"></path>
</svg>
