<!-- Generated by IcoMoon.io -->
<svg version="1.1" xmlns="http://www.w3.org/2000/svg" width="32" height="32" viewBox="0 0 32 32">
<path d="M2.048 26.25q-0.605 0-1.014-0.411t-0.409-1.018 0.409-1.013q0.41-0.406 1.014-0.406h27.903q0.605 0 1.014 0.411t0.409 1.018-0.409 1.013q-0.41 0.406-1.014 0.406h-27.903zM2.048 17.423q-0.605 0-1.014-0.41t-0.409-1.018 0.409-1.013q0.41-0.406 1.014-0.406h27.903q0.605 0 1.014 0.41t0.409 1.018-0.409 1.013q-0.41 0.406-1.014 0.406h-27.903zM2.048 8.597q-0.605 0-1.014-0.411t-0.409-1.018 0.409-1.013q0.41-0.406 1.014-0.406h27.903q0.605 0 1.014 0.411t0.409 1.018-0.409 1.013q-0.41 0.406-1.014 0.406h-27.903z"></path>
</svg>
