<!-- Generated by IcoMoon.io -->
<svg version="1.1" xmlns="http://www.w3.org/2000/svg" width="32" height="32" viewBox="0 0 32 32">
<path d="M14.103 2.962v11.447h-10.941v-11.447h-2.861v25.754h2.861v-11.447h10.941v11.447h2.861v-25.754z"></path>
<path d="M31.374 16.508h-2.611c-0.175-1.293-1.271-2.279-2.597-2.279-0.085 0-0.17 0.004-0.253 0.012l0.011-0.001c-0.003 0-0.006 0-0.010 0-1.129 0-2.109 0.643-2.592 1.582l-0.008 0.017c-0.595 0.998-0.946 2.201-0.946 3.486 0 0.103 0.002 0.205 0.007 0.307v-0.015 0.206h0.115c0.424-0.645 1.006-1.154 1.692-1.479l0.026-0.011c0.603-0.29 1.313-0.46 2.061-0.46 0.048 0 0.097 0.001 0.145 0.002h-0.007c0.069-0.003 0.15-0.005 0.232-0.005 1.422 0 2.704 0.592 3.616 1.543l0.002 0.002c0.897 0.986 1.446 2.303 1.446 3.748 0 0.076-0.002 0.15-0.005 0.225v-0.011c0.001 0.044 0.002 0.096 0.002 0.148 0 1.535-0.642 2.919-1.671 3.901l-0.002 0.002c-1.028 0.992-2.429 1.604-3.973 1.604-0.045 0-0.089-0.001-0.134-0.002h0.007c-0.086 0.005-0.188 0.008-0.289 0.008-1.763 0-3.327-0.853-4.303-2.168l-0.010-0.015c-0.989-1.489-1.579-3.319-1.579-5.287 0-0.204 0.006-0.406 0.019-0.607l-0.001 0.027c-0.009-0.163-0.013-0.353-0.013-0.546 0-2.198 0.627-4.249 1.712-5.983l-0.027 0.047c0.921-1.494 2.55-2.475 4.407-2.475 0.036 0 0.074 0 0.11 0.001h-0.006q4.812 0 5.428 4.467zM23.492 20.967c-0.53 0.606-0.854 1.406-0.854 2.281 0 0.076 0.002 0.151 0.007 0.226l-0.001-0.010c-0.003 0.053-0.005 0.115-0.005 0.178 0 0.88 0.341 1.68 0.899 2.275l-0.002-0.002c0.558 0.553 1.326 0.895 2.174 0.895 0.040 0 0.081-0.001 0.121-0.002h-0.006c0.037 0.002 0.082 0.003 0.127 0.003 0.864 0 1.643-0.367 2.19-0.954l0.002-0.002c0.556-0.616 0.897-1.435 0.897-2.335 0-0.048-0.001-0.096-0.003-0.143v0.007c0.002-0.044 0.003-0.095 0.003-0.146 0-0.867-0.323-1.659-0.855-2.263l0.003 0.004c-0.563-0.568-1.343-0.919-2.206-0.919-0.054 0-0.108 0.001-0.161 0.004h0.008c-0.057-0.004-0.124-0.006-0.191-0.006-0.844 0-1.604 0.353-2.143 0.92l-0.001 0.001z"></path>
</svg>
