<!-- Generated by IcoMoon.io -->
<svg version="1.1" xmlns="http://www.w3.org/2000/svg" width="32" height="32" viewBox="0 0 32 32">
<path d="M0.143 25.984v-19.969q0-0.979 0.686-1.664t1.666-0.686 1.663 0.686q0.683 0.685 0.683 1.664v19.969q0 0.979-0.686 1.664t-1.667 0.686-1.663-0.686q-0.683-0.685-0.683-1.664zM9.539 28.333q-0.979 0-1.664-0.686t-0.686-1.664v-19.969q0-0.979 0.686-1.664t1.664-0.686h12.921q0.979 0 1.664 0.686t0.686 1.664v19.969q0 0.979-0.686 1.664t-1.664 0.686h-12.921zM27.159 25.984v-19.969q0-0.979 0.686-1.664t1.667-0.686 1.663 0.686q0.683 0.685 0.683 1.664v19.969q0 0.979-0.686 1.664t-1.666 0.686-1.663-0.686q-0.683-0.685-0.683-1.664zM10.127 25.397h11.746v-18.793h-11.746v18.793z"></path>
</svg>
