<!-- Generated by IcoMoon.io -->
<svg version="1.1" xmlns="http://www.w3.org/2000/svg" width="32" height="32" viewBox="0 0 32 32">
<path d="M20.475 10.793q1.061 1.061 1.555 2.548t0.226 2.988q0 0.5-0.341 0.835t-0.841 0.335-0.836-0.335-0.335-0.835q0.329-1.146 0.024-2.183t-1.048-1.756q-0.72-0.744-1.768-1.048t-2.183 0.024q-0.5 0-0.836-0.341t-0.335-0.841 0.335-0.835 0.836-0.335q1.488-0.268 2.987 0.226t2.561 1.555zM16.244 6.732q-1.012 0-2.012 0.091t-1.975 0.384q-0.5 0.134-0.957-0.086t-0.64-0.683 0.043-0.927 0.689-0.597q1.134-0.329 2.323-0.476t2.408-0.146q5.012 0 9.14 2.719t6.323 7.207q0.122 0.244 0.195 0.506t0.073 0.542-0.055 0.542-0.177 0.506q-0.78 1.683-1.884 3.122t-2.518 2.646q-0.366 0.329-0.829 0.244t-0.756-0.476-0.238-0.86 0.421-0.799q1.171-1.012 2.122-2.232t1.549-2.695q-1.805-3.89-5.372-6.213t-7.871-2.323zM16 26.243q-4.951 0-9.024-2.737t-6.463-7.103q-0.159-0.268-0.226-0.542t-0.067-0.591 0.073-0.585 0.207-0.549q0.829-1.658 1.921-3.14t2.482-2.701l-3.573-3.585q-0.354-0.366-0.336-0.86t0.348-0.847q0.354-0.354 0.866-0.354t0.866 0.354l25.754 25.754q0.329 0.329 0.335 0.811t-0.335 0.848q-0.329 0.378-0.841 0.378t-0.866-0.353l-5.268-5.171q-1.427 0.5-2.89 0.738t-2.963 0.238zM6.586 10q-1.354 1.024-2.402 2.353t-1.695 2.915q1.878 3.963 5.579 6.249t8.127 2.286q0.951 0 1.89-0.067t1.817-0.421l-2-2.024q-0.476 0.183-0.951 0.25t-0.951 0.067q-2.646 0-4.494-1.847t-1.847-4.494q0-0.476 0.079-0.951t0.238-0.951l-3.39-3.366z"></path>
</svg>
