<!-- Generated by IcoMoon.io -->
<svg version="1.1" xmlns="http://www.w3.org/2000/svg" width="32" height="32" viewBox="0 0 32 32">
<path d="M6.131 21.883q0.571-0.351 1.221-0.519t1.377-0.169h1.039v-18.18h-1.039q-1.082 0-1.84 0.757t-0.757 1.84v16.272zM12.364 21.194h13.505v-18.18h-13.505v18.18zM6.131 21.883v0zM8.728 31.583q-2.152 0-3.673-1.521t-1.521-3.673v-20.778q0-2.152 1.521-3.673t3.673-1.521h17.142q1.071 0 1.835 0.763t0.763 1.835v19.882q0 0.341-0.214 0.619t-0.669 0.485q-0.675 0.299-1.065 0.929t-0.39 1.454 0.388 1.456 1.066 0.913q0.416 0.182 0.649 0.552t0.234 0.838v0.13q0 0.544-0.373 0.928t-0.925 0.384h-18.441zM8.716 28.986h15.478q-0.312-0.571-0.487-1.227t-0.175-1.37q0-0.727 0.169-1.377t0.519-1.221h-15.503q-1.081 0-1.834 0.757t-0.753 1.84q0 1.091 0.753 1.844t1.832 0.753z"></path>
</svg>
