<!-- Generated by IcoMoon.io -->
<svg version="1.1" xmlns="http://www.w3.org/2000/svg" width="32" height="32" viewBox="0 0 32 32">
<path d="M15.994 20.747q1.976 0 3.364-1.383t1.389-3.359-1.383-3.364-3.359-1.389-3.364 1.383-1.389 3.359 1.383 3.364 3.359 1.389zM16 23.121q-2.955 0-5.038-2.083t-2.083-5.038 2.083-5.038 5.038-2.083 5.038 2.083 2.083 5.038-2.083 5.038-5.038 2.083zM1.52 17.187q-0.504 0-0.846-0.342t-0.341-0.849 0.341-0.844 0.846-0.338h3.323q0.504 0 0.846 0.342t0.341 0.849-0.341 0.844-0.846 0.338h-3.323zM27.156 17.187q-0.504 0-0.846-0.342t-0.341-0.849 0.341-0.844 0.846-0.338h3.323q0.504 0 0.846 0.342t0.341 0.849-0.341 0.844-0.846 0.338h-3.323zM15.996 6.030q-0.506 0-0.844-0.341t-0.338-0.846v-3.323q0-0.504 0.342-0.846t0.849-0.341 0.844 0.341 0.338 0.846v3.323q0 0.504-0.342 0.846t-0.849 0.341zM15.996 31.667q-0.506 0-0.844-0.341t-0.338-0.846v-3.323q0-0.504 0.342-0.846t0.849-0.341 0.844 0.341 0.338 0.846v3.323q0 0.504-0.342 0.846t-0.849 0.341zM7.288 8.95l-1.863-1.828q-0.356-0.344-0.341-0.845t0.339-0.854q0.354-0.354 0.854-0.354t0.845 0.356l1.828 1.863q0.321 0.356 0.321 0.831t-0.32 0.819-0.813 0.338-0.849-0.327zM24.878 26.575l-1.828-1.863q-0.32-0.356-0.32-0.846t0.332-0.816q0.333-0.356 0.813-0.35t0.837 0.35l1.863 1.828q0.356 0.344 0.341 0.845t-0.339 0.855q-0.354 0.354-0.855 0.354t-0.845-0.356zM23.050 8.95q-0.356-0.344-0.35-0.825t0.35-0.837l1.828-1.863q0.344-0.356 0.845-0.341t0.855 0.339q0.354 0.354 0.354 0.854t-0.356 0.845l-1.863 1.828q-0.333 0.321-0.816 0.321t-0.846-0.32zM5.423 26.577q-0.354-0.354-0.354-0.855t0.356-0.845l1.863-1.828q0.351-0.344 0.835-0.344t0.818 0.344q0.365 0.344 0.359 0.825t-0.35 0.837l-1.828 1.863q-0.344 0.356-0.845 0.341t-0.854-0.339z"></path>
</svg>
