<!-- Generated by IcoMoon.io -->
<svg version="1.1" xmlns="http://www.w3.org/2000/svg" width="32" height="32" viewBox="0 0 32 32">
<path d="M3.427 30.167q-1.388 0-2.376-0.988t-0.988-2.376 0.988-2.376 2.376-0.988h25.146q1.388 0 2.376 0.988t0.988 2.376-0.988 2.376-2.376 0.988h-25.146zM3.427 8.563q-1.388 0-2.376-0.988t-0.988-2.376 0.988-2.376 2.376-0.988h25.146q1.388 0 2.376 0.988t0.988 2.376-0.988 2.376-2.376 0.988h-25.146zM3.427 19.365q-1.388 0-2.376-0.988t-0.988-2.376 0.988-2.376 2.376-0.988h25.146q1.388 0 2.376 0.988t0.988 2.376-0.988 2.376-2.376 0.988h-25.146zM4.661 6.85q0.7 0 1.179-0.473t0.48-1.173-0.473-1.179-1.173-0.48-1.179 0.473-0.48 1.173 0.473 1.179 1.173 0.48zM4.661 17.653q0.7 0 1.179-0.473t0.48-1.173-0.473-1.179-1.173-0.48-1.179 0.473-0.48 1.173 0.473 1.179 1.173 0.48zM4.661 28.455q0.7 0 1.179-0.473t0.48-1.173-0.473-1.179-1.173-0.48-1.179 0.473-0.48 1.173 0.473 1.179 1.173 0.48z"></path>
</svg>
