<!-- Generated by IcoMoon.io -->
<svg version="1.1" xmlns="http://www.w3.org/2000/svg" width="32" height="32" viewBox="0 0 32 32">
<path d="M6.814 26.666h18.37q0.63 0 1.056-0.428t0.426-1.059-0.426-1.054-1.056-0.422h-18.37q-0.63 0-1.056 0.428t-0.426 1.059 0.426 1.054 1.056 0.422zM2.963 32q-1.2 0-2.082-0.881t-0.881-2.082v-26.074q0-1.2 0.881-2.082t2.082-0.881h26.074q1.2 0 2.082 0.881t0.881 2.082v26.074q0 1.2-0.881 2.082t-2.082 0.881h-26.074zM2.963 29.037h26.074v-26.074h-26.074v26.074zM2.963 2.963v0z"></path>
</svg>
