<!-- Generated by IcoMoon.io -->
<svg version="1.1" xmlns="http://www.w3.org/2000/svg" width="32" height="32" viewBox="0 0 32 32">
<path d="M16 18.76l-12.141 12.141q-0.572 0.572-1.38 0.572t-1.379-0.572-0.572-1.379q0-0.808 0.572-1.38l12.141-12.141-12.141-12.141q-0.572-0.572-0.572-1.38t0.572-1.379 1.379-0.572q0.808 0 1.38 0.572l12.141 12.141 12.141-12.141q0.572-0.572 1.38-0.572t1.379 0.572 0.572 1.379q0 0.808-0.572 1.38l-12.141 12.141 12.141 12.141q0.572 0.572 0.572 1.38t-0.572 1.379-1.379 0.572q-0.808 0-1.38-0.572l-12.141-12.141z"></path>
</svg>
