<!-- Generated by IcoMoon.io -->
<svg version="1.1" xmlns="http://www.w3.org/2000/svg" width="32" height="32" viewBox="0 0 32 32">
<path d="M8.899 13.343q-0.633 0-1.061-0.429t-0.428-1.065q0-0.635 0.428-1.059t1.061-0.424h5.986q0.633 0 1.061 0.429t0.428 1.065q0 0.635-0.428 1.059t-1.061 0.424h-5.986zM11.966 23.379q-4.844 0-8.2-3.358t-3.355-8.137 3.358-8.137 8.152-3.358 8.137 3.358q3.343 3.358 3.343 8.142 0 1.931-0.625 3.703t-1.817 3.261l10.542 10.483q0.432 0.418 0.432 1.066t-0.432 1.078q-0.432 0.432-1.079 0.432t-1.066-0.432l-10.512-10.512q-1.34 1.131-3.111 1.772t-3.768 0.64zM11.936 20.401q3.537 0 6.011-2.494t2.476-6.023-2.476-6.023q-2.475-2.494-6.011-2.494-3.561 0-6.054 2.494t-2.493 6.023 2.493 6.023 6.054 2.494z"></path>
</svg>
