<!-- Generated by IcoMoon.io -->
<svg version="1.1" xmlns="http://www.w3.org/2000/svg" width="32" height="32" viewBox="0 0 32 32">
<path d="M3.050 31.786q-0.752 0-1.251-0.498t-0.498-1.251 0.498-1.252 1.251-0.498h25.901q0.752 0 1.251 0.498t0.498 1.252q0 0.752-0.498 1.251t-1.251 0.498h-25.901zM6.095 21.321l7.788-20.020q0.175-0.472 0.586-0.744t0.902-0.272h1.26q0.49 0 0.902 0.272t0.586 0.744l7.788 20.073q0.28 0.752-0.14 1.382t-1.225 0.63q-0.473 0-0.866-0.272t-0.569-0.744l-1.89-5.111h-10.395l-1.925 5.163q-0.175 0.473-0.543 0.717-0.368 0.245-0.84 0.245-0.822 0-1.268-0.656t-0.149-1.408zM11.8 14.566h8.4l-4.095-10.956h-0.21l-4.095 10.956z"></path>
</svg>
