<!-- Generated by IcoMoon.io -->
<svg version="1.1" xmlns="http://www.w3.org/2000/svg" width="32" height="32" viewBox="0 0 32 32">
<path d="M3.164 28.836h2.115l19.473-19.444-2.115-2.115-19.473 19.444v2.115zM1.705 31.753q-0.627 0-1.043-0.416t-0.416-1.043v-3.545q0-0.584 0.233-1.131t0.628-0.941l23.616-23.571q0.409-0.394 0.941-0.612t1.116-0.219q0.555 0 1.094 0.219t0.963 0.627l2.086 2.101q0.437 0.423 0.635 0.963t0.197 1.080q0 0.554-0.211 1.101t-0.62 0.956l-23.601 23.571q-0.394 0.394-0.941 0.628t-1.131 0.233h-3.545zM28.807 5.235v0zM23.687 8.342l-1.050-1.065 2.115 2.115-1.065-1.050z"></path>
</svg>
