<!-- Generated by IcoMoon.io -->
<svg version="1.1" xmlns="http://www.w3.org/2000/svg" width="32" height="32" viewBox="0 0 32 32">
<path d="M2.938 31.833q-0.515 0-0.851-0.336t-0.336-0.851 0.336-0.851 0.851-0.336h2.771v-1.188h-1.188q-0.515 0-0.851-0.336t-0.336-0.851 0.336-0.851 0.851-0.336h1.188v-1.188h-2.771q-0.515 0-0.851-0.336t-0.336-0.851 0.336-0.851 0.851-0.336h3.563q0.673 0 1.128 0.455t0.455 1.128v1.583q0 0.673-0.455 1.128t-1.128 0.455q0.673 0 1.128 0.455t0.455 1.128v1.583q0 0.673-0.455 1.128t-1.128 0.455h-3.563zM2.753 20.75q-0.409 0-0.706-0.297t-0.297-0.706v-3.351q0-0.673 0.455-1.128t1.128-0.455h2.375v-1.188h-2.771q-0.515 0-0.851-0.336t-0.336-0.851 0.336-0.851 0.851-0.336h3.563q0.673 0 1.128 0.455t0.455 1.128v2.771q0 0.673-0.455 1.128t-1.128 0.455h-2.375v1.188h2.771q0.515 0 0.851 0.336t0.336 0.851-0.336 0.851-0.851 0.336h-4.143zM5.313 9.667q-0.515 0-0.851-0.336t-0.336-0.851v-5.938h-1.188q-0.515 0-0.851-0.336t-0.336-0.851 0.336-0.851 0.851-0.336h2.586q0.409 0 0.693 0.284t0.284 0.693v7.336q0 0.515-0.336 0.851t-0.851 0.336zM12.807 26.846q-0.56 0-0.94-0.381t-0.379-0.943 0.379-0.939 0.94-0.376h16.124q0.56 0 0.94 0.381t0.379 0.943-0.379 0.939-0.94 0.376h-16.124zM12.807 17.267q-0.56 0-0.94-0.381t-0.379-0.943 0.379-0.939 0.94-0.376h16.124q0.56 0 0.94 0.381t0.379 0.943-0.379 0.939-0.94 0.376h-16.124zM12.807 7.688q-0.56 0-0.94-0.381t-0.379-0.943 0.379-0.939 0.94-0.376h16.124q0.56 0 0.94 0.381t0.379 0.943-0.379 0.939-0.94 0.376h-16.124z"></path>
</svg>
