<!-- Generated by IcoMoon.io -->
<svg version="1.1" xmlns="http://www.w3.org/2000/svg" width="32" height="32" viewBox="0 0 32 32">
<path d="M3.371 31.5q-1.163 0-2.017-0.854t-0.854-2.017v-25.259q0-1.163 0.854-2.017t2.017-0.854h10.592q0.61 0 1.023 0.414t0.413 1.026-0.413 1.021-1.023 0.409h-10.592v25.259h25.259v-10.592q0-0.61 0.414-1.023t1.026-0.413 1.021 0.413 0.409 1.023v10.592q0 1.163-0.854 2.017t-2.017 0.854h-25.259zM28.629 5.408l-15.758 15.758q-0.416 0.416-1.004 0.402t-1.004-0.43-0.416-1.004 0.416-1.004l15.758-15.758h-6.918q-0.61 0-1.023-0.414t-0.413-1.026 0.413-1.021 1.023-0.409h10.362q0.61 0 1.023 0.413t0.413 1.023v10.362q0 0.61-0.414 1.023t-1.026 0.413-1.021-0.413-0.409-1.023v-6.889z"></path>
</svg>
