<!-- Generated by IcoMoon.io -->
<svg version="1.1" xmlns="http://www.w3.org/2000/svg" width="32" height="32" viewBox="0 0 32 32">
<path d="M16 25.61l-5.609 5.609q-0.496 0.495-1.197 0.479t-1.197-0.513-0.496-1.214 0.496-1.214l6.806-6.806q0.273-0.273 0.564-0.385t0.632-0.112 0.632 0.112 0.564 0.385l6.84 6.84q0.495 0.496 0.495 1.197t-0.495 1.197q-0.496 0.496-1.214 0.496t-1.214-0.496l-5.609-5.574zM16 6.39l5.609-5.609q0.496-0.495 1.197-0.479t1.197 0.513 0.496 1.214-0.496 1.214l-6.806 6.806q-0.273 0.273-0.564 0.385t-0.632 0.112-0.632-0.112-0.564-0.385l-6.84-6.84q-0.495-0.496-0.479-1.214t0.513-1.214q0.496-0.495 1.214-0.495t1.214 0.495l5.574 5.609z"></path>
</svg>
