<!-- Generated by IcoMoon.io -->
<svg version="1.1" xmlns="http://www.w3.org/2000/svg" width="32" height="32" viewBox="0 0 32 32">
<path d="M12.723 28.238q-0.617 0-1.033-0.418t-0.417-1.037 0.417-1.031q0.417-0.413 1.033-0.413h17.487q0.616 0 1.033 0.418t0.417 1.037-0.417 1.031q-0.417 0.413-1.033 0.413h-17.487zM12.723 17.45q-0.617 0-1.033-0.418t-0.417-1.037 0.417-1.031q0.417-0.413 1.033-0.413h17.487q0.616 0 1.033 0.418t0.417 1.037-0.417 1.031q-0.417 0.413-1.033 0.413h-17.487zM12.723 6.633q-0.617 0-1.033-0.419t-0.417-1.036 0.417-1.032q0.417-0.413 1.033-0.413h17.487q0.616 0 1.033 0.419t0.417 1.036-0.417 1.032-1.033 0.413h-17.487zM3.501 29.891q-1.292 0-2.212-0.892t-0.92-2.197 0.906-2.211 2.211-0.906 2.197 0.92 0.892 2.212q0 1.268-0.903 2.171t-2.171 0.902zM3.501 19.103q-1.292 0-2.212-0.911t-0.92-2.192 0.92-2.192 2.212-0.911q1.268 0 2.171 0.911t0.903 2.192-0.903 2.192q-0.902 0.911-2.171 0.911zM3.472 8.286q-1.28 0-2.192-0.912t-0.911-2.192 0.911-2.192 2.192-0.911 2.192 0.911q0.911 0.912 0.911 2.192t-0.911 2.192-2.192 0.912z"></path>
</svg>
