<!-- Generated by IcoMoon.io -->
<svg version="1.1" xmlns="http://www.w3.org/2000/svg" width="32" height="32" viewBox="0 0 32 32">
<path d="M29.605 31.5q-5.123 0-10.333-2.389t-9.602-6.781-6.781-9.602-2.389-10.333q0-0.812 0.541-1.353t1.353-0.541h6.343q0.603 0 1.048 0.423t0.588 1.041l1.146 5.616q0.088 0.641-0.027 1.13t-0.466 0.839l-4.255 4.299q1.033 1.794 2.261 3.38t2.705 3.021q1.507 1.535 3.172 2.82t3.502 2.289l4.076-4.162q0.416-0.445 1.002-0.624t1.151-0.093l5.396 1.148q0.632 0.172 1.048 0.669t0.416 1.111v6.2q0 0.812-0.541 1.353t-1.353 0.541zM5.365 11.178l3.272-3.301-0.904-4.506h-4.348q0.129 1.794 0.589 3.703t1.392 4.104zM21.095 26.735q1.737 0.79 3.696 1.277t3.839 0.589v-4.334l-4.305-0.875-3.229 3.344z"></path>
</svg>
