<!-- Generated by IcoMoon.io -->
<svg version="1.1" xmlns="http://www.w3.org/2000/svg" width="32" height="32" viewBox="0 0 32 32">
<path d="M11.015 23.113l-8.222 8.237q-0.456 0.456-1.063 0.456t-1.063-0.451-0.456-1.071 0.456-1.076l8.222-8.222h-3.647q-0.646 0-1.083-0.438t-0.437-1.087 0.437-1.081 1.083-0.433h7.295q0.646 0 1.083 0.437t0.437 1.083v7.295q0 0.646-0.438 1.083t-1.087 0.437-1.081-0.437-0.433-1.083v-3.647zM23.143 10.985h3.647q0.646 0 1.083 0.439t0.437 1.087-0.437 1.081-1.083 0.433h-7.295q-0.646 0-1.083-0.437t-0.437-1.083v-7.295q0-0.646 0.439-1.083t1.087-0.437 1.081 0.437 0.433 1.083v3.647l8.192-8.207q0.456-0.456 1.063-0.456t1.063 0.451 0.456 1.071-0.456 1.076l-8.191 8.192z"></path>
</svg>
