<!-- Generated by IcoMoon.io -->
<svg version="1.1" xmlns="http://www.w3.org/2000/svg" width="32" height="32" viewBox="0 0 32 32">
<path d="M13.588 3.432q-3.222 0-5.831 1.785t-3.689 4.705q-0.222 0.587-0.786 0.881t-1.166 0.151q-0.634-0.143-0.992-0.675t-0.151-1.135q1.349-3.967 4.793-6.427t7.823-2.46q2.999 0 5.609 1.309t4.546 3.547v-3.269q0-0.682 0.452-1.135t1.135-0.452 1.135 0.452 0.452 1.135v7.871q0 0.682-0.452 1.135t-1.135 0.452h-7.871q-0.682 0-1.135-0.452t-0.452-1.135 0.452-1.135 1.135-0.452h4.57q-1.476-2.095-3.658-3.395t-4.785-1.301zM13.588 26.885q-2.999 0-5.641-1.214t-4.514-3.452v3.111q0 0.682-0.452 1.135t-1.135 0.452-1.135-0.452-0.452-1.135v-7.871q0-0.682 0.452-1.135t1.135-0.452h7.871q0.682 0 1.135 0.452t0.452 1.135-0.452 1.135-1.135 0.452h-4.729q1.508 2.095 3.737 3.38t4.864 1.285q3.11 0 5.609-1.714t3.689-4.506q0.27-0.634 0.818-1.024t1.23-0.246q0.683 0.159 1.016 0.73t0.095 1.206q-0.365 0.984-0.881 1.88t-1.166 1.706l7.522 7.522q0.46 0.46 0.46 1.111t-0.46 1.111-1.127 0.46-1.127-0.46l-7.522-7.49q-1.745 1.412-3.816 2.15t-4.34 0.738z"></path>
</svg>
