<!-- Generated by IcoMoon.io -->
<svg version="1.1" xmlns="http://www.w3.org/2000/svg" width="32" height="32" viewBox="0 0 32 32">
<path d="M28.947 10.637c-0.374-1.489 0.374-3.862 2.774-4.702l-2.566-0.136s-0.971-3.402-5.427-3.703c-4.456-0.307-7.369-0.113-7.369-0.113s3.303 2.101 1.98 5.846c-0.968 1.984-2.487 3.613-4.112 5.468-0.049 0.049-0.094 0.098-0.133 0.14-5.374 6.057-13.817 15.694-13.817 15.694 9.293 2.434 15.52-0.238 19.205-3.443 0.774-0.008 1.357-0.012 1.75-0.012 5.132 0 9.47-4.444 9.293-9.387-0.121-3.398-1.206-4.164-1.58-5.654z"></path>
</svg>
