<!-- Generated by IcoMoon.io -->
<svg version="1.1" xmlns="http://www.w3.org/2000/svg" width="32" height="32" viewBox="0 0 32 32">
<path d="M26.242 11.162h-14.142q-3.41 0-5.887 2.234t-2.477 5.56 2.477 5.56q2.478 2.234 5.887 2.234h13.504q0.722 0 1.201 0.479t0.479 1.202-0.479 1.201-1.201 0.479h-13.471q-4.82 0-8.289-3.208t-3.468-7.944 3.468-7.945q3.469-3.208 8.289-3.208h14.109l-4.4-4.4q-0.487-0.487-0.487-1.176t0.487-1.176 1.176-0.487 1.176 0.487l7.256 7.256q0.268 0.269 0.378 0.554t0.109 0.622q0 0.336-0.109 0.621t-0.378 0.554l-7.256 7.256q-0.487 0.487-1.176 0.487t-1.176-0.487-0.487-1.176 0.487-1.176l4.4-4.4z"></path>
</svg>
