<!-- Generated by IcoMoon.io -->
<svg version="1.1" xmlns="http://www.w3.org/2000/svg" width="32" height="32" viewBox="0 0 32 32">
<path d="M10.591 30.585h-6.569q-1.056 0-1.832-0.775t-0.775-1.832v-6.569q1.773-0.13 3.063-1.297t1.29-2.9-1.29-2.9-3.063-1.297v-6.569q0-1.056 0.775-1.832t1.832-0.775h6.699q0.287-1.59 1.408-2.672t2.711-1.082 2.711 1.082 1.408 2.672h6.595q1.056 0 1.832 0.775t0.775 1.832v6.595q1.59 0.287 2.633 1.46t1.043 2.763-1.043 2.672-2.633 1.369v6.673q0 1.056-0.775 1.832t-1.832 0.775h-6.569q-0.13-1.903-1.336-3.128t-2.861-1.225-2.861 1.225-1.336 3.128zM4.022 27.978h4.497q0.964-2.45 2.825-3.402t3.441-0.951 3.444 0.951 2.828 3.402h4.497v-9.254h2.216q0.626 0 1.043-0.417t0.417-1.043-0.417-1.043-1.043-0.417h-2.216v-9.358h-9.254v-2.294q0-0.626-0.417-1.043t-1.043-0.417-1.043 0.417-0.417 1.043v2.294h-9.358v4.536q1.959 0.725 3.156 2.429t1.197 3.807q0 2.067-1.199 3.774t-3.154 2.45v4.536z"></path>
</svg>
