<!-- Generated by IcoMoon.io -->
<svg version="1.1" xmlns="http://www.w3.org/2000/svg" width="32" height="32" viewBox="0 0 32 32">
<path d="M0.306 11.719h2.853v-2.853h-2.853v2.853zM0.306 17.427h2.853v-2.853h-2.853v2.853zM0.306 6.012h2.853v-2.853c-1.569 0-2.853 1.284-2.853 2.853zM11.719 28.841h2.853v-2.853h-2.853v2.853zM0.306 23.134h2.853v-2.853h-2.853v2.853zM3.159 28.841v-2.853h-2.853c0 1.569 1.284 2.853 2.853 2.853zM28.841 3.159h-11.414v8.56h14.267v-5.707c0-1.569-1.284-2.853-2.853-2.853zM28.841 23.134h2.853v-2.853h-2.853v2.853zM11.719 6.012h2.853v-2.853h-2.853v2.853zM6.012 28.841h2.853v-2.853h-2.853v2.853zM6.012 6.012h2.853v-2.853h-2.853v2.853zM28.841 28.841c1.569 0 2.853-1.284 2.853-2.853h-2.853v2.853zM28.841 17.427h2.853v-2.853h-2.853v2.853zM17.427 28.841h2.853v-2.853h-2.853v2.853zM23.134 28.841h2.853v-2.853h-2.853v2.853z"></path>
</svg>
