<!-- Generated by IcoMoon.io -->
<svg version="1.1" xmlns="http://www.w3.org/2000/svg" width="32" height="32" viewBox="0 0 32 32">
<path d="M22.728 16.474l-6.701-6.701q-0.21-0.21-0.294-0.435t-0.085-0.484 0.085-0.481 0.294-0.432l6.701-6.702q0.21-0.209 0.435-0.294t0.484-0.085 0.481 0.085 0.432 0.294l6.702 6.702q0.209 0.209 0.294 0.435t0.085 0.484-0.085 0.481-0.294 0.432l-6.702 6.701q-0.209 0.21-0.435 0.294t-0.484 0.085-0.481-0.085-0.432-0.294zM1.864 13.149v-9.451q0-0.556 0.376-0.933t0.933-0.376h9.451q0.556 0 0.933 0.376t0.376 0.933v9.451q0 0.556-0.376 0.933t-0.933 0.376h-9.451q-0.556 0-0.933-0.376t-0.376-0.933zM18.042 29.327v-9.451q0-0.556 0.376-0.933t0.933-0.376h9.451q0.556 0 0.933 0.376t0.376 0.933v9.451q0 0.556-0.376 0.933t-0.933 0.376h-9.451q-0.556 0-0.933-0.376t-0.376-0.933zM1.864 29.327v-9.451q0-0.556 0.376-0.933t0.933-0.376h9.451q0.556 0 0.933 0.376t0.376 0.933v9.451q0 0.556-0.376 0.933t-0.933 0.376h-9.451q-0.556 0-0.933-0.376t-0.376-0.933zM4.482 11.84h6.832v-6.832h-6.832v6.832zM23.736 13.803l4.856-4.856-4.856-4.856-4.856 4.856 4.856 4.856zM20.66 28.018h6.832v-6.832h-6.832v6.832zM4.482 28.018h6.832v-6.832h-6.832v6.832z"></path>
</svg>
