<!-- Generated by IcoMoon.io -->
<svg version="1.1" xmlns="http://www.w3.org/2000/svg" width="32" height="32" viewBox="0 0 32 32">
<path d="M6.651 31.262q-1.015 0-1.738-0.723t-0.723-1.738v-15.598q0-1.015 0.723-1.738t1.738-0.723h2.214v-3.346q0-2.961 2.088-5.048t5.050-2.087 5.047 2.087 2.085 5.048v3.346h2.214q1.015 0 1.738 0.723t0.723 1.738v15.598q0 1.015-0.723 1.738t-1.738 0.723h-18.698zM6.651 28.801h18.698v-15.598h-18.698v15.598zM16.004 23.881q1.189 0 2.032-0.831t0.843-1.998q0-1.144-0.847-2.036t-2.036-0.892-2.032 0.892-0.843 2.048 0.847 1.987 2.036 0.83zM11.325 10.743h9.35v-3.346q0-1.947-1.362-3.311t-3.309-1.363-3.312 1.363-1.366 3.311v3.346zM6.651 28.801v0z"></path>
</svg>
