<!-- Generated by IcoMoon.io -->
<svg version="1.1" xmlns="http://www.w3.org/2000/svg" width="32" height="32" viewBox="0 0 32 32">
<path d="M3.342 6.75c-1.947 0-2.921 0.974-2.921 2.921v12.658c0 1.947 0.974 2.921 2.921 2.921h7.789c1.947 0 2.921-0.974 2.921-2.921v-12.658c0-1.947-0.974-2.921-2.921-2.921zM7.237 9.087c1.558 0 2.726 0.389 3.505 1.168 0.974 0.779 1.363 1.947 1.363 3.311 0 0.974-0.389 1.947-0.974 2.726-0.389 0.584-0.974 1.363-1.947 1.947l-1.168 0.779c-0.779 0.584-1.168 0.779-1.461 1.091-0.292 0.273-0.487 0.467-0.682 0.857h6.232v2.532h-9.737c0-1.168 0.195-2.142 0.584-2.921 0.584-1.168 1.363-1.947 2.921-3.116 1.363-0.779 2.142-1.558 2.493-1.947 0.623-0.584 0.818-1.168 0.818-1.947 0-0.584-0.195-1.168-0.448-1.558-0.331-0.389-0.721-0.584-1.499-0.584s-1.363 0.195-1.753 0.974c-0.078 0.389-0.195 0.974-0.195 1.753h-2.726c0-1.168 0.195-2.142 0.584-2.921 0.779-1.363 2.142-2.142 4.089-2.142zM20.946 6.828c-2.025 0-2.999 0.896-2.999 2.843v12.658c0 1.947 0.974 2.921 2.999 2.921h7.789c1.869 0 2.843-0.974 2.843-2.921v-12.658c0-1.947-0.974-2.843-2.921-2.843zM24.646 8.678c1.363 0 2.532 0.389 3.311 0.974 0.779 0.779 1.168 1.558 1.168 2.726 0 0.779-0.195 1.558-0.779 2.142-0.389 0.389-0.584 0.584-0.974 0.779 0.195 0 0.584 0.195 1.168 0.584 0.779 0.584 0.974 1.558 0.974 2.726s-0.389 2.337-1.168 3.116c-0.779 0.974-2.142 1.363-3.7 1.363-1.947 0-3.505-0.584-4.284-1.947-0.273-0.565-0.467-1.344-0.467-2.512h2.726c0 0.584 0 0.974 0.195 1.363 0.389 0.779 0.974 0.974 1.947 0.974 0.584 0 0.974-0.195 1.363-0.584s0.584-0.974 0.584-1.558c0-0.974-0.389-1.558-1.168-1.85-0.389-0.097-0.974-0.292-1.947-0.292v-1.947c0.974 0 1.558-0.195 1.947-0.273 0.584-0.195 0.974-0.779 0.974-1.753 0-0.584-0.195-0.974-0.389-1.363-0.389-0.389-0.779-0.584-1.363-0.584s-1.168 0.195-1.461 0.584c-0.389 0.389-0.389 0.974-0.389 1.675h-2.609c0-0.779 0.195-1.363 0.37-2.142 0-0.234 0.389-0.623 0.779-1.207 0.389-0.389 0.779-0.584 1.363-0.779s1.168-0.195 1.947-0.195z"></path>
</svg>
