<!-- Generated by IcoMoon.io -->
<svg version="1.1" xmlns="http://www.w3.org/2000/svg" width="32" height="32" viewBox="0 0 32 32">
<path d="M2.963 32q-1.2 0-2.082-0.881t-0.881-2.082v-5.985q0-0.63 0.428-1.056t1.059-0.426 1.054 0.426 0.422 1.056v5.985h5.985q0.63 0 1.056 0.428t0.426 1.059-0.426 1.054-1.056 0.422h-5.985zM29.037 32h-5.985q-0.63 0-1.056-0.428t-0.426-1.059 0.426-1.054 1.056-0.422h5.985v-5.985q0-0.63 0.428-1.056t1.059-0.426 1.054 0.426 0.422 1.056v5.985q0 1.2-0.881 2.082t-2.082 0.881zM0 8.948v-5.985q0-1.2 0.881-2.082t2.082-0.881h5.985q0.63 0 1.056 0.428t0.426 1.059-0.426 1.054-1.056 0.422h-5.985v5.985q0 0.63-0.428 1.056t-1.059 0.426-1.054-0.426-0.422-1.056zM29.037 8.948v-5.985h-5.985q-0.63 0-1.056-0.428t-0.426-1.059 0.426-1.054 1.056-0.422h5.985q1.2 0 2.082 0.881t0.881 2.082v5.985q0 0.63-0.428 1.056t-1.059 0.426-1.054-0.426-0.422-1.056zM16 22.608q-2.844 0-4.726-1.882t-1.882-4.726 1.882-4.726 4.726-1.882 4.726 1.882 1.882 4.726-1.882 4.726-4.726 1.882z"></path>
</svg>
