<!-- Generated by IcoMoon.io -->
<svg version="1.1" xmlns="http://www.w3.org/2000/svg" width="32" height="32" viewBox="0 0 32 32">
<path d="M15.995 17.054q-0.576 0-0.961-0.388t-0.385-0.963v-13.673q0-0.574 0.389-0.962t0.966-0.389 0.961 0.389q0.385 0.388 0.385 0.962v13.673q0 0.574-0.389 0.963t-0.966 0.388zM16 31.646q-3.040 0-5.695-1.155t-4.621-3.121-3.121-4.621-1.155-5.695q0-2.553 0.878-4.938t2.526-4.33q0.392-0.459 0.973-0.466t1.020 0.432q0.371 0.372 0.317 0.926t-0.405 1.013q-1.284 1.54-1.945 3.451t-0.662 3.912q0 4.968 3.461 8.429t8.429 3.461 8.429-3.461 3.461-8.429q0-2.053-0.655-3.952t-1.966-3.466q-0.36-0.447-0.396-0.98t0.329-0.898q0.432-0.432 1.041-0.412t0.999 0.493q1.662 1.945 2.506 4.31t0.844 4.904q0 3.040-1.155 5.695t-3.121 4.621-4.621 3.121-5.695 1.155z"></path>
</svg>
