<!-- Generated by IcoMoon.io -->
<svg version="1.1" xmlns="http://www.w3.org/2000/svg" width="32" height="32" viewBox="0 0 32 32">
<path d="M0.808 22.417v-12.833h5.224c1.008 0 1.883 0.32 2.624 0.963s1.111 1.452 1.111 2.43c0 0.581-0.16 1.115-0.482 1.604s-0.748 0.864-1.283 1.123v0.137c0.657 0.214 1.188 0.596 1.593 1.146s0.608 1.169 0.608 1.856c0 1.038-0.401 1.895-1.203 2.567s-1.738 1.008-2.807 1.008zM2.779 20.675h3.3c0.581 0 1.084-0.191 1.513-0.573s0.642-0.864 0.642-1.443c0-0.565-0.214-1.038-0.642-1.421s-0.932-0.573-1.513-0.573h-3.3zM2.779 15.015h3.116c0.535 0 0.997-0.176 1.386-0.528s0.585-0.795 0.585-1.329c0-0.535-0.195-0.981-0.585-1.34s-0.852-0.539-1.386-0.539h-3.116zM10.412 22.417v-1.828h3.023l2.406-9.2h-3.586v-1.804h8.571v1.804h-3.022l-2.406 9.2h3.586v1.828zM21.341 22.417v-1.828h10.267v1.828zM26.475 19.953c-1.223 0-2.387-0.566-3.077-1.281s-1.139-1.579-1.139-2.802v-6.288h1.833v6.288c0 0.77 0.312 1.387 0.727 1.851s0.898 0.592 1.655 0.592c0.758 0 1.24-0.128 1.655-0.592s0.519-1.082 0.519-1.852v-6.288h1.833v6.288c0 1.223-0.345 2.191-1.035 2.906s-1.751 1.177-2.973 1.177z"></path>
</svg>
