<!-- Generated by IcoMoon.io -->
<svg version="1.1" xmlns="http://www.w3.org/2000/svg" width="32" height="32" viewBox="0 0 32 32">
<path d="M31.415 14.581l-13.996-13.996c-0.78-0.78-2.057-0.78-2.838 0l-13.996 13.996c-0.78 0.78-0.78 2.057 0 2.838l13.996 13.996c0.78 0.78 2.057 0.78 2.838 0l13.996-13.996c0.78-0.78 0.78-2.057 0-2.838zM22.522 18.62c-1.355 0-2.453-1.098-2.453-2.453 0-0.001 0-0.002 0-0.003 0-0.3 0.054-0.588 0.153-0.854l-0.006 0.017-3.102-3.102v8.475c0.764 0.416 1.282 1.225 1.282 2.156 0 1.355-1.098 2.453-2.453 2.453s-2.453-1.098-2.453-2.453c0-0.975 0.569-1.817 1.393-2.213v-8.935c-0.822-0.38-1.393-1.21-1.393-2.175 0-0.279 0.050-0.545 0.138-0.794l-3.601-3.601 1.577-1.577 3.66 3.66c0.199-0.054 0.408-0.085 0.624-0.085 1.324 0 2.397 1.073 2.397 2.397 0 0.216-0.031 0.425-0.085 0.624l3.65 3.65c0.201-0.059 0.432-0.094 0.671-0.094v0c1.355 0 2.453 1.098 2.453 2.453s-1.098 2.453-2.453 2.453z"></path>
</svg>
