<!-- Generated by IcoMoon.io -->
<svg version="1.1" xmlns="http://www.w3.org/2000/svg" width="32" height="32" viewBox="0 0 32 32">
<path d="M10.944 12.63c-0.399 0-0.76 0.162-1.021 0.423l-8.667 8.667c-0.261 0.261-0.423 0.622-0.423 1.021v0 4.333c0 0.798 0.647 1.444 1.444 1.444h13c0.399-0 0.76-0.162 1.021-0.423l4.333-4.333c0.261-0.261 0.423-0.622 0.423-1.021s-0.162-0.76-0.423-1.021v0c-0.261-0.261-0.622-0.423-1.021-0.423s-0.76 0.162-1.021 0.423l-3.91 3.91h-10.957v-2.291l8.243-8.243c0.261-0.261 0.423-0.622 0.423-1.021s-0.162-0.76-0.423-1.021v0c-0.261-0.261-0.622-0.423-1.021-0.423v0z"></path>
<path d="M18.167 2.519c-0.399 0-0.76 0.162-1.021 0.423l-6.644 6.644c-0.004 0.004-0.008 0.008-0.011 0.011l-0 0c-1.64 1.674-1.64 4.392 0 6.066 0.004 0.004 0.008 0.008 0.011 0.011l7.51 7.51c0.004 0.004 0.008 0.008 0.011 0.011l0 0c1.674 1.64 4.392 1.64 6.066 0 0.004-0.004 0.008-0.008 0.011-0.011l6.644-6.644c0.261-0.261 0.423-0.622 0.423-1.021s-0.162-0.76-0.423-1.021v0c-0.261-0.261-0.622-0.423-1.021-0.423s-0.76 0.162-1.021 0.423l-6.635 6.635c-0.573 0.562-1.447 0.562-2.020 0l-7.493-7.493c-0.562-0.573-0.562-1.447 0-2.020l6.635-6.635c0.261-0.261 0.423-0.622 0.423-1.021s-0.162-0.76-0.423-1.021v0c-0.261-0.261-0.622-0.423-1.021-0.423v0z"></path>
</svg>
