<!-- Generated by IcoMoon.io -->
<svg version="1.1" xmlns="http://www.w3.org/2000/svg" width="32" height="32" viewBox="0 0 32 32">
<path d="M14.652 26.922v-5.987q0-0.573 0.389-0.961t0.964-0.387q0.575 0 0.959 0.387t0.384 0.961v5.974l2.387-2.4q0.408-0.404 0.986-0.404t0.983 0.407 0.404 0.985-0.404 0.981l-4.76 4.76q-0.215 0.215-0.449 0.303t-0.499 0.087-0.495-0.087-0.445-0.303l-4.773-4.773q-0.405-0.404-0.398-0.978t0.412-0.978 0.973-0.404 0.982 0.404l2.4 2.414zM5.091 17.348l2.265 2.252q0.404 0.408 0.404 0.986t-0.407 0.983-0.984 0.404-0.981-0.404l-4.625-4.625q-0.215-0.215-0.303-0.449t-0.087-0.499 0.087-0.495 0.303-0.445l4.652-4.652q0.414-0.405 0.982-0.405t0.973 0.405 0.404 0.973-0.404 0.982l-2.293 2.293h5.987q0.573 0 0.961 0.389t0.387 0.964q0 0.575-0.387 0.959t-0.961 0.384h-5.974zM26.922 17.348h-5.96q-0.573 0-0.961-0.389t-0.388-0.964 0.388-0.959 0.961-0.384h5.946l-2.265-2.252q-0.404-0.408-0.404-0.986t0.407-0.983 0.984-0.405 0.981 0.405l4.625 4.625q0.215 0.215 0.303 0.449t0.087 0.499-0.087 0.495-0.303 0.445l-4.639 4.639q-0.404 0.404-0.971 0.398t-0.971-0.411-0.404-0.973 0.404-0.982l2.265-2.265zM14.652 5.078l-2.279 2.278q-0.405 0.404-0.971 0.404t-0.971-0.404-0.405-0.973 0.405-0.982l4.625-4.639q0.215-0.215 0.449-0.303t0.499-0.087 0.495 0.087 0.445 0.303l4.639 4.639q0.404 0.404 0.404 0.971t-0.404 0.971-0.973 0.404-0.982-0.404l-2.279-2.265v5.96q0 0.573-0.389 0.961t-0.964 0.388-0.959-0.388q-0.384-0.387-0.384-0.961v-5.96z"></path>
</svg>
