<!-- Generated by IcoMoon.io -->
<svg version="1.1" xmlns="http://www.w3.org/2000/svg" width="32" height="32" viewBox="0 0 32 32">
<path d="M4.376 30.25q-1.069 0-1.854-0.785t-0.785-1.854v-13.142q-1.043-0.91-1.445-2.269t0.046-2.797l1.689-5.357q0.317-1.056 1.115-1.676t1.841-0.62h21.929q1.095 0 1.913 0.627t1.148 1.669l1.715 5.357q0.449 1.439 0.033 2.784t-1.458 2.282v13.142q0 1.069-0.785 1.854t-1.854 0.785h-23.249zM19.55 13.097q1.122 0 1.834-0.746t0.567-1.761l-0.95-6.201h-3.668v6.307q0 0.963 0.633 1.682t1.583 0.719zM12.24 13.097q1.042 0 1.749-0.706t0.706-1.695v-6.307h-3.668l-0.95 6.201q-0.158 1.003 0.508 1.755t1.656 0.752zM5.088 13.097q0.871 0 1.511-0.607t0.759-1.504l0.976-6.597h-3.668l-1.742 5.621q-0.343 1.082 0.297 2.084t1.867 1.003zM26.912 13.097q1.227 0 1.887-0.99t0.303-2.098l-1.768-5.621h-3.642l0.976 6.597q0.119 0.897 0.759 1.504t1.484 0.607zM4.376 27.611h23.249v-11.928q-0.040 0.053-0.257 0.053h-0.455q-1.016 0-1.88-0.396t-1.709-1.24q-0.66 0.765-1.596 1.201t-2.045 0.435q-1.148 0-2.025-0.356t-1.643-1.122q-0.62 0.713-1.524 1.095t-2.012 0.382q-1.201 0-2.144-0.422t-1.629-1.214q-0.91 0.831-1.788 1.234t-1.828 0.402h-0.416q-0.204 0-0.297-0.053v11.928zM27.624 27.611v0z"></path>
</svg>
