<!-- Generated by IcoMoon.io -->
<svg version="1.1" xmlns="http://www.w3.org/2000/svg" width="32" height="32" viewBox="0 0 32 32">
<path d="M14.268 31.975q-1.113 0-1.931-0.807t-0.818-1.941v-7.696h-5.964q-1.113 0-1.931-0.818t-0.817-1.931v-12.176q0-2.419 1.736-4.191t4.173-1.773h19.103q0.584 0 0.979 0.395t0.395 0.979v16.766q0 1.113-0.817 1.931t-1.931 0.818h-5.964v7.696q0 1.134-0.818 1.941t-1.931 0.807h-3.463zM5.556 12.35h20.889v-8.96h-2.089v5.525q0 0.584-0.397 0.979t-0.983 0.395-0.978-0.395-0.392-0.979v-5.525h-2.501v2.062q0 0.584-0.396 0.979t-0.983 0.395q-0.586 0-0.977-0.395t-0.392-0.979v-2.062h-7.641q-1.333 0-2.247 0.955t-0.914 2.261v5.744zM5.556 18.782h20.889v-3.683h-20.889v3.683zM5.556 18.782v0z"></path>
</svg>
