<!-- Generated by IcoMoon.io -->
<svg version="1.1" xmlns="http://www.w3.org/2000/svg" width="32" height="32" viewBox="0 0 32 32">
<path d="M1.486 19.403q-0.56 0-0.94-0.38t-0.379-0.944 0.379-0.939 0.94-0.376h29.028q0.561 0 0.94 0.38t0.379 0.944-0.379 0.939-0.94 0.376h-29.028zM13.889 14.125v-6.069h-6.861q-0.879 0-1.495-0.617t-0.616-1.498 0.616-1.494 1.495-0.613h17.945q0.879 0 1.495 0.617t0.616 1.497-0.616 1.495-1.495 0.613h-6.861v6.069h-4.222zM13.889 22.042h4.222v5.014q0 0.879-0.617 1.495t-1.498 0.616-1.494-0.616-0.613-1.495v-5.014z"></path>
</svg>
