<!-- Generated by IcoMoon.io -->
<svg version="1.1" xmlns="http://www.w3.org/2000/svg" width="32" height="32" viewBox="0 0 32 32">
<path d="M3.167 31.75q-1.181 0-2.049-0.868t-0.868-2.049v-25.666q0-1.181 0.868-2.049t2.049-0.868h25.666q1.181 0 2.049 0.868t0.868 2.049v25.666q0 1.181-0.868 2.049t-2.049 0.868h-25.666zM3.167 28.833h25.666v-5.717h-6.008q-1.196 1.721-3.012 2.654t-3.814 0.934-3.814-0.934-3.012-2.654h-6.008v5.717zM16 23.788q1.487 0 2.741-0.751t1.998-2.049q0.292-0.423 0.758-0.605t0.977-0.183h6.358v-17.033h-25.666v17.033h6.358q0.51 0 0.977 0.183t0.758 0.605q0.744 1.298 1.998 2.049t2.742 0.751zM3.167 28.833v0z"></path>
</svg>
