<!-- Generated by IcoMoon.io -->
<svg version="1.1" xmlns="http://www.w3.org/2000/svg" width="32" height="32" viewBox="0 0 32 32">
<path d="M0.586 23.684q0-1.211 0.623-2.206t1.705-1.496q2.422-1.106 4.529-1.613t4.319-0.506 4.308 0.506 4.517 1.613q1.083 0.5 1.717 1.496t0.635 2.206v1.164q0 0.96-0.684 1.645t-1.644 0.684h-17.697q-0.96 0-1.644-0.684t-0.684-1.645v-1.164zM29.086 27.177h-4.401q0.245-0.559 0.413-1.135t0.169-1.194v-1.257q0-1.979-0.96-3.347t-2.835-2.311q2.2 0.256 4.144 0.751t3.283 1.205q1.188 0.675 1.851 1.613t0.664 2.090v1.257q0 0.96-0.684 1.645t-1.644 0.684zM11.762 15.977q-2.305 0-3.83-1.525t-1.525-3.83 1.525-3.83 3.83-1.525 3.83 1.525 1.525 3.83-1.525 3.83-3.83 1.525zM24.802 10.621q0 2.305-1.525 3.83t-3.83 1.525q-0.384 0-0.897-0.064t-0.897-0.192q0.873-0.955 1.333-2.259t0.46-2.841-0.46-2.794-1.333-2.305q0.419-0.128 0.897-0.192t0.897-0.064q2.305 0 3.83 1.525t1.525 3.83zM2.914 24.848h17.697v-1.164q0-0.5-0.285-0.955t-0.716-0.652q-2.305-1.059-4.087-1.473t-3.76-0.413-3.772 0.413-4.098 1.473q-0.431 0.198-0.704 0.652t-0.274 0.955v1.164zM11.762 13.648q1.292 0 2.16-0.868t0.867-2.16-0.867-2.16-2.16-0.868-2.16 0.868-0.867 2.16 0.867 2.16 2.16 0.868z"></path>
</svg>
