<!-- Generated by IcoMoon.io -->
<svg version="1.1" xmlns="http://www.w3.org/2000/svg" width="32" height="32" viewBox="0 0 32 32">
<path d="M2.849 14.655q-1.11 0-1.901-0.791t-0.79-1.9v-6.189q0-1.11 0.79-1.901t1.901-0.79h14.262q0.572 0 0.959 0.387t0.387 0.959v8.88q0 0.572-0.387 0.959t-0.959 0.387h-14.262zM2.849 11.963h12.917v-6.189h-12.917v6.189zM2.849 28.917q-1.11 0-1.901-0.79t-0.79-1.901v-6.189q0-1.11 0.79-1.9t1.901-0.791h17.491q0.572 0 0.959 0.387t0.387 0.959v8.88q0 0.572-0.387 0.959t-0.959 0.387h-17.491zM2.849 26.225h16.146v-6.189h-16.146v6.189zM24.376 14.655h-1.884q-0.572 0-0.959-0.387t-0.387-0.959v-8.88q0-0.572 0.387-0.959t0.959-0.387h8.006q0.713 0 1.103 0.572t0.148 1.245l-2.53 6.795h1.103q0.767 0 1.151 0.626t0.088 1.298l-5.893 14.841q-0.094 0.242-0.31 0.349t-0.444 0.054-0.383-0.226-0.155-0.447v-13.535zM2.849 11.963v0zM2.849 26.225v0zM7.154 8.869q0-0.525-0.343-0.868t-0.868-0.343-0.868 0.343-0.343 0.868 0.343 0.868 0.868 0.343 0.868-0.343 0.343-0.868zM5.943 24.342q0.525 0 0.868-0.343t0.343-0.868-0.343-0.868-0.868-0.343-0.868 0.343-0.343 0.868 0.343 0.868 0.868 0.343z"></path>
</svg>
