<!-- Generated by IcoMoon.io -->
<svg version="1.1" xmlns="http://www.w3.org/2000/svg" width="32" height="32" viewBox="0 0 32 32">
<path d="M4.066 30.312q-0.695 0-1.191-0.491-0.495-0.491-0.495-1.203 0-0.698 0.495-1.189 0.496-0.491 1.191-0.491h5.862l7.492-22.059h-6.525q-0.695 0-1.19-0.497t-0.496-1.196q0-0.713 0.496-1.196t1.19-0.484h15.846q0.709 0 1.199 0.491t0.488 1.203q0 0.698-0.488 1.19-0.489 0.491-1.199 0.491h-5.723l-7.479 22.059h6.373q0.709 0 1.199 0.497t0.488 1.195q0 0.713-0.488 1.197-0.489 0.484-1.199 0.484h-15.846z"></path>
</svg>
