<!-- Generated by IcoMoon.io -->
<svg version="1.1" xmlns="http://www.w3.org/2000/svg" width="32" height="32" viewBox="0 0 32 32">
<path d="M2.963 32q-1.2 0-2.082-0.881t-0.881-2.082v-26.074q0-1.2 0.881-2.082t2.082-0.881h26.074q1.2 0 2.082 0.881t0.881 2.082v26.074q0 1.2-0.881 2.082t-2.082 0.881h-26.074zM2.963 29.037h6.711v-6.711h-6.711v6.711zM12.637 29.037h6.726v-6.711h-6.726v6.711zM22.326 29.037h6.711v-6.711h-6.711v6.711zM2.963 19.363h6.711v-6.726h-6.711v6.726zM12.637 19.363h6.726v-6.726h-6.726v6.726zM22.326 19.363h6.711v-6.726h-6.711v6.726zM2.963 9.674h6.711v-6.711h-6.711v6.711zM12.637 9.674h6.726v-6.711h-6.726v6.711zM22.326 9.674h6.711v-6.711h-6.711v6.711z"></path>
</svg>
