<!-- Generated by IcoMoon.io -->
<svg version="1.1" xmlns="http://www.w3.org/2000/svg" width="32" height="32" viewBox="0 0 32 32">
<path d="M10.038 23.113l-1.52 5.977q-0.103 0.487-0.472 0.782t-0.871 0.295q-0.694 0-1.137-0.546t-0.251-1.225l1.328-5.283h-5.18q-0.708 0-1.166-0.568t-0.266-1.262q0.103-0.501 0.501-0.811t0.93-0.31h5.918l2.095-8.323h-5.18q-0.708 0-1.166-0.568t-0.266-1.261q0.103-0.502 0.501-0.812t0.93-0.31h5.918l1.491-5.977q0.103-0.487 0.472-0.782t0.871-0.295q0.694 0 1.121 0.531t0.266 1.21l-1.298 5.313h8.353l1.49-5.977q0.103-0.487 0.472-0.782t0.871-0.295q0.693 0 1.121 0.531t0.266 1.21l-1.298 5.313h5.18q0.708 0 1.166 0.568t0.266 1.261q-0.103 0.501-0.501 0.811t-0.93 0.31h-5.918l-2.095 8.323h5.18q0.708 0 1.166 0.568t0.266 1.262q-0.103 0.502-0.501 0.812t-0.93 0.31h-5.918l-1.52 5.977q-0.103 0.487-0.472 0.782t-0.871 0.295q-0.693 0-1.136-0.546t-0.251-1.225l1.328-5.283h-8.353zM10.776 20.161h8.353l2.095-8.323h-8.353l-2.095 8.323z"></path>
</svg>
