<!-- Generated by IcoMoon.io -->
<svg version="1.1" xmlns="http://www.w3.org/2000/svg" width="32" height="32" viewBox="0 0 32 32">
<path d="M23.645 9.201c-0.261 0.261-0.423 0.622-0.423 1.021s0.162 0.76 0.423 1.021l4.757 4.757-4.757 4.757c-0.261 0.261-0.423 0.622-0.423 1.021s0.162 0.76 0.423 1.021v0c0.261 0.261 0.622 0.423 1.021 0.423s0.76-0.162 1.021-0.423l5.778-5.778c0.261-0.261 0.423-0.622 0.423-1.021s-0.162-0.76-0.423-1.021l-5.778-5.778c-0.261-0.261-0.622-0.423-1.021-0.423s-0.76 0.162-1.021 0.423v0z"></path>
<path d="M7.333 8.778c-0.399 0-0.76 0.162-1.021 0.423l-5.778 5.778c-0.261 0.261-0.423 0.622-0.423 1.021s0.162 0.76 0.423 1.021l5.778 5.778c0.261 0.261 0.622 0.423 1.021 0.423s0.76-0.162 1.021-0.423v0c0.261-0.261 0.423-0.622 0.423-1.021s-0.162-0.76-0.423-1.021l-4.757-4.757 4.757-4.757c0.261-0.261 0.423-0.622 0.423-1.021s-0.162-0.76-0.423-1.021v0c-0.261-0.261-0.622-0.423-1.021-0.423v0z"></path>
<path d="M20.043 3.065c-0.129-0.042-0.278-0.066-0.432-0.066-0.644 0-1.19 0.422-1.376 1.004l-0.003 0.010-7.222 23.111c-0.042 0.129-0.066 0.278-0.066 0.432 0 0.644 0.422 1.19 1.004 1.376l0.010 0.003c0.129 0.042 0.278 0.066 0.432 0.066 0.644 0 1.19-0.422 1.376-1.004l0.003-0.010 7.222-23.111c0.042-0.129 0.066-0.278 0.066-0.432 0-0.644-0.422-1.19-1.004-1.376l-0.010-0.003z"></path>
</svg>
