<!-- Generated by IcoMoon.io -->
<svg version="1.1" xmlns="http://www.w3.org/2000/svg" width="32" height="32" viewBox="0 0 32 32">
<path d="M1.935 31.5q-0.61 0-1.023-0.414t-0.413-1.026 0.413-1.021 1.023-0.409h28.13q0.61 0 1.023 0.414t0.413 1.026-0.413 1.021-1.023 0.409h-28.13zM15.713 24.468q-0.61 0-1.023-0.414t-0.413-1.026 0.413-1.021 1.023-0.409h14.352q0.61 0 1.023 0.414t0.413 1.026-0.413 1.021-1.023 0.409h-14.352zM15.713 17.435q-0.61 0-1.023-0.414t-0.413-1.027 0.413-1.021 1.023-0.409h14.352q0.61 0 1.023 0.414t0.413 1.027-0.413 1.021-1.023 0.409h-14.352zM15.713 10.403q-0.61 0-1.023-0.414t-0.413-1.026 0.413-1.021 1.023-0.409h14.352q0.61 0 1.023 0.414t0.413 1.026-0.413 1.021-1.023 0.409h-14.352zM1.935 3.371q-0.61 0-1.023-0.414t-0.413-1.026 0.413-1.021 1.023-0.409h28.13q0.61 0 1.023 0.414t0.413 1.026-0.413 1.021-1.023 0.409h-28.13zM5.609 21.023l-4.593-4.593q-0.229-0.219-0.229-0.511t0.229-0.522l4.621-4.478q0.373-0.345 0.79-0.171t0.416 0.659v9.099q0 0.502-0.445 0.682t-0.789-0.165z"></path>
</svg>
