<!-- Generated by IcoMoon.io -->
<svg version="1.1" xmlns="http://www.w3.org/2000/svg" width="32" height="32" viewBox="0 0 32 32">
<path d="M11.078 8.125c1.969 0 2.953 0.984 2.953 2.953v9.844c0 1.969-0.984 2.953-2.953 2.953h-5.906c-1.969 0-2.953-0.984-2.953-2.953v-9.844c0-1.969 0.984-2.953 2.953-2.953zM14.031 0.25v0.984c0 1.969-0.984 2.953-2.953 2.953h-5.906c-1.969 0-2.953-0.984-2.953-2.953v-0.984h11.813zM14.031 31.75v-0.984c0-1.969-0.984-2.953-2.953-2.953h-5.906c-1.969 0-2.953 0.984-2.953 2.953v0.984h11.813zM26.828 8.125c1.969 0 2.953 0.984 2.953 2.953v9.844c0 1.969-0.984 2.953-2.953 2.953h-5.906c-1.969 0-2.953-0.984-2.953-2.953v-9.844c0-1.969 0.984-2.953 2.953-2.953zM29.781 0.25v0.984c0 1.969-0.984 2.953-2.953 2.953h-5.906c-1.969 0-2.953-0.984-2.953-2.953v-0.984h11.813zM29.781 31.75v-0.998c0-1.969-0.984-2.953-2.953-2.953h-5.906c-1.969 0.014-2.953 0.998-2.953 2.967v0.984h11.813z"></path>
</svg>
