<!-- Generated by IcoMoon.io -->
<svg version="1.1" xmlns="http://www.w3.org/2000/svg" width="32" height="32" viewBox="0 0 32 32">
<path d="M16 1.469c-8.013 0-14.531 6.519-14.531 14.531s6.519 14.531 14.531 14.531 14.531-6.519 14.531-14.531-6.519-14.531-14.531-14.531zM16 0.5c8.561 0 15.5 6.939 15.5 15.5s-6.939 15.5-15.5 15.5-15.5-6.939-15.5-15.5 6.939-15.5 15.5-15.5z"></path>
<path d="M21.575 21.381c0-0.174-0.021-0.413-0.044-0.76-0.044-0.348-0.065-0.739-0.108-1.195-0.044-0.435-0.108-0.935-0.152-1.478l-0.217-1.63-0.217-1.566-0.261-1.609-0.326-1.566c-0.131-0.522-0.261-1.022-0.413-1.522-0.105-0.309-0.215-0.568-0.342-0.817l0.015 0.034c-0.145-0.281-0.304-0.523-0.484-0.747l0.007 0.008c-0.193-0.22-0.415-0.408-0.662-0.558l-0.013-0.007c-0.261-0.131-0.522-0.217-0.826-0.217-0.479 0-0.956 0.196-1.391 0.565q-0.685 0.554-1.304 1.435c-0.418 0.583-0.81 1.246-1.14 1.943l-0.034 0.078c-0.391 0.739-0.718 1.478-1.022 2.195-0.304 0.739-0.587 1.435-0.804 2.087-0.217 0.674-0.391 1.218-0.5 1.63-0.261-0.065-0.456-0.108-0.587-0.152-0.13-0.038-0.279-0.061-0.433-0.065h-0.002q-0.261 0-0.391 0.065c-0.097 0.036-0.178 0.096-0.238 0.172l-0.001 0.001c-0.043 0.077-0.086 0.17-0.124 0.265l-0.006 0.017c-0.045 0.089-0.088 0.197-0.125 0.308l-0.005 0.017c0.037 0.166 0.105 0.312 0.198 0.438l-0.002-0.003c0.045 0.109 0.13 0.195 0.236 0.238l0.003 0.001c0.087 0.065 0.239 0.108 0.413 0.131 0.152 0.044 0.369 0.065 0.631 0.065-0.087 0.369-0.174 0.696-0.239 0.956l-0.174 0.848c-0.065 0.229-0.126 0.515-0.169 0.808l-0.005 0.041c-0.028 0.201-0.045 0.432-0.045 0.667 0 0.041 0 0.081 0.001 0.121v-0.006c0 0.131 0.044 0.196 0.174 0.283 0.107 0.074 0.228 0.14 0.357 0.191l0.013 0.005q0.196 0.065 0.456 0.131c0.152 0 0.283 0.021 0.369 0.021 0.196 0 0.391-0.108 0.565-0.283s0.261-0.348 0.261-0.522c0-0.479 0.021-1.022 0.065-1.587 0.046-0.639 0.123-1.221 0.232-1.79l-0.015 0.094 1.739-0.131c0.543-0.044 1.087-0.087 1.63-0.174q0.783-0.098 1.63-0.261c0.522-0.087 1.108-0.217 1.761-0.369 0.002 0.386 0.026 0.763 0.070 1.134l-0.005-0.047c0 0.391 0.021 0.674 0.021 0.804-0.003 0.148-0.018 0.291-0.047 0.428l0.003-0.015c-0.044 0.131-0.065 0.283-0.108 0.413-0.042 0.103-0.078 0.227-0.106 0.354l-0.003 0.015c-0.044 0.131-0.044 0.239-0.044 0.369 0 0.239 0.131 0.456 0.413 0.631 0.261 0.174 0.522 0.261 0.804 0.261 0.369 0 0.631-0.108 0.804-0.348 0.164-0.227 0.262-0.51 0.262-0.815 0-0.012 0-0.023 0-0.035v0.002zM19.336 16.968c-0.827 0.222-1.867 0.427-2.925 0.572l-0.14 0.015c-0.948 0.152-2.041 0.239-3.154 0.239-0.007 0-0.014 0-0.021 0h0.001c0.432-1.573 0.9-2.889 1.448-4.161l-0.078 0.204c0.542-1.328 1.198-2.474 1.985-3.518l-0.028 0.040q0.326-0.456 0.652-0.718t0.522-0.261c0.021 0 0.065 0.021 0.152 0.065 0.048 0.046 0.091 0.095 0.129 0.149l0.002 0.003c0.125 0.264 0.236 0.575 0.319 0.899l0.008 0.036 0.239 0.978c0.065 0.326 0.131 0.631 0.174 0.935 0.051 0.348 0.112 0.642 0.188 0.931l-0.014-0.061c0.087 0.543 0.174 1.131 0.261 1.739 0.087 0.631 0.173 1.26 0.283 1.913z"></path>
</svg>
