<!-- Generated by IcoMoon.io -->
<svg version="1.1" xmlns="http://www.w3.org/2000/svg" width="32" height="32" viewBox="0 0 32 32">
<path d="M10.575 31.5q-4.22 0-7.147-2.928t-2.928-7.147v-10.85q0-4.22 2.928-7.147t7.147-2.928h10.85q4.22 0 7.147 2.928t2.928 7.147v10.85q0 4.22-2.928 7.147t-7.147 2.928h-10.85zM14.249 18.67l-3.042-3.043q-0.416-0.416-1.019-0.402t-1.019 0.43-0.416 1.019 0.416 1.019l4.076 4.047q0.43 0.43 1.004 0.43t1.005-0.43l8.324-8.324q0.416-0.416 0.416-1.019t-0.416-1.019-1.019-0.416-1.019 0.416l-7.291 7.291zM10.575 28.629h10.85q2.985 0 5.095-2.11t2.11-5.095v-10.85q0-2.985-2.11-5.095t-5.095-2.11h-10.85q-2.985 0-5.095 2.11t-2.11 5.095v10.85q0 2.985 2.11 5.095t5.095 2.11z"></path>
</svg>
