<!-- Generated by IcoMoon.io -->
<svg version="1.1" xmlns="http://www.w3.org/2000/svg" width="32" height="32" viewBox="0 0 32 32">
<path d="M14.296 31.72q-1.095 0-1.9-0.794t-0.805-1.91v-7.573h-5.869q-1.095 0-1.9-0.805t-0.804-1.9v-11.981q0-2.38 1.708-4.125t4.107-1.744h18.798q0.574 0 0.964 0.389t0.389 0.964v16.498q0 1.095-0.804 1.9t-1.9 0.805h-5.869v7.573q0 1.116-0.805 1.91t-1.9 0.794h-3.408zM5.722 12.408h20.555v-8.817h-2.055v5.436q0 0.574-0.39 0.964t-0.967 0.389-0.962-0.389-0.385-0.964v-5.436h-2.461v2.029q0 0.574-0.39 0.964t-0.967 0.389q-0.576 0-0.962-0.389t-0.385-0.964v-2.029h-7.519q-1.312 0-2.211 0.94t-0.899 2.225v5.653zM5.722 18.737h20.555v-3.624h-20.555v3.624zM5.722 18.737v0z"></path>
</svg>
