<!-- Generated by IcoMoon.io -->
<svg version="1.1" xmlns="http://www.w3.org/2000/svg" width="32" height="32" viewBox="0 0 32 32">
<path d="M15.995 17.071q-0.585 0-0.977-0.395t-0.391-0.978v-13.894q0-0.584 0.396-0.978t0.982-0.395 0.977 0.395q0.391 0.395 0.391 0.978v13.894q0 0.584-0.396 0.978t-0.982 0.395zM16 31.898q-3.089 0-5.787-1.174t-4.695-3.172-3.172-4.695-1.174-5.787q0-2.595 0.893-5.018t2.567-4.4q0.398-0.467 0.989-0.474t1.037 0.439q0.377 0.378 0.322 0.941t-0.412 1.030q-1.304 1.565-1.977 3.507t-0.673 3.975q0 5.048 3.516 8.565t8.565 3.517 8.565-3.517 3.517-8.565q0-2.087-0.665-4.016t-1.998-3.522q-0.366-0.454-0.403-0.996t0.334-0.912q0.439-0.439 1.057-0.419t1.015 0.501q1.689 1.977 2.547 4.379t0.858 4.984q0 3.089-1.174 5.787t-3.172 4.695-4.695 3.172-5.787 1.174z"></path>
</svg>
