<!-- Generated by IcoMoon.io -->
<svg version="1.1" xmlns="http://www.w3.org/2000/svg" width="32" height="32" viewBox="0 0 32 32">
<path d="M16.518 18.727l-4.26 4.259q0.39 0.637 0.493 1.273t0.104 1.351q0 2.519-1.727 4.246t-4.246 1.727-4.246-1.727-1.727-4.246 1.727-4.246 4.246-1.727q0.688 0 1.364 0.169t1.364 0.532l4.234-4.233-4.285-4.285q-0.636 0.312-1.312 0.429t-1.364 0.117q-2.519 0-4.246-1.727t-1.727-4.246 1.727-4.246 4.246-1.727 4.246 1.727 1.727 4.246q0 0.715-0.104 1.377t-0.416 1.247l17.843 17.843q0.948 0.948 0.429 2.136t-1.844 1.188q-0.377 0-0.734-0.149t-0.643-0.435l-10.869-10.869zM21.141 14.26l-2.753-2.753 8.999-8.999q0.286-0.286 0.643-0.435t0.734-0.149q1.325 0 1.812 1.208t-0.435 2.129l-8.999 8.999zM6.882 9.767q1.416 0 2.396-0.98t0.98-2.396-0.98-2.396-2.396-0.98-2.396 0.98-0.98 2.396 0.98 2.396q0.98 0.98 2.396 0.98zM16.57 16.857q0.312 0 0.532-0.221t0.22-0.532-0.22-0.532-0.532-0.221-0.532 0.221-0.22 0.532 0.22 0.532 0.532 0.221zM6.882 28.986q1.416 0 2.396-0.98t0.98-2.396-0.98-2.396-2.396-0.98-2.396 0.98-0.98 2.396 0.98 2.396q0.98 0.98 2.396 0.98z"></path>
</svg>
