<!-- Generated by IcoMoon.io -->
<svg version="1.1" xmlns="http://www.w3.org/2000/svg" width="32" height="32" viewBox="0 0 32 32">
<path d="M8.083 23.417q-3.285 0-5.601-2.316t-2.316-5.601 2.316-5.601 5.601-2.316h5.278q0.561 0 0.94 0.381t0.38 0.943-0.38 0.939-0.94 0.376h-5.278q-2.199 0-3.738 1.537t-1.539 3.734 1.539 3.74 3.738 1.544h5.278q0.561 0 0.94 0.381t0.38 0.943-0.38 0.939-0.94 0.376h-5.278zM11.118 16.819q-0.561 0-0.94-0.38t-0.38-0.944 0.38-0.938 0.94-0.376h9.764q0.561 0 0.94 0.38t0.38 0.944-0.38 0.938-0.94 0.376h-9.764zM18.639 23.417q-0.561 0-0.94-0.381t-0.38-0.943 0.38-0.939 0.94-0.376h5.278q2.199 0 3.738-1.537t1.539-3.734-1.539-3.74-3.738-1.544h-5.278q-0.561 0-0.94-0.381t-0.38-0.943 0.38-0.939 0.94-0.376h5.278q3.285 0 5.601 2.316t2.316 5.601-2.316 5.601-5.601 2.316h-5.278z"></path>
</svg>
