<!-- Generated by IcoMoon.io -->
<svg version="1.1" xmlns="http://www.w3.org/2000/svg" width="32" height="32" viewBox="0 0 32 32">
<path d="M7.909 5.739q-0.817 0-1.387 0.572t-0.57 1.389 0.572 1.387 1.389 0.57 1.387-0.572 0.57-1.389-0.572-1.387-1.389-0.569zM7.909 22.326q-0.817 0-1.387 0.572t-0.57 1.389 0.572 1.387 1.389 0.569 1.387-0.572 0.57-1.389-0.572-1.387-1.389-0.57zM2.649 0.917h26.686q0.622 0 1.022 0.399t0.4 1.041v10.473q0 0.728-0.4 1.196t-1.022 0.469h-26.686q-0.606 0-1.006-0.469t-0.4-1.196v-10.473q0-0.643 0.4-1.041t1.006-0.399zM3.424 3.098v9.215h25.153v-9.215h-25.153zM2.649 17.487h26.558q0.641 0 1.096 0.487t0.455 1.135v10.288q0 0.791-0.455 1.239t-1.096 0.448h-26.413q-0.67 0-1.11-0.448t-0.441-1.239v-10.288q0-0.648 0.383-1.135t1.024-0.487zM3.424 19.668v9.233h25.153v-9.233h-25.153zM3.424 3.098v0zM3.424 19.668v0z"></path>
</svg>
