<!-- Generated by IcoMoon.io -->
<svg version="1.1" xmlns="http://www.w3.org/2000/svg" width="32" height="32" viewBox="0 0 32 32">
<path d="M5.489 24.648l2.933-5.042q-0.153 0.030-0.337 0.046t-0.336 0.015q-3.025 0-5.179-2.154t-2.154-5.179 2.154-5.179 5.179-2.154 5.179 2.154 2.154 5.179q0 0.993-0.252 1.907t-0.756 1.759l-5.882 10.236q-0.199 0.382-0.565 0.573t-0.794 0.191q-0.894 0-1.341-0.779t-0.004-1.573zM21.989 24.648l2.933-5.042q-0.153 0.030-0.337 0.046t-0.336 0.015q-3.025 0-5.179-2.154t-2.154-5.179 2.154-5.179 5.179-2.154 5.179 2.154 2.154 5.179q0 0.993-0.252 1.907t-0.756 1.759l-5.882 10.236q-0.199 0.382-0.565 0.573t-0.794 0.191q-0.894 0-1.341-0.779t-0.004-1.573zM7.743 15.695q1.397 0 2.383-0.978t0.986-2.376-0.978-2.383-2.376-0.986-2.383 0.978-0.986 2.376 0.978 2.383 2.376 0.986zM24.243 15.695q1.397 0 2.383-0.978t0.986-2.376-0.978-2.383-2.376-0.986-2.383 0.978-0.986 2.376 0.978 2.383 2.376 0.986z"></path>
</svg>
