<!-- Generated by IcoMoon.io -->
<svg version="1.1" xmlns="http://www.w3.org/2000/svg" width="32" height="32" viewBox="0 0 32 32">
<path d="M16 31.833q-3.299 0-6.188-1.247t-5.034-3.391-3.378-5.047-1.234-6.201q0-3.312 1.234-6.182t3.378-5.014 5.034-3.365 6.188-1.22q3.312 0 6.195 1.22t5.027 3.365 3.378 5.014 1.234 6.182q0 3.299-1.234 6.201t-3.378 5.047-5.027 3.391-6.195 1.247zM16 29.221q1.267-1.425 2.137-3.167t1.425-4.011h-7.099q0.528 2.164 1.399 3.945t2.137 3.233zM12.385 28.693q-0.897-1.439-1.55-3.068t-1.089-3.582h-5.515q1.385 2.533 3.279 4.090t4.875 2.56zM19.642 28.667q2.639-0.844 4.73-2.547t3.398-4.077h-5.489q-0.462 1.926-1.102 3.556t-1.537 3.068zM3.254 19.404h5.99q-0.119-0.976-0.152-1.801t-0.033-1.656q0-0.937 0.046-1.709t0.165-1.669h-6.017q-0.251 0.897-0.35 1.656t-0.099 1.722 0.099 1.761 0.35 1.695zM11.936 19.404h8.154q0.145-1.082 0.192-1.854t0.046-1.603q0-0.805-0.046-1.55t-0.192-1.827h-8.154q-0.145 1.082-0.191 1.827t-0.046 1.55q0 0.831 0.046 1.603t0.191 1.854zM22.729 19.404h6.017q0.251-0.897 0.35-1.695t0.099-1.761-0.099-1.722-0.35-1.656h-5.99q0.119 1.188 0.165 1.933t0.046 1.445q0 0.857-0.059 1.629t-0.178 1.827zM22.254 9.931h5.515q-1.253-2.481-3.345-4.183t-4.809-2.441q0.897 1.412 1.537 3.015t1.102 3.609zM12.464 9.931h7.125q-0.449-1.979-1.385-3.8t-2.203-3.299q-1.188 1.188-2.019 2.864t-1.517 4.235zM4.231 9.931h5.542q0.409-1.926 1.035-3.517t1.55-3.081q-2.718 0.739-4.77 2.415t-3.358 4.183z"></path>
</svg>
