<!-- Generated by IcoMoon.io -->
<svg version="1.1" xmlns="http://www.w3.org/2000/svg" width="32" height="32" viewBox="0 0 32 32">
<path d="M4.389 31.833q-1.069 0-1.854-0.785t-0.785-1.854v-23.75q0-1.069 0.785-1.854t1.854-0.785h2.243v-1.267q0-0.584 0.395-0.978t0.978-0.395q0.594 0 0.996 0.395t0.402 0.978v1.267h13.195v-1.267q0-0.584 0.394-0.978t0.978-0.395q0.594 0 0.997 0.395t0.402 0.978v1.267h2.243q1.069 0 1.854 0.785t0.785 1.854v23.75q0 1.069-0.785 1.854t-1.854 0.785h-23.222zM4.389 29.194h23.222v-16.625h-23.222v16.625zM4.389 9.931h23.222v-4.486h-23.222v4.486zM4.389 9.931v0zM16 19.167q-0.673 0-1.128-0.455t-0.455-1.128 0.455-1.128 1.128-0.455 1.128 0.455 0.455 1.128-0.455 1.128-1.128 0.455zM9.667 19.167q-0.673 0-1.128-0.455t-0.455-1.128 0.455-1.128 1.128-0.455 1.128 0.455 0.455 1.128-0.455 1.128-1.128 0.455zM22.333 19.167q-0.673 0-1.128-0.455t-0.455-1.128 0.455-1.128 1.128-0.455 1.128 0.455 0.455 1.128-0.455 1.128-1.128 0.455zM16 25.5q-0.673 0-1.128-0.455t-0.455-1.128 0.455-1.128 1.128-0.455 1.128 0.455 0.455 1.128-0.455 1.128-1.128 0.455zM9.667 25.5q-0.673 0-1.128-0.455t-0.455-1.128 0.455-1.128 1.128-0.455 1.128 0.455 0.455 1.128-0.455 1.128-1.128 0.455zM22.333 25.5q-0.673 0-1.128-0.455t-0.455-1.128 0.455-1.128 1.128-0.455 1.128 0.455 0.455 1.128-0.455 1.128-1.128 0.455z"></path>
</svg>
