<!-- Generated by IcoMoon.io -->
<svg version="1.1" xmlns="http://www.w3.org/2000/svg" width="32" height="32" viewBox="0 0 32 32">
<path d="M3.49 15.959l6.932 6.932q0.397 0.397 0.383 0.957t-0.41 0.957q-0.396 0.396-0.97 0.396t-0.971-0.396l-7.903-7.903q-0.219-0.219-0.308-0.451t-0.089-0.506 0.089-0.506 0.308-0.451l7.985-7.984q0.41-0.41 0.977-0.41t0.978 0.41 0.41 0.977-0.41 0.977l-7 7zM28.51 15.931l-6.932-6.932q-0.397-0.396-0.383-0.957t0.41-0.957 0.97-0.397 0.971 0.397l7.903 7.902q0.219 0.219 0.308 0.451t0.089 0.506-0.089 0.506-0.308 0.451l-7.985 7.985q-0.41 0.41-0.957 0.39t-0.957-0.431-0.41-0.978 0.41-0.977l6.959-6.959z"></path>
</svg>
