<!-- Generated by IcoMoon.io -->
<svg version="1.1" xmlns="http://www.w3.org/2000/svg" width="32" height="32" viewBox="0 0 32 32">
<path d="M0.306 20.281h2.853v2.853h-2.853v-2.853zM0.306 14.573h2.853v2.853h-2.853v-2.853zM0.306 25.988h2.853v2.853c-1.569 0-2.853-1.284-2.853-2.853zM11.719 3.159h2.853v2.853h-2.853v-2.853zM0.306 8.866h2.853v2.853h-2.853v-2.853zM3.159 3.159v2.853h-2.853c0-1.569 1.284-2.853 2.853-2.853zM28.841 28.841h-11.414v-8.56h14.267v5.707c0 1.569-1.284 2.853-2.853 2.853zM28.841 8.866h2.853v2.853h-2.853v-2.853zM11.719 25.988h2.853v2.853h-2.853v-2.853zM6.012 3.159h2.853v2.853h-2.853v-2.853zM6.012 25.988h2.853v2.853h-2.853v-2.853zM28.841 3.159c1.569 0 2.853 1.284 2.853 2.853h-2.853v-2.853zM28.841 14.573h2.853v2.853h-2.853v-2.853zM17.427 3.159h2.853v2.853h-2.853v-2.853zM23.134 3.159h2.853v2.853h-2.853v-2.853z"></path>
</svg>
