<!-- Generated by IcoMoon.io -->
<svg version="1.1" xmlns="http://www.w3.org/2000/svg" width="32" height="32" viewBox="0 0 32 32">
<path fill="#e9e9e0" d="M21.054 0.25h-16.325c-0.455 0-0.823 0.368-0.823 1.083v29.854c0 0.194 0.368 0.563 0.823 0.563h22.542c0.454 0 0.823-0.368 0.823-0.563v-23.637c0-0.391-0.052-0.518-0.145-0.61l-6.545-6.545c-0.093-0.092-0.219-0.145-0.35-0.145z"></path>
<path fill="#d9d7ca" d="M21.344 0.335v6.665h6.665z"></path>
<path fill="#cc4b4c" d="M11.227 18.995v0c-0.196 0-0.384-0.064-0.544-0.183-0.586-0.439-0.664-0.928-0.627-1.261 0.102-0.916 1.235-1.874 3.367-2.851 0.846-1.854 1.651-4.138 2.131-6.047-0.561-1.222-1.107-2.807-0.709-3.737 0.139-0.326 0.313-0.575 0.638-0.683 0.128-0.043 0.452-0.097 0.571-0.097 0.284 0 0.533 0.365 0.709 0.59 0.166 0.212 0.542 0.66-0.21 3.826 0.758 1.566 1.833 3.161 2.862 4.254 0.737-0.133 1.372-0.201 1.889-0.201 0.881 0 1.415 0.205 1.632 0.628 0.18 0.35 0.106 0.759-0.219 1.215-0.313 0.438-0.745 0.67-1.249 0.67-0.684 0-1.48-0.432-2.369-1.285-1.596 0.334-3.459 0.929-4.966 1.587-0.47 0.998-0.921 1.802-1.34 2.391-0.577 0.807-1.074 1.184-1.566 1.184zM12.724 16.111c-1.202 0.676-1.692 1.231-1.727 1.544-0.006 0.052-0.021 0.188 0.242 0.389 0.084-0.026 0.573-0.25 1.485-1.933zM20.395 13.613c0.458 0.353 0.57 0.531 0.87 0.531 0.132 0 0.507-0.006 0.681-0.248 0.084-0.118 0.116-0.193 0.129-0.233-0.069-0.037-0.161-0.111-0.661-0.111-0.284 0.001-0.641 0.013-1.019 0.061zM16.193 9.91c-0.402 1.392-0.933 2.894-1.504 4.255 1.176-0.456 2.454-0.854 3.654-1.136-0.759-0.882-1.518-1.983-2.15-3.119zM15.851 5.151c-0.055 0.019-0.748 0.988 0.054 1.809 0.534-1.19-0.030-1.817-0.054-1.809z"></path>
<path fill="#cc4b4c" d="M27.271 31.75h-22.542c-0.455 0-0.823-0.368-0.823-0.823v-8.74h24.188v8.74c0 0.454-0.368 0.823-0.823 0.823z"></path>
<path fill="#fff" d="M10.029 30.063h-0.923v-5.668h1.63c0.241 0 0.479 0.038 0.715 0.115s0.447 0.192 0.634 0.346c0.187 0.154 0.339 0.34 0.454 0.557s0.173 0.462 0.173 0.735c0 0.287-0.049 0.547-0.146 0.781s-0.233 0.43-0.408 0.588c-0.174 0.159-0.385 0.282-0.631 0.369s-0.518 0.131-0.815 0.131h-0.685v2.046zM10.029 25.095v2.245h0.846c0.113 0 0.224-0.019 0.335-0.058s0.211-0.101 0.304-0.188 0.166-0.209 0.223-0.365c0.056-0.156 0.084-0.35 0.084-0.581 0-0.092-0.013-0.199-0.038-0.319s-0.078-0.236-0.158-0.346c-0.080-0.11-0.191-0.203-0.335-0.277s-0.334-0.111-0.569-0.111h-0.692z"></path>
<path fill="#fff" d="M18.373 27.071c0 0.466-0.050 0.865-0.15 1.196s-0.227 0.608-0.381 0.831-0.327 0.399-0.519 0.527-0.378 0.224-0.557 0.289c-0.179 0.064-0.344 0.105-0.492 0.123-0.148 0.017-0.259 0.026-0.331 0.026h-2.145v-5.668h1.707c0.477 0 0.896 0.076 1.257 0.227s0.662 0.353 0.9 0.604 0.416 0.537 0.534 0.857c0.118 0.321 0.177 0.65 0.177 0.989zM15.636 29.386c0.625 0 1.077-0.2 1.353-0.6s0.415-0.979 0.415-1.738c0-0.236-0.028-0.469-0.084-0.7s-0.165-0.439-0.327-0.627-0.381-0.339-0.658-0.454-0.636-0.173-1.077-0.173h-0.538v4.291h0.915z"></path>
<path fill="#fff" d="M20.65 25.095v1.784h2.369v0.631h-2.369v2.553h-0.938v-5.668h3.545v0.7h-2.607z"></path>
</svg>
