<!-- Generated by IcoMoon.io -->
<svg version="1.1" xmlns="http://www.w3.org/2000/svg" width="32" height="32" viewBox="0 0 32 32">
<path d="M6.513 16.075q0 0.699 0.087 1.367t0.275 1.28q0.137 0.512-0.050 1.005t-0.649 0.705q-0.474 0.225-0.955 0.019t-0.643-0.693q-0.299-0.911-0.431-1.822t-0.131-1.86q0-4.943 3.52-8.476t8.463-3.533h1.161l-1.972-1.972q-0.337-0.337-0.337-0.824t0.337-0.824 0.837-0.337 0.836 0.337l4.019 3.994q0.374 0.374 0.374 0.874t-0.374 0.874l-3.994 3.994q-0.337 0.337-0.849 0.337t-0.849-0.337-0.337-0.849 0.337-0.849l1.923-1.922h-1.111q-3.92 0-6.703 2.79t-2.783 6.722zM25.487 16q0-0.699-0.087-1.367t-0.275-1.304q-0.163-0.512 0.025-1.005t0.649-0.705q0.474-0.225 0.942-0.019t0.631 0.693q0.324 0.911 0.468 1.835t0.143 1.872q0 4.943-3.52 8.476t-8.463 3.533h-1.211l1.972 1.972q0.337 0.337 0.337 0.824t-0.337 0.824-0.836 0.337-0.836-0.337l-4.020-3.994q-0.374-0.374-0.374-0.874t0.374-0.874l4.020-4.019q0.337-0.337 0.836-0.337t0.836 0.337 0.337 0.836-0.337 0.836l-1.972 1.972h1.211q3.92 0 6.703-2.79t2.783-6.722z"></path>
</svg>
