<!-- Generated by IcoMoon.io -->
<svg version="1.1" xmlns="http://www.w3.org/2000/svg" width="32" height="32" viewBox="0 0 32 32">
<path d="M16.084 23.917q0.562 0 0.938-0.379t0.376-0.94v-6.861q0-0.56-0.38-0.94t-0.944-0.379-0.938 0.379-0.376 0.94v6.861q0 0.56 0.38 0.94t0.944 0.379zM16 11.408q0.594 0 0.997-0.395t0.402-0.978q0-0.606-0.402-1.015t-0.996-0.41-0.997 0.41-0.402 1.015q0 0.584 0.402 0.978t0.996 0.395zM16.007 31.833q-3.279 0-6.162-1.247t-5.034-3.398-3.398-5.036-1.247-6.166 1.247-6.166 3.398-5.023q2.151-2.138 5.036-3.384t6.166-1.247 6.166 1.247 5.023 3.384 3.384 5.027 1.247 6.168-1.247 6.162-3.384 5.029-5.027 3.398-6.168 1.252zM16.013 29.194q5.502 0 9.342-3.853t3.84-9.355-3.834-9.342-9.36-3.84q-5.489 0-9.342 3.834t-3.853 9.36q0 5.489 3.853 9.342t9.355 3.853z"></path>
</svg>
