<!-- Generated by IcoMoon.io -->
<svg version="1.1" xmlns="http://www.w3.org/2000/svg" width="32" height="32" viewBox="0 0 32 32">
<path d="M12.664 28.458q-0.628 0-1.052-0.426t-0.425-1.056 0.425-1.050q0.424-0.421 1.052-0.421h17.801q0.627 0 1.052 0.426t0.424 1.056-0.424 1.050q-0.425 0.421-1.052 0.421h-17.801zM12.664 17.476q-0.628 0-1.052-0.426t-0.425-1.056 0.425-1.050q0.424-0.421 1.052-0.421h17.801q0.627 0 1.052 0.426t0.424 1.056-0.424 1.050q-0.425 0.421-1.052 0.421h-17.801zM12.664 6.465q-0.628 0-1.052-0.426t-0.425-1.055 0.425-1.051q0.424-0.421 1.052-0.421h17.801q0.627 0 1.052 0.426t0.424 1.055-0.424 1.051-1.052 0.421h-17.801zM3.276 30.141q-1.315 0-2.252-0.908t-0.936-2.236 0.922-2.251 2.251-0.922 2.236 0.936 0.908 2.252q0 1.291-0.92 2.21t-2.21 0.919zM3.276 19.159q-1.315 0-2.252-0.928t-0.936-2.231 0.936-2.231 2.252-0.928q1.291 0 2.21 0.928t0.92 2.231-0.92 2.231q-0.919 0.928-2.21 0.928zM3.247 8.147q-1.303 0-2.231-0.928t-0.928-2.231 0.928-2.231 2.231-0.928 2.231 0.928q0.928 0.928 0.928 2.231t-0.928 2.231-2.231 0.928z"></path>
</svg>
