<!-- Generated by IcoMoon.io -->
<svg version="1.1" xmlns="http://www.w3.org/2000/svg" width="32" height="32" viewBox="0 0 32 32">
<path d="M9.796 31.667q-1.482 0-2.534-1.056t-1.052-2.538 1.056-2.535 2.538-1.052 2.535 1.056 1.052 2.538q0 1.482-1.056 2.534t-2.538 1.052zM22.198 31.667q-1.482 0-2.535-1.056t-1.052-2.538 1.056-2.535 2.538-1.052 2.534 1.056 1.052 2.538q0 1.482-1.056 2.534t-2.538 1.052zM9.796 19.59q-1.482 0-2.534-1.056t-1.052-2.538 1.056-2.534 2.538-1.052 2.535 1.056 1.052 2.538-1.056 2.534-2.538 1.052zM22.198 19.59q-1.482 0-2.535-1.056t-1.052-2.538 1.056-2.534 2.538-1.052 2.534 1.056 1.052 2.538-1.056 2.534-2.538 1.052zM9.796 7.514q-1.482 0-2.534-1.056t-1.052-2.538 1.056-2.534 2.538-1.052 2.535 1.056 1.052 2.538-1.056 2.535-2.538 1.052zM22.198 7.514q-1.482 0-2.535-1.056t-1.052-2.538 1.056-2.534 2.538-1.052 2.534 1.056 1.052 2.538-1.056 2.535-2.538 1.052z"></path>
</svg>
