<!-- Generated by IcoMoon.io -->
<svg version="1.1" xmlns="http://www.w3.org/2000/svg" width="32" height="32" viewBox="0 0 32 32">
<path d="M4.113 31.417q-1.458 0-2.494-1.039t-1.036-2.497 1.039-2.495 2.497-1.035 2.495 1.039 1.035 2.497q0 1.458-1.039 2.494t-2.497 1.035zM20.012 31.417q-1.458 0-2.494-1.039t-1.035-2.497 1.039-2.495 2.497-1.035 2.495 1.039 1.035 2.497q0 1.458-1.039 2.494t-2.497 1.035zM11.982 23.548q-1.459 0-2.495-1.039t-1.036-2.497 1.039-2.494 2.498-1.035 2.494 1.039 1.036 2.497-1.039 2.495-2.497 1.035zM27.881 23.548q-1.459 0-2.495-1.039t-1.035-2.497 1.039-2.494 2.497-1.035 2.494 1.039 1.035 2.497-1.039 2.495-2.497 1.035zM4.113 15.518q-1.458 0-2.494-1.039t-1.036-2.497 1.039-2.495 2.497-1.036 2.495 1.039 1.035 2.498q0 1.458-1.039 2.494t-2.497 1.036zM20.012 15.518q-1.458 0-2.494-1.039t-1.035-2.497 1.039-2.495 2.497-1.036 2.495 1.039 1.035 2.498q0 1.458-1.039 2.494t-2.497 1.036zM11.982 7.65q-1.459 0-2.495-1.039t-1.036-2.498 1.039-2.494 2.498-1.036 2.494 1.039 1.036 2.497-1.039 2.495-2.497 1.035zM27.881 7.65q-1.459 0-2.495-1.039t-1.035-2.498 1.039-2.494 2.497-1.036 2.494 1.039 1.035 2.497-1.039 2.495-2.497 1.035z"></path>
</svg>
