<!-- Generated by IcoMoon.io -->
<svg version="1.1" xmlns="http://www.w3.org/2000/svg" width="32" height="32" viewBox="0 0 32 32">
<path d="M13.626 3.631q-3.171 0-5.739 1.757t-3.631 4.63q-0.219 0.578-0.773 0.867t-1.148 0.148q-0.624-0.14-0.976-0.664t-0.148-1.117q1.327-3.905 4.717-6.325t7.7-2.421q2.952 0 5.521 1.288t4.474 3.491v-3.218q0-0.671 0.445-1.117t1.117-0.445 1.117 0.445 0.445 1.117v7.747q0 0.671-0.445 1.117t-1.117 0.445h-7.747q-0.671 0-1.117-0.445t-0.445-1.117 0.445-1.117 1.117-0.445h4.498q-1.452-2.062-3.6-3.342t-4.709-1.281zM13.626 26.713q-2.952 0-5.552-1.195t-4.443-3.397v3.062q0 0.671-0.445 1.117t-1.117 0.445-1.117-0.445-0.445-1.117v-7.747q0-0.671 0.445-1.117t1.117-0.445h7.747q0.671 0 1.117 0.445t0.445 1.117-0.445 1.117-1.117 0.445h-4.655q1.484 2.062 3.678 3.327t4.787 1.265q3.061 0 5.521-1.687t3.631-4.435q0.265-0.624 0.805-1.007t1.21-0.242q0.672 0.156 1 0.719t0.094 1.187q-0.359 0.969-0.867 1.85t-1.148 1.679l7.403 7.403q0.453 0.453 0.453 1.094t-0.453 1.093-1.109 0.453-1.109-0.453l-7.403-7.372q-1.718 1.39-3.756 2.116t-4.271 0.726z"></path>
</svg>
