<!-- Generated by IcoMoon.io -->
<svg version="1.1" xmlns="http://www.w3.org/2000/svg" width="32" height="32" viewBox="0 0 32 32">
<path d="M16 17.847l4.935 4.934q0.382 0.383 0.924 0.383t0.924-0.383 0.383-0.924-0.383-0.924l-4.934-4.935 4.934-4.935q0.383-0.382 0.383-0.924t-0.383-0.924-0.924-0.383-0.924 0.383l-4.935 4.934-4.935-4.934q-0.382-0.383-0.924-0.383t-0.924 0.383-0.383 0.924 0.383 0.924l4.934 4.935-4.934 4.935q-0.383 0.382-0.383 0.924t0.383 0.924 0.924 0.383 0.924-0.383l4.935-4.934zM16 31.833q-3.259 0-6.149-1.247t-5.041-3.398-3.398-5.041-1.247-6.149q0-3.285 1.247-6.175t3.398-5.027 5.041-3.384 6.149-1.247q3.285 0 6.175 1.247t5.027 3.384 3.384 5.027 1.247 6.175q0 3.259-1.247 6.149t-3.384 5.041-5.027 3.398-6.175 1.247z"></path>
</svg>
