<!-- Generated by IcoMoon.io -->
<svg version="1.1" xmlns="http://www.w3.org/2000/svg" width="32" height="32" viewBox="0 0 32 32">
<path d="M6.953 28.405h18.095v-15.095h-18.095v15.095zM16.004 23.643q1.151 0 1.966-0.804t0.815-1.934q0-1.107-0.82-1.97t-1.97-0.863-1.966 0.863-0.815 1.982 0.82 1.922 1.97 0.804zM6.953 28.405v0zM6.953 30.786q-0.982 0-1.682-0.699t-0.699-1.682v-15.095q0-0.982 0.699-1.682t1.682-0.699h11.19v-3.238q0-2.865 2.020-4.885t4.885-2.020q2.536 0 4.405 1.571t2.357 3.917q0.107 0.488-0.235 0.952t-0.818 0.464q-0.506 0-0.839-0.226t-0.441-0.726q-0.345-1.524-1.57-2.548t-2.859-1.024q-1.885 0-3.204 1.319t-1.319 3.204v3.238h4.524q0.982 0 1.682 0.699t0.699 1.682v15.095q0 0.982-0.699 1.682t-1.682 0.699h-18.095z"></path>
</svg>
