<!-- Generated by IcoMoon.io -->
<svg version="1.1" xmlns="http://www.w3.org/2000/svg" width="32" height="32" viewBox="0 0 32 32">
<path d="M10.872 17.37q-0.584 0-0.975-0.394t-0.391-0.976v-11.22l-3.767 3.767q-0.397 0.397-0.956 0.397t-0.966-0.386q-0.407-0.421-0.407-0.979t0.411-0.963l6.096-6.097q0.219-0.219 0.456-0.308t0.507-0.089 0.504 0.089q0.233 0.089 0.452 0.308l6.11 6.11q0.411 0.411 0.404 0.959t-0.418 0.97q-0.411 0.386-0.959 0.393t-0.959-0.404l-3.767-3.767v11.22q0 0.582-0.395 0.976t-0.979 0.394zM21.12 31.878q-0.27 0-0.504-0.089t-0.452-0.308l-6.11-6.11q-0.411-0.411-0.405-0.959t0.418-0.97q0.411-0.386 0.959-0.393t0.959 0.404l3.767 3.767v-11.22q0-0.582 0.395-0.976t0.979-0.394 0.975 0.394 0.391 0.976v11.22l3.767-3.767q0.397-0.397 0.956-0.397t0.966 0.386q0.407 0.421 0.407 0.979t-0.411 0.963l-6.096 6.097q-0.219 0.219-0.456 0.308t-0.507 0.089z"></path>
</svg>
