<!-- Generated by IcoMoon.io -->
<svg version="1.1" xmlns="http://www.w3.org/2000/svg" width="32" height="32" viewBox="0 0 32 32">
<path d="M4.58 30q-1.050 0-1.821-0.771t-0.771-1.822v-12.911q-1.024-0.894-1.419-2.229t0.045-2.748l1.659-5.263q0.311-1.037 1.095-1.646t1.808-0.609h21.544q1.076 0 1.88 0.616t1.128 1.64l1.685 5.263q0.441 1.413 0.033 2.735t-1.433 2.242v12.911q0 1.050-0.771 1.822t-1.821 0.771h-22.841zM19.487 13.148q1.102 0 1.802-0.733t0.557-1.731l-0.933-6.092h-3.603v6.196q0 0.946 0.622 1.653t1.556 0.707zM12.306 13.148q1.024 0 1.718-0.694t0.693-1.666v-6.196h-3.604l-0.933 6.092q-0.156 0.985 0.499 1.724t1.627 0.739zM5.279 13.148q0.856 0 1.484-0.597t0.745-1.478l0.959-6.481h-3.603l-1.711 5.522q-0.337 1.063 0.292 2.048t1.834 0.985zM26.721 13.148q1.206 0 1.853-0.972t0.298-2.061l-1.737-5.522h-3.578l0.959 6.481q0.117 0.882 0.745 1.478t1.458 0.597zM4.58 27.407h22.841v-11.718q-0.039 0.052-0.253 0.052h-0.447q-0.998 0-1.847-0.389t-1.679-1.218q-0.648 0.752-1.568 1.18t-2.009 0.428q-1.128 0-1.99-0.35t-1.614-1.102q-0.609 0.7-1.497 1.076t-1.977 0.376q-1.179 0-2.107-0.415t-1.601-1.193q-0.894 0.817-1.757 1.212t-1.795 0.395h-0.408q-0.201 0-0.292-0.052v11.718zM27.421 27.407v0z"></path>
</svg>
