<!-- Generated by IcoMoon.io -->
<svg version="1.1" xmlns="http://www.w3.org/2000/svg" width="32" height="32" viewBox="0 0 32 32">
<path stroke-linejoin="round" stroke-linecap="round" stroke-miterlimit="4" stroke-width="2.6667" stroke="#000" fill="#000" d="M15.706 1.333c-2.193 0-4 1.807-4 4v0.24c-0.001 0.478-0.253 0.915-0.667 1.154-0 0-0.001 0-0.001 0s-0.001 0-0.001 0h0l-0.573 0.333c-0.414 0.238-0.917 0.239-1.331 0-0.007-0.005-0.020-0.012-0.033-0.020l-0.006-0.003-0.161-0.086c-1.898-1.095-4.36-0.435-5.458 1.461l-0.294 0.508c-0 0-0.001 0-0.001 0s-0.001 0-0.001 0h0c-1.095 1.898-0.435 4.363 1.461 5.461l-0.070-0.044 0.201 0.133c0.019 0.013 0.043 0.029 0.067 0.044l0.006 0.003c0.412 0.238 0.664 0.67 0.667 1.146v0.672c0 0.001 0 0.002 0 0.003s0 0.002 0 0.003v-0c0.002 0.48-0.251 0.919-0.667 1.159-0.013 0.008-0.019 0.012-0.026 0.016l0.005-0.003-0.182 0.109c-1.896 1.098-2.556 3.563-1.461 5.461 0 0 0.001 0 0.001 0s0.001 0 0.001 0h-0l0.294 0.508c1.098 1.896 3.561 2.556 5.458 1.461l0.161-0.086c0.019-0.011 0.032-0.019 0.045-0.027l-0.005 0.003c0.414-0.239 0.919-0.239 1.333 0l0.57 0.333c0 0 0.001 0 0.001 0s0.001 0 0.001 0h-0c0.414 0.239 0.666 0.676 0.667 1.154v0.24c0 2.193 1.807 4 4 4h0.589c2.193 0 4-1.807 4-4v-0.24c0-0.478 0.253-0.915 0.667-1.154 0 0 0.001 0 0.001 0s0.001 0 0.001 0h-0l0.57-0.333c0.414-0.239 0.919-0.239 1.333 0 0.007 0.005 0.020 0.012 0.033 0.020l0.006 0.003 0.161 0.086c1.898 1.095 4.36 0.435 5.458-1.461-0.001 0.001 0.002-0.003 0.005-0.007l0.003-0.006 0.289-0.51v-0.003c1.093-1.897 0.434-4.358-1.461-5.456-0.007-0.005-0.021-0.012-0.035-0.020l-0.007-0.003-0.161-0.086c-0.416-0.24-0.669-0.678-0.667-1.159 0-0.001 0-0.002 0-0.003s0-0.002 0-0.003v0-0.667c0-0.001 0-0.002 0-0.003s0-0.002 0-0.003v0c-0.002-0.48 0.251-0.919 0.667-1.159 0.012-0.008 0.019-0.012 0.026-0.016l-0.005 0.003 0.182-0.109c1.896-1.098 2.556-3.563 1.461-5.461-0 0-0.001 0-0.001 0s-0.001 0-0.001 0h0l-0.294-0.508c-1.098-1.896-3.561-2.556-5.458-1.461l-0.161 0.086c-0.019 0.011-0.032 0.019-0.045 0.027l0.006-0.003c-0.414 0.239-0.917 0.238-1.331 0h-0.003l-0.57-0.333c-0 0-0.001 0-0.001 0s-0.001 0-0.001 0h0c-0.414-0.239-0.666-0.676-0.667-1.154v-0.24c0-2.193-1.807-4-4-4zM15.706 4h0.589c0.752 0 1.333 0.581 1.333 1.333v0.24c0 0 0 0.001 0 0.001s0 0.001 0 0.001v-0c0.001 1.425 0.765 2.746 2 3.458h-0.005l0.573 0.333c0.001 0 0.002 0 0.003 0s0.002 0 0.003 0h-0c1.236 0.713 2.764 0.713 4 0l-0.039 0.023 0.201-0.107c0.018-0.011 0.029-0.019 0.041-0.026l-0.005 0.003c0.651-0.375 1.444-0.163 1.82 0.487l0.292 0.505c0.375 0.651 0.166 1.444-0.484 1.82-0.013 0.007-0.019 0.010-0.024 0.014l0.006-0.003-0.182 0.109c-1.241 0.716-2.006 2.047-2 3.479v0.656c-0.006 1.433 0.759 2.763 2 3.479 0.007 0.005 0.020 0.012 0.033 0.020l0.17 0.092c0.646 0.378 0.856 1.166 0.482 1.815 0.002-0.004 0-0.001-0.002 0.003l-0.003 0.008-0.286 0.508c-0.377 0.65-1.17 0.862-1.82 0.487-0.007-0.005-0.019-0.013-0.031-0.020l-0.006-0.003-0.201-0.107 0.039 0.023c-1.236-0.713-2.764-0.713-4 0-0.001 0-0.002 0-0.003 0s-0.002 0-0.003 0h0l-0.573 0.333h0.005c-1.235 0.713-1.999 2.033-2 3.458 0 0 0 0.001 0 0.001s0 0.001 0 0.001v-0 0.24c0 0.752-0.581 1.333-1.333 1.333h-0.589c-0.752 0-1.333-0.581-1.333-1.333v-0.24c0-0 0-0.001 0-0.001s0-0.001 0-0.001v0c-0.001-1.425-0.765-2.746-2-3.458h0.005l-0.573-0.333c-0.001 0-0.002 0-0.003 0s-0.002 0-0.003 0h0c-1.236-0.713-2.764-0.713-4 0l0.039-0.023-0.201 0.107c-0.018 0.011-0.029 0.019-0.041 0.026l0.005-0.003c-0.651 0.375-1.444 0.163-1.82-0.487l-0.292-0.505c-0.375-0.651-0.166-1.444 0.484-1.82 0.013-0.007 0.019-0.010 0.024-0.014l-0.006 0.003 0.182-0.109c1.241-0.716 2.006-2.047 2-3.479v-0.674c0-0.001 0-0.003 0-0.004s0-0.003 0-0.004v0c-0.009-1.418-0.772-2.731-2-3.44l0.073 0.044-0.201-0.133c-0.018-0.012-0.042-0.027-0.066-0.041l-0.007-0.003c-0.65-0.377-0.86-1.17-0.484-1.82l0.292-0.505c0.377-0.65 1.17-0.862 1.82-0.487 0.007 0.005 0.019 0.013 0.031 0.020l0.006 0.003 0.201 0.107-0.039-0.023c1.236 0.713 2.764 0.713 4 0 0.001 0 0.002 0 0.003 0s0.002 0 0.003 0h-0l0.573-0.333h-0.005c1.235-0.713 1.999-2.033 2-3.458 0-0 0-0.001 0-0.001s0-0.001 0-0.001v0-0.24c0-0.752 0.581-1.333 1.333-1.333z"></path>
<path stroke-linejoin="round" stroke-linecap="round" stroke-miterlimit="4" stroke-width="2.6667" stroke="#000" fill="#000" d="M16 10.667c-2.93 0-5.333 2.404-5.333 5.333s2.404 5.333 5.333 5.333c2.93 0 5.333-2.404 5.333-5.333s-2.404-5.333-5.333-5.333zM16 13.333c1.489 0 2.667 1.178 2.667 2.667s-1.178 2.667-2.667 2.667c-1.489 0-2.667-1.178-2.667-2.667s1.178-2.667 2.667-2.667z"></path>
</svg>
