<!-- Generated by IcoMoon.io -->
<svg version="1.1" xmlns="http://www.w3.org/2000/svg" width="32" height="32" viewBox="0 0 32 32">
<path d="M3.336 27.667q-0.96 0-1.695-0.735t-0.735-1.695v-18.472q0-0.96 0.735-1.695t1.695-0.735h8.738q0.497 0 0.948 0.194t0.781 0.525l1.711 1.711h13.344q0.516 0 0.866 0.35t0.349 0.869-0.349 0.864-0.866 0.346h-14.377l-2.43-2.43h-8.714v18.472l3.147-11.825q0.219-0.802 0.889-1.294t1.481-0.492h20.222q1.203 0 1.938 0.954t0.407 2.12l-3.014 11.156q-0.243 0.899-0.893 1.355t-1.574 0.456h-22.604zM5.888 25.236h20.173l2.917-11.18h-20.173l-2.917 11.18zM3.336 13.472v0zM5.888 25.236v0z"></path>
</svg>
