<!-- Generated by IcoMoon.io -->
<svg version="1.1" xmlns="http://www.w3.org/2000/svg" width="32" height="32" viewBox="0 0 32 32">
<path d="M8.114 27.167q-3.117 0-5.293-2.175t-2.175-5.293q0-2.792 1.739-4.798t4.356-2.53q0.709-3.234 3.303-5.385t5.979-2.152q3.966 0 6.717 2.856t2.751 6.869v0.558q2.617 0.093 4.24 1.849t1.623 4.164q0 2.478-1.774 4.257t-4.252 1.78h-17.215zM8.114 24.84h17.215q1.535 0 2.617-1.082t1.082-2.617-1.082-2.617-2.617-1.082h-2.164v-2.885q0-3.013-2.064-5.205t-5.077-2.193q-2.361 0-4.304 1.413t-2.629 3.739q2.466 0.361 4.199 1.937t2.129 3.984q0.093 0.5-0.262 0.878t-0.913 0.378q-0.419 0-0.75-0.297t-0.425-0.75q-0.36-1.733-1.756-2.809t-3.269-1.076q-2.14 0-3.606 1.501t-1.466 3.641 1.501 3.641 3.641 1.501z"></path>
</svg>
