<!-- Generated by IcoMoon.io -->
<svg version="1.1" xmlns="http://www.w3.org/2000/svg" width="32" height="32" viewBox="0 0 32 32">
<path d="M0 20.364h2.909v2.909h-2.909v-2.909zM0 14.545h2.909v2.909h-2.909v-2.909zM0 26.182h2.909v2.909c-1.6 0-2.909-1.309-2.909-2.909zM11.636 2.909h2.909v2.909h-2.909v-2.909zM0 8.727h2.909v2.909h-2.909v-2.909zM2.909 2.909v2.909h-2.909c0-1.6 1.309-2.909 2.909-2.909zM29.091 29.091h-11.636v-8.727h14.545v5.818c0 1.6-1.309 2.909-2.909 2.909zM29.091 8.727h2.909v2.909h-2.909v-2.909zM11.636 26.182h2.909v2.909h-2.909v-2.909zM5.818 2.909h2.909v2.909h-2.909v-2.909zM5.818 26.182h2.909v2.909h-2.909v-2.909zM29.091 2.909c1.6 0 2.909 1.309 2.909 2.909h-2.909v-2.909zM29.091 14.545h2.909v2.909h-2.909v-2.909zM17.455 2.909h2.909v2.909h-2.909v-2.909zM23.273 2.909h2.909v2.909h-2.909v-2.909z"></path>
</svg>
