<!-- Generated by IcoMoon.io -->
<svg version="1.1" xmlns="http://www.w3.org/2000/svg" width="32" height="32" viewBox="0 0 32 32">
<path d="M17.373 13.927l-3.325-3.298 1.13-2.864h-1.562c-0.583-0.117-1.048-0.379-1.393-0.787s-0.576-0.85-0.693-1.326c-0.17-0.529-0.092-1.047 0.236-1.555s0.845-0.76 1.555-0.76h13.932c0.601 0 1.11 0.209 1.528 0.626s0.626 0.926 0.626 1.528c0 0.601-0.209 1.111-0.626 1.528s-0.926 0.626-1.528 0.626h-7.296zM27.064 30.92l-11.952-11.689-3.559 9c-0.171 0.404-0.438 0.722-0.801 0.956s-0.761 0.35-1.191 0.35c-0.772 0-1.373-0.323-1.803-0.969s-0.489-1.328-0.175-2.046l4.219-10.574-10.43-11.010c-0.26-0.26-0.39-0.574-0.39-0.942s0.13-0.682 0.39-0.942c0.26-0.26 0.575-0.39 0.942-0.39s0.682 0.13 0.942 0.39l25.693 25.984c0.26 0.26 0.39 0.574 0.39 0.942s-0.13 0.682-0.39 0.942c-0.26 0.26-0.575 0.39-0.942 0.39s-0.682-0.13-0.942-0.39z"></path>
</svg>
