<!-- Generated by IcoMoon.io -->
<svg version="1.1" xmlns="http://www.w3.org/2000/svg" width="32" height="32" viewBox="0 0 32 32">
<path d="M2.963 32q-1.2 0-2.082-0.881t-0.881-2.082v-26.074q0-1.2 0.881-2.082t2.082-0.881h26.074q1.2 0 2.082 0.881t0.881 2.082v26.074q0 1.2-0.881 2.082t-2.082 0.881h-26.074zM2.963 29.037h26.074v-5.807h-6.104q-1.215 1.748-3.059 2.696t-3.874 0.948-3.874-0.948-3.059-2.696h-6.104v5.807zM16 23.912q1.511 0 2.785-0.763t2.029-2.082q0.296-0.43 0.77-0.614t0.992-0.186h6.459v-17.304h-26.074v17.304h6.459q0.518 0 0.992 0.186t0.771 0.614q0.756 1.319 2.030 2.081t2.786 0.763zM2.963 29.037v0z"></path>
</svg>
