<!-- Generated by IcoMoon.io -->
<svg version="1.1" xmlns="http://www.w3.org/2000/svg" width="32" height="32" viewBox="0 0 32 32">
<path d="M6.083 0.25h19.834q0.972 0 1.652 0.682t0.681 1.655-0.681 1.652q-0.681 0.678-1.652 0.678h-19.834q-0.972 0-1.652-0.682t-0.681-1.656 0.681-1.652q0.681-0.678 1.652-0.678zM3.75 9.583q0-0.972 0.681-1.652t1.652-0.681h19.834q0.972 0 1.652 0.681t0.681 1.652v12.834q0 0.972-0.681 1.652t-1.652 0.681h-19.834q-0.972 0-1.652-0.681t-0.681-1.652zM6.083 27.083h19.834q0.972 0 1.652 0.682t0.681 1.656-0.681 1.652q-0.681 0.678-1.652 0.678h-19.834q-0.972 0-1.652-0.682t-0.681-1.655 0.681-1.652q0.681-0.678 1.652-0.678zM6.667 10.167v11.666h18.666v-11.666z"></path>
</svg>
