<!-- Generated by IcoMoon.io -->
<svg version="1.1" xmlns="http://www.w3.org/2000/svg" width="32" height="32" viewBox="0 0 32 32">
<path d="M21.157 18.964l1.162-4.204q0.104-0.392-0.032-0.783t-0.489-0.627l-3.59-2.467q-0.261-0.209-0.576-0.088t-0.416 0.466l-1.162 4.203q-0.104 0.392 0.033 0.783t0.489 0.627l3.59 2.467q0.261 0.209 0.577 0.088t0.416-0.466zM4.381 27.919l-2.154-0.914q-1.245-0.536-1.686-1.834t0.211-2.565l3.629-8.434v13.747zM10.177 30.569q-1.314 0-2.25-0.94t-0.936-2.259v-11.292l4.974 13.447q0.117 0.3 0.235 0.542t0.34 0.502h-2.363zM17.645 29.851q-1.005 0.353-2.009-0.097t-1.36-1.444l-7.324-20.013q-0.353-1.005 0.103-2.001t1.464-1.354l12.259-4.439q1.005-0.353 2.017 0.092t1.364 1.449l7.363 19.987q0.353 1.005-0.097 2t-1.444 1.355l-12.337 4.465zM16.757 27.384l12.246-4.465-7.324-19.948-12.232 4.439 7.31 19.974z"></path>
</svg>
