<!-- Generated by IcoMoon.io -->
<svg version="1.1" xmlns="http://www.w3.org/2000/svg" width="32" height="32" viewBox="0 0 32 32">
<path stroke-linejoin="round" stroke-linecap="round" stroke-miterlimit="4" stroke-width="2.6667" stroke="#000" fill="#000" d="M12 13.333c-0.368 0-0.701 0.149-0.943 0.391l-8 8c-0.241 0.241-0.391 0.575-0.391 0.943v0 4c0 0.736 0.597 1.333 1.333 1.333h12c0.368-0 0.701-0.149 0.943-0.391l4-4c0.241-0.241 0.39-0.575 0.39-0.943s-0.149-0.701-0.39-0.943v0c-0.241-0.241-0.575-0.39-0.943-0.39s-0.701 0.149-0.943 0.39l-3.609 3.609h-10.115v-2.115l7.609-7.609c0.241-0.241 0.39-0.575 0.39-0.943s-0.149-0.701-0.39-0.943v0c-0.241-0.241-0.575-0.391-0.943-0.391v0z"></path>
<path stroke-linejoin="round" stroke-linecap="round" stroke-miterlimit="4" stroke-width="2.6667" stroke="#000" fill="#000" d="M18.667 4c-0.368 0-0.701 0.149-0.943 0.391l-6.133 6.133c-0.004 0.004-0.007 0.007-0.010 0.010l-0 0c-1.514 1.545-1.514 4.054 0 5.599 0.003 0.003 0.007 0.007 0.010 0.010l6.932 6.932c0.003 0.004 0.007 0.007 0.010 0.010l0 0c1.545 1.514 4.054 1.514 5.599 0 0.004-0.003 0.007-0.007 0.010-0.010l6.133-6.133c0.241-0.241 0.39-0.575 0.39-0.943s-0.149-0.701-0.39-0.943v0c-0.241-0.241-0.575-0.39-0.943-0.39s-0.701 0.149-0.943 0.39l-6.125 6.125c-0.529 0.519-1.336 0.519-1.865 0l-6.917-6.917c-0.519-0.529-0.519-1.336 0-1.865l6.125-6.125c0.241-0.241 0.39-0.575 0.39-0.943s-0.149-0.701-0.39-0.943v0c-0.241-0.241-0.575-0.391-0.943-0.391v0z"></path>
</svg>
