<!-- Generated by IcoMoon.io -->
<svg version="1.1" xmlns="http://www.w3.org/2000/svg" width="32" height="32" viewBox="0 0 32 32">
<path d="M2.806 3.333l2.388 4.856q0.296 0.591 0.847 0.928t1.185 0.338q1.254 0 1.907-1.061t0.099-2.185l-1.412-2.877h3.404l2.389 4.856q0.296 0.591 0.847 0.928t1.185 0.338q1.254 0 1.907-1.061t0.099-2.185l-1.412-2.877h3.404l2.388 4.856q0.296 0.591 0.847 0.928t1.186 0.338q1.253 0 1.906-1.061t0.099-2.185l-1.411-2.877h4.538q1.069 0 1.854 0.785t0.785 1.854v20.055q0 1.069-0.785 1.854t-1.854 0.785h-26.389q-1.069 0-1.854-0.785t-0.785-1.854v-20.055q0-1.069 0.785-1.854t1.854-0.785zM2.806 12.094v13.933h26.389v-13.933h-26.389zM2.806 12.094v0z"></path>
</svg>
