<!-- Generated by IcoMoon.io -->
<svg version="1.1" xmlns="http://www.w3.org/2000/svg" width="32" height="32" viewBox="0 0 32 32">
<path d="M22.083 3.061v12.27l2.886 2.652q0.208 0.208 0.299 0.451t0.091 0.502v0.745q0 0.551-0.374 0.921t-0.926 0.37h-6.76v9.177q0 0.552-0.375 0.926t-0.93 0.374-0.925-0.374-0.37-0.926v-9.177h-6.76q-0.552 0-0.926-0.373t-0.374-0.924v-0.745q0-0.259 0.091-0.5t0.299-0.449l2.73-2.652v-12.27h-0.52q-0.553 0-0.926-0.375t-0.374-0.929 0.374-0.925 0.926-0.37h13.362q0.552 0 0.926 0.375t0.374 0.929-0.374 0.925-0.926 0.37h-0.52zM10.229 18.373h11.387l-2.132-2.028v-13.284h-7.123v13.284l-2.132 2.028z"></path>
</svg>
