<!-- Generated by IcoMoon.io -->
<svg version="1.1" xmlns="http://www.w3.org/2000/svg" width="32" height="32" viewBox="0 0 32 32">
<path d="M7.507 5.228q-0.857 0-1.456 0.6t-0.598 1.458 0.6 1.456 1.458 0.598 1.456-0.6 0.598-1.458-0.6-1.456-1.458-0.598zM7.507 22.641q-0.857 0-1.456 0.6t-0.598 1.458 0.6 1.456 1.458 0.598 1.456-0.6 0.598-1.458-0.6-1.456-1.458-0.598zM1.985 0.167h28.013q0.653 0 1.073 0.419t0.42 1.093v10.993q0 0.764-0.42 1.255t-1.073 0.492h-28.013q-0.636 0-1.056-0.492t-0.42-1.255v-10.993q0-0.675 0.42-1.093t1.056-0.419zM2.799 2.457v9.673h26.403v-9.673h-26.403zM1.985 17.561h27.878q0.673 0 1.15 0.511t0.478 1.191v10.799q0 0.831-0.478 1.301t-1.15 0.47h-27.727q-0.703 0-1.166-0.47t-0.463-1.301v-10.799q0-0.68 0.402-1.191t1.075-0.511zM2.799 19.851v9.692h26.403v-9.692h-26.403zM2.799 2.457v0zM2.799 19.851v0z"></path>
</svg>
