<!-- Generated by IcoMoon.io -->
<svg version="1.1" xmlns="http://www.w3.org/2000/svg" width="32" height="32" viewBox="0 0 32 32">
<path d="M5.926 0h20.148q0.988 0 1.678 0.692t0.692 1.681-0.692 1.678q-0.691 0.689-1.678 0.689h-20.148q-0.988 0-1.678-0.692t-0.692-1.682 0.692-1.678q0.691-0.689 1.678-0.689zM3.556 9.482q0-0.988 0.692-1.678t1.679-0.692h20.148q0.988 0 1.678 0.692t0.692 1.678v13.037q0 0.988-0.692 1.678t-1.678 0.692h-20.148q-0.988 0-1.678-0.692t-0.692-1.678zM5.926 27.259h20.148q0.988 0 1.678 0.692t0.692 1.682-0.692 1.678q-0.691 0.689-1.678 0.689h-20.148q-0.988 0-1.678-0.692t-0.692-1.681 0.692-1.678q0.691-0.689 1.678-0.689zM6.519 10.074v11.852h18.962v-11.852z"></path>
</svg>
