<!-- Generated by IcoMoon.io -->
<svg version="1.1" xmlns="http://www.w3.org/2000/svg" width="32" height="32" viewBox="0 0 32 32">
<path d="M15.994 20.823q2.007 0 3.418-1.405t1.411-3.412-1.405-3.418-3.412-1.411-3.418 1.405-1.411 3.412 1.405 3.418 3.412 1.411zM16 23.235q-3.002 0-5.119-2.116t-2.116-5.119 2.116-5.119 5.119-2.116 5.119 2.116 2.116 5.119-2.116 5.119-5.119 2.116zM1.289 17.206q-0.512 0-0.859-0.348t-0.347-0.862 0.347-0.858 0.859-0.344h3.377q0.512 0 0.859 0.348t0.347 0.862-0.347 0.858-0.859 0.344h-3.377zM27.334 17.206q-0.512 0-0.859-0.348t-0.347-0.862 0.347-0.858 0.859-0.344h3.377q0.512 0 0.859 0.348t0.347 0.862-0.347 0.858-0.859 0.344h-3.377zM15.996 5.871q-0.514 0-0.858-0.347t-0.344-0.859v-3.377q0-0.512 0.348-0.859t0.862-0.347 0.858 0.347 0.344 0.859v3.377q0 0.512-0.348 0.859t-0.862 0.347zM15.996 31.917q-0.514 0-0.858-0.347t-0.344-0.859v-3.377q0-0.512 0.348-0.859t0.862-0.347 0.858 0.347 0.344 0.859v3.377q0 0.512-0.348 0.859t-0.862 0.347zM7.149 8.838l-1.893-1.857q-0.362-0.35-0.347-0.859t0.344-0.868q0.359-0.359 0.868-0.359t0.859 0.362l1.857 1.893q0.326 0.362 0.326 0.844t-0.326 0.832-0.826 0.344-0.862-0.332zM25.019 26.744l-1.857-1.893q-0.326-0.362-0.326-0.859t0.338-0.829q0.338-0.362 0.826-0.356t0.85 0.356l1.893 1.857q0.362 0.35 0.347 0.859t-0.344 0.868q-0.359 0.359-0.868 0.359t-0.859-0.362zM23.163 8.838q-0.362-0.35-0.356-0.838t0.356-0.85l1.857-1.893q0.35-0.362 0.859-0.347t0.868 0.344q0.359 0.359 0.359 0.868t-0.362 0.859l-1.893 1.857q-0.338 0.326-0.829 0.326t-0.86-0.326zM5.254 26.746q-0.359-0.359-0.359-0.868t0.362-0.859l1.893-1.857q0.357-0.35 0.848-0.35t0.831 0.35q0.371 0.35 0.365 0.838t-0.356 0.85l-1.857 1.893q-0.35 0.362-0.859 0.347t-0.868-0.344z"></path>
</svg>
