<!-- Generated by IcoMoon.io -->
<svg version="1.1" xmlns="http://www.w3.org/2000/svg" width="32" height="32" viewBox="0 0 32 32">
<path d="M3.574 31.25q-1.144 0-1.984-0.84t-0.84-1.984v-24.852q0-1.144 0.84-1.984t1.984-0.84h13.414q0.6 0 1.006 0.408t0.406 1.010-0.406 1.005-1.006 0.402h-13.414v24.852h24.852v-13.414q0-0.6 0.408-1.006t1.010-0.406 1.005 0.406 0.402 1.006v13.414q0 1.144-0.84 1.984t-1.984 0.84h-24.852zM5.833 24.416h20.333l-6.185-8.246-5.281 6.975-3.925-5.196-4.942 6.467zM24.839 7.189h-2.203q-0.6 0-1.006-0.408t-0.406-1.010 0.406-1.005 1.006-0.402h2.203v-2.203q0-0.6 0.407-1.006t1.010-0.406 1.004 0.406 0.402 1.006v2.203h2.175q0.6 0 1.006 0.408t0.406 1.010-0.406 1.005-1.006 0.402h-2.175v2.175q0 0.6-0.407 1.006t-1.010 0.406-1.004-0.406-0.402-1.006v-2.175z"></path>
</svg>
