<!-- Generated by IcoMoon.io -->
<svg version="1.1" xmlns="http://www.w3.org/2000/svg" width="32" height="32" viewBox="0 0 32 32">
<path d="M17.397 13.891l-3.383-3.356 1.15-2.914h-1.589c-0.594-0.119-1.066-0.386-1.417-0.801s-0.587-0.865-0.705-1.349c-0.173-0.539-0.093-1.066 0.24-1.582s0.86-0.774 1.582-0.774h14.175c0.612 0 1.13 0.212 1.554 0.637s0.637 0.942 0.637 1.554c0 0.612-0.212 1.13-0.637 1.555s-0.942 0.637-1.554 0.637h-7.423zM27.257 31.18l-12.161-11.893-3.621 9.157c-0.174 0.411-0.445 0.735-0.815 0.972s-0.774 0.356-1.212 0.356c-0.785 0-1.397-0.329-1.835-0.986s-0.498-1.351-0.178-2.082l4.293-10.758-10.612-11.203c-0.264-0.265-0.397-0.584-0.397-0.958s0.132-0.694 0.397-0.959c0.265-0.264 0.585-0.397 0.959-0.397s0.694 0.132 0.958 0.397l26.142 26.438c0.265 0.265 0.397 0.584 0.397 0.958s-0.132 0.694-0.397 0.959c-0.265 0.265-0.585 0.397-0.959 0.397s-0.694-0.132-0.958-0.397z"></path>
</svg>
