<!-- Generated by IcoMoon.io -->
<svg version="1.1" xmlns="http://www.w3.org/2000/svg" width="32" height="32" viewBox="0 0 32 32">
<path d="M16 1.234c-8.142 0-14.766 6.624-14.766 14.766s6.624 14.766 14.766 14.766 14.766-6.624 14.766-14.766-6.624-14.766-14.766-14.766zM16 0.25c8.699 0 15.75 7.051 15.75 15.75s-7.051 15.75-15.75 15.75-15.75-7.051-15.75-15.75 7.051-15.75 15.75-15.75z"></path>
<path d="M22.166 21.975c0-0.177-0.022-0.419-0.044-0.773-0.044-0.353-0.066-0.751-0.11-1.215-0.044-0.442-0.11-0.95-0.155-1.502l-0.221-1.657-0.221-1.591-0.265-1.635-0.332-1.591c-0.133-0.531-0.265-1.039-0.419-1.546-0.106-0.314-0.219-0.577-0.348-0.83l0.016 0.034c-0.148-0.285-0.309-0.532-0.492-0.759l0.007 0.008c-0.196-0.223-0.421-0.414-0.672-0.567l-0.013-0.007c-0.265-0.133-0.531-0.22-0.84-0.22-0.486 0-0.972 0.199-1.414 0.574q-0.696 0.563-1.325 1.458c-0.425 0.593-0.823 1.266-1.159 1.975l-0.034 0.080c-0.398 0.751-0.729 1.502-1.039 2.231-0.309 0.751-0.597 1.458-0.817 2.12-0.22 0.685-0.398 1.237-0.508 1.657-0.265-0.066-0.464-0.11-0.597-0.155-0.132-0.038-0.284-0.062-0.44-0.066h-0.002q-0.265 0-0.398 0.066c-0.098 0.036-0.181 0.097-0.242 0.175l-0.001 0.001c-0.043 0.078-0.088 0.172-0.126 0.27l-0.006 0.018c-0.045 0.091-0.090 0.2-0.127 0.313l-0.005 0.018c0.037 0.168 0.106 0.317 0.201 0.445l-0.002-0.003c0.045 0.111 0.132 0.198 0.24 0.242l0.003 0.001c0.089 0.066 0.243 0.11 0.419 0.133 0.155 0.044 0.375 0.066 0.641 0.066-0.089 0.375-0.177 0.707-0.243 0.972l-0.177 0.861c-0.066 0.232-0.128 0.524-0.171 0.821l-0.005 0.041c-0.029 0.204-0.045 0.439-0.045 0.678 0 0.041 0 0.083 0.001 0.123v-0.006c0 0.133 0.044 0.199 0.177 0.287 0.108 0.075 0.231 0.142 0.362 0.194l0.013 0.005q0.199 0.066 0.464 0.133c0.155 0 0.287 0.022 0.375 0.022 0.199 0 0.398-0.11 0.574-0.287s0.265-0.353 0.265-0.531c0-0.486 0.022-1.038 0.066-1.612 0.047-0.65 0.125-1.24 0.236-1.819l-0.016 0.096 1.767-0.133c0.552-0.044 1.104-0.089 1.657-0.177q0.795-0.099 1.657-0.265c0.531-0.089 1.126-0.221 1.79-0.375 0.002 0.392 0.027 0.776 0.071 1.153l-0.005-0.048c0 0.398 0.022 0.685 0.022 0.817-0.003 0.151-0.019 0.295-0.047 0.435l0.003-0.016c-0.044 0.133-0.066 0.287-0.11 0.419-0.042 0.104-0.080 0.23-0.107 0.359l-0.003 0.016c-0.044 0.133-0.044 0.243-0.044 0.375 0 0.243 0.133 0.464 0.419 0.641 0.265 0.177 0.531 0.265 0.817 0.265 0.375 0 0.641-0.11 0.817-0.353 0.166-0.23 0.266-0.518 0.266-0.828 0-0.012 0-0.024 0-0.035v0.002zM19.891 17.491c-0.841 0.225-1.897 0.434-2.972 0.581l-0.143 0.016c-0.964 0.155-2.074 0.243-3.205 0.243-0.007 0-0.014 0-0.022 0h0.001c0.439-1.599 0.914-2.935 1.472-4.228l-0.080 0.208c0.55-1.35 1.218-2.514 2.017-3.574l-0.029 0.040q0.332-0.464 0.663-0.729t0.531-0.265c0.022 0 0.066 0.022 0.155 0.066 0.049 0.046 0.093 0.096 0.131 0.152l0.002 0.003c0.127 0.269 0.24 0.585 0.324 0.914l0.008 0.036 0.243 0.994c0.066 0.332 0.133 0.641 0.177 0.95 0.052 0.353 0.114 0.653 0.191 0.946l-0.014-0.062c0.089 0.552 0.177 1.149 0.265 1.767 0.089 0.641 0.176 1.281 0.287 1.944z"></path>
</svg>
