<!-- Generated by IcoMoon.io -->
<svg version="1.1" xmlns="http://www.w3.org/2000/svg" width="32" height="32" viewBox="0 0 32 32">
<path d="M16.003 21.494q2.589 0 4.399-1.812t1.81-4.401-1.812-4.399-4.401-1.81-4.399 1.812-1.81 4.401 1.812 4.399 4.401 1.81zM15.994 19.249q-1.654 0-2.807-1.158t-1.153-2.813 1.158-2.807 2.813-1.153 2.807 1.158 1.153 2.813-1.158 2.807-2.813 1.153zM16 26.033q-4.826 0-8.785-2.676t-6.325-6.904q-0.155-0.278-0.233-0.571t-0.077-0.602 0.077-0.6 0.233-0.568q2.365-4.228 6.325-6.904t8.785-2.676 8.785 2.676 6.325 6.904q0.155 0.278 0.233 0.571t0.077 0.602-0.077 0.6-0.233 0.568q-2.365 4.228-6.325 6.904t-8.785 2.676zM15.996 23.644q4.244 0 7.798-2.275t5.417-6.086q-1.863-3.81-5.413-6.086t-7.794-2.275-7.798 2.275-5.441 6.086q1.887 3.81 5.437 6.086t7.794 2.275z"></path>
</svg>
