<!-- Generated by IcoMoon.io -->
<svg version="1.1" xmlns="http://www.w3.org/2000/svg" width="32" height="32" viewBox="0 0 32 32">
<path d="M19.694 14.153v3.141q0 0.56 0.381 0.94t0.943 0.379 0.939-0.379 0.376-0.94v-6.307q0-0.56-0.379-0.94t-0.94-0.379h-6.307q-0.56 0-0.94 0.381t-0.379 0.943 0.379 0.939 0.94 0.376h3.101l-7.903 7.903q-0.383 0.383-0.383 0.922t0.372 0.93q0.406 0.392 0.953 0.392t0.944-0.396l7.903-7.903zM16.007 31.833q-3.279 0-6.162-1.247t-5.034-3.398-3.398-5.036-1.247-6.166 1.247-6.166 3.398-5.023q2.151-2.138 5.036-3.384t6.166-1.247 6.166 1.247 5.023 3.384 3.384 5.027 1.247 6.168-1.247 6.162-3.384 5.029-5.027 3.398-6.168 1.252zM16.013 29.194q5.502 0 9.342-3.853t3.84-9.355-3.834-9.342-9.36-3.84q-5.489 0-9.342 3.834t-3.853 9.36q0 5.489 3.853 9.342t9.355 3.853z"></path>
</svg>
