<!-- Generated by IcoMoon.io -->
<svg version="1.1" xmlns="http://www.w3.org/2000/svg" width="32" height="32" viewBox="0 0 32 32">
<path d="M0.464 25.782v-19.564q0-0.959 0.672-1.63t1.633-0.672 1.63 0.672q0.669 0.671 0.669 1.63v19.564q0 0.959-0.672 1.63t-1.633 0.672-1.629-0.672q-0.669-0.671-0.669-1.63zM9.67 28.083q-0.959 0-1.63-0.672t-0.672-1.63v-19.564q0-0.959 0.672-1.63t1.63-0.672h12.659q0.959 0 1.63 0.672t0.672 1.63v19.564q0 0.959-0.672 1.63t-1.63 0.672h-12.659zM26.932 25.782v-19.564q0-0.959 0.672-1.63t1.633-0.672 1.629 0.672q0.669 0.671 0.669 1.63v19.564q0 0.959-0.672 1.63t-1.633 0.672-1.63-0.672q-0.669-0.671-0.669-1.63zM10.246 25.206h11.508v-18.412h-11.508v18.412z"></path>
</svg>
