<!-- Generated by IcoMoon.io -->
<svg version="1.1" xmlns="http://www.w3.org/2000/svg" width="32" height="32" viewBox="0 0 32 32">
<path d="M8.333 23.182q-3.182 0-5.424-2.242t-2.243-5.424 2.243-5.424 5.424-2.242h5.111q0.543 0 0.91 0.369t0.368 0.913-0.368 0.909-0.91 0.364h-5.111q-2.13 0-3.62 1.489t-1.491 3.616 1.491 3.622 3.62 1.495h5.111q0.543 0 0.91 0.369t0.368 0.913-0.368 0.909-0.91 0.364h-5.111zM11.272 16.793q-0.543 0-0.91-0.368t-0.368-0.914 0.368-0.909 0.91-0.364h9.455q0.543 0 0.91 0.368t0.368 0.914-0.368 0.909-0.91 0.364h-9.455zM18.556 23.182q-0.543 0-0.91-0.369t-0.368-0.913 0.368-0.909 0.91-0.364h5.111q2.13 0 3.62-1.489t1.491-3.616-1.491-3.622-3.62-1.495h-5.111q-0.543 0-0.91-0.369t-0.368-0.913 0.368-0.909 0.91-0.364h5.111q3.182 0 5.424 2.243t2.242 5.424-2.242 5.424-5.424 2.242h-5.111z"></path>
</svg>
