<!-- Generated by IcoMoon.io -->
<svg version="1.1" xmlns="http://www.w3.org/2000/svg" width="32" height="32" viewBox="0 0 32 32">
<path d="M9.822 22.179c-0.464 0-0.772-0.155-1.081-0.464-0.618-0.618-0.618-1.545 0-2.162l3.552-3.552-3.552-3.552c-0.618-0.618-0.618-1.545 0-2.162s1.545-0.618 2.162 0l4.634 4.634c0.618 0.618 0.618 1.545 0 2.162l-4.634 4.634c-0.309 0.309-0.618 0.464-1.081 0.464zM22.178 22.179h-4.634c-0.926 0-1.545-0.618-1.545-1.545s0.618-1.545 1.545-1.545h4.634c0.926 0 1.545 0.618 1.545 1.545s-0.618 1.545-1.545 1.545z"></path>
<path d="M26.811 29.901h-21.622c-2.625 0-4.634-2.008-4.634-4.634v-18.534c0-2.625 2.008-4.634 4.634-4.634h21.622c2.625 0 4.634 2.008 4.634 4.634v18.534c0 2.625-2.008 4.634-4.634 4.634zM5.189 5.19c-0.926 0-1.545 0.618-1.545 1.545v18.534c0 0.926 0.618 1.545 1.545 1.545h21.622c0.926 0 1.545-0.618 1.545-1.545v-18.534c0-0.926-0.618-1.545-1.545-1.545h-21.622z"></path>
</svg>
