<!-- Generated by IcoMoon.io -->
<svg version="1.1" xmlns="http://www.w3.org/2000/svg" width="32" height="32" viewBox="0 0 32 32">
<path d="M5.609 31.583q-2.153 0-3.672-1.522t-1.519-3.675 1.521-3.672 3.673-1.519q0.727 0 1.39 0.189t1.247 0.525l6.454-6.428v-4.831q-1.688-0.455-2.792-1.837t-1.104-3.202q0-2.152 1.522-3.673t3.675-1.521 3.672 1.521 1.519 3.673q0 1.819-1.104 3.202t-2.792 1.837v4.831l6.467 6.428q0.596-0.336 1.252-0.525t1.371-0.189q2.152 0 3.673 1.522t1.521 3.675-1.522 3.672-3.675 1.519-3.672-1.521-1.519-3.673q0-0.727 0.189-1.39t0.525-1.247l-5.909-5.935-5.909 5.935q0.336 0.584 0.525 1.247t0.189 1.39q0 2.152-1.522 3.673t-3.675 1.521zM26.386 28.986q1.081 0 1.84-0.756t0.76-1.837-0.756-1.841-1.837-0.76-1.841 0.756-0.76 1.838 0.756 1.84 1.838 0.76zM15.997 8.208q1.081 0 1.841-0.756t0.76-1.838-0.756-1.84-1.838-0.76-1.841 0.756-0.76 1.837 0.756 1.841 1.838 0.76zM5.608 28.986q1.081 0 1.841-0.756t0.76-1.837-0.756-1.841-1.838-0.76-1.84 0.756-0.76 1.838 0.756 1.84 1.837 0.76z"></path>
</svg>
