<!-- Generated by IcoMoon.io -->
<svg version="1.1" xmlns="http://www.w3.org/2000/svg" width="32" height="32" viewBox="0 0 32 32">
<path d="M7.936 27.417q-3.175 0-5.405-2.206t-2.23-5.393q0-2.783 1.748-4.912t4.484-2.616q0.773-3.401 3.425-5.542t6.089-2.141q4.056 0 6.857 2.908t2.801 7.011v0.571q2.533 0.047 4.264 1.814t1.73 4.347q0 2.533-1.814 4.347t-4.347 1.814h-17.602zM7.936 25.039h17.602q1.57 0 2.676-1.106t1.106-2.676-1.106-2.676-2.676-1.106h-2.212v-2.949q0-3.152-2.147-5.346t-5.227-2.194-5.239 2.194-2.159 5.346h-0.69q-2.165 0-3.675 1.522t-1.51 3.723 1.539 3.734 3.717 1.534zM16.004 21.471q0.507 0 0.846-0.343t0.339-0.851-0.343-0.846-0.851-0.339-0.846 0.343-0.339 0.851 0.343 0.846 0.851 0.339zM16.004 16.714q0.507 0 0.846-0.342t0.339-0.847v-4.044q0-0.505-0.343-0.847t-0.851-0.342-0.846 0.342-0.339 0.847v4.044q0 0.505 0.343 0.847t0.851 0.342z"></path>
</svg>
