<!-- Generated by IcoMoon.io -->
<svg version="1.1" xmlns="http://www.w3.org/2000/svg" width="32" height="32" viewBox="0 0 32 32">
<path d="M20.618 28.841c0-0.028-0.001-0.063-0.001-0.097 0-1.607 0.607-3.072 1.604-4.179l-0.005 0.006c1.070-1.105 2.258-2.084 3.545-2.924l0.078-0.048c0.857-0.585 1.608-1.2 2.299-1.874l-0.004 0.004c0.663-0.696 1.079-1.633 1.103-2.668v-0.005c0.005-0.060 0.008-0.129 0.008-0.2 0-0.721-0.286-1.375-0.751-1.855l0.001 0.001c-0.533-0.432-1.219-0.693-1.967-0.693-0.076 0-0.152 0.003-0.227 0.008l0.010-0.001c-0.052-0.004-0.113-0.006-0.174-0.006-0.864 0-1.632 0.412-2.119 1.050l-0.005 0.007c-0.539 0.788-0.859 1.76-0.859 2.807 0 0.067 0.001 0.132 0.004 0.198v-0.010h-2.454c-0.003-0.069-0.004-0.148-0.004-0.23 0-1.594 0.59-3.051 1.565-4.163l-0.006 0.007c0.961-1.083 2.358-1.763 3.913-1.763 0.079 0 0.158 0.002 0.236 0.005h-0.011c0.069-0.003 0.149-0.005 0.23-0.005 1.373 0 2.627 0.512 3.58 1.357l-0.006-0.005c0.901 0.846 1.463 2.044 1.463 3.374 0 0.050-0.001 0.1-0.002 0.15v-0.007c-0.017 1.5-0.612 2.857-1.571 3.863l0.002-0.002c-0.993 0.948-2.081 1.813-3.245 2.574l-0.086 0.053c-1.311 0.729-2.368 1.777-3.086 3.043l-0.021 0.039h8.039v2.187zM13.982 28.841v-11.414h-10.823v11.414h-2.853v-25.682h2.853v11.414h10.822v-11.414h2.853v25.682z"></path>
</svg>
