<!-- Generated by IcoMoon.io -->
<svg version="1.1" xmlns="http://www.w3.org/2000/svg" width="32" height="32" viewBox="0 0 32 32">
<path d="M16 18.906c1.605 0 2.906-1.301 2.906-2.906s-1.301-2.906-2.906-2.906v0c-1.605 0-2.906 1.301-2.906 2.906s1.301 2.906 2.906 2.906v0z"></path>
<path d="M16 0.5c-8.561 0-15.5 6.939-15.5 15.5s6.939 15.5 15.5 15.5v0c8.561 0 15.5-6.939 15.5-15.5s-6.939-15.5-15.5-15.5v0zM3.406 16c0-6.956 5.638-12.594 12.594-12.594s12.594 5.638 12.594 12.594v0c0 6.956-5.638 12.594-12.594 12.594s-12.594-5.638-12.594-12.594v0z"></path>
</svg>
