<!-- Generated by IcoMoon.io -->
<svg version="1.1" xmlns="http://www.w3.org/2000/svg" width="32" height="32" viewBox="0 0 32 32">
<path d="M8.123 31.583q-1.25 0-2.125-0.876-0.875-0.875-0.875-2.125v-25.165q0-1.25 0.875-2.125 0.876-0.876 2.125-0.876h8.633q3.621 0 6.34 2.302t2.719 5.879q0 2.279-1.21 4.064-1.21 1.786-3.117 2.673v0.175q2.334 0.711 3.861 2.722t1.527 4.71q0 3.898-2.963 6.27t-6.711 2.372h-9.080zM9.17 27.931h7.804q2.491 0 4.145-1.562t1.654-3.75q0-2.149-1.646-3.711t-4.174-1.562h-7.782v10.585zM9.17 13.84h7.336q2.207 0 3.761-1.401t1.554-3.509q0-2.114-1.57-3.518t-3.721-1.404h-7.359v9.831z"></path>
</svg>
