<!-- Generated by IcoMoon.io -->
<svg version="1.1" xmlns="http://www.w3.org/2000/svg" width="32" height="32" viewBox="0 0 32 32">
<path d="M16 1.469c-8.013 0-14.531 6.519-14.531 14.531s6.519 14.531 14.531 14.531 14.531-6.519 14.531-14.531-6.519-14.531-14.531-14.531zM16 0.5c8.561 0 15.5 6.939 15.5 15.5s-6.939 15.5-15.5 15.5-15.5-6.939-15.5-15.5 6.939-15.5 15.5-15.5z"></path>
<path d="M23.083 23.316c0-0.046-0.023-0.091-0.046-0.16l-0.069-0.138c-0.042-0.057-0.067-0.128-0.069-0.205v0c-0.040-0.042-0.066-0.098-0.069-0.16v-0.001c-0.094-0.199-0.18-0.435-0.245-0.679l-0.007-0.029c-0.069-0.252-0.114-0.572-0.138-0.983-0.046-0.457-0.091-0.96-0.091-1.463-0.046-0.503-0.046-0.983-0.046-1.441 0-1.006 0-1.898 0.046-2.675 0-0.777 0.046-1.509 0.091-2.194 0.023-0.64 0.069-1.257 0.138-1.829s0.16-1.143 0.252-1.715l0.091-0.388c0.026-0.115 0.043-0.249 0.046-0.387v-0.002c-0.023-0.16-0.114-0.274-0.297-0.343-0.183-0.046-0.366-0.091-0.526-0.091-0.229 0-0.457 0.023-0.686 0.046-0.252 0.046-0.434 0.114-0.572 0.205-0.32 0.229-0.64 0.64-0.96 1.189-0.331 0.538-0.667 1.176-0.963 1.836l-0.043 0.108c-0.343 0.755-0.663 1.555-0.96 2.377-0.32 0.869-0.64 1.691-0.915 2.469-0.32 0.823-0.572 1.509-0.777 2.103-0.229 0.595-0.457 1.098-0.663 1.555-0.412-0.64-0.731-1.212-1.006-1.738-0.239-0.423-0.485-0.935-0.698-1.463l-0.033-0.092c-0.37-0.8-0.699-1.746-0.938-2.726l-0.022-0.108c-0.217-0.782-0.432-1.794-0.595-2.824l-0.022-0.171c-0.046-0.343-0.091-0.709-0.114-1.074-0.046-0.366-0.091-0.731-0.16-1.098-0.091-0.252-0.274-0.457-0.595-0.595-0.343-0.114-0.663-0.183-0.938-0.183-0.366 0-0.617 0.069-0.709 0.183-0.1 0.122-0.161 0.28-0.161 0.452 0 0.010 0 0.019 0.001 0.029v-0.001 0.32c0 0.138-0.023 0.229-0.023 0.297-0.229 1.006-0.388 2.194-0.503 3.566-0.138 1.372-0.183 2.858-0.183 4.458v1.509l0.046 0.937c0 0.32 0 0.64 0.023 0.938 0.016 0.46 0.058 0.894 0.122 1.32l-0.008-0.063c0.023 0.32 0.069 0.548 0.114 0.663 0.091 0.32 0.343 0.48 0.709 0.48 0.297 0 0.572-0.046 0.823-0.183 0.229-0.138 0.343-0.274 0.343-0.434-0.001-0.14-0.025-0.273-0.071-0.396l0.003 0.008c-0.046-0.114-0.069-0.229-0.114-0.366l-0.091-0.32c-0.044-0.086-0.069-0.187-0.069-0.294 0-0.009 0-0.017 0.001-0.026v0.001c-0.091-0.48-0.138-1.189-0.183-2.149s-0.046-2.058-0.046-3.315v-1.074l0.046-0.915 0.091-0.915 0.138-1.029c0.091 0.503 0.183 0.938 0.274 1.326 0.122 0.562 0.217 0.938 0.319 1.311l-0.045-0.191c0.091 0.366 0.183 0.731 0.274 1.052 0.111 0.394 0.228 0.721 0.363 1.038l-0.020-0.054c0.388 1.098 0.846 2.172 1.394 3.177 0.503 1.029 1.098 1.898 1.783 2.584 0.183 0.229 0.412 0.32 0.686 0.32 0.32 0 0.617-0.16 0.869-0.48 0.091-0.091 0.183-0.274 0.32-0.548 0.114-0.274 0.229-0.572 0.366-0.891 0.114-0.32 0.229-0.617 0.343-0.938l0.252-0.686 0.64-1.783c0.183-0.595 0.412-1.212 0.663-1.852 0.229-0.64 0.503-1.303 0.823-2.012 0.297-0.686 0.64-1.441 1.052-2.241-0.091 0.731-0.16 1.441-0.205 2.172-0.069 0.755-0.114 1.486-0.138 2.217-0.046 0.731-0.046 1.441-0.046 2.126-0.023 0.709-0.023 1.372-0.023 1.966 0 0.731 0.023 1.372 0.114 1.966s0.205 1.074 0.343 1.441c0.069 0.229 0.205 0.412 0.434 0.572 0.182 0.14 0.412 0.226 0.663 0.229h0.001c0.229 0 0.434-0.046 0.572-0.138s0.229-0.183 0.229-0.297z"></path>
</svg>
