<!-- Generated by IcoMoon.io -->
<svg version="1.1" xmlns="http://www.w3.org/2000/svg" width="32" height="32" viewBox="0 0 32 32">
<path d="M9.697 31.917q-1.506 0-2.575-1.072t-1.069-2.578 1.072-2.576 2.578-1.069q1.506 0 2.576 1.072t1.069 2.578-1.072 2.575-2.579 1.069zM22.297 31.917q-1.506 0-2.576-1.072t-1.069-2.578 1.072-2.576 2.578-1.069q1.506 0 2.575 1.072t1.069 2.578-1.072 2.575-2.578 1.069zM9.697 19.647q-1.506 0-2.575-1.072t-1.069-2.578 1.072-2.575 2.578-1.069 2.576 1.072q1.069 1.072 1.069 2.578t-1.072 2.575-2.579 1.069zM22.297 19.647q-1.506 0-2.576-1.072t-1.069-2.578 1.072-2.575 2.578-1.069 2.575 1.072 1.069 2.578-1.072 2.575-2.578 1.069zM9.697 7.379q-1.506 0-2.575-1.072t-1.069-2.579 1.072-2.575 2.578-1.069 2.576 1.072 1.069 2.578q0 1.506-1.072 2.576t-2.579 1.069zM22.297 7.379q-1.506 0-2.576-1.072t-1.069-2.579 1.072-2.575 2.578-1.069 2.575 1.072 1.069 2.578-1.072 2.576-2.578 1.069z"></path>
</svg>
