<!-- Generated by IcoMoon.io -->
<svg version="1.1" xmlns="http://www.w3.org/2000/svg" width="32" height="32" viewBox="0 0 32 32">
<path d="M3.825 15.96l6.746 6.746q0.386 0.386 0.373 0.931t-0.399 0.932q-0.386 0.386-0.944 0.386t-0.945-0.386l-7.691-7.691q-0.213-0.213-0.299-0.439t-0.086-0.492 0.086-0.493 0.299-0.439l7.771-7.771q0.399-0.399 0.951-0.399t0.952 0.399 0.399 0.951-0.399 0.951l-6.813 6.813zM28.175 15.933l-6.746-6.746q-0.386-0.386-0.372-0.931t0.399-0.931 0.944-0.386 0.945 0.386l7.691 7.691q0.213 0.213 0.299 0.439t0.086 0.493-0.086 0.492-0.299 0.439l-7.771 7.771q-0.399 0.399-0.931 0.379t-0.932-0.419-0.399-0.952 0.399-0.951l6.773-6.773z"></path>
</svg>
