<!-- Generated by IcoMoon.io -->
<svg version="1.1" xmlns="http://www.w3.org/2000/svg" width="32" height="32" viewBox="0 0 32 32">
<path d="M31.694 11.719h-2.853v-2.853h2.853v2.853zM31.694 17.427h-2.853v-2.853h2.853v2.853zM31.694 6.012h-2.853v-2.853c1.569 0 2.853 1.284 2.853 2.853zM20.281 28.841h-2.853v-2.853h2.853v2.853zM31.694 23.134h-2.853v-2.853h2.853v2.853zM28.841 28.841v-2.853h2.853c0 1.569-1.284 2.853-2.853 2.853zM3.159 3.159h11.414v8.56h-14.267v-5.707c0-1.569 1.284-2.853 2.853-2.853zM3.159 23.134h-2.853v-2.853h2.853v2.853zM20.281 6.012h-2.853v-2.853h2.853v2.853zM25.988 28.841h-2.853v-2.853h2.853v2.853zM25.988 6.012h-2.853v-2.853h2.853v2.853zM3.159 28.841c-1.569 0-2.853-1.284-2.853-2.853h2.853v2.853zM3.159 17.427h-2.853v-2.853h2.853v2.853zM14.573 28.841h-2.853v-2.853h2.853v2.853zM8.866 28.841h-2.853v-2.853h2.853v2.853z"></path>
</svg>
