<!-- Generated by IcoMoon.io -->
<svg version="1.1" xmlns="http://www.w3.org/2000/svg" width="32" height="32" viewBox="0 0 32 32">
<path d="M16 31.779q-6.589 0-11.184-4.595t-4.595-11.184q0-5.961 3.638-10.19t9.453-5.267q0.774-0.176 1.329 0.022t0.877 0.65q0.321 0.423 0.314 1.037t-0.358 1.359q-0.511 1.052-0.781 2.177t-0.27 2.323q0 3.945 2.761 6.706t6.706 2.761q1.184 0 2.316-0.263t2.126-0.73q0.804-0.336 1.439-0.299t1.059 0.343q0.438 0.307 0.607 0.891t-0.008 1.403q-0.994 5.551-5.252 9.204t-10.176 3.652zM16 28.856q4.471 0 7.86-2.68t4.442-6.48q-1.023 0.395-2.148 0.599t-2.265 0.205q-5.157 0-8.773-3.616t-3.616-8.773q0-0.994 0.19-2.089t0.642-2.411q-4.003 1.257-6.596 4.69t-2.593 7.7q0 5.347 3.754 9.102t9.102 3.754z"></path>
</svg>
