<!-- Generated by IcoMoon.io -->
<svg version="1.1" xmlns="http://www.w3.org/2000/svg" width="32" height="32" viewBox="0 0 32 32">
<path d="M2.806 27.083q-1.069 0-1.854-0.798t-0.785-1.841v-16.889q0-1.069 0.785-1.854t1.854-0.785h26.389q1.069 0 1.854 0.785t0.785 1.854v16.889q0 1.043-0.785 1.841t-1.854 0.798h-26.389zM2.806 24.444h26.389v-16.889h-26.389v16.889zM10.458 22.201h11.083q0.561 0 0.94-0.381t0.379-0.943-0.379-0.939-0.94-0.376h-11.083q-0.561 0-0.94 0.381t-0.379 0.943 0.379 0.939 0.94 0.376zM2.806 24.444v0zM6.32 12.438q0.563 0 0.939-0.381t0.376-0.943-0.381-0.939-0.943-0.376-0.939 0.381-0.376 0.943 0.381 0.939 0.943 0.376zM11.176 12.438q0.562 0 0.938-0.381t0.376-0.943-0.38-0.939-0.944-0.376-0.938 0.381-0.376 0.943 0.38 0.939 0.944 0.376zM16.005 12.438q0.562 0 0.938-0.381t0.376-0.943-0.381-0.939-0.944-0.376-0.938 0.381-0.376 0.943 0.38 0.939 0.944 0.376zM20.86 12.438q0.563 0 0.939-0.381t0.376-0.943-0.381-0.939-0.943-0.376-0.939 0.381-0.376 0.943 0.381 0.939 0.943 0.376zM25.689 12.438q0.563 0 0.939-0.381t0.376-0.943-0.381-0.939-0.943-0.376-0.939 0.381-0.376 0.943 0.381 0.939 0.943 0.376zM6.32 17.319q0.563 0 0.939-0.381t0.376-0.944-0.381-0.938-0.943-0.376-0.939 0.38-0.376 0.944 0.381 0.938 0.943 0.376zM11.176 17.319q0.562 0 0.938-0.381t0.376-0.944-0.38-0.938-0.944-0.376-0.938 0.38-0.376 0.944 0.38 0.938 0.944 0.376zM16.005 17.319q0.562 0 0.938-0.381t0.376-0.944-0.381-0.938-0.944-0.376-0.938 0.38-0.376 0.944 0.38 0.938 0.944 0.376zM20.86 17.319q0.563 0 0.939-0.381t0.376-0.944-0.381-0.938-0.943-0.376-0.939 0.38-0.376 0.944 0.381 0.938 0.943 0.376zM25.689 17.319q0.563 0 0.939-0.381t0.376-0.944-0.381-0.938-0.943-0.376-0.939 0.38-0.376 0.944 0.381 0.938 0.943 0.376z"></path>
</svg>
