<!-- Generated by IcoMoon.io -->
<svg version="1.1" xmlns="http://www.w3.org/2000/svg" width="32" height="32" viewBox="0 0 32 32">
<path d="M16.079 25.168q0.688 0 1.161-0.475t0.474-1.163-0.475-1.161-1.162-0.474-1.161 0.475-0.474 1.162 0.475 1.162q0.475 0.474 1.162 0.474zM16.007 31.583q-3.227 0-6.065-1.227t-4.955-3.344-3.344-4.957-1.227-6.068 1.227-6.069 3.344-4.943 4.957-3.331 6.068-1.227 6.069 1.227q2.84 1.227 4.943 3.331t3.331 4.948 1.227 6.070-1.227 6.065-3.331 4.95-4.948 3.344-6.070 1.232zM16.013 28.986q5.415 0 9.194-3.792t3.779-9.207-3.774-9.194-9.212-3.779q-5.402 0-9.194 3.774t-3.792 9.212q0 5.402 3.792 9.194t9.207 3.792zM16.124 9.091q1.11 0 1.948 0.688t0.838 1.745q0 0.969-0.582 1.694t-1.314 1.366q-0.896 0.753-1.565 1.672t-0.668 2.068q0 0.468 0.355 0.76t0.827 0.292q0.506 0 0.847-0.338t0.438-0.844q0.13-0.818 0.649-1.474t1.175-1.208q0.942-0.811 1.572-1.85t0.63-2.275q0-1.971-1.513-3.263t-3.563-1.292q-1.416 0-2.722 0.597t-2.084 1.779q-0.273 0.415-0.228 0.89t0.421 0.747q0.478 0.312 0.991 0.195t0.854-0.584q0.474-0.66 1.185-1.012t1.51-0.352z"></path>
</svg>
