<!-- Generated by IcoMoon.io -->
<svg version="1.1" xmlns="http://www.w3.org/2000/svg" width="32" height="32" viewBox="0 0 32 32">
<path d="M5.651 28.818h18.698v-15.598h-18.698v15.598zM15.004 23.898q1.189 0 2.032-0.831t0.843-1.998q0-1.144-0.847-2.036t-2.036-0.892-2.032 0.892-0.843 2.048 0.847 1.987 2.036 0.83zM5.651 28.818v0zM5.651 31.279q-1.015 0-1.738-0.723t-0.723-1.738v-15.598q0-1.015 0.723-1.738t1.738-0.723h11.563v-3.346q0-2.961 2.087-5.048t5.048-2.087q2.62 0 4.552 1.624t2.436 4.047q0.111 0.504-0.243 0.984t-0.845 0.48q-0.523 0-0.867-0.234t-0.455-0.75q-0.357-1.575-1.622-2.633t-2.954-1.058q-1.947 0-3.311 1.363t-1.363 3.311v3.346h4.674q1.015 0 1.738 0.723t0.723 1.738v15.598q0 1.015-0.723 1.738t-1.738 0.723h-18.698z"></path>
</svg>
