<!-- Generated by IcoMoon.io -->
<svg version="1.1" xmlns="http://www.w3.org/2000/svg" width="32" height="32" viewBox="0 0 32 32">
<path d="M16 31.583q-3.195 0-6.039-1.227t-4.967-3.35-3.35-4.967-1.227-6.039q0-3.285 1.253-6.129t3.415-4.948 5.058-3.305 6.194-1.201q3.091 0 5.857 1.045t4.85 2.896 3.311 4.389 1.227 5.539q0 4.298-2.545 6.72t-6.545 2.422h-2.909q-0.584 0-0.967 0.429t-0.383 0.948q0 0.857 0.571 1.643t0.571 1.812q0 1.636-0.903 2.48t-2.474 0.844zM7.091 17.195q0.857 0 1.467-0.61t0.61-1.467-0.61-1.467-1.467-0.61-1.467 0.61-0.61 1.467 0.61 1.467 1.467 0.61zM11.922 10.702q0.857 0 1.467-0.61t0.61-1.467-0.61-1.467-1.467-0.61-1.467 0.61-0.61 1.467 0.61 1.467 1.467 0.61zM20.078 10.702q0.857 0 1.467-0.61t0.61-1.467-0.61-1.467-1.467-0.61-1.467 0.61-0.61 1.467 0.61 1.467 1.467 0.61zM25.038 17.195q0.857 0 1.467-0.61t0.61-1.467-0.61-1.467-1.467-0.61-1.467 0.61-0.61 1.467 0.61 1.467 1.467 0.61zM16 28.986q0.403 0 0.591-0.181t0.188-0.545q0-0.545-0.571-1.104t-0.571-2.117q0-1.74 1.155-2.974t2.896-1.234h2.805q2.831 0 4.662-1.656t1.831-4.889q0-5-3.798-8.136t-8.85-3.136q-5.558 0-9.441 3.766t-3.883 9.22q0 5.389 3.798 9.188t9.188 3.798z"></path>
</svg>
