<!-- Generated by IcoMoon.io -->
<svg version="1.1" xmlns="http://www.w3.org/2000/svg" width="32" height="32" viewBox="0 0 32 32">
<path d="M3.371 31.5q-1.163 0-2.017-0.854t-0.854-2.017v-5.798q0-0.61 0.414-1.023t1.026-0.413 1.021 0.413 0.409 1.023v5.798h5.798q0.61 0 1.023 0.414t0.413 1.026-0.413 1.021-1.023 0.409h-5.798zM28.629 31.5h-5.798q-0.61 0-1.023-0.414t-0.413-1.026 0.413-1.021 1.023-0.409h5.798v-5.798q0-0.61 0.414-1.023t1.026-0.413 1.021 0.413 0.409 1.023v5.798q0 1.163-0.854 2.017t-2.017 0.854zM0.5 9.168v-5.798q0-1.163 0.854-2.017t2.017-0.854h5.798q0.61 0 1.023 0.414t0.413 1.026-0.413 1.021-1.023 0.409h-5.798v5.798q0 0.61-0.414 1.023t-1.026 0.413-1.021-0.413-0.409-1.023zM28.629 9.168v-5.798h-5.798q-0.61 0-1.023-0.414t-0.413-1.026 0.413-1.021 1.023-0.409h5.798q1.163 0 2.017 0.854t0.854 2.017v5.798q0 0.61-0.414 1.023t-1.026 0.413-1.021-0.413-0.409-1.023zM16 22.401q-2.755 0-4.578-1.823t-1.823-4.578 1.823-4.578 4.578-1.823 4.578 1.823 1.823 4.578-1.823 4.578-4.578 1.823zM16 19.53q1.478 0 2.505-1.026t1.026-2.505-1.026-2.505-2.505-1.026-2.505 1.026-1.026 2.505 1.026 2.505 2.505 1.026z"></path>
</svg>
