<!-- Generated by IcoMoon.io -->
<svg version="1.1" xmlns="http://www.w3.org/2000/svg" width="32" height="32" viewBox="0 0 32 32">
<path d="M16 29.626q-0.443 0-0.902-0.16t-0.807-0.51l-2.184-2.009q-4.431-4.093-7.779-7.904t-3.348-8.104q0-3.434 2.303-5.734t5.707-2.301q1.94 0 3.78 0.895t3.229 2.785q1.514-1.89 3.279-2.785t3.73-0.895q3.404 0 5.707 2.301t2.303 5.734q0 4.293-3.342 8.11t-7.798 7.91l-2.178 2.002q-0.344 0.347-0.798 0.505t-0.904 0.158zM14.874 9.237q-1.039-1.74-2.553-2.785t-3.33-1.045q-2.403 0-3.955 1.564t-1.552 3.979q0 2.092 1.436 4.418t3.436 4.512 4.133 4.077 3.511 3.154q1.377-1.239 3.511-3.142t4.13-4.105 3.436-4.529 1.439-4.395q0-2.403-1.564-3.968t-3.943-1.564q-1.84 0-3.342 1.033t-2.591 2.797q-0.213 0.325-0.488 0.475t-0.613 0.15-0.626-0.15-0.476-0.475z"></path>
</svg>
