<svg  xmlns="http://www.w3.org/2000/svg" viewBox="0 0 32 32">
  <path d="M18.932 21.865c-2.639 0-5.278-1.173-7.038-3.519-0.44-0.587-0.293-1.613 0.293-2.053s1.613-0.293 2.053 0.293c1.906 2.639 5.572 3.079 8.211 1.173 0.293-0.147 0.44-0.293 0.587-0.587l4.399-4.399c2.199-2.346 2.199-6.011-0.147-8.211s-5.865-2.199-8.211 0l-2.493 2.493c-0.587 0.587-1.466 0.587-2.053 0s-0.587-1.466 0-2.053l2.493-2.493c3.372-3.372 8.797-3.372 12.17 0 3.519 3.372 3.519 8.944 0.147 12.463l-4.399 4.399c-0.293 0.293-0.587 0.587-1.026 0.88-1.32 1.026-3.079 1.613-4.985 1.613z"></path>
  <path d="M8.816 31.982c-2.199 0-4.399-0.88-6.158-2.493-3.519-3.372-3.519-8.944-0.147-12.463l4.399-4.399c0.293-0.147 0.587-0.44 0.88-0.733 1.906-1.466 4.252-2.053 6.451-1.613 2.346 0.293 4.399 1.613 5.718 3.372 0.44 0.586 0.293 1.613-0.293 2.053s-1.613 0.293-2.053-0.293c-0.88-1.32-2.346-2.053-3.812-2.346-1.613-0.293-3.079 0.147-4.399 1.173-0.293 0.147-0.44 0.293-0.587 0.587l-4.399 4.399c-2.199 2.346-2.199 6.011 0.147 8.211s5.865 2.199 8.211 0l2.493-2.493c0.587-0.587 1.466-0.587 2.053 0s0.587 1.466 0 2.053l-2.493 2.493c-1.613 1.759-3.812 2.493-6.011 2.493z"></path>
  </svg>