<svg  xmlns="http://www.w3.org/2000/svg" viewBox="0 0 32 32">
  <path d="M30.222 17.778h-28.444c-1.067 0-1.778-0.711-1.778-1.778s0.711-1.778 1.778-1.778h28.444c1.067 0 1.778 0.711 1.778 1.778s-0.711 1.778-1.778 1.778z"></path>
  <path d="M30.222 7.111h-28.444c-1.067 0-1.778-0.711-1.778-1.778s0.711-1.778 1.778-1.778h28.444c1.067 0 1.778 0.711 1.778 1.778s-0.711 1.778-1.778 1.778z"></path>
  <path d="M30.222 28.444h-28.444c-1.067 0-1.778-0.711-1.778-1.778s0.711-1.778 1.778-1.778h28.444c1.067 0 1.778 0.711 1.778 1.778s-0.711 1.778-1.778 1.778z"></path>
  </svg>