<svg  xmlns="http://www.w3.org/2000/svg" viewBox="0 0 32 32">
  <path d="M30.222 32h-3.556c-3.022 0-5.333-2.311-5.333-5.333v-21.333c0-3.022 2.311-5.333 5.333-5.333h3.556c1.067 0 1.778 0.711 1.778 1.778s-0.711 1.778-1.778 1.778h-3.556c-1.067 0-1.778 0.711-1.778 1.778v21.333c0 1.067 0.711 1.778 1.778 1.778h3.556c1.067 0 1.778 0.711 1.778 1.778s-0.711 1.778-1.778 1.778z"></path>
  <path d="M5.333 32h-3.556c-1.067 0-1.778-0.711-1.778-1.778s0.711-1.778 1.778-1.778h3.556c1.067 0 1.778-0.711 1.778-1.778v-21.333c0-1.067-0.711-1.778-1.778-1.778h-3.556c-1.067 0-1.778-0.711-1.778-1.778s0.711-1.778 1.778-1.778h3.556c3.022 0 5.333 2.311 5.333 5.333v21.333c0 3.022-2.311 5.333-5.333 5.333z"></path>
  <path d="M16 24.889c-1.067 0-1.778-0.711-1.778-1.778v-14.222c0-1.067 0.711-1.778 1.778-1.778s1.778 0.711 1.778 1.778v14.222c0 1.067-0.711 1.778-1.778 1.778z"></path>
  </svg>