<svg  xmlns="http://www.w3.org/2000/svg" viewBox="0 0 32 32">
  <path d="M23.273 26.182c-0.873 0-1.455-0.582-1.455-1.455s-0.582-1.455-1.455-1.455h-8.727c-0.873 0-1.455 0.582-1.455 1.455s-0.582 1.455-1.455 1.455-1.455-0.582-1.455-1.455c0-2.473 1.891-4.364 4.364-4.364h8.727c2.473 0 4.364 1.891 4.364 4.364 0 0.873-0.582 1.455-1.455 1.455z"></path>
  <path d="M26.182 32h-20.364c-2.473 0-4.364-1.891-4.364-4.364v-20.364c0-2.473 1.891-4.364 4.364-4.364h20.364c2.473 0 4.364 1.891 4.364 4.364v20.364c0 2.473-1.891 4.364-4.364 4.364zM5.818 5.818c-0.873 0-1.455 0.582-1.455 1.455v20.364c0 0.873 0.582 1.455 1.455 1.455h20.364c0.873 0 1.455-0.582 1.455-1.455v-20.364c0-0.873-0.582-1.455-1.455-1.455h-20.364z"></path>
  <path d="M16 17.455c-2.473 0-4.364-1.891-4.364-4.364s1.891-4.364 4.364-4.364 4.364 1.891 4.364 4.364-1.891 4.364-4.364 4.364zM16 11.636c-0.873 0-1.455 0.582-1.455 1.455s0.582 1.455 1.455 1.455 1.455-0.582 1.455-1.455-0.582-1.455-1.455-1.455z"></path>
  <path d="M10.182 5.818c-0.873 0-1.455-0.582-1.455-1.455v-2.909c0-0.873 0.582-1.455 1.455-1.455s1.455 0.582 1.455 1.455v2.909c0 0.873-0.582 1.455-1.455 1.455z"></path>
  <path d="M21.818 5.818c-0.873 0-1.455-0.582-1.455-1.455v-2.909c0-0.873 0.582-1.455 1.455-1.455s1.455 0.582 1.455 1.455v2.909c0 0.873-0.582 1.455-1.455 1.455z"></path>
  </svg>