<svg  xmlns="http://www.w3.org/2000/svg" viewBox="0 0 32 32">
<path d="M10.746 19.284c-1.839 0-3.284-1.445-3.284-3.284s1.445-3.284 3.284-3.284 3.284 1.445 3.284 3.284c0 1.839-1.445 3.284-3.284 3.284zM10.746 15.737c-0.131 0-0.263 0.131-0.263 0.263 0 0.263 0.394 0.263 0.394 0 0.131-0.131 0-0.263-0.131-0.263z"></path>
<path d="M10.746 7.068c-1.839 0-3.284-1.445-3.284-3.284s1.445-3.284 3.284-3.284 3.284 1.445 3.284 3.284-1.445 3.284-3.284 3.284zM10.746 3.521c-0.131 0-0.263 0.131-0.263 0.263 0 0.263 0.394 0.263 0.394 0 0.131-0.131 0-0.263-0.131-0.263z"></path>
<path d="M10.746 31.5c-1.839 0-3.284-1.445-3.284-3.284s1.445-3.284 3.284-3.284 3.284 1.445 3.284 3.284c0 1.839-1.445 3.284-3.284 3.284zM10.746 28.085c-0.131 0-0.263 0.131-0.263 0.263 0 0.263 0.394 0.263 0.394 0 0.131-0.263 0-0.263-0.131-0.263z"></path>
<path d="M21.254 19.284c-1.839 0-3.284-1.445-3.284-3.284s1.445-3.284 3.284-3.284 3.284 1.445 3.284 3.284c0 1.839-1.445 3.284-3.284 3.284zM21.254 15.737c-0.131 0-0.263 0.131-0.263 0.263 0 0.263 0.394 0.263 0.394 0 0.131-0.131 0-0.263-0.131-0.263z"></path>
<path d="M21.254 7.068c-1.839 0-3.284-1.445-3.284-3.284s1.445-3.284 3.284-3.284 3.284 1.445 3.284 3.284-1.445 3.284-3.284 3.284zM21.254 3.521c-0.131 0-0.263 0.131-0.263 0.263 0 0.263 0.394 0.263 0.394 0 0.131-0.131 0-0.263-0.131-0.263z"></path>
<path d="M21.254 31.5c-1.839 0-3.284-1.445-3.284-3.284s1.445-3.284 3.284-3.284 3.284 1.445 3.284 3.284c0 1.839-1.445 3.284-3.284 3.284zM21.254 28.085c-0.131 0-0.263 0.131-0.263 0.263 0 0.263 0.394 0.263 0.394 0 0.131-0.263 0-0.263-0.131-0.263z"></path>
</svg>