<svg  xmlns="http://www.w3.org/2000/svg" viewBox="0 0 32 32">
  <path d="M15.508 20.496c-0.45 0-0.749-0.15-1.049-0.45l-4.496-4.496c-0.6-0.6-0.6-1.499 0-2.098s1.499-0.6 2.098 0l3.447 3.447 13.939-13.939c0.6-0.6 1.499-0.6 2.098 0s0.6 1.499 0 2.098l-14.988 14.988c-0.3 0.3-0.6 0.45-1.049 0.45z"></path>
  <path d="M26 30.988h-20.983c-2.548 0-4.496-1.948-4.496-4.496v-20.983c0-2.548 1.948-4.496 4.496-4.496h16.487c0.899 0 1.499 0.6 1.499 1.499s-0.6 1.499-1.499 1.499h-16.487c-0.899 0-1.499 0.6-1.499 1.499v20.983c0 0.899 0.6 1.499 1.499 1.499h20.983c0.899 0 1.499-0.6 1.499-1.499v-10.492c0-0.899 0.6-1.499 1.499-1.499s1.499 0.6 1.499 1.499v10.492c0 2.548-1.948 4.496-4.496 4.496z"></path>
  </svg>