<svg  xmlns="http://www.w3.org/2000/svg" viewBox="0 0 32 32">
<path d="M25.455 27.182h-17.164c0 0-0.145 0-0.145 0-4.509-0.145-8.145-3.636-8.145-8 0-4.073 3.055-7.418 7.127-7.854 1.018-2.618 3.2-4.655 5.964-5.527 3.2-1.018 6.691-0.291 9.309 1.745 2.036 1.745 3.345 4.073 3.345 6.691 3.491 0.145 6.255 3.055 6.255 6.545s-2.909 6.4-6.545 6.4zM8.291 24.273h17.164c2.036 0 3.636-1.6 3.636-3.636s-1.6-3.636-3.636-3.636h-1.455c-0.436 0-0.873-0.145-1.164-0.582s-0.436-0.727-0.291-1.164c0.582-2.036-0.291-4.073-1.891-5.527-1.745-1.455-4.364-1.891-6.545-1.164s-3.927 2.327-4.364 4.364c-0.291 0.727-0.873 1.164-1.455 1.164-2.909 0-5.382 2.327-5.382 5.091s2.327 5.091 5.382 5.091c0 0 0 0 0 0z"></path>
</svg>