<svg  xmlns="http://www.w3.org/2000/svg" viewBox="0 0 32 32">
  <path d="M27.636 29.091h-23.273c-2.473 0-4.364-1.891-4.364-4.364v-18.909c0-2.473 1.891-4.364 4.364-4.364h5.673c1.455 0 2.764 0.727 3.636 2.036l1.164 1.745c0.291 0.291 0.727 0.582 1.309 0.582h11.491c2.473 0 4.364 1.891 4.364 4.364v14.545c0 2.473-1.891 4.364-4.364 4.364zM10.036 4.364h-5.673c-0.873 0-1.455 0.582-1.455 1.455v18.909c0 0.873 0.582 1.455 1.455 1.455h23.273c0.873 0 1.455-0.582 1.455-1.455v-14.545c0-0.873-0.582-1.455-1.455-1.455h-11.491c-1.455 0-2.764-0.727-3.636-2.036l-1.164-1.6c-0.291-0.436-0.727-0.727-1.309-0.727z"></path>
  <path d="M30.545 14.545h-29.091c-0.873 0-1.455-0.582-1.455-1.455s0.582-1.455 1.455-1.455h29.091c0.873 0 1.455 0.582 1.455 1.455s-0.582 1.455-1.455 1.455z"></path>
  </svg>