<svg  xmlns="http://www.w3.org/2000/svg" viewBox="0 0 32 32">
<path d="M4.763 16.326c0 0.502 0.74 1.377 2.456 2.236 2.222 1.111 5.373 1.777 8.781 1.777s6.559-0.666 8.781-1.777c1.716-0.859 2.456-1.734 2.456-2.236v-3.485c-2.649 1.637-6.699 2.682-11.237 2.682s-8.588-1.047-11.237-2.682v3.485zM27.237 20.867c-2.649 1.637-6.699 2.682-11.237 2.682s-8.588-1.047-11.237-2.682v3.485c0 0.502 0.74 1.377 2.456 2.236 2.222 1.111 5.373 1.777 8.781 1.777s6.559-0.666 8.781-1.777c1.716-0.859 2.456-1.734 2.456-2.236v-3.485zM1.553 24.352v-16.053c0-3.989 6.469-7.224 14.447-7.224s14.447 3.235 14.447 7.224v16.053c0 3.989-6.469 7.224-14.447 7.224s-14.447-3.235-14.447-7.224zM16 12.313c3.408 0 6.559-0.666 8.781-1.777 1.716-0.859 2.456-1.734 2.456-2.236s-0.74-1.377-2.456-2.236c-2.222-1.111-5.373-1.777-8.781-1.777s-6.559 0.666-8.781 1.777c-1.716 0.859-2.456 1.734-2.456 2.236s0.74 1.377 2.456 2.236c2.222 1.111 5.373 1.777 8.781 1.777z"></path>
</svg>