<svg  xmlns="http://www.w3.org/2000/svg" viewBox="0 0 32 32">
<path d="M14.475 28.2c-7.625 0-13.725-6.1-13.725-13.725s6.1-13.725 13.725-13.725c7.625 0 13.725 6.1 13.725 13.725s-6.1 13.725-13.725 13.725zM14.475 3.8c-5.947 0-10.675 4.727-10.675 10.675s4.728 10.675 10.675 10.675c5.947 0 10.675-4.727 10.675-10.675s-4.727-10.675-10.675-10.675z"></path>
<path d="M29.725 31.25c-0.457 0-0.762-0.152-1.067-0.457l-6.558-6.558c-0.61-0.61-0.61-1.525 0-2.135s1.525-0.61 2.135 0l6.558 6.558c0.61 0.61 0.61 1.525 0 2.135-0.305 0.305-0.61 0.457-1.067 0.457z"></path>
<path d="M14.475 20.575c-0.915 0-1.525-0.61-1.525-1.525v-9.15c0-0.915 0.61-1.525 1.525-1.525s1.525 0.61 1.525 1.525v9.15c0 0.915-0.61 1.525-1.525 1.525z"></path>
<path d="M19.050 16h-9.15c-0.915 0-1.525-0.61-1.525-1.525s0.61-1.525 1.525-1.525h9.15c0.915 0 1.525 0.61 1.525 1.525s-0.61 1.525-1.525 1.525z"></path>
</svg>