<svg  xmlns="http://www.w3.org/2000/svg" viewBox="0 0 32 32">
  <path d="M11.59 21.985c-0.473 0-0.787-0.157-1.102-0.473-2.992-2.992-2.992-8.033 0-11.182 2.992-2.992 8.033-2.992 11.182 0 0.63 0.63 0.63 1.575 0 2.205s-1.575 0.63-2.205 0c-1.89-1.732-5.040-1.732-6.773 0.158-1.89 1.89-1.89 4.883 0 6.615 0.63 0.63 0.63 1.575 0 2.205-0.315 0.315-0.787 0.473-1.102 0.473z"></path>
  <path d="M16 31.75c-2.047 0-4.095-0.315-5.985-1.26-1.89-0.788-3.622-1.89-5.197-3.308-0.63-0.63-0.63-1.575 0-2.205s1.575-0.63 2.205 0c1.26 1.102 2.677 2.047 4.095 2.677 5.355 2.205 11.34 0.473 14.647-3.78-4.567 0.473-9.135-1.575-11.97-5.355l-0.315-0.473c-0.473-0.788-0.315-1.732 0.315-2.205 0.787-0.473 1.732-0.315 2.205 0.315l0.315 0.315c2.835 3.78 7.718 5.198 12.127 3.308 0.63-0.315 1.26-0.157 1.732 0.315s0.63 1.102 0.315 1.732c-2.52 6.3-8.347 9.922-14.49 9.922z"></path>
  <path d="M3.4 17.575h-1.575c-0.945 0-1.575-0.63-1.575-1.575s0.63-1.575 1.575-1.575h1.575c0.945 0 1.575 0.63 1.575 1.575s-0.63 1.575-1.575 1.575z"></path>
  <path d="M16 4.975c-0.945 0-1.575-0.63-1.575-1.575v-1.575c0-0.945 0.63-1.575 1.575-1.575s1.575 0.63 1.575 1.575v1.575c0 0.945-0.63 1.575-1.575 1.575z"></path>
  <path d="M7.023 8.598c-0.473 0-0.787-0.158-1.103-0.473l-1.103-1.103c-0.63-0.63-0.63-1.575 0-2.205s1.575-0.63 2.205 0l1.103 1.103c0.63 0.63 0.63 1.575 0 2.205-0.315 0.315-0.63 0.473-1.103 0.473z"></path>
  <path d="M1.825 31.75c-0.472 0-0.787-0.157-1.103-0.473-0.63-0.63-0.63-1.575 0-2.205l28.35-28.35c0.63-0.63 1.575-0.63 2.205 0s0.63 1.575 0 2.205l-28.35 28.35c-0.315 0.315-0.63 0.473-1.103 0.473z"></path>
  </svg>