<svg  xmlns="http://www.w3.org/2000/svg" viewBox="0 0 32 32">
  <path d="M16 32c-8.873 0-16-7.127-16-16s7.127-16 16-16 16 7.127 16 16-7.127 16-16 16zM16 2.909c-7.273 0-13.091 5.818-13.091 13.091s5.818 13.091 13.091 13.091c7.273 0 13.091-5.818 13.091-13.091s-5.818-13.091-13.091-13.091z"></path>
  <path d="M16 23.273c-4.364 0-6.836-3.345-6.982-3.491-0.436-0.582-0.291-1.6 0.291-2.036s1.6-0.291 2.036 0.291c0 0 1.891 2.327 4.655 2.327s4.655-2.327 4.655-2.327c0.436-0.582 1.455-0.727 2.036-0.291s0.727 1.455 0.291 2.036c-0.145 0.145-2.618 3.491-6.982 3.491z"></path>
  <path d="M11.636 13.091c-0.873 0-1.455-0.582-1.455-1.455s0.582-1.455 1.455-1.455v0c0.873 0 1.455 0.582 1.455 1.455s-0.582 1.455-1.455 1.455z"></path>
  <path d="M20.364 13.091c-0.873 0-1.455-0.582-1.455-1.455s0.582-1.455 1.455-1.455v0c0.873 0 1.455 0.582 1.455 1.455s-0.582 1.455-1.455 1.455z"></path>
  </svg>