<svg  xmlns="http://www.w3.org/2000/svg" viewBox="0 0 32 32">
  <path d="M27.2 32h-6.4c-0.96 0-1.6-0.64-1.6-1.6s0.64-1.6 1.6-1.6h6.4c0.96 0 1.6-0.64 1.6-1.6v-22.4c0-0.96-0.64-1.6-1.6-1.6h-6.4c-0.96 0-1.6-0.64-1.6-1.6s0.64-1.6 1.6-1.6h6.4c2.72 0 4.8 2.080 4.8 4.8v22.4c0 2.72-2.080 4.8-4.8 4.8z"></path>
  <path d="M12.8 25.6c-0.48 0-0.8-0.16-1.12-0.48-0.64-0.64-0.64-1.6 0-2.24l6.88-6.88-6.88-6.88c-0.64-0.64-0.64-1.6 0-2.24s1.6-0.64 2.24 0l8 8c0.64 0.64 0.64 1.6 0 2.24l-8 8c-0.32 0.32-0.64 0.48-1.12 0.48z"></path>
  <path d="M20.8 17.6h-19.2c-0.96 0-1.6-0.64-1.6-1.6s0.64-1.6 1.6-1.6h19.2c0.96 0 1.6 0.64 1.6 1.6s-0.64 1.6-1.6 1.6z"></path>
  </svg>