<svg  xmlns="http://www.w3.org/2000/svg" viewBox="0 0 32 32">
<path d="M16 0c3.52 0 6.4 2.88 6.4 6.4s-2.88 6.4-6.4 6.4c-3.52 0-6.4-2.88-6.4-6.4s2.88-6.4 6.4-6.4zM16 9.6c1.76 0 3.2-1.44 3.2-3.2s-1.44-3.2-3.2-3.2c-1.76 0-3.2 1.44-3.2 3.2s1.44 3.2 3.2 3.2z"></path>
<path d="M25.6 19.2c3.52 0 6.4 2.88 6.4 6.4s-2.88 6.4-6.4 6.4-6.4-2.88-6.4-6.4 2.88-6.4 6.4-6.4zM25.6 28.8c1.76 0 3.2-1.44 3.2-3.2s-1.44-3.2-3.2-3.2-3.2 1.44-3.2 3.2 1.44 3.2 3.2 3.2z"></path>
<path d="M6.4 19.2c3.52 0 6.4 2.88 6.4 6.4s-2.88 6.4-6.4 6.4-6.4-2.88-6.4-6.4 2.88-6.4 6.4-6.4zM6.4 28.8c1.76 0 3.2-1.44 3.2-3.2s-1.44-3.2-3.2-3.2-3.2 1.44-3.2 3.2 1.44 3.2 3.2 3.2z"></path>
<path d="M9.6 14.4h12.8c2.72 0 4.8 2.080 4.8 4.8v1.6c0 0.96-0.64 1.6-1.6 1.6s-1.6-0.64-1.6-1.6v-1.6c0-0.96-0.64-1.6-1.6-1.6h-12.8c-0.96 0-1.6 0.64-1.6 1.6v1.6c0 0.96-0.64 1.6-1.6 1.6s-1.6-0.64-1.6-1.6v-1.6c0-2.72 2.080-4.8 4.8-4.8z"></path>
<path d="M16 9.6c0.96 0 1.6 0.64 1.6 1.6v4.8c0 0.96-0.64 1.6-1.6 1.6s-1.6-0.64-1.6-1.6v-4.8c0-0.96 0.64-1.6 1.6-1.6z"></path>
</svg>