<svg  xmlns="http://www.w3.org/2000/svg" viewBox="0 0 32 32">
  <path d="M15.5 30.714h-13.714c-0.914 0-1.524-0.61-1.524-1.524v-4.571c0-0.457 0.152-0.762 0.457-1.067l9.143-9.143c0.61-0.61 1.524-0.61 2.133 0s0.61 1.524 0 2.133l-8.686 8.686v2.438h11.581l4.114-4.114c0.61-0.61 1.524-0.61 2.133 0s0.61 1.524 0 2.133l-4.571 4.571c-0.305 0.305-0.61 0.457-1.067 0.457z"></path>
  <path d="M21.595 26.448c-1.219 0-2.286-0.457-3.2-1.371l-7.924-7.924c-1.676-1.829-1.676-4.571 0-6.4l7.010-7.010c0.61-0.61 1.524-0.61 2.133 0s0.61 1.524 0 2.133l-7.010 7.010c-0.61 0.61-0.61 1.524 0 2.133l7.924 7.924c0.61 0.61 1.524 0.61 2.133 0l7.010-7.010c0.61-0.61 1.524-0.61 2.133 0s0.61 1.524 0 2.133l-7.010 7.010c-0.914 0.914-1.981 1.371-3.2 1.371z"></path>
  </svg>