<svg  xmlns="http://www.w3.org/2000/svg" viewBox="0 0 32 32">
  <path d="M29.902 29.902h-13.902c-0.927 0-1.545-0.618-1.545-1.545s0.618-1.545 1.545-1.545h13.902c0.927 0 1.545 0.618 1.545 1.545s-0.618 1.545-1.545 1.545z"></path>
  <path d="M2.098 29.902c-0.463 0-0.772-0.154-1.081-0.463-0.463-0.309-0.618-0.927-0.463-1.39l1.545-6.179c0-0.309 0.154-0.463 0.463-0.772l19.308-19.308c1.854-1.854 4.943-1.854 6.796 0s1.854 4.943 0 6.796l-19.308 19.308c-0.154 0.154-0.463 0.309-0.772 0.463l-6.179 1.545c0 0-0.154 0-0.309 0zM5.033 22.951l-0.772 3.244 3.244-0.772 18.999-18.999c0.618-0.618 0.618-1.699 0-2.471-0.618-0.618-1.854-0.618-2.471 0v0l-18.999 18.999zM22.951 2.87v0 0z"></path>
  </svg>