<svg  xmlns="http://www.w3.org/2000/svg" viewBox="0 0 32 32">
  <path d="M25 31h-18c-3.3 0-6-2.7-6-6 0-0.9 0.6-1.5 1.5-1.5s1.5 0.6 1.5 1.5c0 1.65 1.35 3 3 3h18c1.65 0 3-1.35 3-3 0-0.9 0.6-1.5 1.5-1.5s1.5 0.6 1.5 1.5c0 3.3-2.7 6-6 6z"></path>
  <path d="M25 13h-18c-3.3 0-6-2.7-6-6s2.7-6 6-6h18c3.3 0 6 2.7 6 6s-2.7 6-6 6zM7 4c-1.65 0-3 1.35-3 3s1.35 3 3 3h18c1.65 0 3-1.35 3-3s-1.35-3-3-3h-18z"></path>
  <path d="M16 25c-0.9 0-1.5-0.6-1.5-1.5v-12c0-0.9 0.6-1.5 1.5-1.5s1.5 0.6 1.5 1.5v12c0 0.9-0.6 1.5-1.5 1.5z"></path>
  <path d="M16 25c-0.45 0-0.75-0.15-1.050-0.45l-4.5-4.5c-0.6-0.6-0.6-1.5 0-2.1s1.5-0.6 2.1 0l3.45 3.45 3.45-3.45c0.6-0.6 1.5-0.6 2.1 0s0.6 1.5 0 2.1l-4.5 4.5c-0.3 0.3-0.6 0.45-1.050 0.45z"></path>
  </svg>