<svg  xmlns="http://www.w3.org/2000/svg" viewBox="0 0 32 32">
  <path d="M16 32c-8.873 0-16-7.127-16-16s7.127-16 16-16 16 7.127 16 16-7.127 16-16 16zM16 2.909c-7.273 0-13.091 5.818-13.091 13.091s5.818 13.091 13.091 13.091c7.273 0 13.091-5.818 13.091-13.091s-5.818-13.091-13.091-13.091z"></path>
  <path d="M15.855 18.909c-0.582 0-1.164-0.436-1.309-1.018-0.291-0.727 0.145-1.6 0.873-1.891 0.873-0.291 3.345-1.455 3.345-3.055 0-1.309-0.727-2.327-1.891-2.764-1.455-0.582-3.2 0.291-3.782 1.745-0.291 0.727-1.164 1.164-1.891 0.873-0.727 0-1.018-0.873-0.873-1.6 1.018-3.055 4.364-4.655 7.418-3.491 2.327 0.873 3.927 3.055 3.927 5.527 0 3.782-4.8 5.527-5.382 5.673-0.145 0-0.291 0-0.436 0z"></path>
  <path d="M16 24.727c-0.873 0-1.455-0.582-1.455-1.455s0.582-1.455 1.455-1.455v0c0.873 0 1.455 0.582 1.455 1.455s-0.582 1.455-1.455 1.455z"></path>
  </svg>