<svg  xmlns="http://www.w3.org/2000/svg" viewBox="0 0 32 32">
<path d="M16 31.75c-0.525 0-0.875-0.175-1.225-0.525l-8.75-8.75c-0.7-0.7-0.7-1.75 0-2.45s1.75-0.7 2.45 0l7.525 7.525 7.525-7.525c0.7-0.7 1.75-0.7 2.45 0s0.7 1.75 0 2.45l-8.75 8.75c-0.35 0.35-0.7 0.525-1.225 0.525z"></path>
<path d="M24.75 12.5c-0.525 0-0.875-0.175-1.225-0.525l-7.525-7.525-7.525 7.525c-0.7 0.7-1.75 0.7-2.45 0s-0.7-1.75 0-2.45l8.75-8.75c0.7-0.7 1.75-0.7 2.45 0l8.75 8.75c0.7 0.7 0.7 1.75 0 2.45-0.35 0.35-0.7 0.525-1.225 0.525z"></path>
</svg>