<svg  xmlns="http://www.w3.org/2000/svg" viewBox="0 0 32 32">
  <path d="M15 17.649h-13.192c-0.989 0-1.649-0.66-1.649-1.649s0.66-1.649 1.649-1.649h13.192c0.989 0 1.649 0.66 1.649 1.649s-0.66 1.649-1.649 1.649z"></path>
  <path d="M1.808 27.543c-0.989 0-1.649-0.66-1.649-1.649v-19.788c0-0.989 0.66-1.649 1.649-1.649s1.649 0.66 1.649 1.649v19.788c0 0.989-0.66 1.649-1.649 1.649z"></path>
  <path d="M15 27.543c-0.989 0-1.649-0.66-1.649-1.649v-19.788c0-0.989 0.66-1.649 1.649-1.649s1.649 0.66 1.649 1.649v19.788c0 0.989-0.66 1.649-1.649 1.649z"></path>
  <path d="M26.543 20.947c-0.989 0-1.649-0.66-1.649-1.649s0.66-1.649 1.649-1.649c0.989 0 1.649-0.66 1.649-1.649 0-0.495-0.33-0.989-0.825-1.154-0.66-0.33-1.649-0.33-2.474 0.165s-1.814 0.165-2.309-0.66c-0.495-0.825-0.165-1.814 0.66-2.309 1.979-1.154 4.122-1.154 5.771-0.165 1.649 0.825 2.474 2.473 2.474 4.123 0 2.803-2.144 4.947-4.947 4.947z"></path>
  <path d="M26.213 27.873c-1.319 0-2.803-0.495-3.958-1.484-0.66-0.495-0.825-1.649-0.33-2.309s1.649-0.825 2.309-0.33c0.989 0.825 2.144 0.989 2.968 0.66 0.66-0.33 0.989-0.989 0.989-1.814 0-0.989-0.66-1.649-1.649-1.649s-1.649-0.66-1.649-1.649 0.66-1.649 1.649-1.649c2.803 0 4.947 2.144 4.947 4.947 0 1.979-1.154 3.793-2.803 4.617-0.825 0.495-1.649 0.66-2.474 0.66z"></path>
  </svg>