<svg  xmlns="http://www.w3.org/2000/svg" viewBox="0 0 32 32">
  <path d="M21.333 21.333c-0.533 0-0.889-0.178-1.244-0.533-0.711-0.711-0.711-1.778 0-2.489l7.644-7.644-7.644-7.644c-0.711-0.711-0.711-1.778 0-2.489s1.778-0.711 2.489 0l8.889 8.889c0.711 0.711 0.711 1.778 0 2.489l-8.889 8.889c-0.356 0.356-0.711 0.533-1.244 0.533z"></path>
  <path d="M17.778 32h-6.222c-6.4 0-11.556-5.156-11.556-11.556s5.156-11.556 11.556-11.556h18.667c1.067 0 1.778 0.711 1.778 1.778s-0.711 1.778-1.778 1.778h-18.667c-4.444 0-8 3.556-8 8s3.556 8 8 8h6.222c1.067 0 1.778 0.711 1.778 1.778s-0.711 1.778-1.778 1.778z"></path>
  </svg>