<svg  xmlns="http://www.w3.org/2000/svg" viewBox="0 0 32 32">
<path d="M6.667 30h12.444c2.644 0 4.667-2.022 4.667-4.667v-12.444c0-2.644-2.022-4.667-4.667-4.667h-12.444c-2.644 0-4.667 2.022-4.667 4.667v12.444c0 2.644 2.022 4.667 4.667 4.667zM19.111 11.333c0.933 0 1.556 0.622 1.556 1.556v12.444c0 0.933-0.622 1.556-1.556 1.556h-12.444c-0.933 0-1.556-0.622-1.556-1.556v-12.444c0-0.933 0.622-1.556 1.556-1.556h12.444z"></path>
<path d="M22.222 23.778h3.111c2.644 0 4.667-2.022 4.667-4.667v-12.444c0-2.644-2.022-4.667-4.667-4.667h-12.444c-2.644 0-4.667 2.022-4.667 4.667v3.111c0 0.933 0.622 1.556 1.556 1.556s1.556-0.622 1.556-1.556v-3.111c0-0.933 0.622-1.556 1.556-1.556h12.444c0.933 0 1.556 0.622 1.556 1.556v12.444c0 0.933-0.622 1.556-1.556 1.556h-3.111c-0.933 0-1.556 0.622-1.556 1.556s0.622 1.556 1.556 1.556z"></path>
</svg>