<svg  xmlns="http://www.w3.org/2000/svg" viewBox="0 0 32 32">
  <path d="M15.772 26.464c-0.523 0-1.046-0.174-1.395-0.698l-5.581-6.976-5.581 6.976c-0.523 0.698-1.744 0.872-2.442 0.349s-0.872-1.744-0.349-2.442l6.104-7.674-6.104-7.674c-0.523-0.698-0.523-1.744 0.349-2.442 0.698-0.523 1.918-0.523 2.442 0.349l5.581 6.976 5.581-6.976c0.523-0.698 1.744-0.872 2.442-0.349s0.872 1.744 0.349 2.442l-6.104 7.674 6.104 7.674c0.523 0.698 0.523 1.918-0.349 2.442-0.349 0.174-0.698 0.349-1.046 0.349z"></path>
  <path d="M29.724 31.696h-6.976c-0.698 0-1.221-0.349-1.57-1.046s-0.174-1.395 0.349-1.918l5.93-6.802c0.174-0.349 0.174-0.872 0.174-1.221-0.174-0.523-0.349-0.872-0.872-1.046-0.872-0.523-1.918-0.174-2.442 0.698s-1.57 1.046-2.442 0.698c-0.872-0.523-1.046-1.57-0.698-2.442 1.395-2.442 4.709-3.314 7.15-1.918s3.314 4.709 1.918 7.15c0 0.174-0.174 0.174-0.174 0.349l-3.488 4.011h3.139c1.046 0 1.744 0.698 1.744 1.744s-0.698 1.744-1.744 1.744z"></path>
  </svg>