<svg  xmlns="http://www.w3.org/2000/svg" viewBox="0 0 32 32">
  <path d="M27.636 29.091c-0.291 0-0.582 0-0.727-0.145l-2.327-1.455c-0.727 0.145-1.309 0.145-2.036 0.145 0 0 0 0 0 0-5.236 0-9.455-3.636-9.455-8s4.218-8 9.455-8 9.455 3.636 9.455 8c0 2.182-1.018 4.218-2.909 5.818v2.182c0 0.582-0.291 1.018-0.727 1.309-0.291 0.145-0.436 0.145-0.727 0.145zM24.727 24.436c0.291 0 0.582 0 0.727 0.145l0.582 0.436v-0.291c0-0.436 0.291-0.873 0.582-1.164 1.455-1.018 2.327-2.327 2.327-3.782 0-2.764-2.909-5.091-6.545-5.091s-6.4 2.182-6.4 4.945 2.909 5.091 6.545 5.091c0.582 0 1.309 0 1.891-0.291 0.145 0 0.291 0 0.291 0z"></path>
  <path d="M4.364 24.727c-0.291 0-0.436 0-0.727-0.145-0.436-0.291-0.727-0.727-0.727-1.309v-3.491c-1.891-1.891-2.909-4.218-2.909-6.691 0-5.673 5.236-10.182 11.636-10.182 6.255 0 11.345 4.364 11.636 9.745v0.436c0 0.873-0.582 1.455-1.455 1.455s-1.455-0.582-1.455-1.455v-0.291c-0.145-3.927-4.073-6.982-8.727-6.982-4.8 0-8.727 3.2-8.727 7.273 0 1.891 0.873 3.636 2.473 4.945 0.291 0.291 0.436 0.727 0.436 1.164v1.455l1.309-0.727c0.436-0.291 0.873-0.291 1.164-0.145 1.018 0.436 2.182 0.582 3.345 0.582 1.018 0 1.891-0.145 2.764-0.436 0.727-0.291 1.6 0.291 1.745 1.018s-0.291 1.6-1.018 1.745c-1.018 0.436-2.327 0.582-3.491 0.582s-2.473-0.145-3.636-0.436l-2.909 1.745c-0.145 0.145-0.436 0.145-0.727 0.145z"></path>
  <path d="M13.091 11.636c-0.727 0-1.455-0.582-1.455-1.455s0.582-1.455 1.455-1.455v0c0.873 0 1.455 0.582 1.455 1.455s-0.582 1.455-1.455 1.455z"></path>
  <path d="M8.727 11.636c-0.727 0-1.455-0.582-1.455-1.455s0.582-1.455 1.455-1.455v0c0.873 0 1.455 0.582 1.455 1.455s-0.582 1.455-1.455 1.455z"></path>
  <path d="M20.364 20.364c-0.873 0-1.455-0.582-1.455-1.455s0.582-1.455 1.455-1.455v0c0.873 0 1.455 0.582 1.455 1.455s-0.582 1.455-1.455 1.455z"></path>
  <path d="M24.727 20.364c-0.873 0-1.455-0.582-1.455-1.455s0.582-1.455 1.455-1.455v0c0.873 0 1.455 0.582 1.455 1.455s-0.582 1.455-1.455 1.455z"></path>
  </svg>