<svg  xmlns="http://www.w3.org/2000/svg" viewBox="0 0 32 32">
  <path d="M27.636 32h-13.091c-2.473 0-4.364-1.891-4.364-4.364v-13.091c0-2.473 1.891-4.364 4.364-4.364h13.091c2.473 0 4.364 1.891 4.364 4.364v13.091c0 2.473-1.891 4.364-4.364 4.364zM14.545 13.091c-0.873 0-1.455 0.582-1.455 1.455v13.091c0 0.873 0.582 1.455 1.455 1.455h13.091c0.873 0 1.455-0.582 1.455-1.455v-13.091c0-0.873-0.582-1.455-1.455-1.455h-13.091z"></path>
  <path d="M5.818 21.818h-1.455c-2.473 0-4.364-1.891-4.364-4.364v-13.091c0-2.473 1.891-4.364 4.364-4.364h13.091c2.473 0 4.364 1.891 4.364 4.364v1.455c0 0.873-0.582 1.455-1.455 1.455s-1.455-0.582-1.455-1.455v-1.455c0-0.873-0.582-1.455-1.455-1.455h-13.091c-0.873 0-1.455 0.582-1.455 1.455v13.091c0 0.873 0.582 1.455 1.455 1.455h1.455c0.873 0 1.455 0.582 1.455 1.455s-0.582 1.455-1.455 1.455z"></path>
  </svg>