<svg  xmlns="http://www.w3.org/2000/svg" viewBox="0 0 32 32">
  <path d="M19.389 16c0 1.872-1.517 3.389-3.389 3.389s-3.389-1.517-3.389-3.389c0-1.872 1.517-3.389 3.389-3.389s3.389 1.517 3.389 3.389z"></path>
  <path d="M19.389 4.139c0 1.872-1.517 3.389-3.389 3.389s-3.389-1.517-3.389-3.389c0-1.872 1.517-3.389 3.389-3.389s3.389 1.517 3.389 3.389z"></path>
  <path d="M19.389 27.861c0 1.872-1.517 3.389-3.389 3.389s-3.389-1.517-3.389-3.389c0-1.872 1.517-3.389 3.389-3.389s3.389 1.517 3.389 3.389z"></path>
  </svg>