<svg  xmlns="http://www.w3.org/2000/svg" viewBox="0 0 32 32">
  <path d="M27.636 29.091h-23.273c-2.473 0-4.364-1.891-4.364-4.364v-17.455c0-2.473 1.891-4.364 4.364-4.364h23.273c2.473 0 4.364 1.891 4.364 4.364v17.455c0 2.473-1.891 4.364-4.364 4.364zM4.364 5.818c-0.873 0-1.455 0.582-1.455 1.455v17.455c0 0.873 0.582 1.455 1.455 1.455h23.273c0.873 0 1.455-0.582 1.455-1.455v-17.455c0-0.873-0.582-1.455-1.455-1.455h-23.273z"></path>
  <path d="M23.273 23.273h-14.545c-0.873 0-1.455-0.582-1.455-1.455s0.582-1.455 1.455-1.455h14.545c0.873 0 1.455 0.582 1.455 1.455s-0.582 1.455-1.455 1.455z"></path>
  </svg>