<svg  xmlns="http://www.w3.org/2000/svg" viewBox="0 0 32 32">
<path d="M16 22.948c-3.848 0-6.948-3.1-6.948-6.948s3.1-6.948 6.948-6.948 6.948 3.1 6.948 6.948-3.1 6.948-6.948 6.948zM16 11.51c-2.459 0-4.49 2.031-4.49 4.49s2.031 4.49 4.49 4.49c2.459 0 4.49-2.031 4.49-4.49s-2.031-4.49-4.49-4.49z"></path>
<path d="M16 31.5c-8.552 0-15.5-6.948-15.5-15.5s6.948-15.5 15.5-15.5c8.552 0 15.5 6.948 15.5 15.5v1.39c0 2.993-2.459 5.559-5.559 5.559s-5.559-2.459-5.559-5.559v-7.162c0-0.641 0.534-1.283 1.283-1.283s1.283 0.534 1.283 1.283v7.162c0 1.71 1.39 2.993 2.993 2.993s2.993-1.39 2.993-2.993v-1.39c0-7.162-5.879-13.041-13.041-13.041s-12.934 5.879-12.934 13.041 5.879 13.041 13.041 13.041c2.779 0 5.559-0.962 7.803-2.566 0.534-0.428 1.283-0.321 1.71 0.214s0.321 1.283-0.214 1.71c-2.672 2.031-5.986 3.1-9.3 3.1z"></path>
</svg>