<svg  xmlns="http://www.w3.org/2000/svg" viewBox="0 0 32 32">
  <path d="M2.889 11.083c-0.983 0-1.639-0.655-1.639-1.639v-3.278c0-2.786 2.131-4.917 4.917-4.917h3.278c0.983 0 1.639 0.655 1.639 1.639s-0.655 1.639-1.639 1.639h-3.278c-0.983 0-1.639 0.655-1.639 1.639v3.278c0 0.983-0.655 1.639-1.639 1.639z"></path>
  <path d="M9.445 30.75h-3.278c-2.786 0-4.917-2.131-4.917-4.917v-3.278c0-0.983 0.655-1.639 1.639-1.639s1.639 0.655 1.639 1.639v3.278c0 0.983 0.655 1.639 1.639 1.639h3.278c0.983 0 1.639 0.655 1.639 1.639s-0.655 1.639-1.639 1.639z"></path>
  <path d="M29.111 11.083c-0.983 0-1.639-0.655-1.639-1.639v-3.278c0-0.983-0.655-1.639-1.639-1.639h-3.278c-0.983 0-1.639-0.655-1.639-1.639s0.655-1.639 1.639-1.639h3.278c2.786 0 4.917 2.131 4.917 4.917v3.278c0 0.983-0.655 1.639-1.639 1.639z"></path>
  <path d="M25.833 30.75h-3.278c-0.983 0-1.639-0.655-1.639-1.639s0.655-1.639 1.639-1.639h3.278c0.983 0 1.639-0.655 1.639-1.639v-3.278c0-0.983 0.655-1.639 1.639-1.639s1.639 0.655 1.639 1.639v3.278c0 2.786-2.131 4.917-4.917 4.917z"></path>
  <path d="M20.917 24.195h-9.833c-1.803 0-3.278-1.475-3.278-3.278v-4.917c0-1.803 1.475-3.278 3.278-3.278h9.833c1.803 0 3.278 1.475 3.278 3.278v4.917c0 1.803-1.475 3.278-3.278 3.278zM11.083 16v4.917h9.833v-4.917h-9.833z"></path>
  <path d="M19.278 16c-0.983 0-1.639-0.655-1.639-1.639v-3.278c0-0.983-0.655-1.639-1.639-1.639s-1.639 0.655-1.639 1.639v3.278c0 0.983-0.655 1.639-1.639 1.639s-1.639-0.655-1.639-1.639v-3.278c0-2.786 2.13-4.917 4.917-4.917s4.917 2.131 4.917 4.917v3.278c0 0.983-0.655 1.639-1.639 1.639z"></path>
  </svg>