<svg  xmlns="http://www.w3.org/2000/svg" viewBox="0 0 32 32">
<path d="M27.172 31.96c-0.319 0-0.479 0-0.798-0.16l-10.374-5.905-10.374 5.905c-0.479 0.319-1.117 0.319-1.596 0s-0.798-0.798-0.798-1.436v-25.536c0-2.713 2.075-4.788 4.788-4.788h15.96c2.713 0 4.788 2.075 4.788 4.788v25.536c0 0.638-0.319 1.117-0.798 1.436-0.319 0.16-0.479 0.16-0.798 0.16zM16 22.384c0.319 0 0.479 0 0.798 0.16l8.778 4.948v-22.663c0-0.958-0.638-1.596-1.596-1.596h-15.96c-0.958 0-1.596 0.638-1.596 1.596v22.823l8.778-4.948c0.319-0.319 0.479-0.319 0.798-0.319z"></path>
</svg>