<svg  xmlns="http://www.w3.org/2000/svg" viewBox="0 0 32 32">
<path d="M27.789 28.974h-23.579c-1.011 0-1.684-0.674-1.684-1.684s0.674-1.684 1.684-1.684h23.579c1.011 0 1.684 0.674 1.684 1.684s-0.674 1.684-1.684 1.684z"></path>
<path d="M24.421 32.342c-0.505 0-0.842-0.168-1.179-0.505-0.674-0.674-0.674-1.684 0-2.358l2.189-2.189-2.189-2.189c-0.674-0.674-0.674-1.684 0-2.358s1.684-0.674 2.358 0l3.368 3.368c0.674 0.674 0.674 1.684 0 2.358l-3.368 3.368c-0.337 0.337-0.674 0.505-1.179 0.505z"></path>
<path d="M12.632 15.5h-0.842c-4.211 0-7.579-3.368-7.579-7.579s3.368-7.579 7.579-7.579h10.947c1.011 0 1.684 0.674 1.684 1.684s-0.674 1.684-1.684 1.684h-10.947c-2.358 0-4.211 1.853-4.211 4.211s1.853 4.211 4.211 4.211h0.842c1.011 0 1.684 0.674 1.684 1.684s-0.674 1.684-1.684 1.684z"></path>
<path d="M19.368 22.237c-1.011 0-1.684-0.674-1.684-1.684v-18.526c0-1.011 0.674-1.684 1.684-1.684s1.684 0.674 1.684 1.684v18.526c0 1.011-0.674 1.684-1.684 1.684z"></path>
<path d="M12.632 22.237c-1.011 0-1.684-0.674-1.684-1.684v-18.526c0-1.011 0.674-1.684 1.684-1.684s1.684 0.674 1.684 1.684v18.526c0 1.011-0.674 1.684-1.684 1.684z"></path>
</svg>