<svg  xmlns="http://www.w3.org/2000/svg" viewBox="0 0 32 32">
  <path d="M22.768 17.692h-13.537c-1.015 0-1.692-0.677-1.692-1.692s0.677-1.692 1.692-1.692h13.537c1.015 0 1.692 0.677 1.692 1.692s-0.677 1.692-1.692 1.692z"></path>
  <path d="M29.537 31.229h-27.073c-1.015 0-1.692-0.677-1.692-1.692s0.677-1.692 1.692-1.692h27.073c1.015 0 1.692 0.677 1.692 1.692s-0.677 1.692-1.692 1.692z"></path>
  <path d="M26.153 24.46c-0.677 0-1.184-0.338-1.523-1.015l-8.63-17.259-8.63 17.259c-0.338 0.846-1.354 1.184-2.2 0.677-0.846-0.338-1.184-1.354-0.677-2.2l10.153-20.305c0.508-1.185 2.538-1.185 3.046 0l10.153 20.305c0.338 0.846 0 1.861-0.677 2.2-0.508 0.338-0.677 0.338-1.015 0.338z"></path>
  </svg>