<svg  xmlns="http://www.w3.org/2000/svg" viewBox="0 0 32 32">
<path d="M15.855 21.964c0 0-0.145 0-0.145 0-1.6 0-3.055-0.727-4.073-1.891s-1.6-2.618-1.6-4.218c0-1.6 0.727-3.055 1.891-4.073 0.582-0.582 1.455-0.582 2.036 0s0.582 1.455 0 2.036c-0.582 0.727-1.018 1.455-1.018 2.182s0.291 1.455 0.727 2.036 1.309 0.873 2.036 0.873c0.727 0 1.455-0.291 2.036-0.727l0.145-0.145c0.582-0.582 1.455-0.582 2.036-0.145s0.582 1.455 0.145 2.036c-0.145 0.145-0.145 0.145-0.291 0.291-1.018 1.164-2.473 1.745-3.927 1.745z"></path>
<path d="M28.073 21.382c-0.291 0-0.582-0.145-0.873-0.291-0.582-0.436-0.727-1.455-0.291-2.036 0.727-0.873 1.455-1.891 1.891-3.055-1.018-2.036-5.091-8.727-12.945-8.727-0.582 0-1.164 0-1.6 0.145-0.727 0.145-1.455-0.436-1.6-1.309s0.436-1.455 1.309-1.6c0.727-0.145 1.309-0.145 2.036-0.145 11.055 0 15.709 10.618 15.855 11.055s0.145 0.873 0 1.164c-0.727 1.455-1.6 2.909-2.618 4.218-0.291 0.436-0.727 0.582-1.164 0.582z"></path>
<path d="M16 27.636c0 0 0 0 0 0-11.055 0-15.709-10.618-15.855-11.055s-0.145-0.873 0-1.164c1.6-3.345 4.073-6.255 7.273-8.436 0.582-0.436 1.455-0.291 1.891 0.291 0.436 0.727 0.291 1.6-0.436 2.036-2.327 1.745-4.364 4.073-5.818 6.691 1.018 2.036 5.091 8.727 12.945 8.727 0 0 0 0 0 0 2.473 0 4.945-0.727 6.982-2.036 0.727-0.436 1.6-0.291 2.036 0.436s0.291 1.6-0.436 2.036c-2.473 1.6-5.527 2.473-8.582 2.473z"></path>
<path d="M30.545 32c-0.436 0-0.727-0.145-1.018-0.436l-29.091-29.091c-0.582-0.582-0.582-1.455 0-2.036s1.455-0.582 2.036 0l29.091 29.091c0.582 0.582 0.582 1.455 0 2.036-0.291 0.291-0.582 0.436-1.018 0.436z"></path>
</svg>