<svg  xmlns="http://www.w3.org/2000/svg" viewBox="0 0 32 32">
  <path d="M16 32c-8.8 0-16-7.2-16-16s7.2-16 16-16c8.8 0 16 7.2 16 16s-7.2 16-16 16zM16 3.2c-7.040 0-12.8 5.76-12.8 12.8s5.76 12.8 12.8 12.8 12.8-5.76 12.8-12.8-5.76-12.8-12.8-12.8z"></path>
  <path d="M20 24h-1.6c-0.8 0-1.44-0.48-1.6-1.28l-0.8-3.36-0.8 3.36c-0.16 0.64-0.8 1.28-1.6 1.28h-1.6c-0.8 0-1.44-0.48-1.6-1.28l-2.4-12.8c-0.16-0.96 0.48-1.76 1.28-1.92 0.96-0.16 1.76 0.48 1.92 1.28l1.76 9.28 1.6-6.080c0-0.8 0.64-1.28 1.44-1.28s1.44 0.48 1.6 1.28l1.6 6.080 1.6-9.28c0.16-0.8 0.96-1.44 1.92-1.28 0.8 0.16 1.44 0.96 1.28 1.92l-2.4 12.8c-0.16 0.8-0.8 1.28-1.6 1.28z"></path>
  </svg>