<svg  xmlns="http://www.w3.org/2000/svg" viewBox="0 0 32 32">
  <path d="M16 32c-8.873 0-16-7.127-16-16s7.127-16 16-16 16 7.127 16 16-7.127 16-16 16zM16 2.909c-7.273 0-13.091 5.818-13.091 13.091s5.818 13.091 13.091 13.091c7.273 0 13.091-5.818 13.091-13.091s-5.818-13.091-13.091-13.091z"></path>
  <path d="M30.545 17.455h-29.091c-0.873 0-1.455-0.582-1.455-1.455s0.582-1.455 1.455-1.455h29.091c0.873 0 1.455 0.582 1.455 1.455s-0.582 1.455-1.455 1.455z"></path>
  <path d="M16 32c-0.436 0-0.727-0.145-1.018-0.436-3.927-4.218-6.109-9.745-6.255-15.564 0.145-5.818 2.327-11.345 6.255-15.564 0.291-0.291 0.582-0.436 1.018-0.436v0c0.436 0 0.727 0.145 1.018 0.436 3.927 4.218 6.109 9.745 6.255 15.564-0.145 5.818-2.327 11.345-6.255 15.564-0.291 0.291-0.582 0.436-1.018 0.436zM16 3.782c-2.764 3.491-4.218 7.709-4.364 12.218 0.145 4.364 1.6 8.727 4.364 12.218 2.764-3.491 4.218-7.855 4.364-12.364-0.145-4.364-1.6-8.582-4.364-12.073z"></path>
  </svg>