<svg  xmlns="http://www.w3.org/2000/svg" viewBox="0 0 32 32">
  <path d="M17.554 29.368c-0.622 0-1.244-0.518-1.554-1.14l-6.529-16.166-6.321 16.166c-0.415 1.036-1.451 1.554-2.28 0.933s-1.14-1.865-0.725-3.005l7.98-20.208c0.311-0.725 0.829-1.14 1.554-1.14v0c0.622 0 1.244 0.518 1.554 1.14l7.876 20.104c0.415 1.036 0.104 2.487-0.725 3.005-0.311 0.207-0.622 0.311-0.829 0.311z"></path>
  <path d="M15.171 23.047h-11.088c-1.036 0-1.762-0.829-1.762-1.658s0.829-1.658 1.762-1.658h11.192c1.036 0 1.762 0.829 1.762 1.658-0.207 0.933-1.036 1.658-1.865 1.658z"></path>
  <path d="M25.948 29.161c-3.316 0-6.011-2.694-6.011-6.011s2.694-6.011 6.011-6.011 6.011 2.694 6.011 6.011c0.104 3.316-2.694 6.011-6.011 6.011zM25.948 19.938c-1.762 0-3.316 1.554-3.316 3.316s1.554 3.316 3.316 3.316c1.762 0 3.316-1.554 3.316-3.316s-1.451-3.316-3.316-3.316z"></path>
  <path d="M30.612 29.368c-0.725 0-1.244-0.622-1.244-1.451v-9.534c0-0.829 0.518-1.451 1.244-1.451s1.347 0.622 1.347 1.451v9.534c0 0.829-0.622 1.451-1.347 1.451z"></path>
  </svg>