<svg  xmlns="http://www.w3.org/2000/svg" viewBox="0 0 32 32">
  <path d="M10.667 32h-7.111c-1.067 0-1.778-0.711-1.778-1.778v-28.444c0-1.067 0.711-1.778 1.778-1.778h7.111c1.067 0 1.778 0.711 1.778 1.778s-0.711 1.778-1.778 1.778h-5.333v24.889h5.333c1.067 0 1.778 0.711 1.778 1.778s-0.711 1.778-1.778 1.778z"></path>
  <path d="M26.667 24.889v0c-1.067 0-1.778-0.711-1.778-1.778s0.711-1.778 1.778-1.778 1.778 0.711 1.778 1.778-0.711 1.778-1.778 1.778z"></path>
  <path d="M19.555 24.889v0c-1.067 0-1.778-0.711-1.778-1.778s0.711-1.778 1.778-1.778 1.778 0.711 1.778 1.778-0.711 1.778-1.778 1.778z"></path>
  <path d="M12.444 24.889v0c-1.067 0-1.778-0.711-1.778-1.778s0.711-1.778 1.778-1.778 1.778 0.711 1.778 1.778-0.711 1.778-1.778 1.778z"></path>
  </svg>