<svg  xmlns="http://www.w3.org/2000/svg" viewBox="0 0 32 32">
  <path d="M16 32c-8.873 0-16-7.127-16-16s7.127-16 16-16 16 7.127 16 16-7.127 16-16 16zM16 2.909c-7.273 0-13.091 5.818-13.091 13.091s5.818 13.091 13.091 13.091c7.273 0 13.091-5.818 13.091-13.091s-5.818-13.091-13.091-13.091z"></path>
  <path d="M16 23.273c-0.873 0-1.455-0.582-1.455-1.455v-5.818c0-0.873 0.582-1.455 1.455-1.455s1.455 0.582 1.455 1.455v5.818c0 0.873-0.582 1.455-1.455 1.455z"></path>
  <path d="M16 11.636c-0.873 0-1.455-0.582-1.455-1.455s0.582-1.455 1.455-1.455v0c0.873 0 1.455 0.582 1.455 1.455s-0.582 1.455-1.455 1.455z"></path>
  </svg>