<svg  xmlns="http://www.w3.org/2000/svg" viewBox="0 0 32 32">
  <path d="M20.808 32.025c-0.962 0-1.603-0.641-1.603-1.603v-6.25c0-1.122 0-1.122-0.32-1.442-0.481-0.481-0.641-1.122-0.32-1.603 0.16-0.641 0.801-0.962 1.282-1.122 3.846-0.481 7.372-1.603 7.372-8.013 0-1.442-0.641-2.885-1.603-4.006-0.481-0.481-0.641-1.122-0.32-1.603 0.32-0.962 0.32-2.083 0.16-3.045-0.641 0.16-1.923 0.641-3.526 1.763-0.32 0.321-0.801 0.321-1.282 0.16-3.045-0.641-6.25-0.641-9.134 0.16-0.481 0.16-0.961 0-1.282-0.16-1.763-1.122-2.885-1.603-3.526-1.763-0.321 0.801-0.321 1.923 0 2.724 0.321 0.641 0.16 1.282-0.321 1.763-0.962 1.122-1.603 2.564-1.603 4.006 0 6.41 3.526 7.532 7.372 8.013 0.641 0 1.122 0.481 1.282 1.122s0 1.282-0.32 1.603c-0.481 0.481-0.481 0.641-0.32 1.923 0 0 0 0.16 0 0.16v2.404c0 0 0 0 0 0v3.205c0 0.962-0.641 1.603-1.603 1.603s-1.603-0.641-1.603-1.603v-1.122c-4.167 0.481-5.929-2.083-7.211-3.846-0.321-0.641-0.962-1.442-1.282-1.442-0.801-0.32-1.282-1.122-1.122-1.923 0.321-0.801 1.122-1.282 1.923-1.122 1.442 0.481 2.244 1.603 3.045 2.724 1.122 1.603 1.923 2.885 4.487 2.404v-1.122c0-0.641-0.16-1.282 0-2.083-3.205-0.641-8.013-2.885-8.013-10.897 0.16-2.083 0.801-4.006 2.083-5.449-0.481-1.923-0.321-3.686 0.481-5.449 0.16-0.481 0.641-0.801 0.962-0.962 0.641-0.16 2.564-0.321 6.41 1.923 3.045-0.641 6.25-0.641 9.295 0 3.686-2.404 5.769-2.083 6.25-1.923s0.801 0.481 0.962 0.962c0.801 1.763 0.962 3.526 0.481 5.449 1.442 1.442 2.083 3.365 2.083 5.449 0 8.013-4.808 10.096-8.013 10.897 0 0.481 0 0.962 0 1.442v6.25c0 0.801-0.641 1.442-1.603 1.442z"></path>
  </svg>