<svg  xmlns="http://www.w3.org/2000/svg" viewBox="0 0 32 32">
<path d="M27.2 32h-22.4c-2.72 0-4.8-2.080-4.8-4.8v-22.4c0-2.72 2.080-4.8 4.8-4.8h22.4c2.72 0 4.8 2.080 4.8 4.8v22.4c0 2.72-2.080 4.8-4.8 4.8zM4.8 3.2c-0.96 0-1.6 0.64-1.6 1.6v22.4c0 0.96 0.64 1.6 1.6 1.6h22.4c0.96 0 1.6-0.64 1.6-1.6v-22.4c0-0.96-0.64-1.6-1.6-1.6h-22.4z"></path>
<path d="M19.2 24c-0.64 0-1.12-0.32-1.44-0.96l-3.36-6.72v6.080c0 0.96-0.64 1.6-1.6 1.6s-1.6-0.64-1.6-1.6v-12.8c0-0.8 0.48-1.44 1.28-1.6s1.44 0.16 1.76 0.8l3.36 6.72v-5.92c0-0.96 0.64-1.6 1.6-1.6s1.6 0.64 1.6 1.6v12.8c0 0.8-0.48 1.44-1.28 1.6 0 0-0.16 0-0.32 0z"></path>
</svg>