<svg  xmlns="http://www.w3.org/2000/svg" viewBox="0 0 32 32">
<path d="M16 30.939c-0.448 0-0.747-0.149-1.045-0.448l-11.199-11.050c-1.643-1.642-2.688-3.882-2.688-6.271s0.896-4.629 2.538-6.421c1.643-1.643 3.882-2.688 6.271-2.688 2.24 0 4.48 0.747 6.122 2.24 1.344-1.195 2.986-1.941 4.778-2.24 2.389-0.299 4.778 0.299 6.57 1.643 1.941 1.493 3.136 3.584 3.434 5.973s-0.299 4.778-1.642 6.57c-0.299 0.299-0.597 0.747-0.896 1.045 0 0 0 0-0.149 0.149l-11.050 11.050c-0.299 0.299-0.597 0.448-1.045 0.448zM10.027 7.048c0 0 0 0 0 0-1.643 0-3.136 0.597-4.33 1.792-1.045 1.195-1.643 2.688-1.643 4.181s0.597 3.136 1.792 4.181l10.154 10.004 10.154-10.004c0 0 0 0 0.149-0.149s0.299-0.299 0.448-0.597c0.896-1.344 1.344-2.837 1.195-4.48-0.299-1.643-1.045-2.986-2.389-3.882s-2.837-1.344-4.48-1.195c-1.642 0.149-2.986 1.045-3.882 2.389-0.299 0.597-0.747 0.747-1.195 0.747 0 0 0 0 0 0-0.448 0-0.896-0.149-1.195-0.597-0.149-0.299-0.448-0.448-0.597-0.747-1.195-1.045-2.688-1.643-4.181-1.643z"></path>
</svg>