<svg  xmlns="http://www.w3.org/2000/svg" viewBox="0 0 32 32">
  <path d="M3.028 25.729c-0.486 0-0.811-0.162-1.135-0.486-0.649-0.649-0.649-1.622 0-2.27l8.594-8.594-8.594-8.594c-0.649-0.649-0.649-1.622 0-2.27s1.622-0.649 2.27 0l9.729 9.729c0.649 0.649 0.649 1.622 0 2.27l-9.729 9.729c-0.324 0.324-0.649 0.486-1.135 0.486z"></path>
  <path d="M28.972 28.972h-12.972c-0.973 0-1.622-0.649-1.622-1.622s0.649-1.622 1.622-1.622h12.972c0.973 0 1.622 0.649 1.622 1.622s-0.649 1.622-1.622 1.622z"></path>
  </svg>