<svg  xmlns="http://www.w3.org/2000/svg" viewBox="0 0 32 32">
  <path d="M16 23.159c-1.718 0-3.58-0.716-5.011-2.005-2.864-2.72-2.864-7.302-0.143-10.166l0.143-0.143c2.864-2.72 7.445-2.72 10.166 0.143s2.72 7.445-0.143 10.166c0 0 0 0 0 0-1.432 1.289-3.15 2.005-5.011 2.005zM16 11.705c-1.145 0-2.148 0.43-3.007 1.145v0.143c-1.718 1.718-1.575 4.439 0.143 6.014s4.295 1.575 6.014 0c1.718-1.575 1.718-4.439 0.143-6.014-1.002-0.859-2.148-1.289-3.293-1.289zM20.009 20.009v0 0z"></path>
  <path d="M5.834 27.598c-0.43 0-0.716-0.143-1.002-0.43-0.573-0.573-0.573-1.432 0-2.005l2.005-2.005c0.573-0.573 1.432-0.573 2.005 0s0.573 1.432 0 2.005l-2.005 2.005c-0.286 0.286-0.573 0.43-1.002 0.43z"></path>
  <path d="M7.839 9.27c-0.286 0-0.716-0.143-1.002-0.43l-2.005-2.005c-0.573-0.573-0.573-1.432 0-2.005s1.432-0.573 2.005 0l2.005 2.005c0.573 0.573 0.573 1.575 0 2.005-0.143 0.286-0.573 0.43-1.002 0.43z"></path>
  <path d="M24.161 9.27c-0.43 0-0.716-0.143-1.002-0.43-0.573-0.573-0.573-1.432 0-2.005l2.005-2.005c0.573-0.573 1.432-0.573 2.005 0s0.573 1.432 0 2.005l-2.005 2.005c-0.286 0.286-0.716 0.43-1.002 0.43z"></path>
  <path d="M26.166 27.598c-0.43 0-0.716-0.143-1.002-0.43l-2.005-2.005c-0.573-0.573-0.573-1.432 0-2.005s1.432-0.573 2.005 0l2.005 2.005c0.573 0.573 0.573 1.432 0 2.005-0.286 0.286-0.716 0.43-1.002 0.43z"></path>
  <path d="M4.545 17.432h-2.864c-0.859 0-1.432-0.573-1.432-1.432s0.573-1.432 1.432-1.432h2.864c0.859 0 1.432 0.573 1.432 1.432s-0.573 1.432-1.432 1.432z"></path>
  <path d="M16 5.977c-0.859 0-1.432-0.573-1.432-1.432v-2.864c0-0.859 0.573-1.432 1.432-1.432s1.432 0.573 1.432 1.432v2.864c0 0.859-0.573 1.432-1.432 1.432z"></path>
  <path d="M30.318 17.432h-2.864c-0.859 0-1.432-0.573-1.432-1.432s0.573-1.432 1.432-1.432h2.864c0.859 0 1.432 0.573 1.432 1.432s-0.573 1.432-1.432 1.432z"></path>
  <path d="M16 31.75c-0.859 0-1.432-0.573-1.432-1.432v-2.864c0-0.859 0.573-1.432 1.432-1.432s1.432 0.573 1.432 1.432v2.864c0 0.859-0.573 1.432-1.432 1.432z"></path>
  </svg>