<svg  xmlns="http://www.w3.org/2000/svg" viewBox="0 0 32 32">
  <path d="M6.85 12.95c-3.355 0-6.1-2.745-6.1-6.1s2.745-6.1 6.1-6.1 6.1 2.745 6.1 6.1-2.745 6.1-6.1 6.1zM6.85 3.8c-1.678 0-3.050 1.373-3.050 3.050s1.372 3.050 3.050 3.050 3.050-1.373 3.050-3.050-1.373-3.050-3.050-3.050z"></path>
  <path d="M6.85 31.25c-3.355 0-6.1-2.745-6.1-6.1s2.745-6.1 6.1-6.1 6.1 2.745 6.1 6.1-2.745 6.1-6.1 6.1zM6.85 22.1c-1.678 0-3.050 1.372-3.050 3.050s1.372 3.050 3.050 3.050 3.050-1.372 3.050-3.050-1.373-3.050-3.050-3.050z"></path>
  <path d="M10.053 23.473c-0.457 0-0.762-0.152-1.068-0.457-0.61-0.61-0.61-1.525 0-2.135l18.147-18.147c0.61-0.61 1.525-0.61 2.135 0s0.61 1.525 0 2.135l-18.147 18.147c-0.305 0.305-0.61 0.457-1.067 0.457z"></path>
  <path d="M28.2 29.725c-0.457 0-0.762-0.152-1.067-0.457l-8.387-8.387c-0.61-0.61-0.61-1.525 0-2.135s1.525-0.61 2.135 0l8.387 8.387c0.61 0.61 0.61 1.525 0 2.135-0.305 0.305-0.61 0.457-1.067 0.457z"></path>
  <path d="M16 17.525c-0.457 0-0.762-0.152-1.067-0.457l-5.947-5.947c-0.61-0.61-0.61-1.525 0-2.135s1.525-0.61 2.135 0l5.948 5.947c0.61 0.61 0.61 1.525 0 2.135-0.305 0.305-0.61 0.457-1.067 0.457z"></path>
  </svg>