<svg  xmlns="http://www.w3.org/2000/svg" viewBox="0 0 32 32">
<path d="M27.649 23.572c-0.437 0-0.874-0.291-1.165-0.582-0.437-0.728-0.291-1.602 0.437-2.039 1.456-1.019 2.33-2.475 2.33-4.223 0-2.767-2.33-5.097-5.097-5.097v0h-2.621c-0.582 0-1.165-0.437-1.456-1.019-0.437-1.311-1.165-2.621-2.184-3.64-1.602-1.602-3.786-2.621-6.116-2.621s-4.514 0.874-6.261 2.475c-3.495 3.349-3.495 8.883-0.146 12.377 0.582 0.582 0.582 1.456 0 2.039s-1.456 0.582-2.039 0c-4.514-4.66-4.368-11.941 0.146-16.455 2.184-2.184 5.242-3.349 8.3-3.349s5.97 1.311 8.154 3.495c1.019 1.165 1.893 2.33 2.475 3.786h1.602c4.368 0 8.009 3.64 8.009 8.009 0 2.621-1.311 5.242-3.495 6.698-0.291 0.146-0.582 0.146-0.874 0.146z"></path>
<path d="M16 30.562c-0.874 0-1.456-0.582-1.456-1.456v-13.105c0-0.874 0.582-1.456 1.456-1.456s1.456 0.582 1.456 1.456v13.105c0 0.874-0.582 1.456-1.456 1.456z"></path>
<path d="M16 30.562c-0.437 0-0.728-0.146-1.019-0.437l-5.825-5.825c-0.582-0.582-0.582-1.456 0-2.039s1.456-0.582 2.039 0l4.805 4.805 4.805-4.805c0.582-0.582 1.456-0.582 2.039 0s0.582 1.456 0 2.039l-5.825 5.825c-0.291 0.291-0.582 0.437-1.019 0.437z"></path>
</svg>