<svg  xmlns="http://www.w3.org/2000/svg" viewBox="0 0 32 32">
  <path d="M15 17.648h-13.188c-0.989 0-1.649-0.659-1.649-1.649s0.659-1.649 1.649-1.649h13.188c0.989 0 1.648 0.659 1.648 1.649s-0.659 1.649-1.649 1.649z"></path>
  <path d="M1.812 27.539c-0.989 0-1.649-0.659-1.649-1.648v-19.782c0-0.989 0.659-1.649 1.649-1.649s1.649 0.659 1.649 1.649v19.782c0 0.989-0.659 1.648-1.649 1.648z"></path>
  <path d="M15 27.539c-0.989 0-1.649-0.659-1.649-1.648v-19.782c0-0.989 0.659-1.649 1.649-1.649s1.648 0.659 1.648 1.649v19.782c0 0.989-0.659 1.648-1.649 1.648z"></path>
  <path d="M29.836 20.945h-6.594c-0.989 0-1.648-0.659-1.648-1.648v-6.594c0-0.989 0.659-1.649 1.648-1.649s1.648 0.659 1.648 1.649v4.945h4.945c0.989 0 1.648 0.659 1.648 1.648s-0.659 1.648-1.648 1.648z"></path>
  <path d="M29.836 27.539c-0.989 0-1.648-0.659-1.648-1.648v-13.188c0-0.989 0.659-1.649 1.648-1.649s1.648 0.659 1.648 1.649v13.188c0 0.989-0.659 1.648-1.648 1.648z"></path>
  </svg>