<svg  xmlns="http://www.w3.org/2000/svg" viewBox="0 0 32 32">
<path d="M27.025 31.75h-22.050c-2.678 0-4.725-2.047-4.725-4.725v-9.45c0-2.678 2.047-4.725 4.725-4.725h22.050c2.678 0 4.725 2.047 4.725 4.725v9.45c0 2.678-2.047 4.725-4.725 4.725zM4.975 16c-0.945 0-1.575 0.63-1.575 1.575v9.45c0 0.945 0.63 1.575 1.575 1.575h22.050c0.945 0 1.575-0.63 1.575-1.575v-9.45c0-0.945-0.63-1.575-1.575-1.575h-22.050z"></path>
<path d="M16 9.7c-2.678 0-4.725-2.047-4.725-4.725s2.047-4.725 4.725-4.725 4.725 2.047 4.725 4.725-2.047 4.725-4.725 4.725zM16 3.4c-0.945 0-1.575 0.63-1.575 1.575s0.63 1.575 1.575 1.575 1.575-0.63 1.575-1.575-0.63-1.575-1.575-1.575z"></path>
<path d="M16 16c-0.945 0-1.575-0.63-1.575-1.575v-6.3c0-0.945 0.63-1.575 1.575-1.575s1.575 0.63 1.575 1.575v6.3c0 0.945-0.63 1.575-1.575 1.575z"></path>
<path d="M9.7 23.875c-0.473 0-0.787-0.157-1.102-0.473s-0.473-0.63-0.473-1.102c0-0.157 0-0.473 0.158-0.63s0.158-0.315 0.315-0.473c0.473-0.473 1.102-0.63 1.732-0.315 0.158 0 0.315 0.157 0.473 0.315s0.315 0.315 0.315 0.473c0.158 0.157 0.158 0.473 0.158 0.63 0 0.473-0.158 0.788-0.473 1.102s-0.63 0.473-1.103 0.473z"></path>
<path d="M22.3 23.875c-0.473 0-0.788-0.157-1.102-0.473s-0.473-0.63-0.473-1.102c0-0.157 0-0.473 0.157-0.63 0-0.157 0.157-0.315 0.315-0.473 0.315-0.315 0.945-0.473 1.418-0.473 0.157 0 0.157 0 0.315 0.157 0.157 0 0.157 0 0.315 0.157 0 0 0.157 0.157 0.315 0.157 0.157 0.157 0.315 0.315 0.315 0.473s0.157 0.315 0.157 0.63c0 0.473-0.157 0.788-0.473 1.102-0.473 0.315-0.788 0.473-1.26 0.473z"></path>
</svg>