<svg  xmlns="http://www.w3.org/2000/svg" viewBox="0 0 32 32">
  <path d="M23.827 19.131c-0.939 0-1.566-0.626-1.566-1.566v-15.655c0-0.939 0.626-1.565 1.566-1.565s1.566 0.626 1.566 1.565v15.655c0 0.939-0.626 1.566-1.566 1.566z"></path>
  <path d="M30.559 15.217c-0.313 0-0.47 0-0.783-0.157l-13.62-7.827c-0.783-0.47-0.939-1.409-0.626-2.192s1.409-0.939 2.192-0.626l13.62 7.827c0.783 0.47 0.939 1.409 0.626 2.192-0.313 0.47-0.783 0.783-1.409 0.783z"></path>
  <path d="M17.096 15.217c-0.47 0-1.096-0.313-1.409-0.783-0.47-0.783-0.157-1.722 0.626-2.192l13.62-7.827c0.783-0.47 1.722-0.157 2.192 0.626s0.157 1.722-0.626 2.192l-13.62 7.827c-0.313 0.157-0.626 0.157-0.783 0.157z"></path>
  <path d="M8.173 31.655h-3.131c-2.661 0-4.696-2.035-4.696-4.696v-3.131c0-2.661 2.035-4.696 4.696-4.696h3.131c2.661 0 4.696 2.035 4.696 4.696v3.131c0 2.661-2.035 4.696-4.696 4.696zM5.042 22.262c-0.939 0-1.566 0.626-1.566 1.566v3.131c0 0.939 0.626 1.566 1.566 1.566h3.131c0.939 0 1.566-0.626 1.566-1.566v-3.131c0-0.939-0.626-1.566-1.566-1.566h-3.131z"></path>
  </svg>