<svg  xmlns="http://www.w3.org/2000/svg" viewBox="0 0 32 32">
<path d="M26 31h-20c-2.833 0-5-2.167-5-5v-20c0-2.833 2.167-5 5-5h20c2.833 0 5 2.167 5 5v20c0 2.833-2.167 5-5 5zM6 4.333c-1 0-1.667 0.667-1.667 1.667v20c0 1 0.667 1.667 1.667 1.667h20c1 0 1.667-0.667 1.667-1.667v-20c0-1-0.667-1.667-1.667-1.667h-20z"></path>
<path d="M16 17.667h-13.333c-1 0-1.667-0.667-1.667-1.667s0.667-1.667 1.667-1.667h13.333c1 0 1.667 0.667 1.667 1.667s-0.667 1.667-1.667 1.667z"></path>
<path d="M29.333 22.667h-13.333c-1 0-1.667-0.667-1.667-1.667s0.667-1.667 1.667-1.667h13.333c1 0 1.667 0.667 1.667 1.667s-0.667 1.667-1.667 1.667z"></path>
<path d="M29.333 12.667h-13.333c-1 0-1.667-0.667-1.667-1.667s0.667-1.667 1.667-1.667h13.333c1 0 1.667 0.667 1.667 1.667s-0.667 1.667-1.667 1.667z"></path>
<path d="M16 31c-1 0-1.667-0.667-1.667-1.667v-26.667c0-1 0.667-1.667 1.667-1.667s1.667 0.667 1.667 1.667v26.667c0 1-0.667 1.667-1.667 1.667z"></path>
</svg>