<svg  xmlns="http://www.w3.org/2000/svg" viewBox="0 0 32 32">
<path d="M17.471 28.272h-11.768c-2.501 0-4.413-1.912-4.413-4.413v-17.652c0-2.501 1.912-4.413 4.413-4.413h20.594c2.501 0 4.413 1.912 4.413 4.413v9.562c0 0.883-0.588 1.471-1.471 1.471s-1.471-0.588-1.471-1.471v-9.562c0-0.883-0.588-1.471-1.471-1.471h-20.594c-0.883 0-1.471 0.588-1.471 1.471v17.652c0 0.883 0.588 1.471 1.471 1.471h11.768c0.883 0 1.471 0.588 1.471 1.471s-0.588 1.471-1.471 1.471z"></path>
<path d="M18.207 23.859h-6.62c-0.883 0-1.471-0.588-1.471-1.471s0.588-1.471 1.471-1.471h6.62c0.883 0 1.471 0.588 1.471 1.471s-0.588 1.471-1.471 1.471z"></path>
<path d="M26.297 31.214c-0.294 0-0.588-0.147-0.883-0.294-0.736-0.441-0.883-1.324-0.441-2.059l1.471-2.059h-3.089c-0.588 0-1.030-0.294-1.324-0.736s-0.294-1.030 0-1.471l2.942-4.413c0.441-0.736 1.324-0.883 2.059-0.441s0.883 1.324 0.441 2.059l-1.471 2.059h3.236c0.588 0 1.030 0.294 1.324 0.735s0.294 1.030 0 1.471l-2.942 4.413c-0.441 0.441-0.883 0.736-1.324 0.736z"></path>
</svg>