<svg  xmlns="http://www.w3.org/2000/svg" viewBox="0 0 32 32">
  <path d="M26.182 32h-20.364c-2.473 0-4.364-1.891-4.364-4.364v-20.364c0-0.291 0.145-0.582 0.291-0.873l4.364-5.818c0.291-0.436 0.727-0.582 1.164-0.582h17.455c0.436 0 0.873 0.145 1.164 0.582l4.364 5.818c0.145 0.291 0.291 0.582 0.291 0.873v20.364c0 2.473-1.891 4.364-4.364 4.364zM4.364 7.709v19.927c0 0.873 0.582 1.455 1.455 1.455h20.364c0.873 0 1.455-0.582 1.455-1.455v-19.927l-3.636-4.8h-16l-3.636 4.8z"></path>
  <path d="M29.091 8.727h-26.182c-0.873 0-1.455-0.582-1.455-1.455s0.582-1.455 1.455-1.455h26.182c0.873 0 1.455 0.582 1.455 1.455s-0.582 1.455-1.455 1.455z"></path>
  <path d="M16 20.364c-4.073 0-7.273-3.2-7.273-7.273 0-0.873 0.582-1.455 1.455-1.455s1.455 0.582 1.455 1.455c0 2.473 1.891 4.364 4.364 4.364s4.364-1.891 4.364-4.364c0-0.873 0.582-1.455 1.455-1.455s1.455 0.582 1.455 1.455c0 4.073-3.2 7.273-7.273 7.273z"></path>
  </svg>