<svg  xmlns="http://www.w3.org/2000/svg" viewBox="0 0 32 32">
  <path d="M6.495 11.083c-0.655 0-1.311-0.492-1.639-1.147-0.164-0.655-0.328-1.311-0.328-2.13 0-1.803 0.655-3.442 1.967-4.589 1.147-1.311 2.786-1.967 4.589-1.967 0 0 0 0 0 0h11.472c0.983 0 1.639 0.655 1.639 1.639s-0.655 1.639-1.639 1.639h-11.472c0 0 0 0 0 0-0.819 0-1.639 0.328-2.295 0.983s-0.983 1.475-0.983 2.295c0 0.328 0 0.819 0.164 1.147 0.328 0.819-0.164 1.803-0.983 1.967-0.164 0.164-0.328 0.164-0.492 0.164z"></path>
  <path d="M19.278 30.75h-13.111c-0.983 0-1.639-0.655-1.639-1.639s0.655-1.639 1.639-1.639h13.111c2.786 0 4.917-2.131 4.917-4.917s-2.131-4.917-4.917-4.917c-0.983 0-1.639-0.655-1.639-1.639s0.655-1.639 1.639-1.639c4.589 0 8.194 3.606 8.194 8.194s-3.605 8.194-8.194 8.194z"></path>
  <path d="M29.111 17.639h-26.222c-0.983 0-1.639-0.655-1.639-1.639s0.655-1.639 1.639-1.639h26.222c0.983 0 1.639 0.655 1.639 1.639s-0.655 1.639-1.639 1.639z"></path>
  </svg>