<svg  xmlns="http://www.w3.org/2000/svg" viewBox="0 0 32 32">
  <path d="M25.454 30.591c0 0 0 0 0 0h-21.091c-2.473 0-4.364-1.891-4.364-4.364v-18.909c0-2.473 1.891-4.364 4.364-4.364h5.673c1.455 0 2.764 0.727 3.636 2.036l1.164 1.745c0.291 0.291 0.727 0.582 1.309 0.582h8.582c2.473 0 4.364 1.891 4.364 4.364v1.745c0.582 0.145 1.164 0.582 1.6 1.018 0.873 0.873 1.309 1.891 1.309 3.055 0 0.436 0 0.727-0.145 1.164l-2.327 8.727c-0.436 1.891-2.182 3.2-4.073 3.2zM10.036 5.864h-5.673c-0.873 0-1.455 0.582-1.455 1.455v18.909c0 0.873 0.582 1.455 1.455 1.455h21.091c0 0 0 0 0 0 0.727 0 1.309-0.436 1.455-1.018l2.327-8.727c0-0.145 0-0.291 0-0.436 0-0.436-0.145-0.727-0.436-1.018-0.436-0.291-0.727-0.436-1.164-0.436 0 0 0 0 0 0h-15.709c0 0 0 0 0 0-0.582 0-1.018 0.291-1.309 0.727l-2.036 4.218c-0.291 0.727-1.164 1.018-1.891 0.582-0.727-0.291-1.018-1.164-0.582-1.891l2.182-4.218c0.582-1.455 2.036-2.327 3.636-2.327h14.254v-1.455c0-0.873-0.582-1.455-1.455-1.455h-8.582c-1.455 0-2.764-0.727-3.636-2.036l-1.164-1.6c-0.291-0.436-0.727-0.727-1.309-0.727z"></path>
  </svg>