<svg  xmlns="http://www.w3.org/2000/svg" viewBox="0 0 32 32">
  <path d="M12.444 32h-7.111c-1.067 0-1.778-0.711-1.778-1.778v-28.444c0-1.067 0.711-1.778 1.778-1.778h7.111c1.067 0 1.778 0.711 1.778 1.778v28.444c0 1.067-0.711 1.778-1.778 1.778zM7.111 28.444h3.556v-24.889h-3.556v24.889z"></path>
  <path d="M26.667 32h-7.111c-1.067 0-1.778-0.711-1.778-1.778v-28.444c0-1.067 0.711-1.778 1.778-1.778h7.111c1.067 0 1.778 0.711 1.778 1.778v28.444c0 1.067-0.711 1.778-1.778 1.778zM21.333 28.444h3.556v-24.889h-3.556v24.889z"></path>
  </svg>