<svg  xmlns="http://www.w3.org/2000/svg" viewBox="0 0 32 32">
  <path d="M26.023 31.75h-20.045c-2.434 0-4.295-1.861-4.295-4.295v-20.045c0-2.434 1.861-4.295 4.295-4.295h20.045c2.434 0 4.295 1.861 4.295 4.295v20.045c0 2.434-1.861 4.295-4.295 4.295zM5.977 5.977c-0.859 0-1.432 0.573-1.432 1.432v20.045c0 0.859 0.573 1.432 1.432 1.432h20.045c0.859 0 1.432-0.573 1.432-1.432v-20.045c0-0.859-0.573-1.432-1.432-1.432h-20.045z"></path>
  <path d="M21.727 8.841c-0.859 0-1.432-0.573-1.432-1.432v-5.727c0-0.859 0.573-1.432 1.432-1.432s1.432 0.573 1.432 1.432v5.727c0 0.859-0.573 1.432-1.432 1.432z"></path>
  <path d="M10.273 8.841c-0.859 0-1.432-0.573-1.432-1.432v-5.727c0-0.859 0.573-1.432 1.432-1.432s1.432 0.573 1.432 1.432v5.727c0 0.859-0.573 1.432-1.432 1.432z"></path>
  <path d="M28.886 14.568h-25.773c-0.859 0-1.432-0.573-1.432-1.432s0.573-1.432 1.432-1.432h25.773c0.859 0 1.432 0.573 1.432 1.432s-0.573 1.432-1.432 1.432z"></path>
  <path d="M10.273 20.295c-0.859 0-1.432-0.573-1.432-1.432s0.573-1.432 1.432-1.432v0c0.859 0 1.432 0.573 1.432 1.432s-0.573 1.432-1.432 1.432z"></path>
  <path d="M16 20.295c-0.859 0-1.432-0.573-1.432-1.432s0.573-1.432 1.432-1.432v0c0.859 0 1.432 0.573 1.432 1.432s-0.573 1.432-1.432 1.432z"></path>
  <path d="M21.727 20.295c-0.859 0-1.432-0.573-1.432-1.432s0.573-1.432 1.432-1.432v0c0.859 0 1.432 0.573 1.432 1.432s-0.573 1.432-1.432 1.432z"></path>
  <path d="M10.273 26.023c-0.859 0-1.432-0.573-1.432-1.432s0.573-1.432 1.432-1.432v0c0.859 0 1.432 0.573 1.432 1.432s-0.573 1.432-1.432 1.432z"></path>
  <path d="M16 26.023c-0.859 0-1.432-0.573-1.432-1.432s0.573-1.432 1.432-1.432v0c0.859 0 1.432 0.573 1.432 1.432s-0.573 1.432-1.432 1.432z"></path>
  <path d="M21.727 26.023c-0.859 0-1.432-0.573-1.432-1.432s0.573-1.432 1.432-1.432v0c0.859 0 1.432 0.573 1.432 1.432s-0.573 1.432-1.432 1.432z"></path>
  </svg>