<svg  xmlns="http://www.w3.org/2000/svg" viewBox="0 0 32 32">
  <path d="M17.409 31.5c-1.268 0-2.536-0.564-3.382-1.409l-13.104-13.104c-0.282-0.282-0.423-0.564-0.423-0.986v-14.091c0-0.845 0.564-1.409 1.409-1.409h14.091c0.423 0 0.704 0.141 0.986 0.423l13.104 13.104c0.845 0.845 1.409 2.114 1.409 3.382s-0.564 2.536-1.409 3.382l-9.3 9.3c-0.845 0.845-2.114 1.409-3.382 1.409zM3.318 15.436l12.682 12.682c0.704 0.704 2.114 0.704 2.818 0l9.3-9.3c0.423-0.423 0.564-0.845 0.564-1.409s-0.141-0.986-0.564-1.409l-12.682-12.682h-12.118v12.118z"></path>
  <path d="M8.955 10.364c-0.704 0-1.409-0.564-1.409-1.409s0.564-1.409 1.409-1.409v0c0.845 0 1.409 0.564 1.409 1.409s-0.564 1.409-1.409 1.409z"></path>
  </svg>