<svg  xmlns="http://www.w3.org/2000/svg" viewBox="0 0 32 32">
<path d="M11.303 14.239h-7.867c-1.644 0-2.936-1.292-2.936-2.936v-7.867c0-1.526 1.409-2.936 2.936-2.936h7.867c1.644 0 2.936 1.292 2.936 2.936v7.867c0 1.644-1.292 2.936-2.936 2.936zM3.436 3.318c-0.117 0-0.235 0.117-0.235 0.235v7.75c0 0.117 0.117 0.235 0.235 0.235h7.867c0.117 0 0.235-0.117 0.235-0.235v-7.867c0-0.117-0.117-0.235-0.235-0.235h-7.867z"></path>
<path d="M11.303 31.5h-7.867c-1.644 0-2.936-1.292-2.936-2.936v-7.867c0-1.644 1.292-2.936 2.936-2.936h7.867c1.644 0 2.936 1.292 2.936 2.936v7.867c0 1.526-1.292 2.936-2.936 2.936zM3.436 20.462c-0.117 0-0.235 0.117-0.235 0.235v7.867c0 0.117 0.117 0.235 0.235 0.235h7.867c0.117 0 0.235-0.117 0.235-0.235v-7.867c0-0.117-0.117-0.235-0.235-0.235h-7.867z"></path>
<path d="M30.091 4.845h-10.92c-0.705 0-1.409-0.587-1.409-1.409s0.587-1.409 1.409-1.409h10.92c0.705 0 1.409 0.587 1.409 1.409s-0.705 1.409-1.409 1.409z"></path>
<path d="M30.091 12.712h-10.92c-0.705 0-1.409-0.587-1.409-1.409s0.587-1.409 1.409-1.409h10.92c0.705 0 1.409 0.587 1.409 1.409s-0.705 1.409-1.409 1.409z"></path>
<path d="M30.091 22.106h-10.92c-0.705 0-1.409-0.587-1.409-1.409s0.587-1.409 1.409-1.409h10.92c0.705 0 1.409 0.587 1.409 1.409s-0.705 1.409-1.409 1.409z"></path>
<path d="M30.091 29.856h-10.92c-0.705 0-1.409-0.587-1.409-1.409s0.587-1.409 1.409-1.409h10.92c0.705 0 1.409 0.587 1.409 1.409s-0.705 1.409-1.409 1.409z"></path>
</svg>