<svg  xmlns="http://www.w3.org/2000/svg" viewBox="0 0 32 32">
<path d="M26.85 31.5h-21.7c-2.635 0-4.65-2.015-4.65-4.65v-21.7c0-2.635 2.015-4.65 4.65-4.65h21.7c2.635 0 4.65 2.015 4.65 4.65v21.7c0 2.635-2.015 4.65-4.65 4.65zM5.15 3.6c-0.93 0-1.55 0.62-1.55 1.55v21.7c0 0.93 0.62 1.55 1.55 1.55h21.7c0.93 0 1.55-0.62 1.55-1.55v-21.7c0-0.93-0.62-1.55-1.55-1.55h-21.7z"></path>
<path d="M11.35 31.5c-0.93 0-1.55-0.62-1.55-1.55v-27.9c0-0.93 0.62-1.55 1.55-1.55s1.55 0.62 1.55 1.55v27.9c0 0.93-0.62 1.55-1.55 1.55z"></path>
<path d="M22.2 22.2c-0.465 0-0.775-0.155-1.085-0.465l-4.65-4.65c-0.62-0.62-0.62-1.55 0-2.17l4.65-4.65c0.62-0.62 1.55-0.62 2.17 0s0.62 1.55 0 2.17l-3.565 3.565 3.565 3.565c0.62 0.62 0.62 1.55 0 2.17-0.31 0.31-0.62 0.465-1.085 0.465z"></path>
</svg>