<svg  xmlns="http://www.w3.org/2000/svg" viewBox="0 0 32 32">
  <path d="M18.907 30.534c-0.291 0-0.436 0-0.581-0.145l-5.813-2.907c-0.581-0.291-0.872-0.727-0.872-1.308v-9.011l-11.336-13.371c-0.291-0.436-0.436-1.017-0.145-1.453 0.291-0.581 0.727-0.872 1.308-0.872h29.067c0.581 0 1.017 0.291 1.308 0.872s0.145 1.163-0.145 1.599l-11.336 13.226v11.918c0 0.436-0.291 1.017-0.727 1.308-0.145 0.145-0.436 0.145-0.727 0.145zM14.547 25.301l2.907 1.453v-10.028c0-0.291 0.145-0.727 0.291-0.872l9.592-11.482h-22.672l9.592 11.336c0.291 0.291 0.291 0.581 0.291 0.872v8.72z"></path>
  </svg>