<svg  xmlns="http://www.w3.org/2000/svg" viewBox="0 0 32 32">
  <path d="M26.667 32h-21.333c-1.067 0-1.778-0.711-1.778-1.778s0.711-1.778 1.778-1.778h21.333c1.067 0 1.778-0.711 1.778-1.778v-17.778c0-1.067-0.711-1.778-1.778-1.778h-17.778c-1.067 0-1.778-0.711-1.778-1.778s0.711-1.778 1.778-1.778h17.778c3.022 0 5.333 2.311 5.333 5.333v17.778c0 3.022-2.311 5.333-5.333 5.333z"></path>
  <path d="M5.333 32c-3.022 0-5.333-2.311-5.333-5.333s2.311-5.333 5.333-5.333 5.333 2.311 5.333 5.333-2.311 5.333-5.333 5.333zM5.333 24.889c-1.067 0-1.778 0.711-1.778 1.778s0.711 1.778 1.778 1.778 1.778-0.711 1.778-1.778-0.711-1.778-1.778-1.778z"></path>
  <path d="M8.889 28.444c-1.067 0-1.778-0.711-1.778-1.778v-21.333c0-1.067-0.711-1.778-1.778-1.778s-1.778 0.711-1.778 1.778v21.333c0 1.067-0.711 1.778-1.778 1.778s-1.778-0.711-1.778-1.778v-21.333c0-3.022 2.311-5.333 5.333-5.333s5.333 2.311 5.333 5.333v21.333c0 1.067-0.711 1.778-1.778 1.778z"></path>
  </svg>