<svg  xmlns="http://www.w3.org/2000/svg" viewBox="0 0 32 32">
  <path d="M29.436 11.521h-8.957c-0.896 0-1.493-0.597-1.493-1.493s0.597-1.493 1.493-1.493h7.464v-7.464c0-0.896 0.597-1.493 1.493-1.493s1.493 0.597 1.493 1.493v8.957c0 0.896-0.597 1.493-1.493 1.493z"></path>
  <path d="M16.149 31.078c-0.597 0-1.045 0-1.642-0.149-8.211-0.896-14.182-8.211-13.287-16.422 0.448-4.031 2.389-7.464 5.524-10.002s7.017-3.583 10.898-3.284c3.135 0.299 5.972 1.642 8.36 3.583l4.479 4.031c0.597 0.597 0.597 1.493 0.149 2.090-0.597 0.597-1.493 0.597-2.090 0.149l-4.479-4.031c-1.791-1.642-4.18-2.687-6.569-2.837-6.569-0.746-12.391 4.031-13.137 10.599-0.299 3.135 0.597 6.27 2.538 8.808s4.927 4.031 8.062 4.329c6.569 0.597 12.391-4.031 13.137-10.599 0.149-0.746 0.746-1.344 1.642-1.344 0.746 0.149 1.344 0.896 1.344 1.642-0.896 7.614-7.464 13.436-14.929 13.436z"></path>
  </svg>