<svg  xmlns="http://www.w3.org/2000/svg" viewBox="0 0 32 32">
  <path d="M22 11.525h-12c-0.9 0-1.5-0.6-1.5-1.5s0.6-1.5 1.5-1.5h12c0.9 0 1.5 0.6 1.5 1.5s-0.6 1.5-1.5 1.5z"></path>
  <path d="M19 17.525h-9c-0.9 0-1.5-0.6-1.5-1.5s0.6-1.5 1.5-1.5h9c0.9 0 1.5 0.6 1.5 1.5s-0.6 1.5-1.5 1.5z"></path>
  <path d="M16 29.525c-0.45 0-0.75-0.15-1.050-0.45l-4.050-4.050h-3.9c-3.3 0-6-2.7-6-6v-12c0-3.3 2.7-6 6-6h18c3.3 0 6 2.7 6 6v9c0 0.9-0.6 1.5-1.5 1.5s-1.5-0.6-1.5-1.5v-9c0-1.65-1.35-3-3-3h-18c-1.65 0-3 1.35-3 3v12c0 1.65 1.35 3 3 3h4.5c0.45 0 0.75 0.15 1.050 0.45l4.5 4.5c0.6 0.6 0.6 1.5 0 2.1-0.3 0.3-0.6 0.45-1.050 0.45z"></path>
  <path d="M22 31.025c-0.45 0-0.75-0.15-1.050-0.45-0.6-0.6-0.6-1.5 0-2.1l7.5-7.5c0.6-0.6 1.5-0.6 2.1 0s0.6 1.5 0 2.1l-7.5 7.5c-0.3 0.3-0.6 0.45-1.050 0.45z"></path>
  <path d="M29.5 30.275c-0.9 0-1.5-0.6-1.5-1.5v-5.25h-5.25c-0.9 0-1.5-0.6-1.5-1.5s0.6-1.5 1.5-1.5h6.75c0.9 0 1.5 0.6 1.5 1.5v6.75c0 0.9-0.6 1.5-1.5 1.5z"></path>
  </svg>