<svg  xmlns="http://www.w3.org/2000/svg" viewBox="0 0 32 32">
<path d="M28.857 12.275h-25.713c-0.601 0-1.081-0.481-1.081-1.081s0.481-1.081 1.081-1.081h25.593c0.601 0 1.081 0.481 1.081 1.081s-0.36 1.081-0.961 1.081z"></path>
<path d="M28.857 21.888h-25.713c-0.601 0-1.081-0.481-1.081-1.081s0.481-1.081 1.081-1.081h25.593c0.601 0 1.081 0.481 1.081 1.081s-0.36 1.081-0.961 1.081z"></path>
<path d="M9.632 31.5c-0.12 0-0.12 0 0 0-0.721-0.12-1.081-0.601-1.081-1.202l3.244-28.837c0.12-0.601 0.601-0.961 1.202-0.961 0.601 0.12 0.961 0.601 0.961 1.202l-3.244 28.837c-0.12 0.481-0.601 0.961-1.081 0.961z"></path>
<path d="M19.244 31.5c-0.12 0-0.12 0 0 0-0.721-0.12-1.081-0.601-1.081-1.202l3.244-28.837c0.12-0.601 0.601-0.961 1.202-0.961 0.601 0.12 0.961 0.601 0.961 1.202l-3.244 28.837c-0.12 0.481-0.601 0.961-1.081 0.961z"></path>
</svg>