<svg  xmlns="http://www.w3.org/2000/svg" viewBox="0 0 32 32">
  <path d="M27.432 4.568h-14.699c-0.98 0-1.633-0.653-1.633-1.633s0.653-1.633 1.633-1.633h14.699c0.98 0 1.633 0.653 1.633 1.633s-0.653 1.633-1.633 1.633z"></path>
  <path d="M19.266 30.699h-14.699c-0.98 0-1.633-0.653-1.633-1.633s0.653-1.633 1.633-1.633h14.699c0.98 0 1.633 0.653 1.633 1.633s-0.653 1.633-1.633 1.633z"></path>
  <path d="M11.1 30.699c-0.163 0-0.327 0-0.653-0.163-0.817-0.327-1.306-1.306-0.98-2.123l9.799-26.131c0.327-0.817 1.306-1.306 2.123-0.98s1.306 1.306 0.98 2.123l-9.799 26.131c-0.163 0.817-0.817 1.143-1.47 1.143z"></path>
  </svg>