<svg  xmlns="http://www.w3.org/2000/svg" viewBox="0 0 32 32">
  <path d="M14.45 28.4c-7.75 0-13.95-6.2-13.95-13.95s6.2-13.95 13.95-13.95c7.75 0 13.95 6.2 13.95 13.95s-6.2 13.95-13.95 13.95zM14.45 3.6c-6.045 0-10.85 4.805-10.85 10.85s4.805 10.85 10.85 10.85c6.045 0 10.85-4.805 10.85-10.85s-4.805-10.85-10.85-10.85z"></path>
  <path d="M29.95 31.5c-0.465 0-0.775-0.155-1.085-0.465l-6.665-6.665c-0.62-0.62-0.62-1.55 0-2.17s1.55-0.62 2.17 0l6.665 6.665c0.62 0.62 0.62 1.55 0 2.17-0.31 0.31-0.62 0.465-1.085 0.465z"></path>
  </svg>