<svg  xmlns="http://www.w3.org/2000/svg" viewBox="0 0 32 32">
  <path d="M16 22.2c-3.41 0-6.2-2.79-6.2-6.2s2.79-6.2 6.2-6.2c3.41 0 6.2 2.79 6.2 6.2s-2.79 6.2-6.2 6.2zM16 12.9c-1.705 0-3.1 1.395-3.1 3.1s1.395 3.1 3.1 3.1c1.705 0 3.1-1.395 3.1-3.1s-1.395-3.1-3.1-3.1z"></path>
  <path d="M2.050 9.8c-0.93 0-1.55-0.62-1.55-1.55v-3.1c0-2.635 2.015-4.65 4.65-4.65h3.1c0.93 0 1.55 0.62 1.55 1.55s-0.62 1.55-1.55 1.55h-3.1c-0.93 0-1.55 0.62-1.55 1.55v3.1c0 0.93-0.62 1.55-1.55 1.55z"></path>
  <path d="M29.95 9.8c-0.93 0-1.55-0.62-1.55-1.55v-3.1c0-0.93-0.62-1.55-1.55-1.55h-3.1c-0.93 0-1.55-0.62-1.55-1.55s0.62-1.55 1.55-1.55h3.1c2.635 0 4.65 2.015 4.65 4.65v3.1c0 0.93-0.62 1.55-1.55 1.55z"></path>
  <path d="M26.85 31.5h-3.1c-0.93 0-1.55-0.62-1.55-1.55s0.62-1.55 1.55-1.55h3.1c0.93 0 1.55-0.62 1.55-1.55v-3.1c0-0.93 0.62-1.55 1.55-1.55s1.55 0.62 1.55 1.55v3.1c0 2.635-2.015 4.65-4.65 4.65z"></path>
  <path d="M8.25 31.5h-3.1c-2.635 0-4.65-2.015-4.65-4.65v-3.1c0-0.93 0.62-1.55 1.55-1.55s1.55 0.62 1.55 1.55v3.1c0 0.93 0.62 1.55 1.55 1.55h3.1c0.93 0 1.55 0.62 1.55 1.55s-0.62 1.55-1.55 1.55z"></path>
  </svg>