<svg  xmlns="http://www.w3.org/2000/svg" viewBox="0 0 32 32">
<path d="M24.577 26.007h-16.154c-4.575 0-8.148-3.574-8.148-7.863 0-4.003 3.002-7.291 7.005-7.72 0.286-0.572 0.572-1.144 0.858-1.715 0.429-0.715 1.287-0.858 2.001-0.429s0.858 1.287 0.429 2.001c-0.429 0.572-0.715 1.144-0.858 1.858-0.143 0.572-0.715 1.001-1.287 1.001-2.859 0-5.289 2.287-5.289 5.003s2.287 5.003 5.289 5.003h16.154c0.858 0 1.43 0.572 1.43 1.43s-0.572 1.43-1.43 1.43zM28.866 24.577c-0.429 0-0.715-0.143-1.001-0.429-0.572-0.572-0.572-1.43 0-2.001 0.715-0.715 1.001-1.573 1.001-2.573 0-2.001-1.573-3.574-3.574-3.574h-1.43c-0.429 0-0.858-0.143-1.144-0.572s-0.429-0.715-0.286-1.144c0.572-2.001-0.286-4.003-1.858-5.432-1.715-1.43-4.289-1.858-6.433-1.144-0.286 0.143-0.572 0.143-0.858 0.286-0.858 0.429-1.715 0.143-2.001-0.572s0-1.572 0.715-1.858c0.286-0.286 0.715-0.429 1.144-0.572 3.145-1.001 6.576-0.286 9.149 1.715 2.001 1.715 3.288 4.003 3.288 6.576 3.431 0.143 6.147 3.002 6.147 6.433 0 1.715-0.715 3.288-1.858 4.575-0.286 0.143-0.572 0.286-1.001 0.286z"></path>
<path d="M28.866 30.295c-0.429 0-0.715-0.143-1.001-0.429l-25.732-25.732c-0.572-0.572-0.572-1.43 0-2.001s1.43-0.572 2.001 0l25.732 25.732c0.572 0.572 0.572 1.43 0 2.001-0.286 0.286-0.572 0.429-1.001 0.429z"></path>
</svg>