<svg  xmlns="http://www.w3.org/2000/svg" viewBox="0 0 32 32">
<path d="M6.7 11.35h-4.65c-0.93 0-1.55-0.62-1.55-1.55s0.62-1.55 1.55-1.55h4.65c0.93 0 1.55-0.62 1.55-1.55v-4.65c0-0.93 0.62-1.55 1.55-1.55s1.55 0.62 1.55 1.55v4.65c0 2.635-2.015 4.65-4.65 4.65z"></path>
<path d="M29.95 11.35h-4.65c-2.635 0-4.65-2.015-4.65-4.65v-4.65c0-0.93 0.62-1.55 1.55-1.55s1.55 0.62 1.55 1.55v4.65c0 0.93 0.62 1.55 1.55 1.55h4.65c0.93 0 1.55 0.62 1.55 1.55s-0.62 1.55-1.55 1.55z"></path>
<path d="M9.8 31.5c-0.93 0-1.55-0.62-1.55-1.55v-4.65c0-0.93-0.62-1.55-1.55-1.55h-4.65c-0.93 0-1.55-0.62-1.55-1.55s0.62-1.55 1.55-1.55h4.65c2.635 0 4.65 2.015 4.65 4.65v4.65c0 0.93-0.62 1.55-1.55 1.55z"></path>
<path d="M22.2 31.5c-0.93 0-1.55-0.62-1.55-1.55v-4.65c0-2.635 2.015-4.65 4.65-4.65h4.65c0.93 0 1.55 0.62 1.55 1.55s-0.62 1.55-1.55 1.55h-4.65c-0.93 0-1.55 0.62-1.55 1.55v4.65c0 0.93-0.62 1.55-1.55 1.55z"></path>
</svg>