<svg  xmlns="http://www.w3.org/2000/svg" viewBox="0 0 32 32">
<path d="M30.163 16c-0.885 0-1.593-0.708-1.77-1.593-0.531-3.364-2.124-6.196-4.957-8.321-2.656-1.947-6.019-2.833-9.383-2.479-3.187 0.708-6.373 2.479-8.321 5.311h3.187c1.062 0 1.77 0.708 1.77 1.77s-0.708 1.77-1.77 1.77h-6.196c0 0 0 0 0 0h-0.885c-1.062 0-1.77-0.708-1.77-1.77v-7.082c0-1.062 0.708-1.77 1.77-1.77s1.77 0.708 1.77 1.77v2.302c2.479-3.010 6.196-5.134 10.091-5.665 4.249-0.531 8.498 0.531 11.862 3.187s5.665 6.373 6.196 10.622c0.177 0.885-0.531 1.947-1.593 1.947 0.177 0 0 0 0 0z"></path>
<path d="M16 31.934c-7.967 0-14.871-5.842-15.934-13.809-0.177-0.885 0.531-1.947 1.593-1.947 0.885-0.177 1.947 0.531 1.947 1.593 0.885 6.905 7.259 11.685 14.163 10.799 3.364-0.531 6.55-2.302 8.498-5.134h-3.187c-1.062 0-1.77-0.708-1.77-1.77s0.708-1.77 1.77-1.77h6.196c0 0 0 0 0 0h0.885c1.062 0 1.77 0.708 1.77 1.77v7.082c0 1.062-0.708 1.77-1.77 1.77s-1.77-0.708-1.77-1.77v-2.302c-2.479 3.010-6.196 5.134-10.091 5.665-0.708-0.177-1.593-0.177-2.302-0.177z"></path>
<path d="M16 17.77c-1.062 0-1.77-0.708-1.77-1.77v-5.311c0-1.062 0.708-1.77 1.77-1.77s1.77 0.708 1.77 1.77v5.311c0 1.062-0.708 1.77-1.77 1.77z"></path>
<path d="M16 23.082c-1.062 0-1.77-0.708-1.77-1.77s0.708-1.77 1.77-1.77v0c1.062 0 1.77 0.708 1.77 1.77s-0.708 1.77-1.77 1.77z"></path>
</svg>