<svg  xmlns="http://www.w3.org/2000/svg" viewBox="0 0 32 32">
<path d="M26.667 32h-21.333c-3.022 0-5.333-2.311-5.333-5.333v-21.333c0-3.022 2.311-5.333 5.333-5.333h21.333c3.022 0 5.333 2.311 5.333 5.333v21.333c0 3.022-2.311 5.333-5.333 5.333zM5.333 3.556c-1.067 0-1.778 0.711-1.778 1.778v21.333c0 1.067 0.711 1.778 1.778 1.778h21.333c1.067 0 1.778-0.711 1.778-1.778v-21.333c0-1.067-0.711-1.778-1.778-1.778h-21.333z"></path>
<path d="M10.667 32c-1.067 0-1.778-0.711-1.778-1.778v-28.444c0-1.067 0.711-1.778 1.778-1.778s1.778 0.711 1.778 1.778v28.444c0 1.067-0.711 1.778-1.778 1.778z"></path>
<path d="M19.556 21.333c-0.533 0-0.889-0.178-1.244-0.533-0.711-0.711-0.711-1.778 0-2.489l2.311-2.311-2.311-2.311c-0.711-0.711-0.711-1.778 0-2.489s1.778-0.711 2.489 0l3.556 3.556c0.711 0.711 0.711 1.778 0 2.489l-3.556 3.556c-0.356 0.356-0.711 0.533-1.244 0.533z"></path>
</svg>