<svg  xmlns="http://www.w3.org/2000/svg" viewBox="0 0 32 32">
  <path d="M28.8 31.644h-8.889c-1.067 0-1.778-0.711-1.778-1.778v-28.444c0-1.067 0.711-1.778 1.778-1.778h8.889c1.956 0 3.556 1.6 3.556 3.556v24.889c0 1.956-1.422 3.556-3.556 3.556zM21.689 28.089h7.111v-24.889h-7.111v24.889z"></path>
  <path d="M11.2 31.644c-1.067 0-1.778-0.711-1.778-1.778s0.711-1.778 1.778-1.778v0c1.067 0 1.778 0.711 1.778 1.778s-0.889 1.778-1.778 1.778z"></path>
  <path d="M2.311 31.644c-1.067 0-1.778-0.711-1.778-1.778s0.711-1.778 1.778-1.778v0c1.067 0 1.778 0.711 1.778 1.778s-0.889 1.778-1.778 1.778z"></path>
  <path d="M2.311 22.756c-1.067 0-1.778-0.711-1.778-1.778s0.711-1.778 1.778-1.778v0c1.067 0 1.778 0.711 1.778 1.778s-0.889 1.778-1.778 1.778z"></path>
  <path d="M2.311 12.089c-1.067 0-1.778-0.711-1.778-1.778s0.711-1.778 1.778-1.778v0c1.067 0 1.778 0.711 1.778 1.778s-0.889 1.778-1.778 1.778z"></path>
  <path d="M2.311 3.2c-1.067 0-1.778-0.711-1.778-1.778s0.711-1.778 1.778-1.778v0c1.067 0 1.778 0.711 1.778 1.778s-0.889 1.778-1.778 1.778z"></path>
  <path d="M11.2 3.2c-1.067 0-1.778-0.711-1.778-1.778s0.711-1.778 1.778-1.778v0c1.067 0 1.778 0.711 1.778 1.778s-0.889 1.778-1.778 1.778z"></path>
  </svg>