<svg  xmlns="http://www.w3.org/2000/svg" viewBox="0 0 32 32">
  <path d="M23.419 31.568c-0.173 0-0.173 0-0.346 0-0.519-0.173-1.038-0.519-1.211-0.865l-1.211-2.595h-0.692c-1.038 0-1.73-0.692-1.73-1.73v-20.757c0-1.038 0.692-1.73 1.73-1.73h10.378c1.038 0 1.73 0.692 1.73 1.73v20.757c0 1.038-0.692 1.73-1.73 1.73h-2.768l-2.941 2.941c-0.346 0.346-0.692 0.519-1.211 0.519zM21.689 24.649c0.692 0 1.211 0.346 1.557 1.038l0.692 1.384 1.73-1.73c0.346-0.346 0.692-0.519 1.211-0.519h1.73v-17.47h-6.919v17.297z"></path>
  <path d="M13.905 17.73h-11.243c-1.038 0-1.73-0.692-1.73-1.73s0.692-1.73 1.73-1.73h11.243c1.038 0 1.73 0.692 1.73 1.73s-0.692 1.73-1.73 1.73z"></path>
  <path d="M13.905 7.351h-8.649c-1.038 0-1.73-0.692-1.73-1.73s0.692-1.73 1.73-1.73h8.649c1.038 0 1.73 0.692 1.73 1.73s-0.692 1.73-1.73 1.73z"></path>
  <path d="M1.797 11.676c-0.519 0-0.865-0.173-1.211-0.519-0.692-0.692-0.692-1.73 0-2.422 1.73-1.73 3.114-3.114 3.805-6.919 0.173-0.865 1.211-1.557 2.076-1.384s1.557 1.211 1.384 2.076c-1.038 4.843-2.941 6.919-4.843 8.649-0.346 0.346-0.692 0.519-1.211 0.519z"></path>
  <path d="M2.662 31.568c-0.519 0-1.038-0.173-1.384-0.692-0.519-0.692-0.346-1.903 0.346-2.422 0.346-0.173 0.692-0.519 1.038-0.692 3.114-2.249 5.189-3.805 5.189-10.032v-12.108c0-1.038 0.692-1.73 1.73-1.73s1.73 0.692 1.73 1.73v12.108c0 7.957-3.459 10.378-6.746 12.8l-0.865 0.692c-0.346 0.173-0.692 0.346-1.038 0.346z"></path>
  <path d="M14.77 28.108c-0.519 0-1.211-0.346-1.557-0.865l-5.189-8.649c-0.346-0.865-0.173-1.903 0.692-2.422 0.865-0.346 1.903-0.173 2.422 0.692l5.189 8.649c0.519 0.865 0.173 1.903-0.519 2.422-0.346 0.173-0.692 0.173-1.038 0.173z"></path>
  </svg>