<svg  xmlns="http://www.w3.org/2000/svg" viewBox="0 0 32 32">
  <path d="M24.988 30.496c-0.29 0-0.435 0-0.725-0.145l-8.263-4.349-8.263 4.349c-0.435 0.29-1.015 0.145-1.595-0.145-0.435-0.29-0.725-0.87-0.58-1.45l1.595-9.277-6.668-6.378c-0.435-0.435-0.58-1.015-0.435-1.45 0.145-0.58 0.58-0.87 1.16-1.015l9.277-1.305 4.204-8.408c0.435-1.015 2.174-1.015 2.609 0l4.204 8.408 9.277 1.305c0.435 0 0.87 0.435 1.16 1.015 0.145 0.58 0 1.16-0.435 1.45l-6.668 6.523 1.595 9.277c0.145 0.58-0.145 1.16-0.58 1.45-0.29 0.145-0.58 0.145-0.87 0.145zM4.548 13.101l5.074 5.074c0.435 0.29 0.58 0.725 0.58 1.16l-1.16 7.103 6.378-3.334c0.435-0.29 0.87-0.29 1.305 0l6.378 3.334-1.305-7.103c-0.145-0.435 0.145-1.015 0.435-1.305l5.074-5.074-7.103-1.015c-0.435 0-0.87-0.435-1.16-0.725l-3.044-6.378-3.189 6.378c-0.145 0.435-0.58 0.725-1.015 0.725l-7.248 1.16z"></path>
  </svg>