<svg  xmlns="http://www.w3.org/2000/svg" viewBox="0 0 32 32">
  <path d="M27.242 28.742h-22.484c-0.803 0-1.445-0.482-1.606-1.285l-3.212-16.060c-0.161-0.642 0.161-1.285 0.803-1.767 0.482-0.321 1.285-0.161 1.767 0.161l6.585 5.3 5.46-8.191c0.642-0.964 2.088-0.964 2.73 0l5.46 8.191 6.585-5.3c0.482-0.482 1.285-0.482 1.767-0.161 0.642 0.321 0.803 0.964 0.803 1.767l-3.212 16.060c0 0.803-0.642 1.285-1.445 1.285zM6.043 25.53h19.914l2.088-10.439-4.657 3.694c-0.321 0.321-0.803 0.321-1.285 0.321s-0.803-0.321-1.124-0.642l-4.979-7.709-5.139 7.709c-0.321 0.321-0.642 0.642-1.124 0.642s-0.964 0-1.285-0.321l-4.657-3.694 2.248 10.439z"></path>
  </svg>