<svg  xmlns="http://www.w3.org/2000/svg" viewBox="0 0 32 32">
  <path d="M2.357 28.231c-0.47 0-0.784-0.157-1.254-0.47-0.784-0.784-0.784-2.039-0.157-2.823l18.347-20.385c0.627-0.784 1.882-0.784 2.509 0s0.627 1.882 0 2.823l-18.347 20.385c-0.314 0.314-0.784 0.47-1.098 0.47z"></path>
  <path d="M20.547 28.231c-0.47 0-0.784-0.157-1.254-0.47l-18.347-20.699c-0.627-0.627-0.627-1.882 0-2.823 0.627-0.784 1.882-0.784 2.509 0l18.347 20.385c0.627 0.784 0.627 1.882 0 2.823-0.157 0.627-0.627 0.784-1.254 0.784z"></path>
  <path d="M30.427 15.843h-5.488c-0.784 0-1.411-0.47-1.411-1.411 0-2.509 0.627-3.607 2.823-4.704 1.411-0.627 2.666-1.411 2.666-2.195 0-0.314 0-0.47-0.47-0.784-0.314-0.314-1.254-0.47-1.568-0.157-0.314 0.157-0.47 0.47-0.627 0.784-0.314 0.784-1.254 1.098-1.882 0.784s-1.098-1.098-0.784-1.725c0.47-1.098 1.098-1.725 1.882-2.195 1.568-0.941 3.607-0.627 5.175 0.784l0.157 0.157c0.47 0.47 0.941 1.411 0.941 2.666 0 2.666-2.823 4.077-4.234 4.704-0.47 0.314-0.941 0.47-1.098 0.784h3.92c0.784 0 1.411 0.47 1.411 1.411s-0.627 1.098-1.411 1.098z"></path>
  </svg>