<svg  xmlns="http://www.w3.org/2000/svg" viewBox="0 0 32 32">
<path d="M20.266 8.748h-8.532c-1.422 0-2.702-1.28-2.702-2.702v-2.844c0-1.422 1.28-2.702 2.702-2.702h8.532c1.422 0 2.702 1.138 2.702 2.702v2.844c0 1.422-1.28 2.702-2.702 2.702zM11.734 3.060c-0.142 0-0.142 0-0.142 0.142v2.844c0 0.142 0.142 0.142 0.142 0.142h8.532c0.142 0 0.142-0.142 0.142-0.142v-2.844c0-0.142-0.142-0.142-0.142-0.142h-8.532z"></path>
<path d="M24.532 31.5h-17.064c-2.275 0-4.124-1.849-4.124-4.124v-19.908c0-2.275 1.849-4.124 4.124-4.124h2.844c0.711 0 1.28 0.569 1.28 1.28s-0.569 1.28-1.28 1.28h-2.844c-0.853 0-1.564 0.711-1.564 1.564v19.908c0 0.853 0.711 1.564 1.564 1.564h17.064c0.853 0 1.564-0.711 1.564-1.564v-19.908c0-0.853-0.711-1.564-1.564-1.564h-2.844c-0.711 0-1.28-0.569-1.28-1.28s0.569-1.28 1.28-1.28h2.844c2.275 0 4.124 1.849 4.124 4.124v19.908c0 2.275-1.849 4.124-4.124 4.124z"></path>
</svg>