<svg  xmlns="http://www.w3.org/2000/svg" viewBox="0 0 32 32">
  <path d="M16 17.742h-13.937c-1.045 0-1.742-0.697-1.742-1.742s0.697-1.742 1.742-1.742h13.937c1.045 0 1.742 0.697 1.742 1.742s-0.697 1.742-1.742 1.742z"></path>
  <path d="M2.063 28.194c-1.045 0-1.742-0.697-1.742-1.742v-20.905c0-1.045 0.697-1.742 1.742-1.742s1.742 0.697 1.742 1.742v20.905c0 1.045-0.697 1.742-1.742 1.742z"></path>
  <path d="M16 28.194c-1.045 0-1.742-0.697-1.742-1.742v-20.905c0-1.045 0.697-1.742 1.742-1.742s1.742 0.697 1.742 1.742v20.905c0 1.045-0.697 1.742-1.742 1.742z"></path>
  <path d="M29.936 28.194c-1.045 0-1.742-0.697-1.742-1.742v-10.627l-2.439 1.742c-0.871 0.523-1.916 0.348-2.439-0.523s-0.348-1.916 0.523-2.439l5.226-3.484c0.523-0.348 1.219-0.348 1.742 0 0.523 0.174 0.871 0.697 0.871 1.394v13.936c0 1.045-0.697 1.742-1.742 1.742z"></path>
  </svg>