<svg  xmlns="http://www.w3.org/2000/svg" viewBox="0 0 32 32">
  <path d="M27.2 28.8h-22.4c-2.72 0-4.8-2.080-4.8-4.8v-16c0-2.72 2.080-4.8 4.8-4.8h22.4c2.72 0 4.8 2.080 4.8 4.8v16c0 2.72-2.080 4.8-4.8 4.8zM4.8 6.4c-0.96 0-1.6 0.64-1.6 1.6v16c0 0.96 0.64 1.6 1.6 1.6h22.4c0.96 0 1.6-0.64 1.6-1.6v-16c0-0.96-0.64-1.6-1.6-1.6h-22.4z"></path>
  <path d="M14.4 22.4c-0.96 0-1.6-0.64-1.6-1.6v-5.76l-0.48 0.48c-0.64 0.64-1.6 0.64-2.24 0l-0.48-0.48v5.76c0 0.96-0.64 1.6-1.6 1.6s-1.6-0.64-1.6-1.6v-9.6c0-0.64 0.32-1.28 0.96-1.44 0.64-0.32 1.28-0.16 1.76 0.32l2.080 2.080 2.080-2.080c0.48-0.48 1.12-0.64 1.76-0.32 0.64 0.16 0.96 0.8 0.96 1.44v9.6c0 0.96-0.64 1.6-1.6 1.6z"></path>
  <path d="M22.4 22.4c0 0 0 0 0 0v0c-0.16 0-0.48 0-0.64-0.16-0.16 0-0.32-0.16-0.48-0.32l-3.2-3.2c-0.64-0.64-0.64-1.6 0-2.24s1.6-0.64 2.24 0l0.48 0.48v-5.76c0-0.96 0.64-1.6 1.6-1.6s1.6 0.64 1.6 1.6v5.76l0.48-0.48c0.64-0.64 1.6-0.64 2.24 0s0.64 1.6 0 2.24l-3.2 3.2c-0.16 0.16-0.32 0.32-0.48 0.32-0.16 0.16-0.48 0.16-0.64 0.16v0c0 0 0 0 0 0z"></path>
  </svg>