<svg  xmlns="http://www.w3.org/2000/svg" viewBox="0 0 32 32">
  <path d="M16 12.9c0 0-0.155 0-0.155 0v0c0 0 0 0 0 0-0.31 0-0.62-0.155-0.775-0.31 0 0 0 0-0.155-0.155l-4.65-4.65c-0.62-0.62-0.62-1.55 0-2.17s1.55-0.62 2.17 0l2.015 2.015v-5.58c0-0.93 0.62-1.55 1.55-1.55s1.55 0.62 1.55 1.55v5.58l2.015-2.015c0.62-0.62 1.55-0.62 2.17 0s0.62 1.55 0 2.17l-4.65 4.65c-0.31 0.31-0.62 0.465-1.085 0.465 0.155 0 0.155 0 0 0 0 0 0 0 0 0z"></path>
  <path d="M16 31.5c-0.93 0-1.55-0.62-1.55-1.55v-5.58l-2.015 2.015c-0.62 0.62-1.55 0.62-2.17 0s-0.62-1.55 0-2.17l4.65-4.65c0 0 0 0 0.155-0.155 0.31-0.155 0.465-0.31 0.775-0.31 0 0 0 0 0 0 0.155 0 0.155 0 0.31 0v0c0 0 0 0 0 0 0.31 0 0.775 0.155 0.93 0.465l4.65 4.65c0.62 0.62 0.62 1.55 0 2.17s-1.55 0.62-2.17 0l-2.015-2.015v5.58c0 0.93-0.62 1.55-1.55 1.55z"></path>
  <path d="M5.15 17.55h-1.55c-0.93 0-1.55-0.62-1.55-1.55s0.62-1.55 1.55-1.55h1.55c0.93 0 1.55 0.62 1.55 1.55s-0.62 1.55-1.55 1.55z"></path>
  <path d="M12.9 17.55h-1.55c-0.93 0-1.55-0.62-1.55-1.55s0.62-1.55 1.55-1.55h1.55c0.93 0 1.55 0.62 1.55 1.55s-0.62 1.55-1.55 1.55z"></path>
  <path d="M20.65 17.55h-1.55c-0.93 0-1.55-0.62-1.55-1.55s0.62-1.55 1.55-1.55h1.55c0.93 0 1.55 0.62 1.55 1.55s-0.62 1.55-1.55 1.55z"></path>
  <path d="M28.4 17.55h-1.55c-0.93 0-1.55-0.62-1.55-1.55s0.62-1.55 1.55-1.55h1.55c0.93 0 1.55 0.62 1.55 1.55s-0.62 1.55-1.55 1.55z"></path>
  </svg>