<svg  xmlns="http://www.w3.org/2000/svg" viewBox="0 0 32 32">
  <path d="M27.2 32h-22.4c-2.72 0-4.8-2.080-4.8-4.8v-22.4c0-2.72 2.080-4.8 4.8-4.8h22.4c2.72 0 4.8 2.080 4.8 4.8v22.4c0 2.72-2.080 4.8-4.8 4.8zM4.8 3.2c-0.96 0-1.6 0.64-1.6 1.6v22.4c0 0.96 0.64 1.6 1.6 1.6h22.4c0.96 0 1.6-0.64 1.6-1.6v-22.4c0-0.96-0.64-1.6-1.6-1.6h-22.4z"></path>
  <path d="M11.2 16c-2.72 0-4.8-2.080-4.8-4.8s2.080-4.8 4.8-4.8 4.8 2.080 4.8 4.8-2.080 4.8-4.8 4.8zM11.2 9.6c-0.96 0-1.6 0.64-1.6 1.6s0.64 1.6 1.6 1.6 1.6-0.64 1.6-1.6-0.64-1.6-1.6-1.6z"></path>
  <path d="M6.4 32c-0.48 0-0.8-0.16-1.12-0.48-0.64-0.64-0.64-1.6 0-2.24l14.56-14.56c1.92-1.92 4.96-1.92 6.72 0l4.96 4.96c0.64 0.64 0.64 1.6 0 2.24s-1.6 0.64-2.24 0l-4.96-4.96c-0.64-0.64-1.6-0.64-2.24 0l-14.56 14.56c-0.32 0.32-0.64 0.48-1.12 0.48z"></path>
  </svg>