<svg  xmlns="http://www.w3.org/2000/svg" viewBox="0 0 32 32">
  <path d="M29.858 7.758h-18.133c-0.989 0-1.649-0.659-1.649-1.649s0.659-1.649 1.649-1.649h18.133c0.989 0 1.648 0.659 1.648 1.649s-0.659 1.649-1.648 1.649z"></path>
  <path d="M29.858 17.648h-18.133c-0.989 0-1.649-0.659-1.649-1.649s0.659-1.649 1.649-1.649h18.133c0.989 0 1.648 0.659 1.648 1.649s-0.659 1.649-1.648 1.649z"></path>
  <path d="M29.858 27.539h-18.133c-0.989 0-1.649-0.659-1.649-1.648s0.659-1.648 1.649-1.648h18.133c0.989 0 1.648 0.659 1.648 1.648s-0.659 1.648-1.648 1.648z"></path>
  <path d="M3.482 14.351c-0.989 0-1.649-0.659-1.649-1.649v-4.945c-0.989 0-1.649-0.659-1.649-1.649s0.659-1.649 1.649-1.649h1.649c0.989 0 1.649 0.659 1.649 1.649v6.594c0 0.989-0.659 1.649-1.649 1.649z"></path>
  <path d="M5.13 14.351h-3.297c-0.989 0-1.649-0.659-1.649-1.649s0.659-1.649 1.649-1.649h3.297c0.989 0 1.649 0.659 1.649 1.649s-0.659 1.649-1.649 1.649z"></path>
  <path d="M5.13 27.539h-3.297c-0.989 0-1.649-0.659-1.649-1.648 0-1.484 1.154-2.638 2.143-3.627 0.33-0.495 1.154-1.154 1.154-1.319s0-0.165-0.165-0.165c-0.165-0.165-0.495-0.165-0.824 0.165-0.824 0.33-1.813 0-2.143-0.659-0.33-0.824 0-1.813 0.659-2.143 1.319-0.659 2.802-0.659 3.956 0 0.989 0.659 1.649 1.813 1.649 3.132s-0.824 2.308-1.813 3.297h0.33c0.989 0 1.649 0.659 1.649 1.648s-0.659 1.319-1.649 1.319z"></path>
  </svg>