<svg  xmlns="http://www.w3.org/2000/svg" viewBox="0 0 32 32">
  <path d="M16-0c-8.84 0-16 7.16-16 16 0 0.003 0 0.006 0 0.009 0 7.025 4.53 12.992 10.828 15.139l0.113 0.033c0.8 0.139 1.099-0.341 1.099-0.762 0-0.379-0.021-1.638-0.021-2.979-4.019 0.741-5.059-0.979-5.379-1.88-0.181-0.461-0.96-1.88-1.64-2.261-0.56-0.299-1.36-1.040-0.021-1.059 1.261-0.021 2.16 1.16 2.461 1.64 1.44 2.419 3.741 1.739 4.659 1.32 0.141-1.040 0.56-1.739 1.021-2.139-3.56-0.4-7.28-1.781-7.28-7.901 0-1.741 0.619-3.179 1.64-4.301-0.16-0.4-0.72-2.040 0.16-4.24 0 0 1.339-0.419 4.4 1.642 1.19-0.343 2.558-0.541 3.971-0.541 0.010 0 0.020 0 0.031 0h-0.002c1.36 0 2.72 0.179 4 0.539 3.059-2.080 4.4-1.638 4.4-1.638 0.88 2.2 0.32 3.84 0.16 4.24 1.019 1.12 1.64 2.539 1.64 4.299 0 6.141-3.739 7.501-7.299 7.901 0.579 0.499 1.080 1.459 1.080 2.96 0 2.139-0.021 3.859-0.021 4.4 0 0.419 0.301 0.918 1.101 0.758 6.389-2.204 10.897-8.165 10.899-15.179v-0c0-8.84-7.16-16-16-16z"></path>
  </svg>