<svg  xmlns="http://www.w3.org/2000/svg" viewBox="0 0 32 32">
<path d="M18.861 27.126c-0.636 0-1.271-0.53-1.271-1.271 0-4.027-3.285-7.205-7.205-7.205s-7.205 3.285-7.205 7.205c0 0.636-0.53 1.271-1.272 1.271s-1.272-0.53-1.272-1.271c0-5.404 4.344-9.748 9.748-9.748s9.748 4.344 9.748 9.748c-0.106 0.742-0.636 1.271-1.271 1.271z"></path>
<path d="M10.384 18.649c-3.815 0-6.887-3.073-6.887-6.887s3.073-6.887 6.887-6.887 6.887 3.073 6.887 6.887-3.073 6.887-6.887 6.887zM10.384 7.311c-2.437 0-4.45 2.013-4.45 4.45s2.013 4.45 4.45 4.45 4.45-2.013 4.45-4.45-2.013-4.45-4.45-4.45z"></path>
<path d="M30.093 27.126c-0.636 0-1.271-0.53-1.271-1.271 0-4.027-3.285-7.205-7.205-7.205-0.636 0-1.271-0.53-1.271-1.271s0.53-1.271 1.271-1.271c2.437 0 4.45-2.013 4.45-4.45s-2.013-4.45-4.45-4.45c-0.636 0-1.271-0.53-1.271-1.271s0.53-1.271 1.271-1.271c3.815 0 6.887 3.073 6.887 6.887 0 2.225-1.060 4.133-2.649 5.404 3.179 1.589 5.404 4.874 5.404 8.689 0.106 0.954-0.424 1.483-1.166 1.483z"></path>
</svg>