<svg  xmlns="http://www.w3.org/2000/svg" viewBox="0 0 32 32">
  <path d="M23.273 32h-1.455c-4.073 0-7.273-3.2-7.273-7.273v-17.454c0-4.073 3.2-7.273 7.273-7.273h1.455c0.873 0 1.455 0.582 1.455 1.455s-0.582 1.455-1.455 1.455h-1.455c-2.473 0-4.364 1.891-4.364 4.364v17.455c0 2.473 1.891 4.364 4.364 4.364h1.455c0.873 0 1.455 0.582 1.455 1.455s-0.582 1.455-1.455 1.455z"></path>
  <path d="M10.182 32h-1.455c-0.873 0-1.455-0.582-1.455-1.455s0.582-1.455 1.455-1.455h1.455c2.473 0 4.364-1.891 4.364-4.364v-1.455c0-0.873 0.582-1.455 1.455-1.455s1.455 0.582 1.455 1.455v1.455c0 4.073-3.2 7.273-7.273 7.273z"></path>
  <path d="M16 10.182c-0.873 0-1.455-0.582-1.455-1.455v-1.455c0-2.473-1.891-4.364-4.364-4.364h-1.455c-0.873 0-1.455-0.582-1.455-1.455s0.582-1.455 1.455-1.455h1.455c4.073 0 7.273 3.2 7.273 7.273v1.455c0 0.873-0.582 1.455-1.455 1.455z"></path>
  </svg>