<svg  xmlns="http://www.w3.org/2000/svg" viewBox="0 0 32 32">
  <path d="M15 17.648h-13.188c-0.989 0-1.649-0.659-1.649-1.649s0.659-1.649 1.649-1.649h13.188c0.989 0 1.648 0.659 1.648 1.649s-0.659 1.649-1.649 1.649z"></path>
  <path d="M1.812 27.539c-0.989 0-1.649-0.659-1.649-1.648v-19.782c0-0.989 0.659-1.649 1.649-1.649s1.649 0.659 1.649 1.649v19.782c0 0.989-0.659 1.648-1.649 1.648z"></path>
  <path d="M15 27.539c-0.989 0-1.649-0.659-1.649-1.648v-19.782c0-0.989 0.659-1.649 1.649-1.649s1.648 0.659 1.648 1.649v19.782c0 0.989-0.659 1.648-1.649 1.648z"></path>
  <path d="M23.242 19.297c-0.989 0-1.648-0.659-1.648-1.648v-4.945c0-0.989 0.659-1.649 1.648-1.649h6.594c0.989 0 1.648 0.659 1.648 1.649s-0.659 1.649-1.648 1.649h-4.945v3.297c0 0.989-0.659 1.648-1.648 1.648z"></path>
  <path d="M25.386 27.539c-0.989 0-1.978-0.165-2.802-0.659-0.824-0.33-1.154-1.319-0.659-2.143 0.33-0.824 1.319-1.154 2.143-0.659 0.495 0.165 0.824 0.33 1.484 0.33 1.648 0 2.802-1.154 2.802-2.473s-1.319-2.638-2.967-2.638h-2.143c-0.989 0-1.648-0.659-1.648-1.648s0.659-1.649 1.648-1.649h2.143c3.462 0 6.099 2.473 6.099 5.77s-2.638 5.77-6.099 5.77z"></path>
  </svg>