<svg  xmlns="http://www.w3.org/2000/svg" viewBox="0 0 32 32">
<path d="M27.37 31.446c-0.107 0-0.215 0-0.322 0-4.612-0.536-9.010-2.038-12.872-4.612-3.54-2.253-6.651-5.363-8.903-9.010-2.574-3.754-4.183-8.259-4.612-12.872-0.215-2.253 1.394-4.291 3.647-4.505 0.107 0 0.215 0 0.322 0h4.291c0 0 0 0 0 0 2.038 0 3.754 1.502 4.076 3.54 0.215 1.287 0.536 2.574 0.965 3.754 0.536 1.502 0.215 3.218-0.965 4.291l-1.18 1.18c1.716 2.789 4.076 5.042 6.865 6.758l1.18-1.18c1.18-1.18 2.896-1.502 4.291-0.965 1.18 0.429 2.467 0.751 3.754 0.965 2.038 0.322 3.54 2.038 3.54 4.183v4.291c0.107 2.36-1.716 4.183-4.076 4.183 0.107 0 0.107 0 0 0zM9.028 2.913c0 0 0 0 0 0h-4.291c0 0-0.107 0-0.107 0-0.965 0.107-1.609 0.858-1.502 1.824 0.429 4.183 1.931 8.259 4.183 11.799 2.038 3.325 4.934 6.114 8.152 8.152 3.54 2.253 7.616 3.754 11.799 4.183 0 0 0.107 0 0.107 0 0.858 0 1.609-0.751 1.609-1.609v-4.291c0 0 0 0 0 0 0-0.858-0.536-1.502-1.394-1.609-1.502-0.215-2.896-0.536-4.291-1.073-0.536-0.215-1.287-0.107-1.716 0.322l-1.716 1.824c-0.429 0.429-0.965 0.429-1.502 0.215-3.754-2.145-6.865-5.256-9.010-9.010-0.322-0.536-0.215-1.073 0.215-1.502l1.824-1.824c0.429-0.429 0.536-1.073 0.322-1.716-0.536-1.394-0.858-2.789-1.073-4.291-0.107-0.751-0.858-1.394-1.609-1.394z"></path>
</svg>