<svg  xmlns="http://www.w3.org/2000/svg" viewBox="0 0 32 32">
  <path d="M2.909 30.545c-2.327 0-2.909-0.582-2.909-2.909v-2.909c0-2.327 0.582-2.909 2.909-2.909 0.582 0 1.455-0.873 1.455-1.455v-1.455c-2.618 0-4.364-1.745-4.364-4.364v-8.727c0-2.618 1.745-4.364 4.364-4.364h5.818c1.309 0 2.327 0.436 3.2 1.164 0.727 0.727 1.164 1.891 1.164 3.2v11.636c0 8.582-4.073 13.091-11.636 13.091zM2.909 24.727c0 0 0 0 0 0v2.909c4.073 0 8.727-1.164 8.727-10.182v-11.636c0-0.291 0-0.873-0.291-1.164s-0.873-0.291-1.164-0.291h-5.818c-1.018 0-1.455 0.436-1.455 1.455v8.727c0 1.018 0.436 1.455 1.455 1.455 2.327 0 2.909 0.582 2.909 2.909v1.455c0 2.182-2.182 4.364-4.364 4.364v0z"></path>
  <path d="M20.364 30.545c-2.327 0-2.909-0.582-2.909-2.909v-4.364c0-0.873 0.582-1.455 1.455-1.455 1.018 0 1.745-0.145 2.036-0.436 0.436-0.436 0.436-1.309 0.436-2.473-2.473-0.145-4.073-1.891-4.073-4.364v-8.727c0-2.618 1.745-4.364 4.364-4.364h5.818c0 0 0 0 0.145 0 1.164 0 2.327 0.436 3.055 1.164 0.873 0.727 1.309 1.891 1.309 3.2v11.636c0 8.582-4.073 13.091-11.636 13.091zM20.364 24.582v3.055c4.073 0 8.727-1.164 8.727-10.182v-11.636c0-0.291 0-0.873-0.291-1.164s-0.873-0.291-1.164-0.291h-5.818c-1.018 0-1.455 0.436-1.455 1.455v8.727c0 1.018 0.436 1.455 1.455 1.455h1.164c0.873 0 1.455 0.582 1.455 1.455v0.727c0 2.036 0 3.927-1.309 5.236-0.727 0.582-1.6 1.018-2.764 1.164z"></path>
  </svg>