<svg  xmlns="http://www.w3.org/2000/svg" viewBox="0 0 32 32">
  <path d="M16 24.195c-6.392 0-11.472-5.081-11.472-11.472v-9.833c0-0.983 0.655-1.639 1.639-1.639s1.639 0.655 1.639 1.639v9.833c0 4.589 3.606 8.194 8.194 8.194s8.194-3.605 8.194-8.194v-9.833c0-0.983 0.655-1.639 1.639-1.639s1.639 0.655 1.639 1.639v9.833c0 6.392-5.081 11.472-11.472 11.472z"></path>
  <path d="M29.111 30.75h-26.222c-0.983 0-1.639-0.655-1.639-1.639s0.655-1.639 1.639-1.639h26.222c0.983 0 1.639 0.655 1.639 1.639s-0.655 1.639-1.639 1.639z"></path>
  </svg>