<svg  xmlns="http://www.w3.org/2000/svg" viewBox="0 0 32 32">
<path d="M11.649 28.909c-3.481 0-7.252-1.015-10.878-3.046-0.58-0.29-0.87-1.015-0.725-1.595 0.29-0.58 0.87-1.015 1.45-1.015 1.886 0.145 3.626-0.29 5.657-1.305-2.611-1.595-4.351-3.771-5.221-6.237-1.74-5.366 1.015-10.298 1.16-10.588 0.29-0.435 0.725-0.725 1.16-0.725s1.015 0.145 1.305 0.58c2.176 3.046 5.366 4.931 8.992 5.221 0-3.046 1.886-5.657 4.786-6.672 2.756-1.015 5.366-0.725 7.252 0.87 0.145 0 0.145 0 0.29-0.145 1.015-0.29 2.031-0.58 3.046-1.015 0.58-0.29 1.16-0.145 1.595 0.145s0.58 0.87 0.435 1.45c-0.29 1.305-1.305 3.046-2.031 4.496-0.145 0.435-0.435 0.87-0.58 1.16 0 1.886-0.29 3.771-0.725 5.657-1.74 6.092-6.092 10.443-12.038 12.183-1.595 0.435-3.191 0.58-4.931 0.58zM6.717 25.283c3.191 0.87 6.237 1.015 8.992 0.145 4.931-1.45 8.702-5.221 10.153-10.298 0.435-1.595 0.725-3.336 0.725-5.076 0-0.435 0.145-0.87 0.87-2.321 0.145-0.29 0.435-0.725 0.58-1.16-0.145 0-0.145 0-0.29 0.145-0.29 0.145-0.725 0.145-1.015 0.29-0.58 0.145-1.16 0-1.45-0.435-1.305-1.45-3.336-1.16-4.786-0.725-1.74 0.725-2.901 2.176-2.901 4.061v1.45c0 0.725-0.58 1.45-1.45 1.45-4.351 0.145-8.267-1.45-11.168-4.496-0.58 1.886-1.015 4.206-0.29 6.382 0.87 2.466 2.901 4.351 6.092 5.802 0.435 0.145 0.87 0.58 0.87 1.16s-0.145 1.015-0.58 1.305c-1.305 0.87-2.756 1.74-4.351 2.321z"></path>
</svg>