<svg  xmlns="http://www.w3.org/2000/svg" viewBox="0 0 32 32">
  <path d="M9.933 22.067c-0.455 0-0.758-0.152-1.062-0.455-0.607-0.607-0.607-1.517 0-2.123l3.488-3.488-3.488-3.488c-0.607-0.607-0.607-1.517 0-2.123s1.517-0.607 2.123 0l4.55 4.55c0.607 0.607 0.607 1.517 0 2.123l-4.55 4.55c-0.303 0.303-0.607 0.455-1.062 0.455z"></path>
  <path d="M22.067 22.067h-4.55c-0.91 0-1.517-0.607-1.517-1.517s0.607-1.517 1.517-1.517h4.55c0.91 0 1.517 0.607 1.517 1.517s-0.607 1.517-1.517 1.517z"></path>
  <path d="M26.617 29.65h-21.233c-2.578 0-4.55-1.972-4.55-4.55v-18.2c0-2.578 1.972-4.55 4.55-4.55h21.233c2.578 0 4.55 1.972 4.55 4.55v18.2c0 2.578-1.972 4.55-4.55 4.55zM5.383 5.383c-0.91 0-1.517 0.607-1.517 1.517v18.2c0 0.91 0.607 1.517 1.517 1.517h21.233c0.91 0 1.517-0.607 1.517-1.517v-18.2c0-0.91-0.607-1.517-1.517-1.517h-21.233z"></path>
  </svg>