<svg  xmlns="http://www.w3.org/2000/svg" viewBox="0 0 32 32">
<path d="M27.436 21.718h-22.873c-2.43 0-4.289-1.858-4.289-4.289v-11.436c0-2.43 1.858-4.289 4.289-4.289h22.873c2.43 0 4.289 1.858 4.289 4.289v11.436c0 2.43-1.858 4.289-4.289 4.289zM4.564 4.564c-0.858 0-1.43 0.572-1.43 1.43v11.436c0 0.858 0.572 1.43 1.43 1.43h22.873c0.858 0 1.43-0.572 1.43-1.43v-11.436c0-0.858-0.572-1.43-1.43-1.43h-22.873z"></path>
<path d="M7.423 10.282c-0.858 0-1.43-0.572-1.43-1.43s0.572-1.43 1.43-1.43 1.43 0.572 1.43 1.43v0c0 0.858-0.572 1.43-1.43 1.43z"></path>
<path d="M13.141 10.282c-0.858 0-1.43-0.572-1.43-1.43s0.572-1.43 1.43-1.43 1.43 0.572 1.43 1.43v0c0 0.858-0.572 1.43-1.43 1.43z"></path>
<path d="M18.859 10.282c-0.858 0-1.43-0.572-1.43-1.43s0.572-1.43 1.43-1.43 1.43 0.572 1.43 1.43v0c0 0.858-0.572 1.43-1.43 1.43z"></path>
<path d="M24.577 10.282c-0.858 0-1.43-0.572-1.43-1.43s0.572-1.43 1.43-1.43 1.43 0.572 1.43 1.43v0c0 0.858-0.572 1.43-1.43 1.43z"></path>
<path d="M7.423 16c-0.858 0-1.43-0.572-1.43-1.43s0.572-1.43 1.43-1.43 1.43 0.572 1.43 1.43v0c0 0.858-0.572 1.43-1.43 1.43z"></path>
<path d="M24.577 16c-0.858 0-1.43-0.572-1.43-1.43s0.572-1.43 1.43-1.43 1.43 0.572 1.43 1.43v0c0 0.858-0.572 1.43-1.43 1.43z"></path>
<path d="M18.859 16h-5.718c-0.858 0-1.43-0.572-1.43-1.43s0.572-1.43 1.43-1.43h5.718c0.858 0 1.43 0.572 1.43 1.43s-0.572 1.43-1.43 1.43z"></path>
<path d="M16 30.295c-0.429 0-0.715-0.143-1.001-0.429l-2.859-2.859c-0.572-0.572-0.572-1.43 0-2.001s1.43-0.572 2.001 0l1.858 1.858 1.858-1.858c0.572-0.572 1.43-0.572 2.001 0s0.572 1.43 0 2.001l-2.859 2.859c-0.286 0.286-0.572 0.429-1.001 0.429z"></path>
</svg>