<svg  xmlns="http://www.w3.org/2000/svg" viewBox="0 0 32 32">
  <path d="M24.727 32h-17.455c-2.473 0-4.364-1.891-4.364-4.364v-23.273c0-2.473 1.891-4.364 4.364-4.364h12.364c0.436 0 0.727 0.145 1.018 0.436l8 8c0.291 0.291 0.436 0.582 0.436 1.018v18.182c0 2.473-1.891 4.364-4.364 4.364zM7.273 2.909c-0.873 0-1.455 0.582-1.455 1.455v23.273c0 0.873 0.582 1.455 1.455 1.455h17.455c0.873 0 1.455-0.582 1.455-1.455v-17.6l-7.127-7.127h-11.782z"></path>
  <path d="M27.636 11.636h-8.727c-0.873 0-1.455-0.582-1.455-1.455v-8.727c0-0.873 0.582-1.455 1.455-1.455s1.455 0.582 1.455 1.455v7.273h7.273c0.873 0 1.455 0.582 1.455 1.455s-0.582 1.455-1.455 1.455z"></path>
  </svg>