<svg  xmlns="http://www.w3.org/2000/svg" viewBox="0 0 32 32">
  <path d="M24.727 23.273c-0.436 0-0.727-0.145-1.018-0.436-0.582-0.582-0.582-1.455 0-2.036l4.8-4.8-4.8-4.8c-0.582-0.582-0.582-1.455 0-2.036s1.455-0.582 2.036 0l5.818 5.818c0.582 0.582 0.582 1.455 0 2.036l-5.818 5.818c-0.291 0.291-0.582 0.436-1.018 0.436z"></path>
  <path d="M7.273 23.273c-0.436 0-0.727-0.145-1.018-0.436l-5.818-5.818c-0.582-0.582-0.582-1.455 0-2.036l5.818-5.818c0.582-0.582 1.455-0.582 2.036 0s0.582 1.455 0 2.036l-4.8 4.8 4.8 4.8c0.582 0.582 0.582 1.455 0 2.036-0.291 0.291-0.582 0.436-1.018 0.436z"></path>
  <path d="M12.364 29.091c-0.145 0-0.291 0-0.436 0-0.727-0.291-1.164-1.018-1.018-1.891l7.273-23.273c0.291-0.727 1.018-1.164 1.891-1.018 0.727 0.291 1.164 1.018 1.018 1.891l-7.273 23.273c-0.291 0.582-0.873 1.018-1.455 1.018z"></path>
  </svg>