<svg  xmlns="http://www.w3.org/2000/svg" viewBox="0 0 32 32">
  <path d="M10.667 21.333c-0.533 0-0.889-0.178-1.244-0.533l-8.889-8.889c-0.711-0.711-0.711-1.778 0-2.489l8.889-8.889c0.711-0.711 1.778-0.711 2.489 0s0.711 1.778 0 2.489l-7.644 7.644 7.644 7.644c0.711 0.711 0.711 1.778 0 2.489-0.356 0.356-0.711 0.533-1.244 0.533z"></path>
  <path d="M20.444 32h-6.222c-1.067 0-1.778-0.711-1.778-1.778s0.711-1.778 1.778-1.778h6.222c4.444 0 8-3.556 8-8s-3.556-8-8-8h-18.667c-1.067 0-1.778-0.711-1.778-1.778s0.711-1.778 1.778-1.778h18.667c6.4 0 11.556 5.156 11.556 11.556s-5.156 11.556-11.556 11.556z"></path>
  </svg>