<svg  xmlns="http://www.w3.org/2000/svg" viewBox="0 0 32 32">
  <path d="M30.222 13.333h-28.444c-1.067 0-1.778-0.711-1.778-1.778v-8.889c0-1.956 1.6-3.556 3.556-3.556h24.889c1.956 0 3.556 1.6 3.556 3.556v8.889c0 1.067-0.711 1.778-1.778 1.778zM3.556 9.778h24.889v-7.111h-24.889v7.111z"></path>
  <path d="M1.778 22.222c-1.067 0-1.778-0.711-1.778-1.778v0c0-1.067 0.711-1.778 1.778-1.778s1.778 0.711 1.778 1.778-0.711 1.778-1.778 1.778z"></path>
  <path d="M1.778 31.111c-1.067 0-1.778-0.711-1.778-1.778v0c0-1.067 0.711-1.778 1.778-1.778s1.778 0.711 1.778 1.778-0.711 1.778-1.778 1.778z"></path>
  <path d="M10.667 31.111c-1.067 0-1.778-0.711-1.778-1.778v0c0-1.067 0.711-1.778 1.778-1.778s1.778 0.711 1.778 1.778-0.711 1.778-1.778 1.778z"></path>
  <path d="M21.333 31.111c-1.067 0-1.778-0.711-1.778-1.778v0c0-1.067 0.711-1.778 1.778-1.778s1.778 0.711 1.778 1.778-0.711 1.778-1.778 1.778z"></path>
  <path d="M30.222 31.111c-1.067 0-1.778-0.711-1.778-1.778v0c0-1.067 0.711-1.778 1.778-1.778s1.778 0.711 1.778 1.778-0.711 1.778-1.778 1.778z"></path>
  <path d="M30.222 22.222c-1.067 0-1.778-0.711-1.778-1.778v0c0-1.067 0.711-1.778 1.778-1.778s1.778 0.711 1.778 1.778-0.711 1.778-1.778 1.778z"></path>
  </svg>