<svg  xmlns="http://www.w3.org/2000/svg" viewBox="0 0 32 32">
  <path d="M17.453 30.525c-0.436 0-0.726-0.145-1.017-0.436-0.581-0.581-0.581-1.453 0-2.034l12.056-12.056c0.436-0.436 0.581-0.872 0.726-1.307 0-0.581-0.291-1.162-0.726-1.598l-8.134-8.134c-0.436-0.436-0.872-0.581-1.307-0.581-0.581 0-1.162 0.29-1.598 0.726l-13.944 13.799c-0.436 0.436-0.581 0.872-0.581 1.307 0 0.581 0.291 1.162 0.726 1.598l6.246 6.246c0.581 0.581 0.581 1.453 0 2.034s-1.453 0.581-2.034 0l-6.391-6.246c-1.017-1.017-1.598-2.324-1.453-3.631 0-1.307 0.581-2.469 1.453-3.341l13.944-13.944c1.017-1.017 2.324-1.598 3.631-1.453 1.307 0 2.469 0.581 3.341 1.453l8.134 8.134c1.017 1.017 1.598 2.324 1.453 3.631 0 1.307-0.581 2.469-1.598 3.341l-12.056 12.056c-0.145 0.291-0.436 0.436-0.872 0.436z"></path>
  <path d="M30.525 30.525h-21.788c-0.872 0-1.453-0.581-1.453-1.453s0.581-1.453 1.453-1.453h21.788c0.872 0 1.453 0.581 1.453 1.453s-0.581 1.453-1.453 1.453z"></path>
  <path d="M18.905 29.073c-0.436 0-0.726-0.145-1.017-0.436l-13.073-13.073c-0.581-0.581-0.581-1.453 0-2.034s1.453-0.581 2.034 0l13.073 13.073c0.581 0.581 0.581 1.453 0 2.034-0.291 0.291-0.581 0.436-1.017 0.436z"></path>
  </svg>