<svg  xmlns="http://www.w3.org/2000/svg" viewBox="0 0 32 32">
  <path d="M27.2 32h-22.4c-2.72 0-4.8-2.080-4.8-4.8v-6.4c0-0.96 0.64-1.6 1.6-1.6s1.6 0.64 1.6 1.6v6.4c0 0.96 0.64 1.6 1.6 1.6h22.4c0.96 0 1.6-0.64 1.6-1.6v-6.4c0-0.96 0.64-1.6 1.6-1.6s1.6 0.64 1.6 1.6v6.4c0 2.72-2.080 4.8-4.8 4.8z"></path>
  <path d="M24 11.2c-0.48 0-0.8-0.16-1.12-0.48l-6.88-6.88-6.88 6.88c-0.64 0.64-1.6 0.64-2.24 0s-0.64-1.6 0-2.24l8-8c0.64-0.64 1.6-0.64 2.24 0l8 8c0.64 0.64 0.64 1.6 0 2.24-0.32 0.32-0.64 0.48-1.12 0.48z"></path>
  <path d="M16 22.4c-0.96 0-1.6-0.64-1.6-1.6v-19.2c0-0.96 0.64-1.6 1.6-1.6s1.6 0.64 1.6 1.6v19.2c0 0.96-0.64 1.6-1.6 1.6z"></path>
  </svg>