<svg  xmlns="http://www.w3.org/2000/svg" viewBox="0 0 32 32">
  <path d="M30.079 8.179h-20.336c-0.939 0-1.564-0.626-1.564-1.564s0.626-1.564 1.564-1.564h20.336c0.939 0 1.564 0.626 1.564 1.564s-0.626 1.564-1.564 1.564z"></path>
  <path d="M30.079 17.564h-20.336c-0.939 0-1.564-0.626-1.564-1.564s0.626-1.564 1.564-1.564h20.336c0.939 0 1.564 0.626 1.564 1.564s-0.626 1.564-1.564 1.564z"></path>
  <path d="M30.079 26.95h-20.336c-0.939 0-1.564-0.626-1.564-1.564s0.626-1.564 1.564-1.564h20.336c0.939 0 1.564 0.626 1.564 1.564s-0.626 1.564-1.564 1.564z"></path>
  <path d="M1.921 8.179c-0.782 0-1.564-0.626-1.564-1.564s0.626-1.564 1.564-1.564v0c0.939 0 1.564 0.626 1.564 1.564s-0.626 1.564-1.564 1.564z"></path>
  <path d="M1.921 17.564c-0.939 0-1.564-0.626-1.564-1.564s0.626-1.564 1.564-1.564v0c0.939 0 1.564 0.626 1.564 1.564s-0.626 1.564-1.564 1.564z"></path>
  <path d="M1.921 26.95c-0.939 0-1.564-0.626-1.564-1.564s0.626-1.564 1.564-1.564v0c0.939 0 1.564 0.626 1.564 1.564s-0.626 1.564-1.564 1.564z"></path>
  </svg>