<svg  xmlns="http://www.w3.org/2000/svg" viewBox="0 0 32 32">
  <path d="M30.545 23.273c-0.291 0-0.582-0.145-0.873-0.291l-8.727-5.818c-0.291-0.291-0.582-0.727-0.582-1.164s0.291-0.873 0.582-1.164l8.727-5.818c0.436-0.291 1.018-0.291 1.455 0 0.582 0.145 0.873 0.582 0.873 1.164v11.636c0 0.582-0.291 1.018-0.727 1.309-0.291 0.145-0.436 0.145-0.727 0.145zM24.436 16l4.655 3.055v-6.109l-4.655 3.055z"></path>
  <path d="M18.909 26.182h-14.545c-2.473 0-4.364-1.891-4.364-4.364v-11.636c0-2.473 1.891-4.364 4.364-4.364h14.545c2.473 0 4.364 1.891 4.364 4.364v11.636c0 2.473-1.891 4.364-4.364 4.364zM4.364 8.727c-0.873 0-1.455 0.582-1.455 1.455v11.636c0 0.873 0.582 1.455 1.455 1.455h14.545c0.873 0 1.455-0.582 1.455-1.455v-11.636c0-0.873-0.582-1.455-1.455-1.455h-14.545z"></path>
  </svg>