<svg  xmlns="http://www.w3.org/2000/svg" viewBox="0 0 32 32">
<path d="M12.089 31.644h-8.889c-1.956 0-3.556-1.6-3.556-3.556v-24.889c0-1.956 1.6-3.556 3.556-3.556h8.889c1.067 0 1.778 0.711 1.778 1.778v28.444c0 0.889-0.889 1.778-1.778 1.778zM3.2 3.2v24.889h7.111v-24.889h-7.111z"></path>
<path d="M20.978 31.644v0c-1.067 0-1.778-0.711-1.778-1.778s0.711-1.778 1.778-1.778 1.778 0.711 1.778 1.778-0.889 1.778-1.778 1.778z"></path>
<path d="M29.867 31.644v0c-1.067 0-1.778-0.711-1.778-1.778s0.711-1.778 1.778-1.778 1.778 0.711 1.778 1.778-0.889 1.778-1.778 1.778z"></path>
<path d="M29.867 22.756v0c-1.067 0-1.778-0.711-1.778-1.778s0.711-1.778 1.778-1.778 1.778 0.711 1.778 1.778-0.889 1.778-1.778 1.778z"></path>
<path d="M29.867 12.089v0c-1.067 0-1.778-0.711-1.778-1.778s0.711-1.778 1.778-1.778 1.778 0.711 1.778 1.778-0.889 1.778-1.778 1.778z"></path>
<path d="M29.867 3.2v0c-1.067 0-1.778-0.711-1.778-1.778s0.711-1.778 1.778-1.778 1.778 0.711 1.778 1.778-0.889 1.778-1.778 1.778z"></path>
<path d="M20.978 3.2v0c-1.067 0-1.778-0.711-1.778-1.778s0.711-1.778 1.778-1.778 1.778 0.711 1.778 1.778-0.889 1.778-1.778 1.778z"></path>
</svg>