<svg  xmlns="http://www.w3.org/2000/svg" viewBox="0 0 32 32">
<path d="M26.85 31.5h-21.7c-2.635 0-4.65-2.015-4.65-4.65v-21.7c0-2.635 2.015-4.65 4.65-4.65h21.7c2.635 0 4.65 2.015 4.65 4.65v21.7c0 2.635-2.015 4.65-4.65 4.65zM5.15 3.6c-0.93 0-1.55 0.62-1.55 1.55v21.7c0 0.93 0.62 1.55 1.55 1.55h21.7c0.93 0 1.55-0.62 1.55-1.55v-21.7c0-0.93-0.62-1.55-1.55-1.55h-21.7z"></path>
<path d="M29.95 12.9c-0.93 0-1.55-0.62-1.55-1.55s-0.62-1.55-1.55-1.55h-21.7c-0.93 0-1.55 0.62-1.55 1.55s-0.62 1.55-1.55 1.55-1.55-0.62-1.55-1.55c0-2.635 2.015-4.65 4.65-4.65h21.7c2.635 0 4.65 2.015 4.65 4.65 0 0.93-0.62 1.55-1.55 1.55z"></path>
<path d="M16 20.65c-2.015 0-4.030-0.775-5.425-2.325l-1.705-1.395c0 0-0.155-0.155-0.155-0.155-0.31-0.465-1.085-0.775-2.015-0.775h-4.65c-0.93 0-1.55-0.62-1.55-1.55s0.62-1.55 1.55-1.55h4.65c1.705 0 3.255 0.62 4.34 1.86l1.55 1.24c0 0 0.155 0 0.155 0.155 1.86 1.86 4.805 1.86 6.665 0l1.86-1.55c1.085-1.085 2.635-1.705 4.185-1.705h4.495c0.93 0 1.55 0.62 1.55 1.55s-0.62 1.55-1.55 1.55h-4.495c-0.775 0-1.705 0.465-2.17 0.93l-1.86 1.55c-1.395 1.395-3.255 2.17-5.425 2.17z"></path>
</svg>