<svg  xmlns="http://www.w3.org/2000/svg" viewBox="0 0 32 32">
  <path d="M19.278 17.639h-13.111c-0.983 0-1.639-0.655-1.639-1.639v-13.111c0-0.983 0.655-1.639 1.639-1.639h13.111c4.589 0 8.194 3.606 8.194 8.194s-3.605 8.194-8.194 8.194zM7.806 14.361h11.472c2.786 0 4.917-2.13 4.917-4.917s-2.131-4.917-4.917-4.917h-11.472v9.833z"></path>
  <path d="M20.917 30.75h-14.75c-0.983 0-1.639-0.655-1.639-1.639v-13.111c0-0.983 0.655-1.639 1.639-1.639h14.75c4.589 0 8.195 3.606 8.195 8.194s-3.605 8.194-8.194 8.194zM7.806 27.472h13.111c2.786 0 4.917-2.131 4.917-4.917s-2.131-4.917-4.917-4.917h-13.111v9.833z"></path>
  </svg>