<svg  xmlns="http://www.w3.org/2000/svg" viewBox="0 0 32 32">
  <path d="M27.2 32h-22.4c-2.72 0-4.8-2.080-4.8-4.8v-22.4c0-2.72 2.080-4.8 4.8-4.8h22.4c2.72 0 4.8 2.080 4.8 4.8v22.4c0 2.72-2.080 4.8-4.8 4.8zM4.8 3.2c-0.96 0-1.6 0.64-1.6 1.6v22.4c0 0.96 0.64 1.6 1.6 1.6h22.4c0.96 0 1.6-0.64 1.6-1.6v-22.4c0-0.96-0.64-1.6-1.6-1.6h-22.4z"></path>
  <path d="M12.8 24c-0.96 0-1.6-0.64-1.6-1.6v-12.8c0-0.96 0.64-1.6 1.6-1.6h3.2c2.72 0 4.8 2.080 4.8 4.8s-2.080 4.8-4.8 4.8h-1.6v4.8c0 0.96-0.64 1.6-1.6 1.6zM14.4 14.4h1.6c0.96 0 1.6-0.64 1.6-1.6s-0.64-1.6-1.6-1.6h-1.6v3.2z"></path>
  </svg>