<svg  xmlns="http://www.w3.org/2000/svg" viewBox="0 0 32 32">
  <path d="M16 21.818c-3.2 0-5.818-2.618-5.818-5.818v-10.182c0-3.2 2.618-5.818 5.818-5.818s5.818 2.618 5.818 5.818v10.182c0 3.2-2.618 5.818-5.818 5.818zM16 2.909c-1.6 0-2.909 1.309-2.909 2.909v10.182c0 1.6 1.309 2.909 2.909 2.909s2.909-1.309 2.909-2.909v-10.182c0-1.6-1.309-2.909-2.909-2.909z"></path>
  <path d="M16 27.636c-6.4 0-11.636-5.236-11.636-11.636v-2.909c0-0.873 0.582-1.455 1.455-1.455s1.455 0.582 1.455 1.455v2.909c0 4.8 3.927 8.727 8.727 8.727s8.727-3.927 8.727-8.727v-2.909c0-0.873 0.582-1.455 1.455-1.455s1.455 0.582 1.455 1.455v2.909c0 6.4-5.236 11.636-11.636 11.636z"></path>
  <path d="M16 32c-0.873 0-1.455-0.582-1.455-1.455v-4.364c0-0.873 0.582-1.455 1.455-1.455s1.455 0.582 1.455 1.455v4.364c0 0.873-0.582 1.455-1.455 1.455z"></path>
  </svg>