<svg  xmlns="http://www.w3.org/2000/svg" viewBox="0 0 32 32">
  <path d="M16 30.545c-0.873 0-1.455-0.582-1.455-1.455 0-1.6-1.309-2.909-2.909-2.909h-10.182c-0.873 0-1.455-0.582-1.455-1.455v-21.818c0-0.873 0.582-1.455 1.455-1.455h8.727c4.073 0 7.273 3.2 7.273 7.273v20.364c0 0.873-0.582 1.455-1.455 1.455zM2.909 23.273h8.727c1.018 0 2.036 0.291 2.909 0.727v-15.273c0-2.473-1.891-4.364-4.364-4.364h-7.273v18.909z"></path>
  <path d="M16 30.545c-0.873 0-1.455-0.582-1.455-1.455v-20.364c0-4.073 3.2-7.273 7.273-7.273h8.727c0.873 0 1.455 0.582 1.455 1.455v21.818c0 0.873-0.582 1.455-1.455 1.455h-10.182c-1.6 0-2.909 1.309-2.909 2.909 0 0.873-0.582 1.455-1.455 1.455zM21.818 4.364c-2.473 0-4.364 1.891-4.364 4.364v15.273c0.873-0.436 1.891-0.727 2.909-0.727h8.727v-18.909h-7.273z"></path>
  </svg>