<svg  xmlns="http://www.w3.org/2000/svg" viewBox="0 0 32 32">
<path d="M8.743 32.079h-4.974c-1.824 0-3.316-1.492-3.316-3.316v-4.974c0-1.824 1.492-3.316 3.316-3.316h4.974c1.824 0 3.316 1.492 3.316 3.316v4.974c0 1.824-1.492 3.316-3.316 3.316zM3.77 23.789v4.974h4.974v-4.974h-4.974z"></path>
<path d="M26.98 30.421h-9.947c-0.995 0-1.658-0.663-1.658-1.658s0.663-1.658 1.658-1.658h9.947c0.995 0 1.658-0.663 1.658-1.658v-19.895c0-0.995-0.663-1.658-1.658-1.658h-19.895c-0.995 0-1.658 0.663-1.658 1.658v9.947c0 0.995-0.663 1.658-1.658 1.658s-1.658-0.663-1.658-1.658v-9.947c0-2.818 2.155-4.974 4.974-4.974h19.895c2.818 0 4.974 2.155 4.974 4.974v19.895c0 2.818-2.155 4.974-4.974 4.974z"></path>
<path d="M23.664 17.158c-0.995 0-1.658-0.663-1.658-1.658v-4.974h-4.974c-0.995 0-1.658-0.663-1.658-1.658s0.663-1.658 1.658-1.658h6.632c0.995 0 1.658 0.663 1.658 1.658v6.632c0 0.995-0.663 1.658-1.658 1.658z"></path>
<path d="M15.375 18.816c-0.497 0-0.829-0.166-1.161-0.497-0.663-0.663-0.663-1.658 0-2.321l8.289-8.289c0.663-0.663 1.658-0.663 2.321 0s0.663 1.658 0 2.321l-8.289 8.289c-0.332 0.332-0.663 0.497-1.161 0.497z"></path>
</svg>