<svg  xmlns="http://www.w3.org/2000/svg" viewBox="0 0 32 32">
  <path d="M28.444 32h-24.889c-1.956 0-3.556-1.6-3.556-3.556v-8.889c0-1.067 0.711-1.778 1.778-1.778h28.444c1.067 0 1.778 0.711 1.778 1.778v8.889c0 1.956-1.6 3.556-3.556 3.556zM3.556 21.333v7.111h24.889v-7.111h-24.889z"></path>
  <path d="M1.778 12.444c-1.067 0-1.778-0.711-1.778-1.778s0.711-1.778 1.778-1.778 1.778 0.711 1.778 1.778v0c0 1.067-0.711 1.778-1.778 1.778z"></path>
  <path d="M1.778 3.556c-1.067 0-1.778-0.711-1.778-1.778s0.711-1.778 1.778-1.778 1.778 0.711 1.778 1.778v0c0 1.067-0.711 1.778-1.778 1.778z"></path>
  <path d="M10.667 3.556c-1.067 0-1.778-0.711-1.778-1.778s0.711-1.778 1.778-1.778 1.778 0.711 1.778 1.778v0c0 1.067-0.711 1.778-1.778 1.778z"></path>
  <path d="M21.333 3.556c-1.067 0-1.778-0.711-1.778-1.778s0.711-1.778 1.778-1.778 1.778 0.711 1.778 1.778v0c0 1.067-0.711 1.778-1.778 1.778z"></path>
  <path d="M30.222 3.556c-1.067 0-1.778-0.711-1.778-1.778s0.711-1.778 1.778-1.778 1.778 0.711 1.778 1.778v0c0 1.067-0.711 1.778-1.778 1.778z"></path>
  <path d="M30.222 12.444c-1.067 0-1.778-0.711-1.778-1.778s0.711-1.778 1.778-1.778 1.778 0.711 1.778 1.778v0c0 1.067-0.711 1.778-1.778 1.778z"></path>
  </svg>