<svg  xmlns="http://www.w3.org/2000/svg" viewBox="0 0 32 32">
  <path d="M18.896 31.928c-0.869 0-1.448-0.579-1.448-1.448s0.579-1.448 1.448-1.448c5.647 0 10.136-4.489 10.136-10.136 0-0.869 0.579-1.448 1.448-1.448s1.448 0.579 1.448 1.448c0 7.24-5.792 13.032-13.032 13.032z"></path>
  <path d="M24.688 16c-0.869 0-1.448-0.579-1.448-1.448v-1.448c0-0.869-0.579-1.448-1.448-1.448s-1.448 0.579-1.448 1.448c0 0.869-0.579 1.448-1.448 1.448s-1.448-0.579-1.448-1.448c0-2.462 1.882-4.344 4.344-4.344s4.344 1.882 4.344 4.344v1.448c0 0.869-0.579 1.448-1.448 1.448z"></path>
  <path d="M18.896 14.552c-0.869 0-1.448-0.579-1.448-1.448v-1.448c0-0.869-0.579-1.448-1.448-1.448s-1.448 0.579-1.448 1.448v1.448c0 0.869-0.579 1.448-1.448 1.448s-1.448-0.579-1.448-1.448v-1.448c0-2.462 1.882-4.344 4.344-4.344s4.344 1.882 4.344 4.344v1.448c0 0.869-0.579 1.448-1.448 1.448z"></path>
  <path d="M7.312 20.344c-0.869 0-1.448-0.579-1.448-1.448v-14.48c0-2.462 1.882-4.344 4.344-4.344s4.344 1.882 4.344 4.344v7.964c0 0.869-0.579 1.448-1.448 1.448s-1.448-0.579-1.448-1.448v-7.964c0-0.869-0.579-1.448-1.448-1.448s-1.448 0.579-1.448 1.448v14.48c0 0.869-0.579 1.448-1.448 1.448z"></path>
  <path d="M18.896 31.928h-2.896c-4.054 0-6.95-1.158-9.701-3.765l-5.213-5.213c-0.869-0.869-1.158-2.027-1.158-3.186s0.579-2.172 1.448-3.041c1.593-1.448 4.199-1.448 5.792 0l2.606 2.606c0.579 0.579 0.579 1.448 0 2.027s-1.448 0.579-2.027 0l-2.606-2.606c-0.434-0.434-1.303-0.434-1.882 0-0.29 0.29-0.434 0.579-0.434 1.014s0.145 0.724 0.434 1.014l5.068 5.357c2.172 2.172 4.344 2.896 7.674 2.896h2.896c5.647 0 10.136-4.489 10.136-10.136v-4.344c0-0.869-0.579-1.448-1.448-1.448s-1.448 0.579-1.448 1.448c0 0.869-0.579 1.448-1.448 1.448s-1.448-0.579-1.448-1.448c0-2.462 1.882-4.344 4.344-4.344s4.344 1.882 4.344 4.344v4.344c0 7.24-5.792 13.032-13.032 13.032z"></path>
  </svg>