<svg  xmlns="http://www.w3.org/2000/svg" viewBox="0 0 32 32">
  <path d="M16 32c-0.873 0-1.455-0.582-1.455-1.455v-7.273c0-0.873 0.582-1.455 1.455-1.455s1.455 0.582 1.455 1.455v7.273c0 0.873-0.582 1.455-1.455 1.455z"></path>
  <path d="M26.182 24.727h-20.364c-0.873 0-1.455-0.582-1.455-1.455v-2.618c0-1.6 0.873-3.2 2.473-3.927l2.618-1.309c0.436-0.145 0.727-0.727 0.727-1.164v-5.527c-2.473 0-4.364-1.891-4.364-4.364s1.891-4.364 4.364-4.364h11.636c2.473 0 4.364 1.891 4.364 4.364s-1.891 4.364-4.364 4.364v5.527c0 0.582 0.291 1.018 0.873 1.309l2.618 1.309c1.455 0.727 2.473 2.182 2.473 3.927v2.473c-0.145 0.873-0.727 1.455-1.6 1.455zM7.273 21.818h17.455v-1.164c0-0.582-0.291-1.018-0.873-1.309l-2.618-1.309c-1.455-0.727-2.473-2.182-2.473-3.927v-6.836c0-0.873 0.582-1.455 1.455-1.455h1.455c0.873 0 1.455-0.582 1.455-1.455s-0.582-1.455-1.455-1.455h-11.491c-0.873 0-1.455 0.582-1.455 1.455s0.582 1.455 1.455 1.455h1.455c0.873 0 1.455 0.582 1.455 1.455v6.982c0 1.6-0.873 3.2-2.473 3.927l-2.618 1.309c-0.436 0.145-0.727 0.727-0.727 1.164v1.164z"></path>
  </svg>