<svg  xmlns="http://www.w3.org/2000/svg" viewBox="0 0 32 32">
  <path d="M16.331 32h-0.662c-2.317 0-4.193-1.876-4.193-4.193v-0.221c0-0.552-0.331-1.103-0.883-1.434l-0.662-0.331c-0.552-0.331-1.103-0.331-1.655 0l-0.221 0.11c-1.986 1.103-4.524 0.441-5.738-1.545l-0.331-0.662c-1.214-1.986-0.441-4.634 1.545-5.738l0.221-0.11c0.552-0.331 0.883-0.883 0.883-1.434v-0.772c0-0.552-0.331-1.103-0.883-1.434l-0.331-0.221c-1.986-1.103-2.648-3.752-1.434-5.738l0.331-0.552c1.214-1.986 3.752-2.759 5.738-1.545l0.221 0.11c0.552 0.331 1.214 0.331 1.655 0l0.662-0.331c0.552-0.331 0.883-0.883 0.883-1.434v-0.331c0-2.317 1.876-4.193 4.193-4.193h0.662c2.317 0 4.193 1.876 4.193 4.193v0.221c0 0.552 0.331 1.103 0.772 1.434l0.662 0.331c0.552 0.331 1.103 0.331 1.655 0l0.221-0.11c1.986-1.103 4.524-0.441 5.738 1.545l0.441 0.662c1.214 1.986 0.441 4.634-1.545 5.738l-0.221 0.11c-0.552 0.331-0.883 0.883-0.883 1.434v0.772c0 0.552 0.331 1.103 0.883 1.434l0.221 0.11c2.097 1.214 2.759 3.752 1.545 5.848l-0.331 0.552c-1.214 1.986-3.752 2.759-5.738 1.545l-0.221-0.11c-0.552-0.331-1.214-0.331-1.655 0l-0.662 0.331c-0.552 0.331-0.883 0.883-0.883 1.434v0.221c0 2.428-1.876 4.303-4.193 4.303zM9.159 22.952c0.772 0 1.434 0.221 2.097 0.552l0.662 0.331c1.324 0.772 2.097 2.207 2.097 3.641v0.221c0 0.883 0.772 1.655 1.655 1.655h0.662c0.883 0 1.655-0.772 1.655-1.655v-0.221c0-1.545 0.772-2.869 2.097-3.641l0.662-0.331c1.324-0.772 2.979-0.772 4.193 0l0.221 0.11c0.883 0.441 1.876 0.221 2.317-0.552l0.331-0.552c0.441-0.772 0.221-1.766-0.552-2.317l-0.221-0.11c-1.324-0.772-2.207-2.207-2.207-3.752v-0.772c0-1.545 0.772-2.869 2.097-3.641l0.221-0.11c0.772-0.441 1.103-1.434 0.662-2.317l-0.331-0.552c-0.441-0.772-1.434-1.103-2.207-0.552l-0.221 0.11c-1.214 0.772-2.869 0.772-4.193 0l-0.662-0.331c-1.324-0.772-2.097-2.097-2.097-3.641v-0.331c0-0.883-0.772-1.655-1.655-1.655h-0.662c-0.883 0-1.655 0.772-1.655 1.655v0.221c0 1.545-0.772 2.869-2.097 3.641l-0.662 0.331c-1.324 0.772-2.979 0.772-4.193 0h-0.331c-0.772-0.441-1.766-0.11-2.317 0.662l-0.331 0.552c-0.441 0.772-0.221 1.766 0.552 2.207l0.331 0.221c1.324 0.662 2.097 2.097 2.097 3.531v0.772c0 1.545-0.772 2.869-2.097 3.641l-0.221 0.11c-0.772 0.441-1.103 1.434-0.662 2.317l0.331 0.552c0.441 0.772 1.434 1.103 2.207 0.552l0.221-0.11c0.772-0.331 1.434-0.441 2.207-0.441z"></path>
  <path d="M16 21.738c-3.090 0-5.738-2.538-5.738-5.738 0-3.090 2.538-5.738 5.738-5.738 3.090 0 5.738 2.538 5.738 5.738 0 3.090-2.648 5.738-5.738 5.738zM16 12.91c-1.766 0-3.090 1.434-3.090 3.090s1.434 3.090 3.090 3.090 3.090-1.434 3.090-3.090-1.324-3.090-3.090-3.090z"></path>
  </svg>