<svg  xmlns="http://www.w3.org/2000/svg" viewBox="0 0 32 32">
  <path d="M9.6 32h-1.6c-2.72 0-4.8-2.080-4.8-4.8v-8c0-0.96-0.64-1.6-1.6-1.6s-1.6-0.64-1.6-1.6 0.64-1.6 1.6-1.6c0.96 0 1.6-0.64 1.6-1.6v-8c0-2.72 2.080-4.8 4.8-4.8h1.6c0.96 0 1.6 0.64 1.6 1.6s-0.64 1.6-1.6 1.6h-1.6c-0.96 0-1.6 0.64-1.6 1.6v8c0 1.28-0.48 2.4-1.28 3.2 0.8 0.8 1.28 1.92 1.28 3.2v8c0 0.96 0.64 1.6 1.6 1.6h1.6c0.96 0 1.6 0.64 1.6 1.6s-0.64 1.6-1.6 1.6z"></path>
  <path d="M24 32h-1.6c-0.96 0-1.6-0.64-1.6-1.6s0.64-1.6 1.6-1.6h1.6c0.96 0 1.6-0.64 1.6-1.6v-8c0-1.28 0.48-2.4 1.28-3.2-0.8-0.8-1.28-1.92-1.28-3.2v-8c0-0.96-0.64-1.6-1.6-1.6h-1.6c-0.96 0-1.6-0.64-1.6-1.6s0.64-1.6 1.6-1.6h1.6c2.72 0 4.8 2.080 4.8 4.8v8c0 0.96 0.64 1.6 1.6 1.6s1.6 0.64 1.6 1.6-0.64 1.6-1.6 1.6c-0.96 0-1.6 0.64-1.6 1.6v8c0 2.72-2.080 4.8-4.8 4.8z"></path>
  </svg>