<svg  xmlns="http://www.w3.org/2000/svg" viewBox="0 0 32 32">
  <path d="M15 17.648h-13.188c-0.989 0-1.649-0.659-1.649-1.649s0.659-1.649 1.649-1.649h13.188c0.989 0 1.648 0.659 1.648 1.649s-0.659 1.649-1.649 1.649z"></path>
  <path d="M1.812 27.539c-0.989 0-1.649-0.659-1.649-1.648v-19.782c0-0.989 0.659-1.649 1.649-1.649s1.649 0.659 1.649 1.649v19.782c0 0.989-0.659 1.648-1.649 1.648z"></path>
  <path d="M15 27.539c-0.989 0-1.649-0.659-1.649-1.648v-19.782c0-0.989 0.659-1.649 1.649-1.649s1.648 0.659 1.648 1.649v19.782c0 0.989-0.659 1.648-1.649 1.648z"></path>
  <path d="M26.539 27.539c-2.802 0-4.945-2.143-4.945-4.945s2.143-4.945 4.945-4.945 4.945 2.143 4.945 4.945-2.143 4.945-4.945 4.945zM26.539 20.945c-0.989 0-1.648 0.659-1.648 1.648s0.659 1.648 1.648 1.648 1.648-0.659 1.648-1.648-0.659-1.648-1.648-1.648z"></path>
  <path d="M23.242 24.242c-0.989 0-1.648-0.659-1.648-1.648 0-4.781 1.978-7.583 5.44-11.045 0.659-0.659 1.648-0.659 2.308 0s0.659 1.649 0 2.308c-2.967 2.967-4.451 5.11-4.451 8.737 0 0.989-0.659 1.648-1.648 1.648z"></path>
  </svg>