<svg  xmlns="http://www.w3.org/2000/svg" viewBox="0 0 32 32">
  <path d="M18.182 10.182c-1.164 0-2.182-1.018-2.182-2.182s1.018-2.182 2.182-2.182 2.182 1.018 2.182 2.182-1.018 2.182-2.182 2.182zM18.182 7.273c-0.436 0-0.727 0.291-0.727 0.727s0.291 0.727 0.727 0.727 0.727-0.291 0.727-0.727-0.291-0.727-0.727-0.727z"></path>
  <path d="M24 16c-1.164 0-2.182-1.018-2.182-2.182s1.018-2.182 2.182-2.182 2.182 1.018 2.182 2.182-1.018 2.182-2.182 2.182zM24 13.091c-0.436 0-0.727 0.291-0.727 0.727s0.291 0.727 0.727 0.727 0.727-0.291 0.727-0.727-0.291-0.727-0.727-0.727z"></path>
  <path d="M10.909 11.636c-1.164 0-2.182-1.018-2.182-2.182s1.018-2.182 2.182-2.182 2.182 1.018 2.182 2.182-1.018 2.182-2.182 2.182zM10.909 8.727c-0.436 0-0.727 0.291-0.727 0.727s0.291 0.727 0.727 0.727 0.727-0.291 0.727-0.727-0.291-0.727-0.727-0.727z"></path>
  <path d="M8 18.909c-1.164 0-2.182-1.018-2.182-2.182s1.018-2.182 2.182-2.182 2.182 1.018 2.182 2.182-1.018 2.182-2.182 2.182zM8 16c-0.436 0-0.727 0.291-0.727 0.727s0.291 0.727 0.727 0.727 0.727-0.291 0.727-0.727-0.291-0.727-0.727-0.727z"></path>
  <path d="M16 32c-8.873 0-16-7.127-16-16s7.127-16 16-16c8.727 0 16 6.4 16 14.255 0 5.236-4.218 9.6-9.6 9.6h-2.909c-0.291 0-0.582 0.145-0.727 0.291s-0.291 0.436-0.291 0.727c0 0.436 0.145 0.582 0.145 0.582 0.727 0.727 1.018 1.745 1.018 2.618 0.145 2.182-1.455 3.927-3.636 3.927zM16 2.909c-7.273 0-13.091 5.818-13.091 13.091s5.818 13.091 13.091 13.091c0.582 0 0.873-0.436 0.873-1.018 0-0.291-0.145-0.436-0.291-0.727-0.582-0.582-1.018-1.6-1.018-2.618s0.436-2.036 1.018-2.764c0.727-0.727 1.6-1.164 2.764-1.164h3.055c3.636 0 6.691-2.909 6.691-6.691 0-5.964-5.964-11.2-13.091-11.2z"></path>
  </svg>