<svg  xmlns="http://www.w3.org/2000/svg" viewBox="0 0 32 32">
  <path d="M28.688 17.813h-25.375c-1.087 0-1.813-0.725-1.813-1.813s0.725-1.813 1.813-1.813h25.375c1.087 0 1.813 0.725 1.813 1.813s-0.725 1.813-1.813 1.813z"></path>
  <path d="M16 30.5c-0.544 0-0.906-0.181-1.269-0.544-0.725-0.725-0.725-1.813 0-2.537l11.419-11.419-11.419-11.419c-0.725-0.725-0.725-1.813 0-2.537s1.813-0.725 2.537 0l12.688 12.688c0.725 0.725 0.725 1.812 0 2.537l-12.688 12.688c-0.362 0.362-0.725 0.544-1.269 0.544z"></path>
  </svg>