<svg  xmlns="http://www.w3.org/2000/svg" viewBox="0 0 32 32">
  <path d="M28.621 8.848h-25.241c-0.631 0-1.262-0.631-1.262-1.262s0.631-1.262 1.262-1.262h25.241c0.631 0 1.262 0.526 1.262 1.262s-0.631 1.262-1.262 1.262z"></path>
  <path d="M23.047 31.25h-14.093c-2.104 0-3.997-1.998-3.997-3.997v-19.667c0-0.631 0.526-1.262 1.262-1.262s1.157 0.631 1.157 1.262v19.667c0 0.736 0.841 1.578 1.578 1.578h13.988c0.736 0 1.578-0.841 1.578-1.578v-19.667c0-0.631 0.526-1.262 1.262-1.262s1.262 0.526 1.262 1.262v19.667c0 1.998-1.998 3.997-3.997 3.997z"></path>
  <path d="M21.574 8.848c-0.631 0-1.262-0.526-1.262-1.262v-2.84c0-0.736-0.841-1.578-1.578-1.578h-5.574c-0.736 0-1.578 0.841-1.578 1.578v2.84c0 0.631-0.526 1.262-1.262 1.262s-1.157-0.631-1.157-1.262v-2.84c0-2.103 1.998-3.997 3.996-3.997h5.574c2.104 0 3.997 1.998 3.997 3.997v2.84c0.105 0.631-0.421 1.262-1.157 1.262z"></path>
  <path d="M13.16 24.203c-0.631 0-1.262-0.526-1.262-1.262v-8.414c0-0.631 0.526-1.262 1.262-1.262s1.262 0.526 1.262 1.262v8.414c0 0.736-0.526 1.262-1.262 1.262z"></path>
  <path d="M18.84 24.203c-0.631 0-1.262-0.526-1.262-1.262v-8.414c0-0.631 0.526-1.262 1.262-1.262s1.262 0.526 1.262 1.262v8.414c-0.105 0.736-0.631 1.262-1.262 1.262z"></path>
  </svg>