<svg  xmlns="http://www.w3.org/2000/svg" viewBox="0 0 32 32">
  <path d="M25.15 31.25c-0.915 0-1.525-0.61-1.525-1.525s0.61-1.525 1.525-1.525c1.677 0 3.050-1.372 3.050-3.050v-18.3c0-1.678-1.372-3.050-3.050-3.050-0.915 0-1.525-0.61-1.525-1.525s0.61-1.525 1.525-1.525c3.355 0 6.1 2.745 6.1 6.1v18.3c0 3.355-2.745 6.1-6.1 6.1z"></path>
  <path d="M6.85 31.25c-3.355 0-6.1-2.745-6.1-6.1v-18.3c0-3.355 2.745-6.1 6.1-6.1s6.1 2.745 6.1 6.1v18.3c0 3.355-2.745 6.1-6.1 6.1zM6.85 3.8c-1.678 0-3.050 1.373-3.050 3.050v18.3c0 1.677 1.372 3.050 3.050 3.050s3.050-1.372 3.050-3.050v-18.3c0-1.678-1.373-3.050-3.050-3.050z"></path>
  <path d="M23.625 17.525h-12.2c-0.915 0-1.525-0.61-1.525-1.525s0.61-1.525 1.525-1.525h12.2c0.915 0 1.525 0.61 1.525 1.525s-0.61 1.525-1.525 1.525z"></path>
  <path d="M19.050 22.1c-0.457 0-0.762-0.152-1.067-0.457-0.61-0.61-0.61-1.525 0-2.135l3.508-3.508-3.508-3.508c-0.61-0.61-0.61-1.525 0-2.135s1.525-0.61 2.135 0l4.575 4.575c0.61 0.61 0.61 1.525 0 2.135l-4.575 4.575c-0.305 0.305-0.61 0.457-1.067 0.457z"></path>
  </svg>