<svg  xmlns="http://www.w3.org/2000/svg" viewBox="0 0 32 32">
  <path d="M27.632 23.561c-0.436 0-0.872-0.291-1.163-0.582-0.436-0.727-0.291-1.599 0.436-2.036 1.163-0.727 1.89-1.89 2.181-3.344 0.291-1.309 0-2.763-0.872-3.78-1.018-1.309-2.617-2.181-4.217-2.181h-2.617c-0.582 0-1.163-0.436-1.454-1.018-0.727-2.181-2.181-4.071-4.217-5.234s-4.362-1.309-6.688-0.727c-4.653 1.309-7.27 6.252-5.816 10.905 0.436 1.309 1.163 2.617 2.181 3.635 0.582 0.582 0.582 1.454 0 2.036s-1.454 0.582-2.036 0c-1.309-1.309-2.326-3.053-2.908-4.798-1.745-6.252 1.745-12.65 7.851-14.54 3.053-0.872 6.107-0.582 8.869 0.872 2.472 1.309 4.217 3.344 5.234 5.816h1.599c2.617 0.145 5.089 1.454 6.543 3.635 1.163 1.745 1.745 3.926 1.309 5.961s-1.599 3.926-3.344 5.089c-0.291 0.145-0.582 0.291-0.872 0.291z"></path>
  <path d="M16 29.086c-3.199 0-5.816-2.617-5.816-5.816s2.617-5.816 5.816-5.816c3.199 0 5.816 2.617 5.816 5.816s-2.617 5.816-5.816 5.816zM16 20.362c-1.599 0-2.908 1.309-2.908 2.908s1.309 2.908 2.908 2.908c1.599 0 2.908-1.309 2.908-2.908s-1.309-2.908-2.908-2.908z"></path>
  <path d="M16 20.362c-0.872 0-1.454-0.582-1.454-1.454v-1.454c0-0.872 0.582-1.454 1.454-1.454s1.454 0.582 1.454 1.454v1.454c0 0.872-0.582 1.454-1.454 1.454z"></path>
  <path d="M16 30.54c-0.872 0-1.454-0.582-1.454-1.454v-1.454c0-0.872 0.582-1.454 1.454-1.454s1.454 0.582 1.454 1.454v1.454c0 0.872-0.582 1.454-1.454 1.454z"></path>
  <path d="M21.816 24.724h-1.454c-0.872 0-1.454-0.582-1.454-1.454s0.582-1.454 1.454-1.454h1.454c0.872 0 1.454 0.582 1.454 1.454s-0.582 1.454-1.454 1.454z"></path>
  <path d="M11.638 24.724h-1.454c-0.872 0-1.454-0.582-1.454-1.454s0.582-1.454 1.454-1.454h1.454c0.872 0 1.454 0.582 1.454 1.454s-0.582 1.454-1.454 1.454z"></path>
  <path d="M19.053 21.671c-0.436 0-0.727-0.145-1.018-0.436-0.582-0.582-0.582-1.454 0-2.036l1.309-1.309c0.582-0.582 1.454-0.582 2.036 0s0.582 1.454 0 2.036l-1.309 1.309c-0.291 0.291-0.582 0.436-1.018 0.436z"></path>
  <path d="M11.638 29.086c-0.436 0-0.727-0.145-1.018-0.436-0.582-0.582-0.582-1.454 0-2.036l1.309-1.309c0.582-0.582 1.454-0.582 2.036 0s0.582 1.454 0 2.036l-1.309 1.309c-0.291 0.291-0.582 0.436-1.018 0.436z"></path>
  <path d="M20.362 29.086c-0.436 0-0.727-0.145-1.018-0.436l-1.309-1.309c-0.582-0.582-0.582-1.454 0-2.036s1.454-0.582 2.036 0l1.309 1.309c0.582 0.582 0.582 1.454 0 2.036-0.291 0.291-0.582 0.436-1.018 0.436z"></path>
  <path d="M12.947 21.671c-0.436 0-0.727-0.145-1.018-0.436l-1.309-1.309c-0.582-0.582-0.582-1.454 0-2.036s1.454-0.582 2.036 0l1.309 1.309c0.582 0.582 0.582 1.454 0 2.036-0.291 0.291-0.727 0.436-1.018 0.436z"></path>
  </svg>