<svg  xmlns="http://www.w3.org/2000/svg" viewBox="0 0 32 32">
<path d="M16 31.927c-2.484 0-4.384-1.9-4.384-4.384v-4.237h-2.922c-2.484 0-4.384-1.9-4.384-4.384v-2.922c0-0.877 0.585-1.461 1.461-1.461h20.457c0.877 0 1.461 0.585 1.461 1.461v2.922c0 2.484-1.9 4.384-4.384 4.384h-2.922v4.237c0 2.484-1.9 4.384-4.384 4.384zM7.233 17.461v1.461c0 0.877 0.585 1.461 1.461 1.461h4.384c0.877 0 1.461 0.584 1.461 1.461v5.699c0 0.877 0.585 1.461 1.461 1.461s1.461-0.584 1.461-1.461v-5.699c0-0.877 0.584-1.461 1.461-1.461h4.384c0.877 0 1.461-0.584 1.461-1.461v-1.461h-17.534z"></path>
<path d="M24.767 17.461c-0.877 0-1.461-0.584-1.461-1.461v-13.151h-14.612v13.151c0 0.877-0.585 1.461-1.461 1.461s-1.461-0.584-1.461-1.461v-14.612c0-0.877 0.585-1.461 1.461-1.461h17.534c0.877 0 1.461 0.585 1.461 1.461v14.612c0 0.877-0.584 1.461-1.461 1.461z"></path>
<path d="M18.922 8.694c-0.877 0-1.461-0.585-1.461-1.461v-5.845c0-0.877 0.584-1.461 1.461-1.461s1.461 0.585 1.461 1.461v5.845c0 0.877-0.584 1.461-1.461 1.461z"></path>
<path d="M13.078 5.772c-0.877 0-1.461-0.585-1.461-1.461v-2.922c0-0.877 0.585-1.461 1.461-1.461s1.461 0.585 1.461 1.461v2.922c0 0.877-0.585 1.461-1.461 1.461z"></path>
</svg>