<svg  xmlns="http://www.w3.org/2000/svg" viewBox="0 0 32 32">
<path d="M16 32c-3.782 0-7.418-1.455-10.327-4.218-5.673-5.673-5.673-14.982 0-20.655 0.582-0.582 1.455-0.582 2.036 0s0.582 1.455 0 2.036c-4.509 4.509-4.509 11.927 0 16.436s11.927 4.509 16.436 0c4.509-4.509 4.509-11.927 0-16.436-0.582-0.582-0.582-1.455 0-2.036s1.455-0.582 2.036 0c5.673 5.673 5.673 14.836 0 20.509-2.764 2.909-6.4 4.364-10.182 4.364z"></path>
<path d="M16 17.455c-0.873 0-1.455-0.582-1.455-1.455v-14.545c0-0.873 0.582-1.455 1.455-1.455s1.455 0.582 1.455 1.455v14.545c0 0.873-0.582 1.455-1.455 1.455z"></path>
</svg>