<svg  xmlns="http://www.w3.org/2000/svg" viewBox="0 0 32 32">
<path d="M16 27.663c-11.080 0-15.745-10.642-15.891-11.080s-0.146-0.729 0-1.166c0.146-0.437 4.811-11.080 15.891-11.080s15.745 10.642 15.891 11.080c0.146 0.437 0.146 0.729 0 1.166s-4.811 11.080-15.891 11.080zM3.025 16c1.021 2.041 5.102 8.747 12.975 8.747s11.954-6.706 12.975-8.747c-1.020-2.041-5.102-8.747-12.975-8.747s-11.954 6.706-12.975 8.747zM1.421 16v0 0z"></path>
<path d="M16 21.831c-3.207 0-5.831-2.624-5.831-5.831s2.624-5.831 5.831-5.831c3.207 0 5.831 2.624 5.831 5.831s-2.624 5.831-5.831 5.831zM16 13.084c-1.604 0-2.916 1.312-2.916 2.916s1.312 2.916 2.916 2.916c1.604 0 2.916-1.312 2.916-2.916s-1.312-2.916-2.916-2.916z"></path>
</svg>