<svg  xmlns="http://www.w3.org/2000/svg" viewBox="0 0 32 32">
  <path d="M16.5 31.75c-2.047 0-4.095-0.315-5.985-1.26-3.938-1.575-6.93-4.567-8.505-8.505s-1.575-8.19 0-12.127c2.362-5.827 8.033-9.608 14.49-9.608 0 0 0.157 0 0.157 0h0.473c0.63 0 1.26 0.472 1.418 0.945s0.157 1.26-0.473 1.732c-4.095 3.78-4.41 10.395-0.473 14.49 2.835 3.15 7.402 4.095 11.34 2.52 0.63-0.315 1.26-0.157 1.732 0.315s0.63 1.102 0.315 1.732c-2.52 6.142-8.348 9.765-14.49 9.765zM13.665 3.715c-3.938 0.945-7.245 3.623-8.82 7.402-1.26 3.15-1.26 6.457 0 9.608s3.78 5.512 6.773 6.773c5.355 2.205 11.34 0.473 14.648-3.78-4.095 0.315-8.19-1.102-11.025-4.253-3.938-4.253-4.568-10.71-1.575-15.75z"></path>
  </svg>