<svg  xmlns="http://www.w3.org/2000/svg" viewBox="0 0 32 32">
  <path d="M8 24c-0.48 0-0.8-0.16-1.12-0.48l-6.4-6.4c-0.64-0.64-0.64-1.6 0-2.24l6.4-6.4c0.64-0.64 1.6-0.64 2.24 0s0.64 1.6 0 2.24l-5.28 5.28 5.28 5.28c0.64 0.64 0.64 1.6 0 2.24-0.32 0.32-0.64 0.48-1.12 0.48z"></path>
  <path d="M30.4 17.6h-16c-0.96 0-1.6-0.64-1.6-1.6s0.64-1.6 1.6-1.6h16c0.96 0 1.6 0.64 1.6 1.6s-0.64 1.6-1.6 1.6z"></path>
  <path d="M30.4 8h-16c-0.96 0-1.6-0.64-1.6-1.6s0.64-1.6 1.6-1.6h16c0.96 0 1.6 0.64 1.6 1.6s-0.64 1.6-1.6 1.6z"></path>
  <path d="M30.4 27.2h-16c-0.96 0-1.6-0.64-1.6-1.6s0.64-1.6 1.6-1.6h16c0.96 0 1.6 0.64 1.6 1.6s-0.64 1.6-1.6 1.6z"></path>
  </svg>