<svg  xmlns="http://www.w3.org/2000/svg" viewBox="0 0 32 32">
  <path d="M16 32.176c-0.17 0-0.341 0-0.511-0.17l-10.216-3.405c-0.681-0.17-1.022-0.681-1.192-1.362l-3.405-24.689c0-0.511 0-1.022 0.341-1.362s0.851-0.511 1.362-0.511h27.243c0.511 0 1.022 0.17 1.362 0.511 0.17 0.511 0.341 1.022 0.341 1.362l-3.405 24.689c-0.17 0.681-0.511 1.192-1.192 1.362l-10.216 3.405c-0.17 0.17-0.341 0.17-0.511 0.17zM7.316 25.705l8.684 2.895 8.684-2.895 3.065-21.624h-23.497l3.065 21.624z"></path>
  <path d="M16 24.854c-0.17 0-0.341 0-0.511 0l-4.257-1.362c-0.681-0.17-1.022-0.681-1.192-1.362l-0.17-0.851c-0.17-0.851 0.341-1.873 1.362-2.043 0.851-0.17 1.703 0.341 2.043 1.192l2.724 0.851 2.724-0.851 0.341-2.895h-8.173c-0.851 0-1.532-0.681-1.703-1.532l-0.851-6.811c0-0.511 0.17-1.022 0.341-1.362 0.341-0.17 0.851-0.341 1.362-0.341h11.919c1.022 0 1.703 0.681 1.703 1.703s-0.681 1.703-1.703 1.703h-10.046l0.341 3.405h8.854c0.511 0 1.022 0.17 1.362 0.511s0.511 0.851 0.341 1.362l-0.851 5.959c-0.17 0.681-0.511 1.192-1.192 1.362l-4.257 1.362c-0.17 0-0.341 0-0.511 0z"></path>
  </svg>