<svg  xmlns="http://www.w3.org/2000/svg" viewBox="0 0 32 32">
<path d="M24.688 31.928h-20.272c-2.462 0-4.344-1.882-4.344-4.344v-20.272c0-2.462 1.882-4.344 4.344-4.344h10.136c0.869 0 1.448 0.579 1.448 1.448s-0.579 1.448-1.448 1.448h-10.136c-0.869 0-1.448 0.579-1.448 1.448v20.272c0 0.869 0.579 1.448 1.448 1.448h20.272c0.869 0 1.448-0.579 1.448-1.448v-10.136c0-0.869 0.579-1.448 1.448-1.448s1.448 0.579 1.448 1.448v10.136c0 2.462-1.882 4.344-4.344 4.344z"></path>
<path d="M10.208 23.24c-0.434 0-0.724-0.145-1.014-0.434-0.434-0.29-0.579-0.869-0.434-1.303l1.448-5.792c0-0.29 0.145-0.434 0.434-0.724l13.756-13.756c1.738-1.738 4.633-1.738 6.371 0s1.738 4.633 0 6.371l-13.756 13.756c-0.145 0.145-0.434 0.29-0.724 0.434l-5.792 1.448c0 0-0.145 0-0.29 0zM12.959 16.724l-0.724 3.041 3.041-0.724 13.466-13.466c0.579-0.579 0.579-1.593 0-2.317-0.579-0.579-1.738-0.579-2.317 0v0l-13.466 13.466zM25.412 2.244v0 0z"></path>
</svg>