<svg  xmlns="http://www.w3.org/2000/svg" viewBox="0 0 32 32">
<path d="M27.2 32h-4.8c-0.96 0-1.6-0.64-1.6-1.6v-4.8c0-0.96 0.64-1.6 1.6-1.6h4.8c2.24 0 4 1.76 4 4 0 0.16 0 0.32 0 0.32-0.16 2.080-1.92 3.68-4 3.68zM24 28.8h3.2c0.48 0 0.8-0.32 0.8-0.8 0 0 0-0.16 0-0.16-0.16-0.32-0.48-0.64-0.8-0.64h-3.2v1.6z"></path>
<path d="M26.4 27.2h-4c-0.96 0-1.6-0.64-1.6-1.6v-4.8c0-0.96 0.64-1.6 1.6-1.6h4c0.96 0 2.080 0.32 2.88 1.12s1.12 1.76 1.12 2.88c0 2.24-1.76 4-4 4zM24 24h2.4c0.48 0 0.8-0.32 0.8-0.8 0-0.16-0.16-0.48-0.16-0.64-0.16-0.16-0.32-0.16-0.48-0.16 0 0 0 0 0 0h-2.56v1.6z"></path>
<path d="M9.6 12.8c-0.96 0-1.6-0.64-1.6-1.6v-6.4c0-0.8-0.64-1.6-1.6-1.6s-1.6 0.8-1.6 1.6v6.4c0 0.96-0.64 1.6-1.6 1.6s-1.6-0.64-1.6-1.6v-6.4c0-2.56 2.24-4.8 4.8-4.8s4.8 2.24 4.8 4.8v6.4c0 0.96-0.64 1.6-1.6 1.6z"></path>
<path d="M16 32c-8.8 0-16-7.2-16-16 0-0.96 0.64-1.6 1.6-1.6s1.6 0.64 1.6 1.6c0 7.040 5.76 12.8 12.8 12.8 0.96 0 1.6 0.64 1.6 1.6s-0.8 1.6-1.6 1.6zM30.4 17.6c-0.96 0-1.6-0.64-1.6-1.6 0-7.040-5.76-12.8-12.8-12.8-0.96 0-1.6-0.64-1.6-1.6s0.64-1.6 1.6-1.6c8.8 0 16 7.2 16 16 0 0.8-0.8 1.6-1.6 1.6z"></path>
<path d="M9.6 9.6h-6.4c-0.96 0-1.6-0.64-1.6-1.6s0.64-1.6 1.6-1.6h6.4c0.96 0 1.6 0.64 1.6 1.6s-0.64 1.6-1.6 1.6z"></path>
</svg>