<svg  xmlns="http://www.w3.org/2000/svg" viewBox="0 0 32 32">
<path d="M27.667 31h-23.333c-1.833 0-3.333-1.5-3.333-3.333v-23.333c0-1.833 1.5-3.333 3.333-3.333h23.333c1.833 0 3.333 1.5 3.333 3.333v23.333c0 1.833-1.5 3.333-3.333 3.333zM4.333 4.333v23.333h23.333v-23.333h-23.333z"></path>
<path d="M29.333 11h-26.667c-1 0-1.667-0.667-1.667-1.667s0.667-1.667 1.667-1.667h26.667c1 0 1.667 0.667 1.667 1.667s-0.667 1.667-1.667 1.667z"></path>
<path d="M9.333 11c-1 0-1.667-0.667-1.667-1.667v-6.667c0-1 0.667-1.667 1.667-1.667s1.667 0.667 1.667 1.667v6.667c0 1-0.667 1.667-1.667 1.667z"></path>
<path d="M19.333 21h-6.667c-1 0-1.667-0.667-1.667-1.667s0.667-1.667 1.667-1.667h6.667c1 0 1.667 0.667 1.667 1.667s-0.667 1.667-1.667 1.667z"></path>
<path d="M16 24.333c-1 0-1.667-0.667-1.667-1.667v-6.667c0-1 0.667-1.667 1.667-1.667s1.667 0.667 1.667 1.667v6.667c0 1-0.667 1.667-1.667 1.667z"></path>
</svg>