<svg  xmlns="http://www.w3.org/2000/svg" viewBox="0 0 32 32">
  <path d="M28.687 17.813h-25.375c-1.087 0-1.813-0.725-1.813-1.813s0.725-1.813 1.813-1.813h25.375c1.087 0 1.813 0.725 1.813 1.813s-0.725 1.813-1.813 1.813z"></path>
  <path d="M16 30.5c-0.544 0-0.906-0.181-1.269-0.544l-12.687-12.687c-0.725-0.725-0.725-1.813 0-2.537l12.687-12.687c0.725-0.725 1.813-0.725 2.537 0s0.725 1.813 0 2.537l-11.419 11.419 11.419 11.419c0.725 0.725 0.725 1.813 0 2.537-0.362 0.362-0.725 0.544-1.269 0.544z"></path>
  </svg>